<?xml version="1.0" encoding="UTF-8"?>
<svg width="931px" height="353px" viewBox="0 0 931 353" version="1.1" xmlns="http://www.w3.org/2000/svg" xmlns:xlink="http://www.w3.org/1999/xlink">
    <!-- Generator: Sketch 42 (36781) - http://www.bohemiancoding.com/sketch -->
    <title>Group</title>
    <desc>Created with Sketch.</desc>
    <defs>
        <ellipse id="path-1" cx="176.297647" cy="176.297647" rx="176.297647" ry="176.297647"></ellipse>
    </defs>
    <g id="Page-1" stroke="none" stroke-width="1" fill="none" fill-rule="evenodd">
        <g id="Logo-with-phrase" transform="translate(-252.000000, -179.000000)">
            <g id="Group" transform="translate(252.000000, 179.000000)">
                <path d="M437.896484,251 L429.994141,226.861328 C429.485023,225.223299 428.832035,222.82163 428.035156,219.65625 L427.835938,219.65625 L427.138672,222.113281 L425.644531,226.927734 L417.609375,251 L414.355469,251 L404.029297,214.908203 L407.548828,214.908203 L413.326172,235.826172 C414.676439,241.005885 415.561847,244.813139 415.982422,247.248047 L416.181641,247.248047 C417.487637,242.068333 418.43945,238.626311 419.037109,236.921875 L426.474609,214.908203 L429.462891,214.908203 L436.535156,236.855469 C438.128914,242.057318 439.102863,245.499341 439.457031,247.181641 L439.65625,247.181641 C439.833334,245.742831 440.718742,241.891307 442.3125,235.626953 L447.824219,214.908203 L451.144531,214.908203 L441.349609,251 L437.896484,251 Z M462.735689,251 L459.44858,251 L459.44858,214.908203 L462.735689,214.908203 L462.735689,251 Z M458.983736,204.880859 C458.983736,202.755849 459.680994,201.693359 461.075533,201.693359 C461.761734,201.693359 462.298513,201.970049 462.685884,202.523438 C463.073256,203.076826 463.266939,203.862625 463.266939,204.880859 C463.266939,205.876958 463.073256,206.662758 462.685884,207.238281 C462.298513,207.813805 461.761734,208.101562 461.075533,208.101562 C459.680994,208.101562 458.983736,207.028006 458.983736,204.880859 L458.983736,204.880859 Z M479.340518,251 L476.053409,251 L476.053409,199.335938 L479.340518,199.335938 L479.340518,251 Z M505.873082,214.210938 C508.485075,214.210938 510.742865,214.686844 512.64652,215.638672 C514.550175,216.5905 516.254585,218.217436 517.759801,220.519531 L517.95902,220.519531 C517.826207,217.730455 517.759801,214.996758 517.759801,212.318359 L517.759801,199.335938 L521.013707,199.335938 L521.013707,251 L518.855504,251 L518.025426,245.488281 L517.759801,245.488281 C515.014996,249.605489 511.074931,251.664062 505.939489,251.664062 C500.958995,251.664062 497.151741,250.114599 494.517614,247.015625 C491.883486,243.916651 490.566442,239.401071 490.566442,233.46875 C490.566442,227.226531 491.872418,222.456397 494.484411,219.158203 C497.096403,215.86001 500.892589,214.210938 505.873082,214.210938 L505.873082,214.210938 Z M505.873082,217.199219 C501.932959,217.199219 498.972376,218.582668 496.991246,221.349609 C495.010117,224.11655 494.019567,228.134088 494.019567,233.402344 C494.019567,243.628957 497.992834,248.742188 505.939489,248.742188 C510.012426,248.742188 513.000677,247.557955 514.904332,245.189453 C516.807988,242.820952 517.759801,238.91409 517.759801,233.46875 L517.759801,232.904297 C517.759801,227.326144 516.824589,223.31414 514.954137,220.868164 C513.083685,218.422188 510.056697,217.199219 505.873082,217.199219 L505.873082,217.199219 Z M556.547585,251 L553.260476,251 L553.260476,214.908203 L556.547585,214.908203 L556.547585,251 Z M552.795632,204.880859 C552.795632,202.755849 553.492891,201.693359 554.887429,201.693359 C555.57363,201.693359 556.110409,201.970049 556.497781,202.523438 C556.885152,203.076826 557.078835,203.862625 557.078835,204.880859 C557.078835,205.876958 556.885152,206.662758 556.497781,207.238281 C556.110409,207.813805 555.57363,208.101562 554.887429,208.101562 C553.492891,208.101562 552.795632,207.028006 552.795632,204.880859 L552.795632,204.880859 Z M583.080149,214.210938 C585.692141,214.210938 587.949931,214.686844 589.853587,215.638672 C591.757242,216.5905 593.461652,218.217436 594.966868,220.519531 L595.166087,220.519531 C595.033274,217.730455 594.966868,214.996758 594.966868,212.318359 L594.966868,199.335938 L598.220774,199.335938 L598.220774,251 L596.062571,251 L595.232493,245.488281 L594.966868,245.488281 C592.222063,249.605489 588.281998,251.664062 583.146555,251.664062 C578.166062,251.664062 574.358808,250.114599 571.72468,247.015625 C569.090553,243.916651 567.773509,239.401071 567.773509,233.46875 C567.773509,227.226531 569.079485,222.456397 571.691477,219.158203 C574.30347,215.86001 578.099656,214.210938 583.080149,214.210938 L583.080149,214.210938 Z M583.080149,217.199219 C579.140025,217.199219 576.179443,218.582668 574.198313,221.349609 C572.217184,224.11655 571.226634,228.134088 571.226634,233.402344 C571.226634,243.628957 575.199901,248.742188 583.146555,248.742188 C587.219492,248.742188 590.207744,247.557955 592.111399,245.189453 C594.015055,242.820952 594.966868,238.91409 594.966868,233.46875 L594.966868,232.904297 C594.966868,227.326144 594.031656,223.31414 592.161204,220.868164 C590.290752,218.422188 587.263764,217.199219 583.080149,217.199219 L583.080149,217.199219 Z M626.147869,251.664062 C620.901749,251.664062 616.812272,250.048193 613.879315,246.816406 C610.946357,243.584619 609.479901,239.057972 609.479901,233.236328 C609.479901,227.481091 610.896553,222.871437 613.729901,219.407227 C616.563248,215.943017 620.381569,214.210938 625.184979,214.210938 C629.435,214.210938 632.788482,215.693996 635.245526,218.660156 C637.702569,221.626317 638.931072,225.654922 638.931072,230.746094 L638.931072,233.402344 L612.933026,233.402344 C612.977297,238.360702 614.133861,242.14582 616.402752,244.757812 C618.671644,247.369805 621.919984,248.675781 626.147869,248.675781 C628.206473,248.675781 630.016026,248.531902 631.57658,248.244141 C633.137135,247.956379 635.112701,247.336593 637.503338,246.384766 L637.503338,249.373047 C635.46687,250.258468 633.585378,250.861652 631.858807,251.182617 C630.132236,251.503582 628.228609,251.664062 626.147869,251.664062 L626.147869,251.664062 Z M625.184979,217.132812 C621.709701,217.132812 618.920666,218.278309 616.817791,220.569336 C614.714916,222.860363 613.486413,226.164041 613.132244,230.480469 L635.444744,230.480469 C635.444744,226.296854 634.537201,223.026379 632.722088,220.668945 C630.906975,218.311512 628.39463,217.132812 625.184979,217.132812 L625.184979,217.132812 Z M672.037855,251 L671.207777,245.289062 L670.942152,245.289062 C669.127039,247.613293 667.262149,249.256831 665.347425,250.219727 C663.432702,251.182622 661.169379,251.664062 658.557386,251.664062 C655.015702,251.664062 652.25987,250.756519 650.289808,248.941406 C648.319746,247.126293 647.33473,244.613948 647.33473,241.404297 C647.33473,237.884748 648.801187,235.151051 651.734144,233.203125 C654.667102,231.255199 658.911525,230.225912 664.467543,230.115234 L671.34059,229.916016 L671.34059,227.525391 C671.34059,224.094384 670.643331,221.504566 669.248793,219.755859 C667.854254,218.007153 665.607532,217.132812 662.508558,217.132812 C659.166094,217.132812 655.701936,218.062491 652.11598,219.921875 L650.887465,217.066406 C654.849724,215.207022 658.767653,214.277344 662.641371,214.277344 C666.60363,214.277344 669.564213,215.30663 671.523207,217.365234 C673.482201,219.423838 674.461683,222.633442 674.461683,226.994141 L674.461683,251 L672.037855,251 Z M658.756605,248.675781 C662.608187,248.675781 665.646242,247.574555 667.870863,245.37207 C670.095483,243.169585 671.207777,240.109395 671.207777,236.191406 L671.207777,232.638672 L664.899183,232.904297 C659.830148,233.147788 656.216577,233.939121 654.058363,235.27832 C651.900149,236.61752 650.821058,238.703762 650.821058,241.537109 C650.821058,243.794933 651.512783,245.549147 652.896254,246.799805 C654.279724,248.050462 656.233155,248.675781 658.756605,248.675781 L658.756605,248.675781 Z M709.759872,241.603516 C709.759872,244.835303 708.531369,247.319978 706.074325,249.057617 C703.617282,250.795256 700.130989,251.664062 695.615341,251.664062 C690.789796,251.664062 686.960407,250.922533 684.12706,249.439453 L684.12706,245.886719 C687.757286,247.701832 691.586675,248.609375 695.615341,248.609375 C699.179161,248.609375 701.885188,248.017259 703.733505,246.833008 C705.581822,245.648757 706.505966,244.071624 706.505966,242.101562 C706.505966,240.286449 705.769971,238.759121 704.297958,237.519531 C702.825946,236.279942 700.407675,235.062506 697.043075,233.867188 C693.434984,232.561191 690.900505,231.43783 689.43956,230.49707 C687.978615,229.55631 686.877389,228.493821 686.135849,227.30957 C685.394309,226.12532 685.023544,224.680998 685.023544,222.976562 C685.023544,220.276028 686.157973,218.139982 688.426864,216.568359 C690.695756,214.996737 693.866623,214.210938 697.93956,214.210938 C701.835413,214.210938 705.53199,214.941399 709.029403,216.402344 L707.800888,219.390625 C704.259203,217.92968 700.972127,217.199219 697.93956,217.199219 C694.995535,217.199219 692.660271,217.686193 690.9337,218.660156 C689.207129,219.634119 688.343857,220.984366 688.343857,222.710938 C688.343857,224.592457 689.013446,226.097651 690.352646,227.226562 C691.691845,228.355474 694.309332,229.617181 698.205185,231.011719 C701.459107,232.184902 703.827573,233.241857 705.310653,234.182617 C706.793734,235.123377 707.906027,236.1914 708.647568,237.386719 C709.389108,238.582037 709.759872,239.987622 709.759872,241.603516 L709.759872,241.603516 Z M748.713672,248.742188 C750.794411,248.742188 752.609498,248.565106 754.158984,248.210938 L754.158984,250.867188 C752.565226,251.39844 750.728005,251.664062 748.647266,251.664062 C745.45975,251.664062 743.107885,250.811857 741.591602,249.107422 C740.075318,247.402986 739.317188,244.724628 739.317188,241.072266 L739.317188,217.763672 L733.971484,217.763672 L733.971484,215.837891 L739.317188,214.34375 L740.977344,206.175781 L742.670703,206.175781 L742.670703,214.908203 L753.2625,214.908203 L753.2625,217.763672 L742.670703,217.763672 L742.670703,240.607422 C742.670703,243.374363 743.157677,245.421868 744.131641,246.75 C745.105604,248.078132 746.632932,248.742188 748.713672,248.742188 L748.713672,248.742188 Z M785.107564,251 L784.277486,245.289062 L784.011861,245.289062 C782.196748,247.613293 780.331857,249.256831 778.417134,250.219727 C776.502411,251.182622 774.239087,251.664062 771.627095,251.664062 C768.085411,251.664062 765.329579,250.756519 763.359517,248.941406 C761.389455,247.126293 760.404439,244.613948 760.404439,241.404297 C760.404439,237.884748 761.870896,235.151051 764.803853,233.203125 C767.73681,231.255199 771.981234,230.225912 777.537251,230.115234 L784.410298,229.916016 L784.410298,227.525391 C784.410298,224.094384 783.71304,221.504566 782.318501,219.755859 C780.923963,218.007153 778.677241,217.132812 775.578267,217.132812 C772.235802,217.132812 768.771644,218.062491 765.185689,219.921875 L763.957173,217.066406 C767.919433,215.207022 771.837362,214.277344 775.71108,214.277344 C779.673339,214.277344 782.633921,215.30663 784.592916,217.365234 C786.55191,219.423838 787.531392,222.633442 787.531392,226.994141 L787.531392,251 L785.107564,251 Z M771.826314,248.675781 C775.677896,248.675781 778.715951,247.574555 780.940572,245.37207 C783.165192,243.169585 784.277486,240.109395 784.277486,236.191406 L784.277486,232.638672 L777.968892,232.904297 C772.899856,233.147788 769.286286,233.939121 767.128072,235.27832 C764.969858,236.61752 763.890767,238.703762 763.890767,241.537109 C763.890767,243.794933 764.582492,245.549147 765.965962,246.799805 C767.349433,248.050462 769.302864,248.675781 771.826314,248.675781 L771.826314,248.675781 Z M845.540519,251 L845.540519,227.326172 C845.540519,223.806623 844.854327,221.23894 843.481925,219.623047 C842.109522,218.007153 840.006679,217.199219 837.173331,217.199219 C833.476698,217.199219 830.743001,218.217438 828.972159,220.253906 C827.201317,222.290375 826.315909,225.48891 826.315909,229.849609 L826.315909,251 L822.962394,251 L822.962394,226.330078 C822.962394,220.242808 820.173359,217.199219 814.595206,217.199219 C810.810031,217.199219 808.054199,218.300445 806.327628,220.50293 C804.601057,222.705415 803.737784,226.230445 803.737784,231.078125 L803.737784,251 L800.450675,251 L800.450675,214.908203 L803.173331,214.908203 L803.870597,219.855469 L804.069815,219.855469 C805.065914,218.062491 806.482567,216.673508 808.319815,215.688477 C810.157064,214.703446 812.182435,214.210938 814.395987,214.210938 C820.084818,214.210938 823.737125,216.346984 825.353019,220.619141 L825.485831,220.619141 C826.659014,218.560537 828.236147,216.97787 830.217276,215.871094 C832.198406,214.764317 834.450662,214.210938 836.974112,214.210938 C840.914236,214.210938 843.869285,215.262359 845.839347,217.365234 C847.809409,219.468109 848.794425,222.810524 848.794425,227.392578 L848.794425,251 L845.540519,251 Z M876.289879,251.664062 C871.043759,251.664062 866.954282,250.048193 864.021325,246.816406 C861.088367,243.584619 859.621911,239.057972 859.621911,233.236328 C859.621911,227.481091 861.038563,222.871437 863.871911,219.407227 C866.705258,215.943017 870.523579,214.210938 875.326989,214.210938 C879.57701,214.210938 882.930492,215.693996 885.387536,218.660156 C887.844579,221.626317 889.073082,225.654922 889.073082,230.746094 L889.073082,233.402344 L863.075036,233.402344 C863.119307,238.360702 864.275871,242.14582 866.544762,244.757812 C868.813654,247.369805 872.061994,248.675781 876.289879,248.675781 C878.348483,248.675781 880.158036,248.531902 881.71859,248.244141 C883.279145,247.956379 885.254711,247.336593 887.645348,246.384766 L887.645348,249.373047 C885.60888,250.258468 883.727388,250.861652 882.000817,251.182617 C880.274246,251.503582 878.370619,251.664062 876.289879,251.664062 L876.289879,251.664062 Z M875.326989,217.132812 C871.851711,217.132812 869.062676,218.278309 866.959801,220.569336 C864.856926,222.860363 863.628423,226.164041 863.274254,230.480469 L885.586754,230.480469 C885.586754,226.296854 884.679211,223.026379 882.864098,220.668945 C881.048985,218.311512 878.53664,217.132812 875.326989,217.132812 L875.326989,217.132812 Z M913.480646,214.210938 C916.092639,214.210938 918.350429,214.686844 920.254084,215.638672 C922.157739,216.5905 923.862149,218.217436 925.367365,220.519531 L925.566584,220.519531 C925.433771,217.730455 925.367365,214.996758 925.367365,212.318359 L925.367365,199.335938 L928.621271,199.335938 L928.621271,251 L926.463068,251 L925.63299,245.488281 L925.367365,245.488281 C922.62256,249.605489 918.682495,251.664062 913.547053,251.664062 C908.566559,251.664062 904.759305,250.114599 902.125178,247.015625 C899.49105,243.916651 898.174006,239.401071 898.174006,233.46875 C898.174006,227.226531 899.479982,222.456397 902.091974,219.158203 C904.703967,215.86001 908.500153,214.210938 913.480646,214.210938 L913.480646,214.210938 Z M913.480646,217.199219 C909.540523,217.199219 906.57994,218.582668 904.59881,221.349609 C902.617681,224.11655 901.627131,228.134088 901.627131,233.402344 C901.627131,243.628957 905.600398,248.742188 913.547053,248.742188 C917.61999,248.742188 920.608241,247.557955 922.511896,245.189453 C924.415552,242.820952 925.367365,238.91409 925.367365,233.46875 L925.367365,232.904297 C925.367365,227.326144 924.432153,223.31414 922.561701,220.868164 C920.691249,218.422188 917.664261,217.199219 913.480646,217.199219 L913.480646,217.199219 Z" id="wild-ideas-tamed" fill="#2B2B2B"></path>
                <g id="Logo">
                    <g id="Combined-Shape">
                        <mask id="mask-2" fill="white">
                            <use xlink:href="#path-1"></use>
                        </mask>
                        <use id="Mask" fill="#00C9FF" xlink:href="#path-1"></use>
                        <path d="M27.5154668,273.404102 C59.0640468,321.120407 113.197449,352.595293 174.682205,352.595293 C189.43298,352.595293 203.760636,350.783707 217.454824,347.370885 C199.627746,340.707137 178.679365,325.965737 174.970254,321.014761 C171.614841,316.535906 167.855334,311.962985 165.873475,308.538786 C154.22636,288.406602 152.056271,262.235812 155.174747,255.840389 C157.543878,250.981736 168.47359,243.066225 170.757087,241.477106 C176.110325,237.751709 176.370141,237.508705 181.118998,236.138362 C185.867855,234.76802 187.791002,236.342993 199.69508,234.179232 C219.377376,230.600561 260.4969,215.974537 274.909988,202.607827 C279.841389,198.0322 284.703497,193.373012 289.380821,188.543824 C298.637304,178.980532 297.929931,172.206414 285.991205,165.927892 C271.780223,158.450718 250.341036,154.561045 235.962595,147.386415 C228.712742,143.767405 227.75563,137.811412 221.562506,132.734425 C194.08467,110.204935 161.961268,101.759617 127.325971,100.004858 C123.745797,99.8233317 114.100952,66.1972178 111.049142,64.358899 C100.187356,57.8152909 84.9478521,67.6978972 81.9270508,80.2837401 C80.8661665,84.7038002 85.7410933,110.815787 81.9270529,113.763436 C56.8398487,133.14358 41.8810727,159.31225 31.5101167,188.445857 C22.1595091,214.704012 24.6438886,244.725077 27.5154713,273.404109 Z" fill="#3F9EC3" mask="url(#mask-2)"></path>
                        <path d="M153.061322,351.540594 C100.641916,345.804341 55.1319777,317.0881 26.8208527,275.681217 C26.8705807,264.43149 28.1153449,253.406404 31.7687043,243.147127 C39.5477783,221.294514 50.7680962,201.66585 69.5855721,187.12914 C72.4464175,184.91816 68.7898197,165.332013 69.5855706,162.016602 C71.8514211,152.57618 83.2823078,145.163409 91.4295451,150.071656 C93.7186545,151.450547 100.953085,176.67291 103.638512,176.80907 C129.617846,178.125285 153.713052,184.45997 174.323699,201.358949 C178.969054,205.167109 179.686967,209.634596 185.124955,212.349153 C195.909974,217.730718 211.991136,220.648294 222.650546,226.256793 C231.605577,230.966203 232.136166,236.047351 225.193039,243.22061 C221.684659,246.8429 218.037677,250.337676 214.338719,253.769774 C203.527712,263.795911 172.684671,274.766638 157.921323,277.450936 C148.992281,279.073936 147.549762,277.892576 143.987727,278.920446 C140.425692,279.948316 140.230808,280.13059 136.215437,282.924945 C134.502626,284.116915 126.304438,290.054203 124.527395,293.698594 C122.18828,298.49569 123.816026,318.125945 132.552325,333.226746 C134.038882,335.795178 136.858823,339.225247 139.375661,342.584758 C142.766255,347.110573 149.314428,350.232417 153.061322,351.540594 Z" fill="#FFFFFF" mask="url(#mask-2)"></path>
                    </g>
                </g>
                <path d="M450.078076,169.421897 L425.306041,169.421897 C418.80475,169.421897 413.461816,167.591102 409.277077,163.929455 C405.092338,160.267809 403,155.036964 403,148.236763 L403,104.409316 C403,97.6091151 405.092338,92.37827 409.277077,88.7166236 C413.461816,85.0549771 418.80475,83.2241813 425.306041,83.2241813 L450.078076,83.2241813 L450.078076,91.2947087 L425.306041,91.2947087 C420.822392,91.2947087 417.683885,92.191425 415.890426,93.9848845 C413.050781,96.9739837 411.630981,99.963038 411.630981,102.952137 L411.630981,121.559186 L440.43828,121.559186 L440.43828,129.741804 L411.630981,129.741804 L411.630981,149.693942 C411.630981,152.683041 413.050781,155.672095 415.890426,158.661194 C417.683885,160.454654 420.822392,161.35137 425.306041,161.35137 L450.078076,161.35137 L450.078076,169.421897 Z M481.700471,112.816115 C477.739915,112.96557 474.526681,114.049102 472.060675,116.066744 C469.594668,118.084386 467.913325,119.840455 467.016595,121.335005 C465.596773,123.801012 464.886873,127.088972 464.886873,131.198983 L464.886873,169.421897 L455.91962,169.421897 L455.91962,105.530222 L463.878057,105.530222 L463.878057,114.609566 C465.671516,111.172102 468.324302,108.519316 471.836493,106.651129 C475.049775,104.932397 478.337735,104.14777 481.700471,104.297225 L481.700471,112.816115 Z M577.774994,169.421897 L568.919833,169.421897 L568.919833,130.190167 C568.919833,125.258153 567.500032,121.036114 564.660387,117.523923 C561.820743,114.011731 558.084425,112.255662 553.451322,112.255662 C548.743491,112.255662 544.689586,113.787552 541.289485,116.851379 C537.889385,119.915205 536.18936,123.72625 536.18936,128.284626 L536.18936,169.421897 L527.222108,169.421897 L527.222108,128.284626 C527.222108,123.72625 525.522083,119.915205 522.121983,116.851379 C518.721882,113.787552 514.667978,112.255662 509.960146,112.255662 C505.327043,112.255662 501.628088,113.99305 498.863171,117.467877 C496.098254,120.942705 494.715817,125.183426 494.715817,130.190167 L494.715817,169.421897 L485.860655,169.421897 L485.860655,131.198983 C485.860655,123.203143 488.139809,116.776676 492.698185,111.91939 C496.957651,107.361014 502.562128,104.782954 509.511784,104.185134 C518.777991,103.43786 526.175901,107.398357 531.705734,116.066744 C537.235567,107.398357 544.633477,103.43786 553.899684,104.185134 C560.84934,104.782954 566.49118,107.361014 570.825374,111.91939 C575.458477,116.776676 577.774994,123.203143 577.774994,131.198983 L577.774994,169.421897 Z M597.403689,97.9080575 L588.99689,97.9080575 L588.99689,83 L597.403689,83 L597.403689,97.9080575 Z M597.403689,169.421897 L588.99689,169.421897 L588.99689,105.530222 L597.403689,105.530222 L597.403689,169.421897 Z M665.231366,169.421897 L656.600386,169.421897 L656.600386,132.095708 C656.600386,126.71533 654.638819,122.082296 650.715626,118.196467 C646.792433,114.310638 642.215444,112.367752 636.98452,112.367752 C631.678869,112.367752 627.064517,114.310638 623.141324,118.196467 C619.218132,122.082296 617.256565,126.71533 617.256565,132.095708 L617.256565,169.421897 L608.625584,169.421897 L608.625584,132.992434 C608.625584,124.697683 611.315733,117.804177 616.696111,112.311707 C622.07649,106.819237 628.839225,104.073044 636.98452,104.073044 C645.055088,104.073044 651.78046,106.819237 657.160839,112.311707 C662.541217,117.804177 665.231366,124.697683 665.231366,132.992434 L665.231366,169.421897 Z M742.362568,140.390417 L684.972151,140.390417 C685.644699,146.81698 688.372211,152.122552 693.154769,156.30729 C697.937328,160.492029 703.579168,162.547004 710.080459,162.472277 C720.168669,162.322822 727.379762,157.652424 731.713956,148.460944 L740.793299,148.460944 C738.40202,155.335872 734.366796,160.790897 728.687508,164.82618 C723.00822,168.861464 716.693842,170.916439 709.744187,170.991167 C701.001072,171.140622 693.266894,167.94607 686.541421,161.407415 C679.815948,154.868761 676.378535,147.078538 676.22908,138.036513 C676.004898,128.471396 679.386265,120.232815 686.373285,113.320523 C693.360304,106.408231 701.598885,103.213679 711.089275,103.736772 C719.608207,104.259864 727.006117,107.772003 733.283225,114.273294 C739.336151,120.699857 742.362568,127.873587 742.362568,135.7947 L742.362568,140.390417 Z M733.955769,132.544071 C732.760129,126.565873 729.957891,121.727341 725.54897,118.028331 C721.140048,114.32932 715.87184,112.44248 709.744187,112.367752 C703.616534,112.293025 698.254917,114.123821 693.659177,117.860195 C689.063437,121.596569 686.167791,126.491145 684.972151,132.544071 L733.955769,132.544071 Z M789.117202,150.366486 C789.565567,156.120501 787.547955,161.108486 783.064307,165.330588 C778.580658,169.552691 773.424539,171.476895 767.595796,171.103257 C762.215417,170.72962 757.713154,168.562555 754.088871,164.601999 C750.464589,160.641443 748.652474,155.933682 748.652474,150.478576 L757.507636,150.478576 L757.507636,152.608299 C757.507636,154.775396 758.703258,157.017186 761.094538,159.333738 C763.485817,161.65029 766.026513,162.771185 768.716702,162.696458 C772.303621,162.62173 775.143223,161.538198 777.235592,159.445829 C779.103779,157.502914 780.075222,154.962218 780.149949,151.823664 C780.224677,146.368558 777.123533,142.63224 770.846425,140.614598 L763.336351,138.260694 C755.489965,135.794688 751.380016,130.451753 751.006378,122.23173 C750.782196,117.299717 752.444857,113.077677 755.994413,109.565486 C759.543968,106.053294 763.822052,104.185136 768.828793,103.960953 C773.162987,103.736771 777.216892,105.13789 780.990629,108.164353 C784.764367,111.190816 786.80066,114.945815 787.09957,119.429464 L787.211661,121.335005 L778.244408,121.335005 L778.244408,119.877827 C778.244408,117.636002 777.291647,115.823888 775.386096,114.44143 C773.480546,113.058971 771.2948,112.367752 768.828793,112.367752 C766.437514,112.44248 764.363857,113.301833 762.607761,114.945838 C760.851666,116.589842 759.936268,118.644817 759.86154,121.110824 C759.56263,125.6692 762.290142,128.919797 768.044158,130.862711 L775.442142,133.328705 C783.961074,136.243077 788.519382,141.92228 789.117202,150.366486 L789.117202,150.366486 Z M862.437322,137.47606 C862.437322,146.66754 859.093317,154.607215 852.405208,161.295325 C845.717098,167.983434 837.777423,171.177986 828.585943,170.879076 C819.693373,170.654894 812.164692,167.292207 805.999675,160.790917 C799.834658,154.289626 796.752196,146.555448 796.752196,137.58815 C796.752196,128.247216 800.077519,120.232814 806.728265,113.544704 C813.37901,106.856595 821.300004,103.662043 830.491484,103.960953 C839.384054,104.259863 846.931416,107.678594 853.133797,114.217248 C859.336178,120.755903 862.437322,128.508762 862.437322,137.47606 L862.437322,137.47606 Z M853.918432,136.803516 C853.694249,130.078043 851.284324,124.324113 846.688584,119.541555 C842.092844,114.758996 836.544412,112.367752 830.043122,112.367752 C823.242921,112.293025 817.451628,114.665587 812.66907,119.485509 C807.886511,124.305432 805.457904,130.115406 805.383177,136.915607 C805.233722,143.64108 807.438149,149.52578 811.996526,154.569885 C816.554902,159.61399 822.122015,162.248094 828.698034,162.472277 C835.722417,162.845914 841.719207,160.417307 846.688584,155.186384 C851.657962,149.95546 854.067887,143.827899 853.918432,136.803516 L853.918432,136.803516 Z M897.758708,113.376568 L881.729744,113.376568 L881.729744,169.421897 L873.098763,169.421897 L873.098763,104.297225 C873.098763,97.4970244 875.191102,92.2474978 879.37584,88.5484876 C883.560579,84.8494774 888.940877,83 895.516895,83 L897.758708,83 L897.758708,90.6221648 L895.516895,90.7342554 C891.033246,90.9584378 887.857376,92.0046069 885.989189,93.8727938 C883.149545,96.861893 881.729744,99.8509473 881.729744,102.840046 L881.729744,105.530222 L897.758708,105.530222 L897.758708,113.376568 Z M930.165738,170.766985 C914.622422,170.766985 906.850881,164.153703 906.850881,150.926939 L906.850881,83.1120907 L915.481862,83.1120907 L915.481862,105.418132 L930.165738,105.418132 L930.165738,113.376568 L915.481862,113.376568 L915.481862,149.46976 C915.481862,158.96015 920.376438,163.705274 930.165738,163.705274 L930.165738,170.766985 Z" id="Erminesoft" fill="#00C9FF"></path>
            </g>
        </g>
    </g>
</svg>