<svg id="Layer_1" data-name="Layer 1" xmlns="http://www.w3.org/2000/svg" viewBox="0 0 800 783"><defs><style>.cls-1{font-size:134.2px;font-family:MavenProBold, Maven Pro;font-weight:700;letter-spacing:-0.06em;}.cls-1,.cls-13{fill:#1d3908;}.cls-2{letter-spacing:-0.08em;}.cls-3{letter-spacing:-0.09em;}.cls-4{letter-spacing:-0.08em;}.cls-5{letter-spacing:-0.08em;}.cls-6{letter-spacing:-0.08em;}.cls-7,.cls-8{letter-spacing:-0.07em;}.cls-10,.cls-11,.cls-12,.cls-15,.cls-8,.cls-9{fill:#669f3c;}.cls-9{letter-spacing:-0.08em;}.cls-10{letter-spacing:-0.08em;}.cls-11{letter-spacing:-0.08em;}.cls-12{letter-spacing:-0.07em;}.cls-14{fill:#48662a;}.cls-16{fill:#91ce55;}.cls-17{fill:#7eba4a;}.cls-18{fill:#5a8435;}.cls-19{fill:#fff2d9;}.cls-20{fill:#fff;}.cls-21{fill:#231f20;}</style></defs><title>Artboard 1</title><text class="cls-1" transform="translate(-2.67 756.14)">f<tspan class="cls-2" x="39.85" y="0">or</tspan><tspan class="cls-3" x="143.72" y="0">m</tspan><tspan class="cls-4" x="256.05" y="0">a</tspan><tspan class="cls-5" x="318.04" y="0">t</tspan><tspan class="cls-6" x="359.11" y="0">i</tspan><tspan class="cls-5" x="389.71" y="0">o</tspan><tspan class="cls-7" x="454.66" y="0">n</tspan><tspan class="cls-8" x="528.87" y="0">.</tspan><tspan class="cls-9" x="569.39" y="0">t</tspan><tspan class="cls-10" x="610.59" y="0">e</tspan><tspan class="cls-11" x="675" y="0">c</tspan><tspan class="cls-12" x="727.88" y="0">h</tspan></text><path class="cls-13" d="M668.19,325.77l-5-83.32-.64-2a153.91,153.91,0,0,0-5.56-14.8c-1.89-4.33-3.78-9.31-5.79-14.59l-2.3-6L558.64,3,486,76.37,394.32,63.79,302.68,76.37,230,3,140.08,204.25l-2.62,6.81c-2,5.27-3.89,10.26-5.79,14.59a153.38,153.38,0,0,0-5.56,14.8l-.64,2-5,83.32,28.52,140L239,546.47,190.3,573.14l94.15,9.3,14.24,41.69,32.14-33.56,63.36,27.07-15.76-38.19,15.89,3.1,15.89-3.11-15.76,38.2,63.36-27.07L490,624.13l14.24-41.69,94.16-9.3-48.73-26.67,90.06-80.7Z"/><polygon class="cls-14" points="282.39 541.67 245.44 561.9 296.72 566.96 305.59 592.93 326.79 570.79 363.34 586.4 350.57 555.45 282.39 541.67"/><polygon class="cls-15" points="235.28 31.91 296.72 93.95 155.24 211.03 235.28 31.91"/><polygon class="cls-16" points="155.24 211.03 316.04 122.91 296.72 93.95 155.24 211.03"/><polygon class="cls-17" points="349.07 170.93 272.54 146.64 317.56 120.91 349.07 170.93"/><polygon class="cls-15" points="155.24 211.03 178.64 198.03 167.12 218.73 155.24 211.03"/><polygon class="cls-15" points="141.92 245.53 157.5 254.01 137.17 324.59 141.92 245.53"/><polygon class="cls-17" points="207.26 324.66 157.5 254.01 137.17 324.59 207.26 324.66"/><polygon class="cls-16" points="254.86 538.36 173.32 324.59 137.17 324.59 254.86 538.36"/><polygon class="cls-18" points="196.01 384.58 287.59 384.58 254.86 538.36 196.01 384.58"/><polygon class="cls-15" points="173.08 324.66 261.34 384.58 196.01 384.58 173.08 324.66"/><polygon class="cls-14" points="254.86 538.36 164.15 457.08 205.68 449.03 254.86 538.36"/><polygon class="cls-15" points="137.17 324.59 205.68 449.03 164.15 457.08 137.17 324.59"/><polygon class="cls-15" points="287.59 384.58 357.67 354.62 326.59 436.95 287.59 384.58"/><polygon class="cls-16" points="394.56 349.19 326.59 436.95 357.67 354.62 394.56 349.19"/><polygon class="cls-16" points="254.86 538.36 287.59 384.58 326.59 436.95 254.86 538.36"/><polygon class="cls-17" points="357.67 354.62 394.95 288.18 394.56 349.19 357.67 354.62"/><polygon class="cls-18" points="326.59 436.95 394.56 565.68 254.86 538.36 326.59 436.95"/><polygon class="cls-17" points="394.56 565.68 394.56 349.19 326.59 436.95 394.56 565.68"/><polygon class="cls-18" points="394.56 80.52 394.56 240.61 296.72 93.95 394.56 80.52"/><path class="cls-13" d="M276.83,146.64a119.53,119.53,0,0,0-109.72,72.09L155.24,211c-2.86,7.39-5.54,14.85-8.36,21.28a137.94,137.94,0,0,0-5,13.22l15.94,9.37c-.35,3.71-.54,7.46-.54,11.26A119.52,119.52,0,1,0,276.83,146.64Z"/><circle class="cls-19" cx="301.74" cy="266.16" r="96.86"/><g id="eye-left"><circle class="cls-20" cx="301.74" cy="266.16" r="59.67"/><circle class="cls-21" cx="301.74" cy="266.16" r="33.85"/><circle class="cls-20" cx="318.76" cy="241.26" r="18.72"/></g><polygon class="cls-14" points="506.26 541.67 543.22 561.9 491.93 566.96 483.06 592.93 461.86 570.79 425.31 586.4 438.08 555.45 506.26 541.67"/><polygon class="cls-15" points="553.38 31.91 491.93 93.95 633.41 211.03 553.38 31.91"/><polygon class="cls-16" points="633.41 211.03 472.75 122.71 491.93 93.95 633.41 211.03"/><polygon class="cls-17" points="439.58 170.93 516.11 146.64 471.09 120.91 439.58 170.93"/><polygon class="cls-15" points="633.41 211.03 610.16 198.25 621.54 218.73 633.41 211.03"/><polygon class="cls-15" points="646.73 245.53 630.57 254.01 651.49 324.59 646.73 245.53"/><polygon class="cls-17" points="587.07 324.66 631.15 254.01 651.49 324.59 587.07 324.66"/><polygon class="cls-16" points="533.8 538.36 615.57 324.43 651.49 324.59 533.8 538.36"/><polygon class="cls-18" points="592.64 384.58 501.06 384.58 533.8 538.36 592.64 384.58"/><polygon class="cls-15" points="615.57 324.66 527.32 384.58 592.64 384.58 615.57 324.66"/><polygon class="cls-14" points="533.8 538.36 624.5 457.08 582.98 449.03 533.8 538.36"/><polygon class="cls-15" points="651.49 324.59 582.98 449.03 624.5 457.08 651.49 324.59"/><polygon class="cls-15" points="501.06 384.58 430.98 354.62 462.06 436.95 501.06 384.58"/><polygon class="cls-16" points="394.1 349.19 462.06 436.95 430.98 354.62 394.1 349.19"/><polygon class="cls-16" points="533.8 538.36 501.06 384.58 462.06 436.95 533.8 538.36"/><polygon class="cls-17" points="430.98 354.62 393.7 288.18 394.1 349.19 430.98 354.62"/><polygon class="cls-18" points="462.06 436.95 394.1 565.68 533.8 538.36 462.06 436.95"/><polygon class="cls-17" points="394.1 565.68 394.1 349.19 462.06 436.95 394.1 565.68"/><polygon class="cls-18" points="394.1 80.52 394.1 240.61 491.93 93.95 394.1 80.52"/><path class="cls-13" d="M511.82,146.64a119.53,119.53,0,0,1,109.72,72.09l11.87-7.7c2.86,7.39,5.54,14.85,8.36,21.28a137.94,137.94,0,0,1,5,13.22l-15.94,9.37c.35,3.71.54,7.46.54,11.26A119.52,119.52,0,1,1,511.82,146.64Z"/><circle class="cls-19" cx="486.91" cy="266.16" r="96.86"/><g id="eye-right"><circle class="cls-20" cx="486.91" cy="266.16" r="59.67"/><circle class="cls-21" cx="486.91" cy="266.16" r="33.85"/><circle class="cls-20" cx="469.89" cy="241.26" r="18.72"/></g><polygon class="cls-21" points="358.97 293.46 429.69 293.46 394.33 356.49 358.97 293.46"/></svg>