<?xml version="1.0" encoding="utf-8"?>
<!-- Generator: Adobe Illustrator 19.2.1, SVG Export Plug-In . SVG Version: 6.00 Build 0)  -->
<svg version="1.1" id="Layer_1" xmlns="http://www.w3.org/2000/svg" xmlns:xlink="http://www.w3.org/1999/xlink" x="0px" y="0px"
	 viewBox="0 0 640 480" style="enable-background:new 0 0 640 480;" xml:space="preserve">
<style type="text/css">
	.st0{fill:#29ABE2;}
	.st1{fill:#00AAFF;}
	.st2{fill:#00425C;stroke:#00425C;stroke-miterlimit:10;}
</style>
<g>
	<path class="st0" d="M180.9,298.6v-17.5h6.2c1.4,0,2.7,0.2,3.7,0.7c1.1,0.5,2,1.1,2.7,1.9c0.7,0.8,1.3,1.7,1.6,2.8
		c0.4,1.1,0.5,2.2,0.5,3.4c0,1.3-0.2,2.5-0.6,3.6c-0.4,1.1-1,2-1.7,2.8c-0.7,0.8-1.6,1.4-2.7,1.8c-1.1,0.4-2.2,0.6-3.5,0.6H180.9z
		 M192.9,289.8c0-0.9-0.1-1.8-0.4-2.5c-0.3-0.8-0.6-1.4-1.1-2c-0.5-0.6-1.1-1-1.8-1.3c-0.7-0.3-1.5-0.5-2.4-0.5h-3.5v12.6h3.5
		c0.9,0,1.7-0.2,2.5-0.5c0.7-0.3,1.3-0.8,1.8-1.3c0.5-0.6,0.9-1.2,1.1-2S192.9,290.7,192.9,289.8z"/>
	<path class="st0" d="M217.6,296.2v2.4h-12v-17.5h11.8v2.4h-9v5h7.8v2.3h-7.8v5.4H217.6z"/>
	<path class="st0" d="M228.5,281.1l5.3,14l5.3-14h2.9l-7,17.5h-2.4l-7.1-17.5H228.5z"/>
	<path class="st0" d="M263.1,296.2v2.4h-12v-17.5h11.8v2.4h-9v5h7.8v2.3h-7.8v5.4H263.1z"/>
	<path class="st0" d="M272.9,298.6v-17.5h2.8v15.1h9.4v2.4H272.9z"/>
	<path class="st0" d="M300.8,298.7c-1.2,0-2.4-0.3-3.4-0.8c-1-0.5-1.9-1.2-2.6-2c-0.7-0.8-1.3-1.8-1.7-2.8c-0.4-1.1-0.6-2.2-0.6-3.3
		c0-1.2,0.2-2.3,0.6-3.4s1-2,1.7-2.8c0.7-0.8,1.6-1.5,2.6-2c1-0.5,2.1-0.7,3.3-0.7c1.2,0,2.4,0.3,3.4,0.8c1,0.5,1.9,1.2,2.6,2
		c0.7,0.8,1.3,1.8,1.7,2.9c0.4,1.1,0.6,2.1,0.6,3.2c0,1.2-0.2,2.3-0.6,3.4c-0.4,1.1-1,2-1.7,2.8s-1.6,1.5-2.6,1.9
		C303.1,298.5,302,298.7,300.8,298.7z M295.3,289.8c0,0.8,0.1,1.6,0.4,2.4c0.3,0.8,0.6,1.5,1.1,2s1.1,1.1,1.7,1.4
		c0.7,0.4,1.4,0.5,2.3,0.5c0.9,0,1.6-0.2,2.3-0.6c0.7-0.4,1.3-0.9,1.7-1.5c0.5-0.6,0.8-1.3,1.1-2c0.2-0.8,0.4-1.5,0.4-2.3
		c0-0.8-0.1-1.6-0.4-2.4c-0.3-0.8-0.6-1.4-1.1-2c-0.5-0.6-1.1-1.1-1.7-1.4c-0.7-0.4-1.4-0.5-2.2-0.5c-0.9,0-1.6,0.2-2.3,0.6
		c-0.7,0.4-1.3,0.9-1.7,1.4c-0.5,0.6-0.8,1.3-1.1,2C295.4,288.3,295.3,289,295.3,289.8z"/>
	<path class="st0" d="M318.9,298.6v-17.5h7.4c0.8,0,1.5,0.2,2.2,0.5c0.7,0.3,1.2,0.8,1.7,1.3c0.5,0.5,0.9,1.1,1.1,1.8
		c0.3,0.7,0.4,1.4,0.4,2.1c0,0.7-0.1,1.5-0.4,2.1c-0.3,0.7-0.6,1.3-1.1,1.8c-0.5,0.5-1,1-1.7,1.3c-0.7,0.3-1.4,0.5-2.2,0.5h-4.7v6.1
		H318.9z M321.6,290.1h4.6c0.4,0,0.8-0.1,1.1-0.2c0.3-0.2,0.6-0.4,0.8-0.7c0.2-0.3,0.4-0.6,0.5-1c0.1-0.4,0.2-0.8,0.2-1.3
		c0-0.5-0.1-0.9-0.2-1.3c-0.1-0.4-0.4-0.7-0.6-1c-0.3-0.3-0.6-0.5-0.9-0.7c-0.3-0.2-0.7-0.2-1-0.2h-4.4V290.1z"/>
	<path class="st0" d="M355.9,298.6V286l-5.2,9.5h-1.5l-5.2-9.5v12.6h-2.8v-17.5h3l5.8,10.7l5.8-10.7h3v17.5H355.9z"/>
	<path class="st0" d="M381.5,296.2v2.4h-12v-17.5h11.8v2.4h-9v5h7.8v2.3h-7.8v5.4H381.5z"/>
	<path class="st0" d="M394.2,286.3v12.3h-2.8v-17.5h2.2l10,12.6v-12.6h2.8v17.5h-2.3L394.2,286.3z"/>
	<path class="st0" d="M430.1,283.5h-5.8v15.1h-2.8v-15.1h-5.8v-2.4h14.4V283.5z"/>
	<path class="st0" d="M451.7,298.6v-17.5h7.4c0.8,0,1.5,0.2,2.2,0.5c0.7,0.3,1.2,0.8,1.7,1.3c0.5,0.5,0.9,1.1,1.1,1.8
		c0.3,0.7,0.4,1.4,0.4,2.1c0,0.7-0.1,1.5-0.4,2.1c-0.3,0.7-0.6,1.3-1.1,1.8c-0.5,0.5-1,1-1.7,1.3c-0.7,0.3-1.4,0.5-2.2,0.5h-4.7v6.1
		H451.7z M454.5,290.1h4.6c0.4,0,0.8-0.1,1.1-0.2c0.3-0.2,0.6-0.4,0.8-0.7s0.4-0.6,0.5-1c0.1-0.4,0.2-0.8,0.2-1.3
		c0-0.5-0.1-0.9-0.2-1.3c-0.1-0.4-0.4-0.7-0.6-1c-0.3-0.3-0.6-0.5-0.9-0.7c-0.3-0.2-0.7-0.2-1-0.2h-4.4V290.1z"/>
	<path class="st0" d="M470.9,298.6l7.1-17.5h2.3l7,17.5h-2.9l-1.9-4.8h-6.8l-1.8,4.8H470.9z M479.1,284.2l-2.9,7.6h5.7L479.1,284.2z
		"/>
	<path class="st0" d="M496.3,298.6v-17.5h7.6c0.8,0,1.5,0.2,2.2,0.5c0.7,0.3,1.2,0.8,1.7,1.3c0.5,0.5,0.9,1.1,1.1,1.8
		c0.3,0.7,0.4,1.4,0.4,2.1c0,0.6-0.1,1.2-0.2,1.7c-0.2,0.5-0.4,1-0.7,1.5c-0.3,0.5-0.7,0.9-1.1,1.2c-0.4,0.3-0.9,0.6-1.4,0.8
		l4.2,6.7h-3.1l-3.8-6.1h-4v6.1H496.3z M499.1,290.1h4.8c0.4,0,0.8-0.1,1.1-0.3c0.3-0.2,0.6-0.4,0.8-0.7c0.2-0.3,0.4-0.7,0.5-1
		c0.1-0.4,0.2-0.8,0.2-1.3c0-0.4-0.1-0.9-0.2-1.3c-0.2-0.4-0.4-0.7-0.6-1c-0.3-0.3-0.6-0.5-0.9-0.7c-0.3-0.2-0.7-0.3-1-0.3h-4.7
		V290.1z"/>
	<path class="st0" d="M532.1,283.5h-5.8v15.1h-2.8v-15.1h-5.8v-2.4h14.4V283.5z"/>
	<path class="st0" d="M544.2,286.3v12.3h-2.8v-17.5h2.2l10,12.6v-12.6h2.8v17.5h-2.3L544.2,286.3z"/>
	<path class="st0" d="M579.3,296.2v2.4h-12v-17.5h11.8v2.4h-9v5h7.8v2.3h-7.8v5.4H579.3z"/>
	<path class="st0" d="M589.2,298.6v-17.5h7.6c0.8,0,1.5,0.2,2.2,0.5c0.7,0.3,1.2,0.8,1.7,1.3c0.5,0.5,0.9,1.1,1.1,1.8
		c0.3,0.7,0.4,1.4,0.4,2.1c0,0.6-0.1,1.2-0.2,1.7c-0.2,0.5-0.4,1-0.7,1.5c-0.3,0.5-0.7,0.9-1.1,1.2c-0.4,0.3-0.9,0.6-1.4,0.8
		l4.2,6.7h-3.1l-3.8-6.1h-4v6.1H589.2z M591.9,290.1h4.8c0.4,0,0.8-0.1,1.1-0.3c0.3-0.2,0.6-0.4,0.8-0.7c0.2-0.3,0.4-0.7,0.5-1
		c0.1-0.4,0.2-0.8,0.2-1.3c0-0.4-0.1-0.9-0.2-1.3c-0.2-0.4-0.4-0.7-0.6-1c-0.3-0.3-0.6-0.5-0.9-0.7c-0.3-0.2-0.7-0.3-1-0.3h-4.7
		V290.1z"/>
</g>
<g>
	<path class="st1" d="M37.1,233.2c0,1.4,0.1,2.7,0.1,4v0.1h0c1.1,17,8.7,32.3,20.4,43.2l0.1-115.9H37.2
		C37.2,164.6,37.1,231.8,37.1,233.2z"/>
	<path class="st1" d="M101.8,168.5c-10.3,0-20,2.4-28.6,6.6v24.5c0,0,0,0,0,0v67.2c0,0,0,0,0,0v24.5c0,0,0,0,0,0V314h20.5V189.8
		c2.6-0.5,5.3-0.7,8-0.7c24.4,0,44.1,19.7,44.1,44.1s-19.7,44.1-44.1,44.1c0,0-0.1,0-0.1,0v20.6c0,0,0.1,0,0.1,0
		c35.7,0,64.7-29,64.7-64.7S137.5,168.5,101.8,168.5z"/>
</g>
<g>
	<path class="st2" d="M182,194.6h4.1l22,59.6l22.9-59.6h4.1l-24.7,64.2h-4.5L182,194.6z"/>
	<path class="st2" d="M268.3,260.4c-9.2,0-16.1-3.4-20.9-10.1c-4.1-6-6.2-13.8-6.2-23.4s2.1-17.3,6.2-23.3
		c4.8-6.9,11.7-10.4,20.9-10.4c9,0,15.8,3.1,20.5,9.3c4.3,5.5,6.4,12.9,6.4,22.3v2.3h-50.1v1c0,7.9,1.9,14.5,5.6,19.8
		c4.2,6.1,10.1,9.2,17.6,9.2c10.4,0,17.4-4.9,21.2-14.6l3.2,1.7c-1.7,4.4-4.2,8-7.8,10.8C280.3,258.6,274.8,260.4,268.3,260.4z
		 M291.2,223.4c0-7.4-1.8-13.5-5.3-18.3c-4-5.4-9.5-8.2-16.7-8.2c-7.4,0-13.2,2.6-17.4,7.9c-3.7,4.8-5.8,11-6.3,18.5H291.2z"/>
	<path class="st2" d="M309.2,194.6h4v10.5c4-7.9,11.3-11.9,21.6-11.9c14.7,0,22,7.7,22,23v42.5h-4v-41.2c0-6.8-1.2-11.9-3.7-15.1
		c-2.9-3.7-7.6-5.6-14.2-5.6c-12.1,0-19.2,5.5-21.2,16.4c-0.2,1.2-0.3,2.8-0.4,4.6c-0.1,1.9-0.2,4-0.2,6.5v34.3h-4V194.6z"/>
	<path class="st2" d="M374.8,177v17.3h12.9v3.7h-12.9v60.7h-4V177H374.8z"/>
	<path class="st2" d="M444.1,258.7h-4v-10.2c-4,7.9-11.3,11.9-21.6,11.9c-14.7,0-22-7.6-22-22.9v-42.9h4v41.5c0,6.9,1.3,11.9,3.8,15
		c2.8,3.7,7.5,5.5,14.2,5.5c12.1,0,19.1-5.4,21.1-16.3c0.2-1.2,0.3-2.8,0.4-4.6c0.1-1.9,0.2-4.1,0.2-6.6v-34.8h4V258.7z"/>
	<path class="st2" d="M461.2,194.6h4v10.6c3.3-7,10.4-10.5,21.3-10.4l-2.5,3.5c-3.1,0-5.2,0.2-6.6,0.7c-2.8,0.8-5.7,2.9-8.7,6.3
		c-2.4,2.8-3.6,6.4-3.6,10.8v42.7h-4V194.6z"/>
	<path class="st2" d="M517.6,260.4c-9.2,0-16.1-3.4-20.9-10.1c-4.1-6-6.2-13.8-6.2-23.4s2.1-17.3,6.2-23.3
		c4.8-6.9,11.7-10.4,20.9-10.4c9,0,15.8,3.1,20.5,9.3c4.3,5.5,6.4,12.9,6.4,22.3v2.3h-50.1v1c0,7.9,1.9,14.5,5.6,19.8
		c4.2,6.1,10.1,9.2,17.6,9.2c10.4,0,17.4-4.9,21.2-14.6l3.2,1.7c-1.7,4.4-4.2,8-7.8,10.8C529.5,258.6,524,260.4,517.6,260.4z
		 M540.5,223.4c0-7.4-1.8-13.5-5.3-18.3c-4-5.4-9.5-8.2-16.7-8.2c-7.4,0-13.2,2.6-17.4,7.9c-3.7,4.8-5.8,11-6.3,18.5H540.5z"/>
	<path class="st2" d="M580.4,256.7c5.2,0,9.5-1.1,12.9-3.3c4-2.6,6.1-6.3,6.1-11.2c0-5.9-4.2-10-12.7-12.3c-0.2-0.1-0.6-0.2-1.2-0.4
		c-0.5-0.2-1.3-0.3-2.2-0.5c-10.5-2.7-17.2-5.3-20.3-7.7c-3.5-2.7-5.2-6.4-5.2-11.1c0-5.6,2.3-9.9,7-13c4.1-2.6,9.1-4,14.8-4
		c5.9,0,10.8,1.6,14.7,4.9c4,3.3,6.3,7.9,6.9,13.7h-3.8c-1.3-10-7.4-15-18.3-15c-4.5,0-8.4,1-11.6,3c-3.9,2.4-5.8,5.7-5.8,10
		c0,6.4,6.6,11.3,19.7,14.5c0.2,0.2,0.6,0.3,1.2,0.4c6.8,1.7,11.5,3.5,14.1,5.3c4.4,2.9,6.6,7,6.6,12.3c0,5.8-2.4,10.3-7.2,13.7
		c-4.4,2.9-9.6,4.3-15.6,4.3c-6.8,0-12.5-1.7-16.8-5.2c-4.5-3.6-7.1-8.8-7.7-15.6h3.8C561.9,251,568.8,256.7,580.4,256.7z"/>
</g>
</svg>
