<?xml version="1.0" encoding="utf-8"?>
<!-- Generator: Adobe Illustrator 19.2.1, SVG Export Plug-In . SVG Version: 6.00 Build 0)  -->
<svg version="1.1" id="Layer_1" xmlns="http://www.w3.org/2000/svg" xmlns:xlink="http://www.w3.org/1999/xlink" x="0px" y="0px"
	 viewBox="0 0 40.1 34.8" style="enable-background:new 0 0 40.1 34.8;" xml:space="preserve">
<style type="text/css">
	.st0{fill:#FFBA00;}
</style>
<path class="st0" d="M29.2,13.5c0,8-5.3,13.4-12.3,13.4c-3.1,0-5.6-1-7.5-2.8v10.6H0v-34h9.4v2.1C11.2,1,13.8,0,16.9,0
	C23.9,0,29.2,5.4,29.2,13.5z M19.7,13.5c0-3.2-2-5.6-5.1-5.6c-2.9,0-5.2,2.4-5.2,5.6s2.3,5.6,5.2,5.6C17.7,19.1,19.7,16.7,19.7,13.5
	z"/>
<path class="st0" d="M40.1,21.7c0,2.9-2.2,5.1-5.2,5.1s-5.2-2.2-5.2-5.1c0-2.8,2.2-5.2,5.2-5.2S40.1,18.9,40.1,21.7z"/>
</svg>
