<?xml version="1.0" encoding="utf-8"?>
<!-- Generator: Adobe Illustrator 21.0.2, SVG Export Plug-In . SVG Version: 6.00 Build 0)  -->
<svg version="1.1" id="Layer_1" xmlns="http://www.w3.org/2000/svg" xmlns:xlink="http://www.w3.org/1999/xlink" x="0px" y="0px"
	 viewBox="0 0 468.2 262" style="enable-background:new 0 0 468.2 262;" xml:space="preserve">
<style type="text/css">
	.st0{fill:#262321;}
	.st1{fill:#F59E27;}
</style>
<g>
	<path class="st0" d="M2.3,143.7c2.8,3.2,7.2,6.2,13.3,6.2c8.8,0,11.3-4.9,11.3-8.5c0-6-5.7-7.7-11.7-9.3
		c-6.7-1.9-13.9-3.8-13.9-11.6c0-7,6.3-11.4,14-11.4c6.4,0,11.1,2.2,14.5,6l-2.4,2.7c-3.1-3.7-7.4-5.4-12.2-5.4
		c-5.7,0-10,3.3-10,7.9c0,5.1,5.3,6.5,11.1,8.1c6.9,2,14.5,4.2,14.5,12.8c0,5.5-3.6,12.1-15.2,12.1c-7,0-12.4-2.8-15.6-6.8
		L2.3,143.7z"/>
	<path class="st0" d="M42,109.8h3.6v39.4h20.7v3.3H42V109.8z"/>
	<path class="st0" d="M107.4,142H84.7l-4.3,10.5h-4.1l17.5-42.7h4.5l17.5,42.7h-4.1L107.4,142z M85.9,138.7h20.4l-10.2-25.3
		L85.9,138.7z"/>
	<path class="st0" d="M131.1,113.1h-14v-3.3h31.6v3.3h-14v39.4H131L131.1,113.1L131.1,113.1z"/>
	<path class="st0" d="M160.2,109.8h27.1v3.3h-23.4v15.8h23v3.3h-23v16.9h23.4v3.3h-27.1V109.8z"/>
</g>
<g>
	<path class="st1" d="M288.5,142h-22.7l-4.3,10.5h-4.2l17.5-42.7h4.5l17.5,42.7h-4.1L288.5,142z M266.9,138.7h20.4l-10.2-25.3
		L266.9,138.7z"/>
	<path class="st1" d="M306.9,109.8h16c8.2,0,12.9,5.8,12.9,12.5s-4.7,12.5-12.9,12.5h-12.4v17.7h-3.6V109.8z M322.6,113.1h-12v18.3
		h12c5.6,0,9.4-3.8,9.4-9.2C332,116.9,328.2,113.1,322.6,113.1z"/>
	<path class="st1" d="M347.3,109.8h16c8.2,0,12.9,5.8,12.9,12.5s-4.7,12.5-12.9,12.5h-12.4v17.7h-3.6V109.8z M362.9,113.1h-12v18.3
		h12c5.6,0,9.4-3.8,9.4-9.2C372.4,116.9,368.6,113.1,362.9,113.1z"/>
	<path class="st1" d="M389,143.7c2.8,3.2,7.2,6.2,13.3,6.2c8.8,0,11.3-4.9,11.3-8.5c0-6-5.7-7.7-11.7-9.3
		c-6.7-1.9-13.9-3.8-13.9-11.6c0-7,6.3-11.4,14-11.4c6.4,0,11.1,2.2,14.5,6l-2.4,2.7c-3.1-3.7-7.4-5.4-12.2-5.4
		c-5.7,0-10,3.3-10,7.9c0,5.1,5.3,6.5,11.1,8.1c6.9,2,14.5,4.2,14.5,12.8c0,5.5-3.6,12.1-15.2,12.1c-7,0-12.4-2.8-15.6-6.8
		L389,143.7z"/>
</g>
<path class="st1" d="M337.2,5c33.7,0,65.3,13.1,89.1,36.9s36.9,55.4,36.9,89.1s-13.1,65.3-36.9,89.1S370.9,257,337.2,257
	s-65.3-13.1-89.1-36.9c-23.8-23.8-36.9-55.4-36.9-89.1s13.1-65.3,36.9-89.1C271.9,18.1,303.6,5,337.2,5 M337.2,0
	c-72.3,0-131,58.7-131,131s58.7,131,131,131s131-58.7,131-131S409.6,0,337.2,0L337.2,0z"/>
</svg>
