<?xml version="1.0" encoding="utf-8"?>
<!-- Generator: Adobe Illustrator 21.0.0, SVG Export Plug-In . SVG Version: 6.00 Build 0)  -->
<svg version="1.1" id="Layer_1" xmlns="http://www.w3.org/2000/svg" xmlns:xlink="http://www.w3.org/1999/xlink" x="0px" y="0px"
	 viewBox="0 0 595.3 841.9" style="enable-background:new 0 0 595.3 841.9;" xml:space="preserve">
<style type="text/css">
	.st0{fill:#262321;}
	.st1{fill:#F59E27;}
</style>
<g>
	<path class="st0" d="M69,428.7c2.8,3.2,7.2,6.2,13.3,6.2c8.8,0,11.3-4.9,11.3-8.5c0-6-5.7-7.7-11.7-9.3
		c-6.7-1.9-13.9-3.8-13.9-11.6c0-7,6.3-11.4,14-11.4c6.4,0,11.1,2.2,14.5,6l-2.4,2.7c-3.1-3.7-7.4-5.4-12.2-5.4
		c-5.7,0-10,3.3-10,7.9c0,5.1,5.3,6.5,11.1,8.1c6.9,2,14.5,4.2,14.5,12.8c0,5.5-3.6,12.1-15.2,12.1c-7,0-12.4-2.8-15.6-6.8L69,428.7
		z"/>
	<path class="st0" d="M108.7,394.8h3.6v39.4H133v3.3h-24.3V394.8z"/>
	<path class="st0" d="M174.1,427h-22.7l-4.3,10.5H143l17.5-42.7h4.5l17.5,42.7h-4.1L174.1,427z M152.6,423.7H173l-10.2-25.3
		L152.6,423.7z"/>
	<path class="st0" d="M197.8,398.1h-14v-3.3h31.6v3.3h-14v39.4h-3.7V398.1z"/>
	<path class="st0" d="M226.9,394.8h27.1v3.3h-23.4v15.8h23v3.3h-23v16.9h23.4v3.3h-27.1V394.8z"/>
</g>
<g>
	<path class="st1" d="M355.2,427h-22.7l-4.3,10.5H324l17.5-42.7h4.5l17.5,42.7h-4.1L355.2,427z M333.6,423.7H354l-10.2-25.3
		L333.6,423.7z"/>
	<path class="st1" d="M373.6,394.8h16c8.2,0,12.9,5.8,12.9,12.5c0,6.7-4.7,12.5-12.9,12.5h-12.4v17.7h-3.6V394.8z M389.3,398.1h-12
		v18.3h12c5.6,0,9.4-3.8,9.4-9.2C398.7,401.9,394.9,398.1,389.3,398.1z"/>
	<path class="st1" d="M414,394.8h16c8.2,0,12.9,5.8,12.9,12.5c0,6.7-4.7,12.5-12.9,12.5h-12.4v17.7H414V394.8z M429.6,398.1h-12
		v18.3h12c5.6,0,9.4-3.8,9.4-9.2C439.1,401.9,435.3,398.1,429.6,398.1z"/>
	<path class="st1" d="M455.7,428.7c2.8,3.2,7.2,6.2,13.3,6.2c8.8,0,11.3-4.9,11.3-8.5c0-6-5.7-7.7-11.7-9.3
		c-6.7-1.9-13.9-3.8-13.9-11.6c0-7,6.3-11.4,14-11.4c6.4,0,11.1,2.2,14.5,6l-2.4,2.7c-3.1-3.7-7.4-5.4-12.2-5.4
		c-5.7,0-10,3.3-10,7.9c0,5.1,5.3,6.5,11.1,8.1c6.9,2,14.5,4.2,14.5,12.8c0,5.5-3.6,12.1-15.2,12.1c-7,0-12.4-2.8-15.6-6.8
		L455.7,428.7z"/>
</g>
<path class="st1" d="M403.9,290c33.7,0,65.3,13.1,89.1,36.9s36.9,55.4,36.9,89.1s-13.1,65.3-36.9,89.1S437.6,542,403.9,542
	s-65.3-13.1-89.1-36.9c-23.8-23.8-36.9-55.4-36.9-89.1s13.1-65.3,36.9-89.1C338.6,303.1,370.3,290,403.9,290 M403.9,285
	c-72.3,0-131,58.7-131,131s58.7,131,131,131s131-58.7,131-131S476.3,285,403.9,285L403.9,285z"/>
</svg>
