<svg xmlns="http://www.w3.org/2000/svg" xmlns:xlink="http://www.w3.org/1999/xlink" width="92" height="92" viewBox="0 0 92 92">
    <defs>
        <path id="a" d="M66.99 94.88l-1.703 10.64c-.146.404-.318.563-.568.563H55.28c-.25 0-.422-.159-.568-.563L53.01 94.88a.958.958 0 0 0-.713-.78c-3.653-.912-6.876-2.212-9.581-3.95a.958.958 0 0 0-1.072.023l-8.793 6.22c-.423.281-.516.289-.7.105l-6.649-6.65c-.184-.183-.176-.276.12-.72l6.205-8.772a.958.958 0 0 0 .024-1.072c-1.74-2.705-3.039-5.928-3.952-9.58a.958.958 0 0 0-.778-.714L16.48 67.287c-.404-.146-.563-.318-.563-.568V57.28c0-.25.159-.422.563-.568l10.64-1.703a.958.958 0 0 0 .78-.713c.805-3.226 2.233-6.574 3.96-9.382a.958.958 0 0 0-.027-1.047l-6.22-9.009c-.287-.43-.295-.524-.11-.708l6.648-6.649c.184-.184.277-.176.721.12l8.996 6.211c.303.21.7.227 1.02.044 3.32-1.898 6.364-3.217 9.409-3.978a.958.958 0 0 0 .713-.778l1.703-10.641c.146-.404.318-.563.568-.563h9.438c.25 0 .422.159.568.563l1.703 10.64c.06.38.341.686.713.78 3.045.76 6.089 2.08 9.41 3.977a.958.958 0 0 0 1.02-.044l9.008-6.22c.43-.287.524-.295.708-.11l6.649 6.648c.184.184.176.277-.12.721l-6.211 8.996a.958.958 0 0 0-.028 1.047c1.728 2.808 3.156 6.156 3.962 9.382.093.372.4.653.778.713l10.641 1.703c.404.146.563.318.563.568v9.438c0 .25-.159.422-.563.568L92.88 68.99a.958.958 0 0 0-.78.713c-.912 3.653-2.212 6.876-3.95 9.581a.958.958 0 0 0 .023 1.072l6.22 8.793c.281.423.289.516.105.7l-6.65 6.649c-.183.184-.276.176-.72-.12l-8.772-6.205a.958.958 0 0 0-1.072-.024c-2.705 1.74-5.928 3.039-9.58 3.952a.958.958 0 0 0-.714.778zM60 50c-6.712 0-12 5.288-12 12s5.288 12 12 12 12-5.288 12-12-5.288-12-12-12z"/>
    </defs>
    <g fill="none" fill-rule="evenodd">
        <g transform="translate(-14 -16)">
            <use fill="#F5F5F5" xlink:href="#a"/>
            <path stroke="#FFF" stroke-width="2" d="M64.392 105.196l-.045-.016c-.027.073-.036.089-.003.057a.496.496 0 0 1 .048-.04zm-8.784 0a.496.496 0 0 1 .048.041c.033.032.024.016-.003-.057l-.045.016zM16.804 66.392l.016-.045c-.073-.027-.089-.036-.057-.003a.496.496 0 0 1 .04.048zm0-8.784a.496.496 0 0 1-.041.048c-.032.033-.016.024.057-.003l-.016-.045zm38.804-38.804l.045.016c.027-.073.036-.089.003-.057a.496.496 0 0 1-.048.04zm8.784 0a.496.496 0 0 1-.048-.041c-.033-.032-.024-.016.003.057l.045-.016zm38.804 38.804l-.016.045c.073.027.089.036.057.003a.496.496 0 0 1-.04-.048zm0 8.784a.496.496 0 0 1 .041-.048c.032-.033.016-.024-.057.003l.016.045zm-38.852 38.691h-8.688l-1.658-10.362a1.958 1.958 0 0 0-1.459-1.59c-3.622-.906-6.723-2.177-9.282-3.823a1.958 1.958 0 0 0-2.19.049l-8.576 6.066-5.914-5.914 6.066-8.576c.462-.652.48-1.518.049-2.19-1.646-2.56-2.917-5.66-3.823-9.282a1.958 1.958 0 0 0-1.59-1.459l-10.362-1.658v-8.688l10.362-1.658a1.958 1.958 0 0 0 1.59-1.459c.775-3.097 2.153-6.353 3.843-9.1.407-.661.385-1.5-.056-2.14l-6.08-8.806 5.917-5.918 8.807 6.081c.62.428 1.43.463 2.084.089 3.33-1.903 6.276-3.156 9.155-3.876a1.958 1.958 0 0 0 1.459-1.59l1.658-10.362h8.688l1.658 10.362c.124.774.698 1.4 1.459 1.59 2.879.72 5.826 1.973 9.155 3.876.654.374 1.465.34 2.084-.089l8.807-6.08 5.918 5.917-6.081 8.807a1.958 1.958 0 0 0-.056 2.139c1.69 2.747 3.068 6.003 3.843 9.1.19.76.816 1.335 1.59 1.459l10.362 1.658v8.688l-10.362 1.658c-.774.124-1.4.698-1.59 1.459-.906 3.622-2.177 6.723-3.823 9.282a1.958 1.958 0 0 0 .049 2.19l6.066 8.576-5.914 5.914-8.576-6.066a1.958 1.958 0 0 0-2.19-.049c-2.56 1.646-5.66 2.917-9.282 3.823-.76.19-1.335.816-1.459 1.59l-1.658 10.362zM60 49c-7.265 0-13 5.735-13 13s5.735 13 13 13 13-5.735 13-13-5.735-13-13-13z"/>
        </g>
        <path fill="#555" fill-rule="nonzero" d="M54.783 79.802l-1.617 10.104C52.745 91.212 51.956 92 50.72 92H41.28c-1.237 0-2.026-.788-2.41-1.942l-1.654-10.256c-3.355-.888-6.37-2.104-8.986-3.696l-8.295 5.867c-1.119.745-2.186.834-3.14-.12l-6.649-6.649c-.954-.954-.865-2.021-.105-3.161l5.852-8.274c-1.592-2.616-2.808-5.631-3.696-8.986L2.094 53.166C.788 52.745 0 51.956 0 50.72V41.28c0-1.237.788-2.026 1.942-2.41L12.2 37.217a36.52 36.52 0 0 1 3.705-8.77l-5.878-8.511c-.745-1.119-.834-2.186.12-3.14l6.649-6.649c.954-.954 2.021-.865 3.152-.111l8.515 5.88c3.043-1.7 5.892-2.934 8.754-3.715l1.617-10.107C39.255.788 40.044 0 41.28 0h9.438c1.237 0 2.026.788 2.41 1.942l1.654 10.259c2.862.78 5.71 2.016 8.754 3.714l8.527-5.888c1.119-.745 2.186-.834 3.14.12l6.649 6.649c.954.954.865 2.021.111 3.152l-5.869 8.5a36.519 36.519 0 0 1 3.705 8.769l10.106 1.617c1.306.421 2.094 1.21 2.094 2.447v9.438c0 1.237-.788 2.026-1.942 2.41l-10.256 1.654c-.888 3.355-2.104 6.37-3.696 8.986l5.867 8.295c.745 1.119.834 2.186-.12 3.14l-6.649 6.649c-.954.954-2.021.865-3.161.105l-8.274-5.852c-2.616 1.592-5.631 2.808-8.986 3.696zm-1.793-.923a.958.958 0 0 1 .713-.778c3.653-.913 6.876-2.213 9.581-3.952a.958.958 0 0 1 1.072.024l8.772 6.205c.444.296.537.304.72.12l6.65-6.65c.184-.183.176-.276-.105-.699l-6.22-8.793a.958.958 0 0 1-.024-1.072c1.74-2.705 3.039-5.928 3.952-9.58a.958.958 0 0 1 .778-.714l10.641-1.703c.404-.146.563-.318.563-.568V41.28c0-.25-.159-.422-.563-.568L78.88 39.01a.958.958 0 0 1-.78-.713c-.805-3.226-2.233-6.574-3.96-9.382a.958.958 0 0 1 .027-1.047l6.211-8.996c.296-.444.304-.537.12-.72l-6.65-6.65c-.183-.184-.276-.176-.707.111l-9.009 6.22a.958.958 0 0 1-1.02.044c-3.32-1.898-6.364-3.217-9.409-3.978a.958.958 0 0 1-.713-.778L51.287 2.48c-.146-.404-.318-.563-.568-.563H41.28c-.25 0-.422.159-.568.563L39.01 13.12a.958.958 0 0 1-.713.78c-3.045.76-6.089 2.08-9.41 3.977a.958.958 0 0 1-1.02-.044l-8.995-6.211c-.444-.296-.537-.304-.72-.12l-6.65 6.65c-.184.183-.176.276.111.707l6.22 9.009a.958.958 0 0 1 .028 1.047c-1.728 2.808-3.156 6.156-3.962 9.382a.958.958 0 0 1-.778.713L2.48 40.713c-.404.146-.563.318-.563.568v9.438c0 .25.159.422.563.568l10.64 1.703c.38.06.686.341.78.713.912 3.653 2.212 6.876 3.95 9.581a.958.958 0 0 1-.023 1.072l-6.205 8.772c-.296.444-.304.537-.12.72l6.65 6.65c.183.184.276.176.699-.105l8.793-6.22a.958.958 0 0 1 1.072-.024c2.705 1.74 5.928 3.039 9.58 3.952.373.093.654.4.714.778l1.703 10.641c.146.404.318.563.568.563h9.438c.25 0 .422-.159.568-.563l1.703-10.64zM46 34c6.712 0 12 5.288 12 12s-5.288 12-12 12-12-5.288-12-12 5.288-12 12-12zm0 1c-6.168 0-11 4.832-11 11s4.832 11 11 11 11-4.832 11-11-4.832-11-11-11z"/>
        <path fill="#C8F8EF" d="M46 72c-14.36 0-26-11.64-26-26s11.64-26 26-26 26 11.64 26 26-11.64 26-26 26zm0-43c-9.51 0-17 7.49-17 17s7.49 17 17 17 17-7.49 17-17-7.49-17-17-17z"/>
        <path fill="#00D5AC" d="M46 72c-14.36 0-26-11.64-26-26s11.64-26 26-26 26 11.64 26 26-11.64 26-26 26zm0-1c13.807 0 25-11.193 25-25S59.807 21 46 21 21 32.193 21 46s11.193 25 25 25zm0-3c-12.15 0-22-9.85-22-22s9.85-22 22-22 22 9.85 22 22-9.85 22-22 22zm0-.983c11.607 0 21.017-9.41 21.017-21.017S57.607 24.983 46 24.983 24.983 34.393 24.983 46 34.393 67.017 46 67.017zM46 64c-9.941 0-18-8.059-18-18s8.059-18 18-18 18 8.059 18 18-8.059 18-18 18zm0-1c9.389 0 17-7.611 17-17s-7.611-17-17-17-17 7.611-17 17 7.611 17 17 17z"/>
    </g>
</svg>
