<svg xmlns="http://www.w3.org/2000/svg" width="120" height="120" viewBox="0 0 120 120">
  <g fill="none" fill-rule="evenodd" transform="translate(20 19)">
    <path fill="#F5F5F5" d="M3.29059918,40.078985 C2.50656454,40.8630196 2.50635762,42.1367735 3.29059918,42.921015 L40.078985,79.7094008 C40.8630196,80.4934355 42.1367735,80.4936424 42.921015,79.7094008 L79.7094008,42.921015 C80.4934355,42.1369804 80.4936424,40.8632265 79.7094008,40.078985 L42.921015,3.29059918 C42.1369804,2.50656454 40.8632265,2.50635762 40.078985,3.29059918 L3.29059918,40.078985 Z"/>
    <path fill="#FFF" d="M41.5628884,33.546273 C36.9751942,33.546273 33.2591022,29.8442305 33.2591022,25.2812075 C33.2591022,20.7181845 36.9751942,17.016142 41.5628884,17.016142 C46.1505827,17.016142 49.8666747,20.7181845 49.8666747,25.2812075 C49.8666747,29.8442305 46.1505827,33.546273 41.5628884,33.546273 Z M59.1049881,51.0325478 C54.5166231,51.0325478 50.7999878,47.329964 50.7999878,42.7662739 C50.7999878,38.2025838 54.5166231,34.5 59.1049881,34.5 C63.6933531,34.5 67.4099884,38.2025838 67.4099884,42.7662739 C67.4099884,47.329964 63.6933531,51.0325478 59.1049881,51.0325478 Z M41.5628884,68.335014 C37.1482073,68.335014 33.5722582,64.7725845 33.5722582,60.3816442 C33.5722582,55.9907039 37.1482073,52.4282745 41.5628884,52.4282745 C45.9775696,52.4282745 49.5535187,55.9907039 49.5535187,60.3816442 C49.5535187,64.7725845 45.9775696,68.335014 41.5628884,68.335014 Z"/>
    <path fill="#555" d="M40,31.3510184 C37.2854338,30.6585095 35.2778416,28.2040981 35.2778416,25.2812075 C35.2778416,23.8517884 35.7579834,22.5344122 36.5661455,21.480359 L29.2276853,14.1418989 L3.29059918,40.078985 C2.50656454,40.8630196 2.50635762,42.1367735 3.29059918,42.921015 L40.078985,79.7094008 C40.8630196,80.4934355 42.1367735,80.4936424 42.921015,79.7094008 L79.7094008,42.921015 C80.4934355,42.1369804 80.4936424,40.8632265 79.7094008,40.078985 L42.921015,3.29059918 C42.1369804,2.50656454 40.8632265,2.50635762 40.078985,3.29059918 L30.6418989,12.7276853 L38.0199448,20.1057313 C39.0287826,19.4181986 40.2488402,19.016142 41.5628884,19.016142 C45.0331778,19.016142 47.8479352,21.8202576 47.8479352,25.2812075 C47.8479352,26.7268323 47.3568447,28.0578593 46.5320181,29.1178045 L55.3091921,37.8949785 C56.3762464,37.0625032 57.7199858,36.5663603 59.179711,36.5663603 C62.6500004,36.5663603 65.4647578,39.370476 65.4647578,42.8314259 C65.4647578,46.2923757 62.6500004,49.0964914 59.179711,49.0964914 C55.7094217,49.0964914 52.8946643,46.2923757 52.8946643,42.8314259 C52.8946643,41.5475772 53.2819915,40.3541128 53.9464277,39.3606412 L45.0680316,30.4822451 C44.1799744,31.0780902 43.131054,31.4538916 42,31.531355 L42,54.1314967 C45.266488,54.3552114 47.8479352,57.0672326 47.8479352,60.3816442 C47.8479352,63.8425941 45.0331778,66.6467097 41.5628884,66.6467097 C38.0925991,66.6467097 35.2778416,63.8425941 35.2778416,60.3816442 C35.2778416,57.4587536 37.2854338,55.0043422 40,54.3118333 L40,31.3510184 Z M38.6647714,1.87638562 C40.2306249,0.310532112 42.7707088,0.311865871 44.3352286,1.87638562 L81.1236144,38.6647714 C82.6894679,40.2306249 82.6881341,42.7707088 81.1236144,44.3352286 L44.3352286,81.1236144 C42.7693751,82.6894679 40.2292912,82.6881341 38.6647714,81.1236144 L1.87638562,44.3352286 C0.310532112,42.7693751 0.311865871,40.2292912 1.87638562,38.6647714 L38.6647714,1.87638562 Z M41.5628884,29.546273 C43.9303006,29.546273 45.8479352,27.6358884 45.8479352,25.2812075 C45.8479352,22.9265266 43.9303006,21.016142 41.5628884,21.016142 C39.1954763,21.016142 37.2778416,22.9265266 37.2778416,25.2812075 C37.2778416,27.6358884 39.1954763,29.546273 41.5628884,29.546273 Z M59.179711,47.0964914 C61.5471232,47.0964914 63.4647578,45.1861068 63.4647578,42.8314259 C63.4647578,40.4767449 61.5471232,38.5663603 59.179711,38.5663603 C56.8122989,38.5663603 54.8946643,40.4767449 54.8946643,42.8314259 C54.8946643,45.1861068 56.8122989,47.0964914 59.179711,47.0964914 Z M41.5628884,64.6467097 C43.9303006,64.6467097 45.8479352,62.7363251 45.8479352,60.3816442 C45.8479352,58.0269633 43.9303006,56.1165787 41.5628884,56.1165787 C39.1954763,56.1165787 37.2778416,58.0269633 37.2778416,60.3816442 C37.2778416,62.7363251 39.1954763,64.6467097 41.5628884,64.6467097 Z"/>
  </g>
</svg>
