<svg xmlns="http://www.w3.org/2000/svg" width="400" height="350" viewBox="0 0 400 350">
  <g fill="none" fill-rule="evenodd">
    <path fill="#F5F5F5" fill-rule="nonzero" d="M154,46.5218531 L154,200 L39,200 L39,46.5218531 C39,41.8195893 41.9073267,38 45.4840746,38 L147.515925,38 C151.102359,38 154,41.8050006 154,46.5218531 Z M368,150.78592 L368,273 L253,273 L253,150.78592 C253,147.041525 255.907327,144 259.484075,144 L361.515925,144 C365.102359,144 368,147.029908 368,150.78592 Z"/>
    <path fill="#FFD74D" d="M210.33238,217 C211.429817,212.96616 215.118517,210 219.5,210 C224.746705,210 229,214.253295 229,219.5 C229,224.746705 224.746705,229 219.5,229 C215.118517,229 211.429817,226.03384 210.33238,222 L193,222 L193,217 L210.33238,217 Z M195,142 L198,142 L198,217 L193,217 L193,147 L167.66762,147 C166.570183,151.03384 162.881483,154 158.5,154 C157.989599,154 157.488598,153.959749 157,153.882248 L157,147 L155,147 L155,142 L157,142 L157,135.117752 C157.488598,135.040251 157.989599,135 158.5,135 C162.881483,135 166.570183,137.96616 167.66762,142 L195,142 Z M219.5,227 C223.642136,227 227,223.642136 227,219.5 C227,215.357864 223.642136,212 219.5,212 C215.357864,212 212,215.357864 212,219.5 C212,223.642136 215.357864,227 219.5,227 Z M50,131 L144,131 L144,156 L50,156 L50,131 Z"/>
    <path fill="#FFF" fill-rule="nonzero" d="M47,71 L147,71 L147,190 L47,190 L47,71 Z M139.493982,50 C143.079623,50 146,52.9110361 146,56.5 C146,60.0889639 143.079623,63 139.493982,63 C135.909435,63 133,60.0889639 133,56.5 C133,52.9110361 135.908341,50 139.493982,50 Z M261,177 L361,177 L361,265 L261,265 L261,177 Z M353.493982,156 C357.079623,156 360,158.911036 360,162.5 C360,166.088964 357.079623,169 353.493982,169 C349.909435,169 347,166.088964 347,162.5 C347,158.911036 349.908341,156 353.493982,156 Z M219.809457,244.317772 C219.653346,244.474677 219.501377,244.62867 219.307037,244.807237 C219.282804,244.661616 219.267327,244.458684 219.267327,244.197545 L219.267327,218.854617 C219.267327,218.059472 219.405386,218.040396 220.84746,219.262728 C221.384046,219.717428 224.293539,222.357636 229.571202,227.177415 C229.872069,227.452184 230.403961,227.938213 231.243073,228.705098 C232.420332,229.781054 232.420332,229.781054 233.734978,230.982594 C236.464467,233.477209 237.858038,234.750416 238.132289,234.999661 C238.509002,235.342432 238.473472,235.443299 238.045043,235.443299 L229.97401,235.443299 L231.484574,239.076468 C231.60639,239.369459 231.789422,239.80905 231.99305,240.297547 C232.395306,241.262545 232.773892,242.168663 233.134507,243.029319 C233.902607,244.862276 234.415268,246.072707 234.657309,246.623092 C234.852652,247.067285 234.822368,247.255675 234.851676,247.241175 C234.707122,247.312781 234.707122,247.312781 234.403768,247.463091 C234.144141,247.591667 234.144141,247.591667 233.986717,247.669365 C233.711608,247.804675 233.511337,247.900797 233.323581,247.987581 C233.212844,248.038766 233.106361,248.086702 232.999774,248.133343 C232.541058,248.334072 232.020914,248.536343 231.238274,248.817354 C230.919337,248.931944 230.836848,248.886626 230.52621,248.250999 C230.280649,247.748144 229.821725,246.750566 229.187077,245.341248 L229.142026,245.241167 C228.811102,244.505781 228.44794,243.693184 228.066319,242.834612 C227.871815,242.397018 227.697268,242.003235 227.581533,241.74123 L226.107919,238.405195 L223.413951,240.862509 C223.139481,241.112868 222.734001,241.48969 222.284203,241.913911 C221.403007,242.744998 220.568469,243.55489 219.809457,244.317772 Z M50,131 L50,156 L144,156 L144,131 L50,131 Z"/>
    <path fill="#555" fill-rule="nonzero" d="M354,162 L357,162 L357,163 L354,163 L354,166 L353,166 L353,163 L350,163 L350,162 L353,162 L353,159 L354,159 L354,162 Z M140,56 L143,56 L143,57 L140,57 L140,60 L139,60 L139,57 L136,57 L136,56 L139,56 L139,53 L140,53 L140,56 Z M158,202 L36,202 L36,45.1730116 C36,39.5566814 40.3776038,35 45.7652237,35 L148.234776,35 C153.631767,35 158,39.5447003 158,45.1730116 L158,202 Z M153,46.5819126 C153,42.9388187 150.17795,40 146.685075,40 L47.3149249,40 C43.8314834,40 41,42.9500864 41,46.5819126 L41,197 L153,197 L153,46.5819126 Z M147,71 L147,190 L47,190 L47,71 L147,71 Z M48,72 L48,189 L146,189 L146,72 L48,72 Z M136.183673,128.962963 L137,128.962963 L137,128.481481 L137,128.962963 L57.8163265,128.962963 L58.2244898,128.962963 L57,128.962963 L57,128 L57.8163265,128 L57,128 L57,128.481481 L57,128 L136.183673,128 L135.77551,128 L137,128 L137,128.962963 L136.183673,128.962963 Z M136.183673,158.962963 L137,158.962963 L137,158.481481 L137,158.962963 L57.8163265,158.962963 L58.2244898,158.962963 L57,158.962963 L57,158 L57.8163265,158 L57,158 L57,158.481481 L57,158 L136.183673,158 L135.77551,158 L137,158 L137,158.962963 L136.183673,158.962963 Z M136.183673,98.9629629 L137,98.9629629 L137,98.4814814 L137,98.9629629 L57.8163265,98.9629629 L58.2244898,98.9629629 L57,98.9629629 L57,98 L57.8163265,98 L57,98 L57,98.4814814 L57,98 L136.183673,98 L135.77551,98 L137,98 L137,98.9629629 L136.183673,98.9629629 Z M139.493879,48 C144.185663,48 148,51.8081222 148,56.5 C148,61.1918778 144.185663,65 139.493879,65 C134.804127,65 131,61.1927913 131,56.5 C131,51.8068733 134.803349,48 139.493879,48 Z M139.493982,50 C135.908341,50 133,52.9110361 133,56.5 C133,60.0889639 135.909435,63 139.493982,63 C143.079623,63 146,60.0889639 146,56.5 C146,52.9110361 143.079623,50 139.493982,50 Z M53.4208984,59 L51.9560547,59 L51.9560547,55.953125 L49.0996094,55.953125 L49.0996094,59 L47.6347656,59 L47.6347656,51.890625 L49.0996094,51.890625 L49.0996094,54.7714844 L51.9560547,54.7714844 L51.9560547,51.890625 L53.4208984,51.890625 L53.4208984,59 Z M58.9775391,55.9189453 L56.1650391,55.9189453 L56.1650391,57.8232422 L59.4658203,57.8232422 L59.4658203,59 L54.7001953,59 L54.7001953,51.890625 L59.4560547,51.890625 L59.4560547,53.0771484 L56.1650391,53.0771484 L56.1650391,54.7714844 L58.9775391,54.7714844 L58.9775391,55.9189453 Z M62.9570312,56.3974609 L61.7900391,56.3974609 L61.7900391,59 L60.3251953,59 L60.3251953,51.890625 L62.9667969,51.890625 C63.8066448,51.890625 64.4544248,52.0777976 64.9101562,52.4521484 C65.3658877,52.8264993 65.59375,53.3554653 65.59375,54.0390625 C65.59375,54.524091 65.4887706,54.9285466 65.2788086,55.2524414 C65.0688466,55.5763363 64.7506532,55.8343089 64.3242188,56.0263672 L65.8623047,58.9316406 L65.8623047,59 L64.2900391,59 L62.9570312,56.3974609 Z M61.7900391,55.2109375 L62.9716797,55.2109375 C63.3395201,55.2109375 63.6243479,55.1173512 63.8261719,54.9301758 C64.0279958,54.7430004 64.1289062,54.4850277 64.1289062,54.15625 C64.1289062,53.8209619 64.0336924,53.5572926 63.8432617,53.3652344 C63.6528311,53.1731761 63.3606791,53.0771484 62.9667969,53.0771484 L61.7900391,53.0771484 L61.7900391,55.2109375 Z M72.546875,55.6064453 C72.546875,56.3063186 72.4231783,56.9199192 72.1757812,57.4472656 C71.9283842,57.974612 71.5743838,58.381509 71.1137695,58.6679688 C70.6531552,58.9544285 70.125003,59.0976562 69.5292969,59.0976562 C68.9401012,59.0976562 68.4143903,58.9560561 67.9521484,58.6728516 C67.4899065,58.389647 67.1318372,57.9851914 66.8779297,57.4594727 C66.6240222,56.9337539 66.4954427,56.329105 66.4921875,55.6455078 L66.4921875,55.2939453 C66.4921875,54.594072 66.6183256,53.97803 66.8706055,53.4458008 C67.1228854,52.9135716 67.4793271,52.505047 67.9399414,52.2202148 C68.4005557,51.9353827 68.9270804,51.7929688 69.5195312,51.7929688 C70.1119821,51.7929688 70.6385068,51.9353827 71.0991211,52.2202148 C71.5597354,52.505047 71.9161771,52.9135716 72.168457,53.4458008 C72.4207369,53.97803 72.546875,54.5924444 72.546875,55.2890625 L72.546875,55.6064453 Z M71.0625,55.2841797 C71.0625,54.5387333 70.9290378,53.9723327 70.6621094,53.5849609 C70.395181,53.1975892 70.0143254,53.0039062 69.5195312,53.0039062 C69.0279923,53.0039062 68.6487644,53.1951478 68.3818359,53.5776367 C68.1149075,53.9601256 67.9798177,54.5208296 67.9765625,55.2597656 L67.9765625,55.6064453 C67.9765625,56.3323604 68.1100247,56.8955058 68.3769531,57.2958984 C68.6438815,57.6962911 69.0279923,57.8964844 69.5292969,57.8964844 C70.0208358,57.8964844 70.3984362,57.7036152 70.6621094,57.3178711 C70.9257826,56.932127 71.0592448,56.3697954 71.0625,55.6308594 L71.0625,55.2841797 Z M77.8886719,55.9189453 L75.0761719,55.9189453 L75.0761719,57.8232422 L78.3769531,57.8232422 L78.3769531,59 L73.6113281,59 L73.6113281,51.890625 L78.3671875,51.890625 L78.3671875,53.0771484 L75.0761719,53.0771484 L75.0761719,54.7714844 L77.8886719,54.7714844 L77.8886719,55.9189453 Z M82.9228516,57.1347656 C82.9228516,56.8580715 82.8251963,56.6456713 82.6298828,56.4975586 C82.4345693,56.3494459 82.0830104,56.1931974 81.5751953,56.0288086 C81.0673803,55.8644198 80.6653661,55.7024748 80.3691406,55.5429688 C79.5618449,55.1067687 79.1582031,54.5192094 79.1582031,53.7802734 C79.1582031,53.3961569 79.2664377,53.0535497 79.4829102,52.7524414 C79.6993826,52.4513331 80.0102519,52.2161467 80.4155273,52.046875 C80.8208028,51.8776033 81.2757136,51.7929688 81.7802734,51.7929688 C82.2880885,51.7929688 82.7405579,51.8849275 83.1376953,52.0688477 C83.5348327,52.2527678 83.8432606,52.5123681 84.0629883,52.8476562 C84.2827159,53.1829444 84.3925781,53.5638 84.3925781,53.9902344 L82.9277344,53.9902344 C82.9277344,53.6647119 82.8251963,53.411622 82.6201172,53.230957 C82.415038,53.0502921 82.126955,52.9599609 81.7558594,52.9599609 C81.3977847,52.9599609 81.1194671,53.0356438 80.9208984,53.1870117 C80.7223297,53.3383797 80.6230469,53.5377592 80.6230469,53.7851562 C80.6230469,54.0162772 80.7394194,54.2099602 80.972168,54.3662109 C81.2049165,54.5224617 81.5475238,54.6689446 82,54.8056641 C82.8333375,55.0563164 83.4404278,55.3671856 83.8212891,55.7382812 C84.2021503,56.1093769 84.3925781,56.5716118 84.3925781,57.125 C84.3925781,57.7402375 84.1598331,58.2228173 83.6943359,58.5727539 C83.2288388,58.9226906 82.6022175,59.0976562 81.8144531,59.0976562 C81.2675754,59.0976562 80.7695335,58.9975596 80.3203125,58.7973633 C79.8710915,58.597167 79.5284843,58.3229184 79.2924805,57.9746094 C79.0564767,57.6263003 78.9384766,57.2226585 78.9384766,56.7636719 L80.4082031,56.7636719 C80.4082031,57.548181 80.8769484,57.9404297 81.8144531,57.9404297 C82.1627622,57.9404297 82.4345693,57.8696296 82.6298828,57.7280273 C82.8251963,57.5864251 82.9228516,57.3886731 82.9228516,57.1347656 Z M59.0263672,88 L57.7958984,88 L57.7958984,80.890625 L59.0263672,80.890625 L59.0263672,88 Z M60.5449219,88 L60.5449219,80.890625 L62.6445312,80.890625 C63.2727896,80.890625 63.8302385,81.0305976 64.3168945,81.3105469 C64.8035506,81.5904962 65.1803372,81.9876276 65.4472656,82.5019531 C65.714194,83.0162786 65.8476562,83.6054654 65.8476562,84.2695312 L65.8476562,84.6259766 C65.8476562,85.2998081 65.7133802,85.89225 65.4448242,86.4033203 C65.1762682,86.9143906 64.793785,87.3082668 64.2973633,87.5849609 C63.8009415,87.861655 63.2320996,88 62.5908203,88 L60.5449219,88 Z M61.7802734,81.8867188 L61.7802734,87.0136719 L62.5859375,87.0136719 C63.2337272,87.0136719 63.7309553,86.8110372 64.0776367,86.4057617 C64.4243181,86.0004863 64.6009114,85.4186236 64.6074219,84.6601562 L64.6074219,84.2646484 C64.6074219,83.4931602 64.4397803,82.9039734 64.1044922,82.4970703 C63.7692041,82.0901672 63.2825553,81.8867188 62.6445312,81.8867188 L61.7802734,81.8867188 Z M63.3623047,117 L62.1269531,117 L58.9580078,111.956055 L58.9580078,117 L57.7226562,117 L57.7226562,109.890625 L58.9580078,109.890625 L62.1367188,114.954102 L62.1367188,109.890625 L63.3623047,109.890625 L63.3623047,117 Z M67.8642578,117 C67.8121742,116.899088 67.7666018,116.734702 67.7275391,116.506836 C67.349933,116.900718 66.887698,117.097656 66.3408203,117.097656 C65.8102187,117.097656 65.3772803,116.946291 65.0419922,116.643555 C64.7067041,116.340819 64.5390625,115.966474 64.5390625,115.520508 C64.5390625,114.957354 64.7482075,114.525229 65.1665039,114.224121 C65.5848003,113.923013 66.1829388,113.772461 66.9609375,113.772461 L67.6884766,113.772461 L67.6884766,113.425781 C67.6884766,113.152342 67.6119799,112.933432 67.4589844,112.769043 C67.3059888,112.604654 67.0732438,112.522461 66.7607422,112.522461 C66.4905585,112.522461 66.2692066,112.590006 66.0966797,112.725098 C65.9241528,112.860189 65.8378906,113.0319 65.8378906,113.240234 L64.6513672,113.240234 C64.6513672,112.950519 64.7473949,112.679526 64.9394531,112.427246 C65.1315114,112.174966 65.3927392,111.977214 65.7231445,111.833984 C66.0535498,111.690754 66.4221985,111.619141 66.8291016,111.619141 C67.4475942,111.619141 67.9407534,111.774575 68.3085938,112.085449 C68.6764341,112.396323 68.8652343,112.833331 68.875,113.396484 L68.875,115.779297 C68.875,116.25456 68.9417311,116.633788 69.0751953,116.916992 L69.0751953,117 L67.8642578,117 Z M66.5605469,116.145508 C66.794923,116.145508 67.0154612,116.088542 67.222168,115.974609 C67.4288747,115.860677 67.5843094,115.707683 67.6884766,115.515625 L67.6884766,114.519531 L67.0488281,114.519531 C66.6093728,114.519531 66.2789725,114.596028 66.0576172,114.749023 C65.8362619,114.902019 65.7255859,115.118488 65.7255859,115.398438 C65.7255859,115.626303 65.8012688,115.807779 65.9526367,115.942871 C66.1040047,116.077963 66.3066394,116.145508 66.5605469,116.145508 Z M71.2333984,111.716797 L71.2675781,112.268555 C71.6386737,111.83561 72.1464812,111.619141 72.7910156,111.619141 C73.4973994,111.619141 73.980793,111.88932 74.2412109,112.429688 C74.6253274,111.88932 75.1656866,111.619141 75.8623047,111.619141 C76.4449899,111.619141 76.8787421,111.780272 77.1635742,112.102539 C77.4484064,112.424806 77.5940755,112.900062 77.6005859,113.52832 L77.6005859,117 L76.4140625,117 L76.4140625,113.5625 C76.4140625,113.227212 76.340821,112.981446 76.1943359,112.825195 C76.0478508,112.668945 75.8053402,112.59082 75.4667969,112.59082 C75.1966132,112.59082 74.9760751,112.663248 74.8051758,112.808105 C74.6342765,112.952963 74.5146488,113.142577 74.4462891,113.376953 L74.4511719,117 L73.2646484,117 L73.2646484,113.523438 C73.2483723,112.90169 72.9309927,112.59082 72.3125,112.59082 C71.8372372,112.59082 71.5003265,112.784503 71.3017578,113.171875 L71.3017578,117 L70.1152344,117 L70.1152344,111.716797 L71.2333984,111.716797 Z M81.1455078,117.097656 C80.3935509,117.097656 79.7840193,116.860842 79.3168945,116.387207 C78.8497698,115.913572 78.6162109,115.282882 78.6162109,114.495117 L78.6162109,114.348633 C78.6162109,113.821286 78.7179352,113.3501 78.9213867,112.935059 C79.1248383,112.520017 79.4104799,112.196941 79.7783203,111.96582 C80.1461607,111.734699 80.5563128,111.619141 81.0087891,111.619141 C81.7281937,111.619141 82.284015,111.848631 82.6762695,112.307617 C83.0685241,112.766604 83.2646484,113.416011 83.2646484,114.255859 L83.2646484,114.734375 L79.8125,114.734375 C79.8483075,115.170575 79.9939766,115.515624 80.2495117,115.769531 C80.5050469,116.023439 80.8264955,116.150391 81.2138672,116.150391 C81.7574897,116.150391 82.2001936,115.930666 82.5419922,115.491211 L83.1816406,116.101562 C82.970051,116.417319 82.6876645,116.662271 82.3344727,116.836426 C81.9812808,117.01058 81.5849631,117.097656 81.1455078,117.097656 Z M81.0039062,112.571289 C80.6783838,112.571289 80.4155283,112.68522 80.215332,112.913086 C80.0151357,113.140952 79.8873701,113.458331 79.8320312,113.865234 L82.0927734,113.865234 L82.0927734,113.777344 C82.0667316,113.380206 81.9609384,113.079916 81.7753906,112.876465 C81.5898428,112.673013 81.3326839,112.571289 81.0039062,112.571289 Z M61.7021484,145.344727 L58.9482422,145.344727 L58.3720703,147 L57.0878906,147 L59.7734375,139.890625 L60.8818359,139.890625 L63.5722656,147 L62.2832031,147 L61.7021484,145.344727 Z M59.2949219,144.348633 L61.3554688,144.348633 L60.3251953,141.399414 L59.2949219,144.348633 Z M65.3642578,141.716797 L65.3984375,142.327148 C65.7890645,141.855141 66.3017546,141.619141 66.9365234,141.619141 C68.0367894,141.619141 68.5966796,142.249017 68.6162109,143.508789 L68.6162109,147 L67.4296875,147 L67.4296875,143.577148 C67.4296875,143.24186 67.3572598,142.993653 67.2124023,142.83252 C67.0675448,142.671386 66.8307308,142.59082 66.5019531,142.59082 C66.0234351,142.59082 65.6669934,142.80729 65.4326172,143.240234 L65.4326172,147 L64.2460938,147 L64.2460938,141.716797 L65.3642578,141.716797 Z M71.3115234,140.432617 L71.3115234,141.716797 L72.2441406,141.716797 L72.2441406,142.595703 L71.3115234,142.595703 L71.3115234,145.544922 C71.3115234,145.746746 71.3513993,145.892415 71.4311523,145.981934 C71.5109053,146.071452 71.6533193,146.116211 71.8583984,146.116211 C71.9951179,146.116211 72.1334628,146.099935 72.2734375,146.067383 L72.2734375,146.985352 C72.0032539,147.060222 71.7428398,147.097656 71.4921875,147.097656 C70.5807246,147.097656 70.125,146.594732 70.125,145.588867 L70.125,142.595703 L69.2558594,142.595703 L69.2558594,141.716797 L70.125,141.716797 L70.125,140.432617 L71.3115234,140.432617 Z M76.3066406,147 C76.254557,146.899088 76.2089846,146.734702 76.1699219,146.506836 C75.7923158,146.900718 75.3300809,147.097656 74.7832031,147.097656 C74.2526015,147.097656 73.8196631,146.946291 73.484375,146.643555 C73.1490869,146.340819 72.9814453,145.966474 72.9814453,145.520508 C72.9814453,144.957354 73.1905904,144.525229 73.6088867,144.224121 C74.0271831,143.923013 74.6253216,143.772461 75.4033203,143.772461 L76.1308594,143.772461 L76.1308594,143.425781 C76.1308594,143.152342 76.0543627,142.933432 75.9013672,142.769043 C75.7483716,142.604654 75.5156266,142.522461 75.203125,142.522461 C74.9329414,142.522461 74.7115894,142.590006 74.5390625,142.725098 C74.3665356,142.860189 74.2802734,143.0319 74.2802734,143.240234 L73.09375,143.240234 C73.09375,142.950519 73.1897777,142.679526 73.3818359,142.427246 C73.5738942,142.174966 73.835122,141.977214 74.1655273,141.833984 C74.4959326,141.690754 74.8645813,141.619141 75.2714844,141.619141 C75.8899771,141.619141 76.3831362,141.774575 76.7509766,142.085449 C77.1188169,142.396323 77.3076171,142.833331 77.3173828,143.396484 L77.3173828,145.779297 C77.3173828,146.25456 77.3841139,146.633788 77.5175781,146.916992 L77.5175781,147 L76.3066406,147 Z M75.0029297,146.145508 C75.2373059,146.145508 75.457844,146.088542 75.6645508,145.974609 C75.8712575,145.860677 76.0266922,145.707683 76.1308594,145.515625 L76.1308594,144.519531 L75.4912109,144.519531 C75.0517556,144.519531 74.7213553,144.596028 74.5,144.749023 C74.2786447,144.902019 74.1679688,145.118488 74.1679688,145.398438 C74.1679688,145.626303 74.2436516,145.807779 74.3950195,145.942871 C74.5463875,146.077963 74.7490222,146.145508 75.0029297,146.145508 Z M78.3525391,144.319336 C78.3525391,143.499019 78.5454082,142.843915 78.9311523,142.354004 C79.3168965,141.864093 79.8287729,141.619141 80.4667969,141.619141 C81.0690134,141.619141 81.5426415,141.829099 81.8876953,142.249023 L81.9414062,141.716797 L83.0107422,141.716797 L83.0107422,146.838867 C83.0107422,147.53223 82.7950868,148.0791 82.3637695,148.479492 C81.9324523,148.879885 81.3505896,149.080078 80.6181641,149.080078 C80.2307923,149.080078 79.8523781,148.999513 79.4829102,148.838379 C79.1134422,148.677245 78.8326833,148.466473 78.640625,148.206055 L79.2021484,147.493164 C79.5667336,147.926109 80.0159479,148.142578 80.5498047,148.142578 C80.9436869,148.142578 81.2545562,148.035971 81.4824219,147.822754 C81.7102876,147.609537 81.8242188,147.296226 81.8242188,146.882812 L81.8242188,146.526367 C81.4824202,146.907228 81.0266956,147.097656 80.4570312,147.097656 C79.8385386,147.097656 79.3331725,146.85189 78.940918,146.360352 C78.5486634,145.868813 78.3525391,145.188481 78.3525391,144.319336 Z M79.5341797,144.421875 C79.5341797,144.952477 79.6424143,145.369953 79.8588867,145.674316 C80.0753592,145.97868 80.3756491,146.130859 80.7597656,146.130859 C81.2382836,146.130859 81.5930978,145.925783 81.8242188,145.515625 L81.8242188,143.191406 C81.5996083,142.791014 81.2480493,142.59082 80.7695312,142.59082 C80.3789043,142.59082 80.0753592,142.745441 79.8588867,143.054688 C79.6424143,143.363934 79.5341797,143.819658 79.5341797,144.421875 Z M84.0068359,144.30957 C84.0068359,143.79199 84.109374,143.325686 84.3144531,142.910645 C84.5195323,142.495603 84.8076153,142.176596 85.1787109,141.953613 C85.5498065,141.73063 85.9762346,141.619141 86.4580078,141.619141 C87.170902,141.619141 87.7495095,141.848631 88.1938477,142.307617 C88.6381858,142.766604 88.878255,143.375322 88.9140625,144.133789 L88.9189453,144.412109 C88.9189453,144.932945 88.8188487,145.398435 88.6186523,145.808594 C88.418456,146.218752 88.1320006,146.536132 87.7592773,146.760742 C87.3865541,146.985353 86.9560571,147.097656 86.4677734,147.097656 C85.722327,147.097656 85.125816,146.849449 84.6782227,146.353027 C84.2306293,145.856606 84.0068359,145.194991 84.0068359,144.368164 L84.0068359,144.30957 Z M85.1933594,144.412109 C85.1933594,144.955732 85.3056629,145.381346 85.5302734,145.688965 C85.7548839,145.996584 86.0673808,146.150391 86.4677734,146.150391 C86.8681661,146.150391 87.1798491,145.994142 87.402832,145.681641 C87.6258149,145.369139 87.7373047,144.911787 87.7373047,144.30957 C87.7373047,143.775713 87.6225597,143.352541 87.3930664,143.040039 C87.1635731,142.727537 86.85189,142.571289 86.4580078,142.571289 C86.0706361,142.571289 85.763022,142.725096 85.5351562,143.032715 C85.3072905,143.340334 85.1933594,143.800127 85.1933594,144.412109 Z M91.0234375,141.716797 L91.0576172,142.327148 C91.4482441,141.855141 91.9609343,141.619141 92.5957031,141.619141 C93.695969,141.619141 94.2558593,142.249017 94.2753906,143.508789 L94.2753906,147 L93.0888672,147 L93.0888672,143.577148 C93.0888672,143.24186 93.0164395,142.993653 92.871582,142.83252 C92.7267245,142.671386 92.4899105,142.59082 92.1611328,142.59082 C91.6826148,142.59082 91.326173,142.80729 91.0917969,143.240234 L91.0917969,147 L89.9052734,147 L89.9052734,141.716797 L91.0234375,141.716797 Z M96.7460938,147 L95.5595703,147 L95.5595703,141.716797 L96.7460938,141.716797 L96.7460938,147 Z M95.4863281,140.344727 C95.4863281,140.162434 95.5441075,140.011068 95.659668,139.890625 C95.7752284,139.770182 95.9404286,139.709961 96.1552734,139.709961 C96.3701183,139.709961 96.5361322,139.770182 96.6533203,139.890625 C96.7705084,140.011068 96.8291016,140.162434 96.8291016,140.344727 C96.8291016,140.523764 96.7705084,140.672688 96.6533203,140.791504 C96.5361322,140.91032 96.3701183,140.969727 96.1552734,140.969727 C95.9404286,140.969727 95.7752284,140.91032 95.659668,140.791504 C95.5441075,140.672688 95.4863281,140.523764 95.4863281,140.344727 Z M100.999023,145.564453 C100.999023,145.352864 100.911947,145.191732 100.737793,145.081055 C100.563638,144.970377 100.274742,144.872722 99.8710938,144.788086 C99.4674459,144.70345 99.1305352,144.596029 98.8603516,144.46582 C98.2679007,144.179361 97.9716797,143.764326 97.9716797,143.220703 C97.9716797,142.764972 98.1637351,142.384116 98.5478516,142.078125 C98.9319681,141.772134 99.4202444,141.619141 100.012695,141.619141 C100.644209,141.619141 101.154458,141.775389 101.543457,142.087891 C101.932456,142.400392 102.126953,142.805662 102.126953,143.303711 L100.94043,143.303711 C100.94043,143.075845 100.855795,142.886231 100.686523,142.734863 C100.517252,142.583495 100.292645,142.507812 100.012695,142.507812 C99.7522773,142.507812 99.5398771,142.568033 99.3754883,142.688477 C99.2110994,142.80892 99.1289062,142.970051 99.1289062,143.171875 C99.1289062,143.354168 99.2054029,143.495768 99.3583984,143.59668 C99.511394,143.697592 99.8206357,143.799316 100.286133,143.901855 C100.75163,144.004395 101.117023,144.126464 101.382324,144.268066 C101.647625,144.409669 101.844563,144.579752 101.973145,144.77832 C102.101726,144.976889 102.166016,145.217772 102.166016,145.500977 C102.166016,145.976239 101.969077,146.361164 101.575195,146.655762 C101.181313,146.95036 100.665368,147.097656 100.027344,147.097656 C99.5943989,147.097656 99.2086605,147.019532 98.8701172,146.863281 C98.5315738,146.70703 98.2679046,146.492189 98.0791016,146.21875 C97.8902985,145.945311 97.7958984,145.650718 97.7958984,145.334961 L98.9482422,145.334961 C98.9645183,145.61491 99.0703115,145.830566 99.265625,145.981934 C99.4609385,146.133302 99.719725,146.208984 100.041992,146.208984 C100.354494,146.208984 100.592122,146.149577 100.754883,146.030762 C100.917644,145.911946 100.999023,145.756511 100.999023,145.564453 Z M104.685547,140.432617 L104.685547,141.716797 L105.618164,141.716797 L105.618164,142.595703 L104.685547,142.595703 L104.685547,145.544922 C104.685547,145.746746 104.725423,145.892415 104.805176,145.981934 C104.884929,146.071452 105.027343,146.116211 105.232422,146.116211 C105.369141,146.116211 105.507486,146.099935 105.647461,146.067383 L105.647461,146.985352 C105.377277,147.060222 105.116863,147.097656 104.866211,147.097656 C103.954748,147.097656 103.499023,146.594732 103.499023,145.588867 L103.499023,142.595703 L102.629883,142.595703 L102.629883,141.716797 L103.499023,141.716797 L103.499023,140.432617 L104.685547,140.432617 Z M63.2988281,176.242188 L64.3925781,170.890625 L65.6181641,170.890625 L63.9775391,178 L62.7958984,178 L61.4433594,172.80957 L60.0615234,178 L58.875,178 L57.234375,170.890625 L58.4599609,170.890625 L59.5634766,176.232422 L60.9208984,170.890625 L61.9560547,170.890625 L63.2988281,176.242188 Z M68.7333984,178.097656 C67.9814416,178.097656 67.3719099,177.860842 66.9047852,177.387207 C66.4376604,176.913572 66.2041016,176.282882 66.2041016,175.495117 L66.2041016,175.348633 C66.2041016,174.821286 66.3058258,174.3501 66.5092773,173.935059 C66.7127289,173.520017 66.9983706,173.196941 67.3662109,172.96582 C67.7340513,172.734699 68.1442035,172.619141 68.5966797,172.619141 C69.3160843,172.619141 69.8719056,172.848631 70.2641602,173.307617 C70.6564147,173.766604 70.8525391,174.416011 70.8525391,175.255859 L70.8525391,175.734375 L67.4003906,175.734375 C67.4361981,176.170575 67.5818672,176.515624 67.8374023,176.769531 C68.0929375,177.023439 68.4143861,177.150391 68.8017578,177.150391 C69.3453803,177.150391 69.7880842,176.930666 70.1298828,176.491211 L70.7695312,177.101562 C70.5579417,177.417319 70.2755552,177.662271 69.9223633,177.836426 C69.5691714,178.01058 69.1728538,178.097656 68.7333984,178.097656 Z M68.5917969,173.571289 C68.2662744,173.571289 68.003419,173.68522 67.8032227,173.913086 C67.6030263,174.140952 67.4752607,174.458331 67.4199219,174.865234 L69.6806641,174.865234 L69.6806641,174.777344 C69.6546223,174.380206 69.5488291,174.079916 69.3632812,173.876465 C69.1777334,173.673013 68.9205746,173.571289 68.5917969,173.571289 Z M74.9296875,178 C74.8776039,177.899088 74.8320314,177.734702 74.7929688,177.506836 C74.4153627,177.900718 73.9531277,178.097656 73.40625,178.097656 C72.8756484,178.097656 72.44271,177.946291 72.1074219,177.643555 C71.7721337,177.340819 71.6044922,176.966474 71.6044922,176.520508 C71.6044922,175.957354 71.8136372,175.525229 72.2319336,175.224121 C72.65023,174.923013 73.2483685,174.772461 74.0263672,174.772461 L74.7539062,174.772461 L74.7539062,174.425781 C74.7539062,174.152342 74.6774096,173.933432 74.5244141,173.769043 C74.3714185,173.604654 74.1386734,173.522461 73.8261719,173.522461 C73.5559882,173.522461 73.3346363,173.590006 73.1621094,173.725098 C72.9895825,173.860189 72.9033203,174.0319 72.9033203,174.240234 L71.7167969,174.240234 C71.7167969,173.950519 71.8128246,173.679526 72.0048828,173.427246 C72.1969411,173.174966 72.4581689,172.977214 72.7885742,172.833984 C73.1189795,172.690754 73.4876282,172.619141 73.8945312,172.619141 C74.5130239,172.619141 75.0061831,172.774575 75.3740234,173.085449 C75.7418638,173.396323 75.930664,173.833331 75.9404297,174.396484 L75.9404297,176.779297 C75.9404297,177.25456 76.0071608,177.633788 76.140625,177.916992 L76.140625,178 L74.9296875,178 Z M73.6259766,177.145508 C73.8603527,177.145508 74.0808909,177.088542 74.2875977,176.974609 C74.4943044,176.860677 74.6497391,176.707683 74.7539062,176.515625 L74.7539062,175.519531 L74.1142578,175.519531 C73.6748025,175.519531 73.3444021,175.596028 73.1230469,175.749023 C72.9016916,175.902019 72.7910156,176.118488 72.7910156,176.398438 C72.7910156,176.626303 72.8666985,176.807779 73.0180664,176.942871 C73.1694344,177.077963 73.372069,177.145508 73.6259766,177.145508 Z M78.8994141,175.734375 L78.3720703,176.276367 L78.3720703,178 L77.1855469,178 L77.1855469,170.5 L78.3720703,170.5 L78.3720703,174.826172 L78.7431641,174.362305 L80.203125,172.716797 L81.6289062,172.716797 L79.6660156,174.918945 L81.8388672,178 L80.4667969,178 L78.8994141,175.734375 Z M83.5039062,172.716797 L83.5380859,173.327148 C83.9287129,172.855141 84.4414031,172.619141 85.0761719,172.619141 C86.1764378,172.619141 86.736328,173.249017 86.7558594,174.508789 L86.7558594,178 L85.5693359,178 L85.5693359,174.577148 C85.5693359,174.24186 85.4969083,173.993653 85.3520508,173.83252 C85.2071933,173.671386 84.9703792,173.59082 84.6416016,173.59082 C84.1630835,173.59082 83.8066418,173.80729 83.5722656,174.240234 L83.5722656,178 L82.3857422,178 L82.3857422,172.716797 L83.5039062,172.716797 Z M90.2910156,178.097656 C89.5390587,178.097656 88.9295271,177.860842 88.4624023,177.387207 C87.9952776,176.913572 87.7617188,176.282882 87.7617188,175.495117 L87.7617188,175.348633 C87.7617188,174.821286 87.863443,174.3501 88.0668945,173.935059 C88.2703461,173.520017 88.5559877,173.196941 88.9238281,172.96582 C89.2916685,172.734699 89.7018207,172.619141 90.1542969,172.619141 C90.8737015,172.619141 91.4295228,172.848631 91.8217773,173.307617 C92.2140319,173.766604 92.4101562,174.416011 92.4101562,175.255859 L92.4101562,175.734375 L88.9580078,175.734375 C88.9938153,176.170575 89.1394844,176.515624 89.3950195,176.769531 C89.6505547,177.023439 89.9720033,177.150391 90.359375,177.150391 C90.9029975,177.150391 91.3457014,176.930666 91.6875,176.491211 L92.3271484,177.101562 C92.1155588,177.417319 91.8331723,177.662271 91.4799805,177.836426 C91.1267886,178.01058 90.7304709,178.097656 90.2910156,178.097656 Z M90.1494141,173.571289 C89.8238916,173.571289 89.5610362,173.68522 89.3608398,173.913086 C89.1606435,174.140952 89.0328779,174.458331 88.9775391,174.865234 L91.2382812,174.865234 L91.2382812,174.777344 C91.2122395,174.380206 91.1064462,174.079916 90.9208984,173.876465 C90.7353506,173.673013 90.4781917,173.571289 90.1494141,173.571289 Z M96.2919922,176.564453 C96.2919922,176.352864 96.2049162,176.191732 96.0307617,176.081055 C95.8566072,175.970377 95.5677104,175.872722 95.1640625,175.788086 C94.7604146,175.70345 94.423504,175.596029 94.1533203,175.46582 C93.5608694,175.179361 93.2646484,174.764326 93.2646484,174.220703 C93.2646484,173.764972 93.4567038,173.384116 93.8408203,173.078125 C94.2249368,172.772134 94.7132132,172.619141 95.3056641,172.619141 C95.9371776,172.619141 96.4474264,172.775389 96.8364258,173.087891 C97.2254251,173.400392 97.4199219,173.805662 97.4199219,174.303711 L96.2333984,174.303711 C96.2333984,174.075845 96.1487639,173.886231 95.9794922,173.734863 C95.8102205,173.583495 95.5856134,173.507812 95.3056641,173.507812 C95.0452461,173.507812 94.8328459,173.568033 94.668457,173.688477 C94.5040682,173.80892 94.421875,173.970051 94.421875,174.171875 C94.421875,174.354168 94.4983716,174.495768 94.6513672,174.59668 C94.8043627,174.697592 95.1136044,174.799316 95.5791016,174.901855 C96.0445987,175.004395 96.4099922,175.126464 96.675293,175.268066 C96.9405938,175.409669 97.1375319,175.579752 97.2661133,175.77832 C97.3946947,175.976889 97.4589844,176.217772 97.4589844,176.500977 C97.4589844,176.976239 97.2620462,177.361164 96.8681641,177.655762 C96.4742819,177.95036 95.9583365,178.097656 95.3203125,178.097656 C94.8873676,178.097656 94.5016293,178.019532 94.1630859,177.863281 C93.8245426,177.70703 93.5608733,177.492189 93.3720703,177.21875 C93.1832673,176.945311 93.0888672,176.650718 93.0888672,176.334961 L94.2412109,176.334961 C94.2574871,176.61491 94.3632803,176.830566 94.5585938,176.981934 C94.7539072,177.133302 95.0126937,177.208984 95.3349609,177.208984 C95.6474625,177.208984 95.8850903,177.149577 96.0478516,177.030762 C96.2106128,176.911946 96.2919922,176.756511 96.2919922,176.564453 Z M101.453125,176.564453 C101.453125,176.352864 101.366049,176.191732 101.191895,176.081055 C101.01774,175.970377 100.728843,175.872722 100.325195,175.788086 C99.9215475,175.70345 99.5846368,175.596029 99.3144531,175.46582 C98.7220022,175.179361 98.4257812,174.764326 98.4257812,174.220703 C98.4257812,173.764972 98.6178366,173.384116 99.0019531,173.078125 C99.3860696,172.772134 99.874346,172.619141 100.466797,172.619141 C101.09831,172.619141 101.608559,172.775389 101.997559,173.087891 C102.386558,173.400392 102.581055,173.805662 102.581055,174.303711 L101.394531,174.303711 C101.394531,174.075845 101.309897,173.886231 101.140625,173.734863 C100.971353,173.583495 100.746746,173.507812 100.466797,173.507812 C100.206379,173.507812 99.9939787,173.568033 99.8295898,173.688477 C99.665201,173.80892 99.5830078,173.970051 99.5830078,174.171875 C99.5830078,174.354168 99.6595044,174.495768 99.8125,174.59668 C99.9654956,174.697592 100.274737,174.799316 100.740234,174.901855 C101.205731,175.004395 101.571125,175.126464 101.836426,175.268066 C102.101727,175.409669 102.298665,175.579752 102.427246,175.77832 C102.555827,175.976889 102.620117,176.217772 102.620117,176.500977 C102.620117,176.976239 102.423179,177.361164 102.029297,177.655762 C101.635415,177.95036 101.119469,178.097656 100.481445,178.097656 C100.0485,178.097656 99.6627621,178.019532 99.3242188,177.863281 C98.9856754,177.70703 98.7220062,177.492189 98.5332031,177.21875 C98.3444001,176.945311 98.25,176.650718 98.25,176.334961 L99.4023438,176.334961 C99.4186199,176.61491 99.5244131,176.830566 99.7197266,176.981934 C99.91504,177.133302 100.173827,177.208984 100.496094,177.208984 C100.808595,177.208984 101.046223,177.149577 101.208984,177.030762 C101.371746,176.911946 101.453125,176.756511 101.453125,176.564453 Z M372,277 L250,277 L250,149.284608 C250,144.71083 254.377604,141 259.765224,141 L362.234776,141 C367.631767,141 372,144.701073 372,149.284608 L372,277 Z M367,151.240376 C367,148.339824 364.17795,146 360.685075,146 L261.314925,146 C257.831483,146 255,148.348795 255,151.240376 L255,271 L367,271 L367,151.240376 Z M353.493879,154 C358.185663,154 362,157.808122 362,162.5 C362,167.191878 358.185663,171 353.493879,171 C348.804127,171 345,167.192791 345,162.5 C345,157.806873 348.803349,154 353.493879,154 Z M353.493982,156 C349.908341,156 347,158.911036 347,162.5 C347,166.088964 349.909435,169 353.493982,169 C357.079623,169 360,166.088964 360,162.5 C360,158.911036 357.079623,156 353.493982,156 Z M361,177 L361,265 L261,265 L261,177 L361,177 Z M262,178 L262,264 L360,264 L360,178 L262,178 Z M264.261719,163.237305 L265.873047,157.890625 L267.503906,157.890625 L265.02832,165 L263.5,165 L261.03418,157.890625 L262.660156,157.890625 L264.261719,163.237305 Z M269.730469,165 L268.265625,165 L268.265625,157.890625 L269.730469,157.890625 L269.730469,165 Z M272.552734,163.823242 L275.663086,163.823242 L275.663086,165 L271.087891,165 L271.087891,157.890625 L272.552734,157.890625 L272.552734,163.823242 Z M277.967773,163.823242 L281.078125,163.823242 L281.078125,165 L276.50293,165 L276.50293,157.890625 L277.967773,157.890625 L277.967773,163.823242 Z M285.931641,163.535156 L283.363281,163.535156 L282.875,165 L281.317383,165 L283.963867,157.890625 L285.321289,157.890625 L287.982422,165 L286.424805,165 L285.931641,163.535156 Z M283.758789,162.348633 L285.536133,162.348633 L284.642578,159.6875 L283.758789,162.348633 Z M290.204102,165 L288.739258,165 L288.739258,157.890625 L290.204102,157.890625 L290.204102,165 Z M297.342773,165 L295.87793,165 L293.026367,160.322266 L293.026367,165 L291.561523,165 L291.561523,157.890625 L293.026367,157.890625 L295.882812,162.578125 L295.882812,157.890625 L297.342773,157.890625 L297.342773,165 Z M302.308594,163.134766 C302.308594,162.858072 302.210938,162.645671 302.015625,162.497559 C301.820312,162.349446 301.468753,162.193197 300.960938,162.028809 C300.453122,161.86442 300.051108,161.702475 299.754883,161.542969 C298.947587,161.106769 298.543945,160.519209 298.543945,159.780273 C298.543945,159.396157 298.65218,159.05355 298.868652,158.752441 C299.085125,158.451333 299.395994,158.216147 299.80127,158.046875 C300.206545,157.877603 300.661456,157.792969 301.166016,157.792969 C301.673831,157.792969 302.1263,157.884927 302.523438,158.068848 C302.920575,158.252768 303.229003,158.512368 303.44873,158.847656 C303.668458,159.182944 303.77832,159.5638 303.77832,159.990234 L302.313477,159.990234 C302.313477,159.664712 302.210939,159.411622 302.005859,159.230957 C301.80078,159.050292 301.512697,158.959961 301.141602,158.959961 C300.783527,158.959961 300.505209,159.035644 300.306641,159.187012 C300.108072,159.33838 300.008789,159.537759 300.008789,159.785156 C300.008789,160.016277 300.125162,160.20996 300.35791,160.366211 C300.590659,160.522462 300.933266,160.668945 301.385742,160.805664 C302.21908,161.056316 302.82617,161.367186 303.207031,161.738281 C303.587893,162.109377 303.77832,162.571612 303.77832,163.125 C303.77832,163.740237 303.545575,164.222817 303.080078,164.572754 C302.614581,164.922691 301.98796,165.097656 301.200195,165.097656 C300.653318,165.097656 300.155276,164.99756 299.706055,164.797363 C299.256834,164.597167 298.914226,164.322918 298.678223,163.974609 C298.442219,163.6263 298.324219,163.222659 298.324219,162.763672 L299.793945,162.763672 C299.793945,163.548181 300.262691,163.94043 301.200195,163.94043 C301.548504,163.94043 301.820312,163.86963 302.015625,163.728027 C302.210938,163.586425 302.308594,163.388673 302.308594,163.134766 Z M273.026367,194 L271.795898,194 L271.795898,186.890625 L273.026367,186.890625 L273.026367,194 Z M274.544922,194 L274.544922,186.890625 L276.644531,186.890625 C277.27279,186.890625 277.830238,187.030598 278.316895,187.310547 C278.803551,187.590496 279.180337,187.987628 279.447266,188.501953 C279.714194,189.016279 279.847656,189.605465 279.847656,190.269531 L279.847656,190.625977 C279.847656,191.299808 279.71338,191.89225 279.444824,192.40332 C279.176268,192.914391 278.793785,193.308267 278.297363,193.584961 C277.800942,193.861655 277.2321,194 276.59082,194 L274.544922,194 Z M275.780273,187.886719 L275.780273,193.013672 L276.585938,193.013672 C277.233727,193.013672 277.730955,192.811037 278.077637,192.405762 C278.424318,192.000486 278.600911,191.418624 278.607422,190.660156 L278.607422,190.264648 C278.607422,189.49316 278.43978,188.903973 278.104492,188.49707 C277.769204,188.090167 277.282555,187.886719 276.644531,187.886719 L275.780273,187.886719 Z M277.362305,223 L276.126953,223 L272.958008,217.956055 L272.958008,223 L271.722656,223 L271.722656,215.890625 L272.958008,215.890625 L276.136719,220.954102 L276.136719,215.890625 L277.362305,215.890625 L277.362305,223 Z M281.864258,223 C281.812174,222.899088 281.766602,222.734702 281.727539,222.506836 C281.349933,222.900718 280.887698,223.097656 280.34082,223.097656 C279.810219,223.097656 279.37728,222.946291 279.041992,222.643555 C278.706704,222.340819 278.539062,221.966474 278.539062,221.520508 C278.539062,220.957354 278.748208,220.525229 279.166504,220.224121 C279.5848,219.923013 280.182939,219.772461 280.960938,219.772461 L281.688477,219.772461 L281.688477,219.425781 C281.688477,219.152342 281.61198,218.933432 281.458984,218.769043 C281.305989,218.604654 281.073244,218.522461 280.760742,218.522461 C280.490559,218.522461 280.269207,218.590006 280.09668,218.725098 C279.924153,218.860189 279.837891,219.0319 279.837891,219.240234 L278.651367,219.240234 C278.651367,218.950519 278.747395,218.679526 278.939453,218.427246 C279.131511,218.174966 279.392739,217.977214 279.723145,217.833984 C280.05355,217.690754 280.422198,217.619141 280.829102,217.619141 C281.447594,217.619141 281.940753,217.774575 282.308594,218.085449 C282.676434,218.396323 282.865234,218.833331 282.875,219.396484 L282.875,221.779297 C282.875,222.25456 282.941731,222.633788 283.075195,222.916992 L283.075195,223 L281.864258,223 Z M280.560547,222.145508 C280.794923,222.145508 281.015461,222.088542 281.222168,221.974609 C281.428875,221.860677 281.584309,221.707683 281.688477,221.515625 L281.688477,220.519531 L281.048828,220.519531 C280.609373,220.519531 280.278972,220.596028 280.057617,220.749023 C279.836262,220.902019 279.725586,221.118488 279.725586,221.398438 C279.725586,221.626303 279.801269,221.807779 279.952637,221.942871 C280.104005,222.077963 280.306639,222.145508 280.560547,222.145508 Z M285.233398,217.716797 L285.267578,218.268555 C285.638674,217.83561 286.146481,217.619141 286.791016,217.619141 C287.497399,217.619141 287.980793,217.88932 288.241211,218.429688 C288.625327,217.88932 289.165687,217.619141 289.862305,217.619141 C290.44499,217.619141 290.878742,217.780272 291.163574,218.102539 C291.448406,218.424806 291.594075,218.900062 291.600586,219.52832 L291.600586,223 L290.414062,223 L290.414062,219.5625 C290.414062,219.227212 290.340821,218.981446 290.194336,218.825195 C290.047851,218.668945 289.80534,218.59082 289.466797,218.59082 C289.196613,218.59082 288.976075,218.663248 288.805176,218.808105 C288.634276,218.952963 288.514649,219.142577 288.446289,219.376953 L288.451172,223 L287.264648,223 L287.264648,219.523438 C287.248372,218.90169 286.930993,218.59082 286.3125,218.59082 C285.837237,218.59082 285.500327,218.784503 285.301758,219.171875 L285.301758,223 L284.115234,223 L284.115234,217.716797 L285.233398,217.716797 Z M295.145508,223.097656 C294.393551,223.097656 293.784019,222.860842 293.316895,222.387207 C292.84977,221.913572 292.616211,221.282882 292.616211,220.495117 L292.616211,220.348633 C292.616211,219.821286 292.717935,219.3501 292.921387,218.935059 C293.124838,218.520017 293.41048,218.196941 293.77832,217.96582 C294.146161,217.734699 294.556313,217.619141 295.008789,217.619141 C295.728194,217.619141 296.284015,217.848631 296.67627,218.307617 C297.068524,218.766604 297.264648,219.416011 297.264648,220.255859 L297.264648,220.734375 L293.8125,220.734375 C293.848307,221.170575 293.993977,221.515624 294.249512,221.769531 C294.505047,222.023439 294.826495,222.150391 295.213867,222.150391 C295.75749,222.150391 296.200194,221.930666 296.541992,221.491211 L297.181641,222.101562 C296.970051,222.417319 296.687665,222.662271 296.334473,222.836426 C295.981281,223.01058 295.584963,223.097656 295.145508,223.097656 Z M295.003906,218.571289 C294.678384,218.571289 294.415528,218.68522 294.215332,218.913086 C294.015136,219.140952 293.88737,219.458331 293.832031,219.865234 L296.092773,219.865234 L296.092773,219.777344 C296.066732,219.380206 295.960938,219.079916 295.775391,218.876465 C295.589843,218.673013 295.332684,218.571289 295.003906,218.571289 Z M277.298828,252.242188 L278.392578,246.890625 L279.618164,246.890625 L277.977539,254 L276.795898,254 L275.443359,248.80957 L274.061523,254 L272.875,254 L271.234375,246.890625 L272.459961,246.890625 L273.563477,252.232422 L274.920898,246.890625 L275.956055,246.890625 L277.298828,252.242188 Z M282.733398,254.097656 C281.981442,254.097656 281.37191,253.860842 280.904785,253.387207 C280.43766,252.913572 280.204102,252.282882 280.204102,251.495117 L280.204102,251.348633 C280.204102,250.821286 280.305826,250.3501 280.509277,249.935059 C280.712729,249.520017 280.998371,249.196941 281.366211,248.96582 C281.734051,248.734699 282.144203,248.619141 282.59668,248.619141 C283.316084,248.619141 283.871906,248.848631 284.26416,249.307617 C284.656415,249.766604 284.852539,250.416011 284.852539,251.255859 L284.852539,251.734375 L281.400391,251.734375 C281.436198,252.170575 281.581867,252.515624 281.837402,252.769531 C282.092937,253.023439 282.414386,253.150391 282.801758,253.150391 C283.34538,253.150391 283.788084,252.930666 284.129883,252.491211 L284.769531,253.101562 C284.557942,253.417319 284.275555,253.662271 283.922363,253.836426 C283.569171,254.01058 283.172854,254.097656 282.733398,254.097656 Z M282.591797,249.571289 C282.266274,249.571289 282.003419,249.68522 281.803223,249.913086 C281.603026,250.140952 281.475261,250.458331 281.419922,250.865234 L283.680664,250.865234 L283.680664,250.777344 C283.654622,250.380206 283.548829,250.079916 283.363281,249.876465 C283.177733,249.673013 282.920575,249.571289 282.591797,249.571289 Z M288.929688,254 C288.877604,253.899088 288.832031,253.734702 288.792969,253.506836 C288.415363,253.900718 287.953128,254.097656 287.40625,254.097656 C286.875648,254.097656 286.44271,253.946291 286.107422,253.643555 C285.772134,253.340819 285.604492,252.966474 285.604492,252.520508 C285.604492,251.957354 285.813637,251.525229 286.231934,251.224121 C286.65023,250.923013 287.248369,250.772461 288.026367,250.772461 L288.753906,250.772461 L288.753906,250.425781 C288.753906,250.152342 288.67741,249.933432 288.524414,249.769043 C288.371419,249.604654 288.138673,249.522461 287.826172,249.522461 C287.555988,249.522461 287.334636,249.590006 287.162109,249.725098 C286.989582,249.860189 286.90332,250.0319 286.90332,250.240234 L285.716797,250.240234 C285.716797,249.950519 285.812825,249.679526 286.004883,249.427246 C286.196941,249.174966 286.458169,248.977214 286.788574,248.833984 C287.11898,248.690754 287.487628,248.619141 287.894531,248.619141 C288.513024,248.619141 289.006183,248.774575 289.374023,249.085449 C289.741864,249.396323 289.930664,249.833331 289.94043,250.396484 L289.94043,252.779297 C289.94043,253.25456 290.007161,253.633788 290.140625,253.916992 L290.140625,254 L288.929688,254 Z M287.625977,253.145508 C287.860353,253.145508 288.080891,253.088542 288.287598,252.974609 C288.494304,252.860677 288.649739,252.707683 288.753906,252.515625 L288.753906,251.519531 L288.114258,251.519531 C287.674802,251.519531 287.344402,251.596028 287.123047,251.749023 C286.901692,251.902019 286.791016,252.118488 286.791016,252.398438 C286.791016,252.626303 286.866698,252.807779 287.018066,252.942871 C287.169434,253.077963 287.372069,253.145508 287.625977,253.145508 Z M292.899414,251.734375 L292.37207,252.276367 L292.37207,254 L291.185547,254 L291.185547,246.5 L292.37207,246.5 L292.37207,250.826172 L292.743164,250.362305 L294.203125,248.716797 L295.628906,248.716797 L293.666016,250.918945 L295.838867,254 L294.466797,254 L292.899414,251.734375 Z M297.503906,248.716797 L297.538086,249.327148 C297.928713,248.855141 298.441403,248.619141 299.076172,248.619141 C300.176438,248.619141 300.736328,249.249017 300.755859,250.508789 L300.755859,254 L299.569336,254 L299.569336,250.577148 C299.569336,250.24186 299.496908,249.993653 299.352051,249.83252 C299.207193,249.671386 298.970379,249.59082 298.641602,249.59082 C298.163084,249.59082 297.806642,249.80729 297.572266,250.240234 L297.572266,254 L296.385742,254 L296.385742,248.716797 L297.503906,248.716797 Z M304.291016,254.097656 C303.539059,254.097656 302.929527,253.860842 302.462402,253.387207 C301.995278,252.913572 301.761719,252.282882 301.761719,251.495117 L301.761719,251.348633 C301.761719,250.821286 301.863443,250.3501 302.066895,249.935059 C302.270346,249.520017 302.555988,249.196941 302.923828,248.96582 C303.291669,248.734699 303.701821,248.619141 304.154297,248.619141 C304.873702,248.619141 305.429523,248.848631 305.821777,249.307617 C306.214032,249.766604 306.410156,250.416011 306.410156,251.255859 L306.410156,251.734375 L302.958008,251.734375 C302.993815,252.170575 303.139484,252.515624 303.39502,252.769531 C303.650555,253.023439 303.972003,253.150391 304.359375,253.150391 C304.902998,253.150391 305.345701,252.930666 305.6875,252.491211 L306.327148,253.101562 C306.115559,253.417319 305.833172,253.662271 305.47998,253.836426 C305.126789,254.01058 304.730471,254.097656 304.291016,254.097656 Z M304.149414,249.571289 C303.823892,249.571289 303.561036,249.68522 303.36084,249.913086 C303.160644,250.140952 303.032878,250.458331 302.977539,250.865234 L305.238281,250.865234 L305.238281,250.777344 C305.212239,250.380206 305.106446,250.079916 304.920898,249.876465 C304.735351,249.673013 304.478192,249.571289 304.149414,249.571289 Z M310.291992,252.564453 C310.291992,252.352864 310.204916,252.191732 310.030762,252.081055 C309.856607,251.970377 309.56771,251.872722 309.164062,251.788086 C308.760415,251.70345 308.423504,251.596029 308.15332,251.46582 C307.560869,251.179361 307.264648,250.764326 307.264648,250.220703 C307.264648,249.764972 307.456704,249.384116 307.84082,249.078125 C308.224937,248.772134 308.713213,248.619141 309.305664,248.619141 C309.937178,248.619141 310.447426,248.775389 310.836426,249.087891 C311.225425,249.400392 311.419922,249.805662 311.419922,250.303711 L310.233398,250.303711 C310.233398,250.075845 310.148764,249.886231 309.979492,249.734863 C309.810221,249.583495 309.585613,249.507812 309.305664,249.507812 C309.045246,249.507812 308.832846,249.568033 308.668457,249.688477 C308.504068,249.80892 308.421875,249.970051 308.421875,250.171875 C308.421875,250.354168 308.498372,250.495768 308.651367,250.59668 C308.804363,250.697592 309.113604,250.799316 309.579102,250.901855 C310.044599,251.004395 310.409992,251.126464 310.675293,251.268066 C310.940594,251.409669 311.137532,251.579752 311.266113,251.77832 C311.394695,251.976889 311.458984,252.217772 311.458984,252.500977 C311.458984,252.976239 311.262046,253.361164 310.868164,253.655762 C310.474282,253.95036 309.958337,254.097656 309.320312,254.097656 C308.887368,254.097656 308.501629,254.019532 308.163086,253.863281 C307.824543,253.70703 307.560873,253.492189 307.37207,253.21875 C307.183267,252.945311 307.088867,252.650718 307.088867,252.334961 L308.241211,252.334961 C308.257487,252.61491 308.36328,252.830566 308.558594,252.981934 C308.753907,253.133302 309.012694,253.208984 309.334961,253.208984 C309.647463,253.208984 309.88509,253.149577 310.047852,253.030762 C310.210613,252.911946 310.291992,252.756511 310.291992,252.564453 Z M315.453125,252.564453 C315.453125,252.352864 315.366049,252.191732 315.191895,252.081055 C315.01774,251.970377 314.728843,251.872722 314.325195,251.788086 C313.921547,251.70345 313.584637,251.596029 313.314453,251.46582 C312.722002,251.179361 312.425781,250.764326 312.425781,250.220703 C312.425781,249.764972 312.617837,249.384116 313.001953,249.078125 C313.38607,248.772134 313.874346,248.619141 314.466797,248.619141 C315.09831,248.619141 315.608559,248.775389 315.997559,249.087891 C316.386558,249.400392 316.581055,249.805662 316.581055,250.303711 L315.394531,250.303711 C315.394531,250.075845 315.309897,249.886231 315.140625,249.734863 C314.971353,249.583495 314.746746,249.507812 314.466797,249.507812 C314.206379,249.507812 313.993979,249.568033 313.82959,249.688477 C313.665201,249.80892 313.583008,249.970051 313.583008,250.171875 C313.583008,250.354168 313.659504,250.495768 313.8125,250.59668 C313.965496,250.697592 314.274737,250.799316 314.740234,250.901855 C315.205731,251.004395 315.571125,251.126464 315.836426,251.268066 C316.101727,251.409669 316.298665,251.579752 316.427246,251.77832 C316.555827,251.976889 316.620117,252.217772 316.620117,252.500977 C316.620117,252.976239 316.423179,253.361164 316.029297,253.655762 C315.635415,253.95036 315.119469,254.097656 314.481445,254.097656 C314.0485,254.097656 313.662762,254.019532 313.324219,253.863281 C312.985675,253.70703 312.722006,253.492189 312.533203,253.21875 C312.3444,252.945311 312.25,252.650718 312.25,252.334961 L313.402344,252.334961 C313.41862,252.61491 313.524413,252.830566 313.719727,252.981934 C313.91504,253.133302 314.173827,253.208984 314.496094,253.208984 C314.808595,253.208984 315.046223,253.149577 315.208984,253.030762 C315.371746,252.911946 315.453125,252.756511 315.453125,252.564453 Z M224.761772,242.340136 C224.49603,242.582533 224.098572,242.9519 223.656444,243.368888 C222.789969,244.18609 221.970484,244.981373 221.22726,245.728387 C221.075036,245.881386 220.926993,246.0314 220.783565,246.177998 C220.256138,246.71761 219.332259,246.99343 218.616723,246.796673 C217.651726,246.53132 217.267327,245.631723 217.267327,244.197545 L217.267327,218.854617 C217.267327,215.91438 219.608626,215.590865 222.140549,217.736975 C222.707279,218.217219 225.594793,220.837483 230.919905,225.700594 C231.221025,225.975594 231.753018,226.461715 232.592322,227.228775 C233.769622,228.30477 233.769622,228.30477 235.083424,229.505538 C237.808715,231.996316 239.205434,233.272399 239.477852,233.519979 C241.1783,235.067214 240.341354,237.443299 238.045043,237.443299 L232.971528,237.443299 L233.331315,238.308648 C233.452882,238.60104 233.635683,239.040075 233.839086,239.528034 C234.240893,240.491955 234.619013,241.396958 234.979113,242.256383 C235.742313,244.07765 236.252551,245.28236 236.488096,245.817969 C237.064339,247.128303 236.846123,248.485804 235.738314,249.033903 C235.595492,249.104652 235.595492,249.104652 235.292178,249.254942 C235.031511,249.384034 235.031511,249.384034 234.869415,249.464036 C234.580959,249.60591 234.36681,249.708694 234.162712,249.803032 C234.039743,249.85987 233.920818,249.913407 233.801548,249.965599 C233.295844,250.186888 232.735885,250.404642 231.914332,250.699626 C230.528922,251.197385 229.450543,250.604939 228.729182,249.128887 C228.471455,248.601121 228.006496,247.590423 227.363428,246.162406 L227.318203,246.06194 C226.98592,245.323535 226.621525,244.508179 226.238722,243.646949 C226.043625,243.208019 225.868462,242.812848 225.752069,242.549351 L225.401779,241.75635 L224.761772,242.340136 Z M219.809457,244.317772 C220.568469,243.55489 221.403007,242.744998 222.284203,241.913911 C222.734001,241.48969 223.139481,241.112868 223.413951,240.862509 L226.107919,238.405195 L227.581533,241.74123 C227.697268,242.003235 227.871815,242.397018 228.066319,242.834612 C228.44794,243.693184 228.811102,244.505781 229.142026,245.241167 L229.187077,245.341248 C229.821725,246.750566 230.280649,247.748144 230.52621,248.250999 C230.836848,248.886626 230.919337,248.931944 231.238274,248.817354 C232.020914,248.536343 232.541058,248.334072 232.999774,248.133343 C233.106361,248.086702 233.212844,248.038766 233.323581,247.987581 C233.511337,247.900797 233.711608,247.804675 233.986717,247.669365 C234.144141,247.591667 234.144141,247.591667 234.403768,247.463091 C234.707122,247.312781 234.707122,247.312781 234.851676,247.241175 C234.822368,247.255675 234.852652,247.067285 234.657309,246.623092 C234.415268,246.072707 233.902607,244.862276 233.134507,243.029319 C232.773892,242.168663 232.395306,241.262545 231.99305,240.297547 C231.789422,239.80905 231.60639,239.369459 231.484574,239.076468 L229.97401,235.443299 L238.045043,235.443299 C238.473472,235.443299 238.509002,235.342432 238.132289,234.999661 C237.858038,234.750416 236.464467,233.477209 233.734978,230.982594 C232.420332,229.781054 232.420332,229.781054 231.243073,228.705098 C230.403961,227.938213 229.872069,227.452184 229.571202,227.177415 C224.293539,222.357636 221.384046,219.717428 220.84746,219.262728 C219.405386,218.040396 219.267327,218.059472 219.267327,218.854617 L219.267327,244.197545 C219.267327,244.458684 219.282804,244.661616 219.307037,244.807237 C219.501377,244.62867 219.653346,244.474677 219.809457,244.317772 Z"/>
  </g>
</svg>
