<svg xmlns="http://www.w3.org/2000/svg" width="400" height="350" viewBox="0 0 400 350">
  <g fill="none" fill-rule="evenodd">
    <path fill="#EAEAEA" d="M61.4008211,230.813795 C61.0084848,229.725137 60.6285972,228.628512 60.2652524,227.536203 C60.0297003,226.829547 60.4117981,226.065352 61.1184543,225.830699 C61.8269085,225.595147 62.589306,225.978144 62.823959,226.683901 C63.1963034,227.802715 63.5866916,228.926237 63.9896824,230.040993 C65.1218926,229.800701 66.2961826,229.674279 67.5,229.674279 C76.7925892,229.674279 84.3257212,237.207411 84.3257212,246.5 C84.3257212,251.890114 81.7911882,256.688255 77.8488937,259.767654 C78.3961693,259.611576 79.0056221,259.816232 79.3395741,260.313901 C80.326735,261.784752 81.3615457,263.265494 82.4179338,264.714768 C82.8557729,265.316235 82.723612,266.160446 82.1221451,266.598285 C81.8820978,266.772702 81.6042902,266.857213 81.3282808,266.857213 C80.9120189,266.857213 80.5011514,266.664815 80.2377287,266.302497 C79.1615615,264.825352 78.1060726,263.315841 77.1000315,261.817118 C76.789471,261.352962 76.803991,260.766143 77.0910165,260.326345 C74.3701409,262.217306 71.0645126,263.325721 67.5,263.325721 C58.2074108,263.325721 50.6742788,255.792589 50.6742788,246.5 C50.6742788,239.35864 55.1232942,233.256404 61.4008211,230.813795 Z M333.251606,207 C333.531755,206.532889 334.080062,206.264513 334.648328,206.366188 C335.047185,206.438041 335.372961,206.678111 335.565987,207 L346.479199,207 L363.910884,234.961175 L356.926348,280.554286 L347.702773,280.554286 L348.617596,269.475102 L338.162101,269.475102 L337.247277,280.554286 L313.752723,280.554286 L312.837899,269.475102 L308.383709,269.475102 C308.076638,269.873042 307.767952,270.26867 307.458249,270.661109 C307.192129,270.998254 306.797445,271.175368 306.399164,271.175368 C306.106073,271.175368 305.812082,271.080068 305.564842,270.884973 C305.127578,270.541072 304.961292,269.980389 305.097476,269.475102 L302.382404,269.475102 L302.798885,274.518992 C303.176869,274.960451 303.227882,275.596763 302.928673,276.090821 L303.297227,280.554286 L298.839746,280.554286 C298.621237,280.692044 298.371187,280.761077 298.121577,280.761077 C297.871368,280.761077 297.621664,280.692273 297.402447,280.554286 L294.073652,280.554286 L287.089116,234.961175 L304.520801,207 L333.251606,207 Z M163.647163,46.2294025 C163.127929,46.1390191 162.68806,45.7468351 162.56317,45.2009353 C162.414862,44.5531899 162.759784,43.9083037 163.350628,43.6582741 L161.336874,26.1978784 L195.06,14.1698542 L228.783126,26.1978784 L226.792683,43.4561565 C226.856068,43.4611031 226.919945,43.4705212 226.983959,43.484642 C228.758691,43.8856199 230.548707,44.3252571 232.305457,44.793664 C233.0247,44.9860615 233.453549,45.7250836 233.261151,46.4443265 C233.100221,47.0475915 232.555394,47.4458722 231.959322,47.4458722 C231.844243,47.4458722 231.727366,47.4305883 231.610489,47.4000205 C229.9188,46.9488445 228.195028,46.5245483 226.483454,46.1373504 L223.624266,70.9281509 L195.06,86.7517607 L166.495734,70.9281509 L163.647163,46.2294025 Z M151.674732,49.6287744 C151.10653,49.6287744 150.577886,49.2673549 150.392681,48.6982539 C150.161625,47.9906987 150.548218,47.2292003 151.255773,46.9981435 C152.981956,46.435336 154.745899,45.8968028 156.497256,45.3996262 C157.215599,45.1928438 157.960016,45.6109038 158.164101,46.3283486 C158.366388,47.0448943 157.951025,47.7902098 157.234479,47.9933959 C155.515489,48.481582 153.786609,49.0093265 152.093691,49.5622445 C151.953438,49.6071972 151.813186,49.6287744 151.674732,49.6287744 Z M244.046199,51.2632539 C243.891562,51.2632539 243.735126,51.2362823 243.582287,51.180541 C241.902855,50.5655883 240.18836,49.9749101 238.485552,49.4246893 C237.776199,49.1954306 237.387808,48.4357303 237.616167,47.727276 C237.845426,47.0188218 238.603328,46.6286325 239.31358,46.8578912 C241.049653,47.4189006 242.798312,48.0203675 244.51011,48.6479069 C245.209574,48.9041372 245.568297,49.6782224 245.312066,50.3776861 C245.112476,50.9243107 244.595521,51.2632539 244.046199,51.2632539 Z M139.842287,54.0907776 C139.319038,54.0907776 138.821861,53.7842003 138.602492,53.2735379 C138.308502,52.589358 138.624069,51.7963927 139.309148,51.5024022 C140.973297,50.7876546 142.676104,50.0944842 144.371719,49.4435694 C145.061293,49.1756514 145.846167,49.5217871 146.114085,50.2185536 C146.381104,50.9135221 146.034069,51.6930016 145.339101,51.9609196 C143.675852,52.6001467 142.00541,53.2798312 140.373628,53.9810931 C140.20011,54.0548155 140.019401,54.0907776 139.842287,54.0907776 Z M255.750079,56.1612981 C255.556782,56.1612981 255.35989,56.1199416 255.173785,56.0318344 C253.559984,55.2685379 251.906625,54.5259196 250.260457,53.8237587 C249.574479,53.5324653 249.256215,52.7395 249.548407,52.0553202 C249.840599,51.3693423 250.634464,51.0501782 251.317744,51.3432697 C252.996278,52.0580174 254.682003,52.8159196 256.327271,53.5936009 C257.000662,53.9118659 257.28836,54.7165189 256.970095,55.389011 C256.739038,55.8762981 256.254448,56.1612981 255.750079,56.1612981 Z M128.466562,59.595683 C127.987366,59.595683 127.523454,59.3394527 127.279811,58.8881278 C126.925584,58.2336167 127.169227,57.4145789 127.824637,57.0603517 C129.425852,56.1945631 131.06123,55.3512508 132.68582,54.5528912 C133.350221,54.2247366 134.160268,54.4989479 134.490221,55.1678438 C134.819274,55.8367397 134.543265,56.644989 133.875268,56.9731435 C132.282145,57.7562192 130.678233,58.5833486 129.106688,59.4329543 C128.903502,59.5435379 128.683233,59.595683 128.466562,59.595683 Z M266.960379,62.0923549 C266.728423,62.0923549 266.492871,62.0321183 266.278896,61.9062508 C264.728028,60.9946104 263.148391,60.1063454 261.584937,59.2666293 C260.928628,58.9133013 260.682287,58.0960615 261.035615,57.4397524 C261.388044,56.7834432 262.207082,56.5389006 262.861593,56.8904306 C264.455615,57.7472287 266.064921,58.6516767 267.644558,59.5812981 C268.287382,59.9580016 268.501356,60.7851309 268.123754,61.4270552 C267.872918,61.8541057 267.422492,62.0923549 266.960379,62.0923549 Z M117.623076,66.1030331 C117.186136,66.1030331 116.757287,65.8908565 116.497461,65.4988691 C116.086593,64.877623 116.256514,64.0415032 116.876861,63.6297366 C118.387271,62.6290899 119.941735,61.641929 121.496199,60.6943265 C122.13183,60.3059353 122.961656,60.5091215 123.349148,61.1447524 C123.73664,61.7812823 123.535252,62.6111088 122.898722,62.9986009 C121.373927,63.9273233 119.848233,64.8965032 118.367492,65.8782697 C118.138233,66.0302098 117.879306,66.1030331 117.623076,66.1030331 Z M277.585394,69.0024811 C277.312981,69.0024811 277.03877,68.9206672 276.80142,68.749847 C275.34765,67.710541 273.85612,66.6847208 272.366388,65.7011562 C271.745142,65.2911877 271.573423,64.4550678 271.983391,63.8338218 C272.39336,63.2107776 273.230379,63.0399574 273.851625,63.4499259 C275.370126,64.4514716 276.890426,65.497071 278.371167,66.5579543 C278.977129,66.9912981 279.116483,67.8337114 278.68224,68.4396735 C278.418817,68.8064874 278.005252,69.0024811 277.585394,69.0024811 Z M107.399038,73.5570868 C107.003454,73.5570868 106.611467,73.3835694 106.344448,73.0509196 C105.879637,72.4692319 105.974038,71.6205252 106.555726,71.1548155 C107.969038,70.023806 109.429101,68.900888 110.895457,67.8175284 C111.493328,67.375194 112.338438,67.5010615 112.781672,68.0998312 C113.224905,68.6986009 113.098139,69.5437114 112.499369,69.9860457 C111.059984,71.0496262 109.626893,72.1518659 108.240552,73.2612981 C107.991514,73.459989 107.693927,73.5570868 107.399038,73.5570868 Z M287.546909,76.8314401 C287.234937,76.8314401 286.922066,76.7244527 286.667634,76.5050836 C285.309164,75.3354148 283.915631,74.18103 282.524795,73.074295 C281.942208,72.6103833 281.846009,71.7616767 282.309921,71.179989 C282.774732,70.5974022 283.62164,70.5003044 284.205126,70.9642161 C285.622035,72.0925284 287.042539,73.2693896 288.427082,74.4606356 C288.991688,74.9470237 289.05642,75.7984274 288.570032,76.3630331 C288.303013,76.6723076 287.926309,76.8314401 287.546909,76.8314401 Z M97.8753628,81.8976073 C97.5202366,81.8976073 97.1660095,81.7582539 96.9007886,81.4822445 C96.3856309,80.9437114 96.404511,80.0905095 96.9421451,79.5744527 C98.2592587,78.3139795 99.6141325,77.064295 100.969905,75.8622603 C101.528218,75.3677808 102.379621,75.4190268 102.874101,75.975541 C103.367681,76.5329543 103.317334,77.3852571 102.759921,77.8797366 C101.430221,79.059295 100.100521,80.284705 98.8076814,81.5227019 C98.5469558,81.7735379 98.2107098,81.8976073 97.8753628,81.8976073 Z M296.766703,85.5145 C296.415174,85.5145 296.062744,85.3778438 295.799322,85.1054306 C294.555931,83.8251782 293.271183,82.5521183 291.980142,81.3204148 C291.441609,80.8070552 291.420931,79.9529543 291.936088,79.4135221 C292.449448,78.875888 293.304448,78.8552098 293.842082,79.3685694 C295.157397,80.6236483 296.467319,81.9218817 297.734085,83.2264085 C298.252839,83.7604464 298.240252,84.6145473 297.706215,85.1333013 C297.44459,85.3877334 297.105647,85.5145 296.766703,85.5145 Z M89.1293691,91.0562666 C88.8138013,91.0562666 88.4982334,90.946582 88.2429022,90.7236167 C87.6818927,90.2336325 87.6234543,89.3822287 88.1134385,88.8212192 C89.3073817,87.4528596 90.5462776,86.0871972 91.7959621,84.7610931 C92.3057256,84.2198628 93.1598265,84.1928912 93.7019558,84.7053517 C94.2440852,85.2160142 94.2692587,86.0701151 93.7585962,86.6113454 C92.5331861,87.912276 91.3167666,89.2518659 90.1452997,90.594153 C89.8791798,90.8998312 89.5051735,91.0562666 89.1293691,91.0562666 Z M305.173754,94.9797366 C304.781767,94.9797366 304.392476,94.8089164 304.125457,94.4807618 C302.997145,93.0899259 301.831972,91.7080804 300.661404,90.3729858 C300.170521,89.8128754 300.225363,88.9605726 300.785473,88.4696893 C301.346483,87.978806 302.198785,88.0354464 302.689669,88.5946577 C303.882713,89.9549259 305.070363,91.3637429 306.220252,92.7815505 C306.689558,93.359642 306.600552,94.2092476 306.02336,94.6785536 C305.772524,94.8808407 305.47224,94.9797366 305.173754,94.9797366 Z M81.2302839,100.962938 C80.9551735,100.962938 80.678265,100.879326 80.4391167,100.705809 C79.8367508,100.26797 79.7027918,99.4246577 80.1406309,98.8222918 C81.2051104,97.3568344 82.3181388,95.8850836 83.4482492,94.4483959 C83.9085647,93.8613139 84.7554732,93.7615189 85.3416562,94.2218344 C85.9278391,94.6821498 86.0285331,95.5299574 85.5682177,96.1152413 C84.4596845,97.5258565 83.3673344,98.9697366 82.3226341,100.407323 C82.0583123,100.770541 81.6474448,100.962938 81.2302839,100.962938 Z M312.698833,105.151629 C312.265489,105.151629 311.839338,104.943049 311.579511,104.556456 C310.586057,103.079311 309.548549,101.599468 308.496656,100.157386 C308.057019,99.5568186 308.18918,98.7126073 308.790647,98.2738691 C309.393912,97.8342319 310.235426,97.9654937 310.675063,98.5678596 C311.747634,100.037812 312.804921,101.545525 313.817256,103.050541 C314.232618,103.668191 314.068991,104.506109 313.450442,104.922371 C313.219385,105.077907 312.95776,105.151629 312.698833,105.151629 Z M74.2464353,111.541203 C74.0117823,111.541203 73.7726341,111.479169 73.5559621,111.349705 C72.916735,110.967607 72.7081546,110.139579 73.0902524,109.500352 C74.0270662,107.933301 75.0043375,106.36715 75.9950946,104.845951 C76.4014669,104.221109 77.2384858,104.044894 77.8606309,104.451267 C78.4854732,104.857639 78.6616877,105.693759 78.2553155,106.317702 C77.2825394,107.810131 76.3241483,109.346614 75.4053155,110.883995 C75.1535804,111.30655 74.7058517,111.541203 74.2464353,111.541203 Z M319.281703,115.951062 C318.805205,115.951062 318.34489,115.698427 318.098549,115.251598 C317.240852,113.69174 316.340899,112.125588 315.422965,110.598995 C315.039069,109.959768 315.245852,109.13174 315.88418,108.747844 C316.518912,108.363948 317.349637,108.569831 317.735331,109.209058 C318.670347,110.766219 319.588281,112.362039 320.462161,113.952465 C320.821782,114.605178 320.582634,115.425115 319.929921,115.783838 C319.724038,115.897118 319.501073,115.951062 319.281703,115.951062 Z M68.2380599,122.708349 C68.0420662,122.708349 67.8424763,122.666093 67.6545741,122.575289 C66.9829811,122.251629 66.7006782,121.446077 67.0243375,120.775383 C67.8137066,119.133711 68.6462303,117.485746 69.5003312,115.874642 C69.848265,115.215636 70.6646057,114.965699 71.3227129,115.314532 C71.9817192,115.663364 72.2325552,116.479705 71.8828233,117.137812 C71.0458044,118.718349 70.2294637,120.334847 69.4544795,121.944153 C69.2216246,122.426945 68.7397319,122.708349 68.2380599,122.708349 Z M324.865726,127.288128 C324.345174,127.288128 323.851593,126.986046 323.629527,126.479879 C322.915678,124.848995 322.159574,123.21092 321.38459,121.608806 C321.059132,120.939011 321.339637,120.13256 322.009432,119.807103 C322.681025,119.483443 323.486577,119.76215 323.811136,120.433743 C324.602303,122.065525 325.371893,123.735967 326.100126,125.398317 C326.398612,126.0798 326.087539,126.875462 325.405158,127.173948 C325.229842,127.251267 325.046435,127.288128 324.865726,127.288128 Z M63.2591009,134.378964 C63.1017666,134.378964 62.941735,134.351093 62.7861987,134.292655 C62.0885331,134.031929 61.734306,133.254248 61.9959306,132.557481 C62.6333596,130.854674 63.3148423,129.135683 64.0205994,127.449957 C64.3091956,126.762181 65.0994637,126.437623 65.7854416,126.727118 C66.4723186,127.014815 66.7959779,127.805084 66.5082808,128.491961 C65.8151104,130.146219 65.1471136,131.831945 64.5213722,133.502386 C64.3190852,134.044516 63.8048265,134.378964 63.2591009,134.378964 Z M329.408644,139.090005 C328.844038,139.090005 328.318091,138.73308 328.12929,138.167576 C327.565584,136.476456 326.959621,134.772749 326.328486,133.103207 C326.065063,132.40644 326.416593,131.62786 327.11336,131.364437 C327.809227,131.102812 328.587808,131.452544 328.85123,132.149311 C329.494054,133.852118 330.112603,135.589989 330.687997,137.313475 C330.924448,138.020131 330.54235,138.783427 329.836593,139.019879 C329.694543,139.067528 329.550694,139.090005 329.408644,139.090005 Z M59.3581073,146.442465 C59.2394322,146.442465 59.119858,146.427181 59.0002839,146.394815 C58.2819401,146.197024 57.8593849,145.455304 58.0562776,144.736961 C58.5372713,142.982907 59.0587224,141.214468 59.6071451,139.481093 C59.8319085,138.77174 60.5889117,138.378853 61.3000631,138.601819 C62.0094164,138.826582 62.4032019,139.584484 62.1784385,140.294737 C61.6408044,141.994847 61.1292429,143.729121 60.6581388,145.44991 C60.493612,146.04868 59.9496845,146.442465 59.3581073,146.442465 Z M332.872697,151.268585 C332.260442,151.268585 331.707524,150.849626 331.560978,150.229279 C331.153707,148.500399 330.70418,146.749043 330.224984,145.02286 C330.025394,144.305415 330.446151,143.561897 331.162697,143.363207 C331.88194,143.163617 332.623659,143.583475 332.823249,144.301819 C333.311435,146.061267 333.770852,147.846787 334.186215,149.609831 C334.357035,150.335368 333.907508,151.061803 333.182871,151.232623 C333.07858,151.256897 332.97429,151.268585 332.872697,151.268585 Z M56.5665457,158.793664 C56.487429,158.793664 56.4074132,158.786472 56.3264984,158.772087 C55.5937697,158.640825 55.1055836,157.939563 55.2368454,157.206834 C55.5596057,155.409626 55.9192271,153.60073 56.3076183,151.832292 C56.4667508,151.104058 57.1850946,150.644642 57.9142271,150.803774 C58.6415615,150.963806 59.101877,151.683049 58.9418454,152.410383 C58.5615457,154.145557 58.2073186,155.918491 57.8917508,157.682434 C57.7757729,158.334248 57.2066719,158.793664 56.5665457,158.793664 Z M335.225521,163.709689 C334.565615,163.709689 333.988423,163.2242 333.892224,162.551708 C333.63959,160.785967 333.350095,159.000446 333.030032,157.246393 C332.896073,156.513664 333.381562,155.810604 334.11429,155.676645 C334.838028,155.541787 335.54918,156.028175 335.683139,156.760904 C336.009495,158.550021 336.305284,160.370604 336.562413,162.170509 C336.667603,162.907733 336.155142,163.591014 335.417918,163.696203 C335.353186,163.705194 335.288454,163.709689 335.225521,163.709689 Z M54.8961041,171.343554 C54.8565457,171.343554 54.8169874,171.341756 54.77653,171.338159 C54.0348107,171.273427 53.486388,170.618916 53.5511199,169.877197 C53.7111514,168.058412 53.9071451,166.225241 54.1346057,164.428033 C54.2290063,163.68991 54.9077918,163.172954 55.6423186,163.259263 C56.3813407,163.352765 56.9045899,164.027954 56.8110883,164.766976 C56.587224,166.530021 56.3948265,168.329027 56.2383912,170.113648 C56.1763565,170.81491 55.5874763,171.343554 54.8961041,171.343554 Z M336.452729,176.311724 C335.739779,176.311724 335.144606,175.752513 335.106845,175.03327 C335.014243,173.259437 334.884779,171.455036 334.72205,169.670415 C334.654621,168.929595 335.202145,168.273285 335.943864,168.205856 C336.6703,168.134831 337.340994,168.684153 337.409322,169.426771 C337.573849,171.244658 337.706009,173.084121 337.80041,174.892118 C337.839069,175.636535 337.26817,176.270368 336.523754,176.309926 C336.500379,176.310825 336.477003,176.311724 336.452729,176.311724 Z M54.3485804,183.993238 C53.604164,183.993238 53,183.389973 53,182.644658 L53,182.507103 C53,180.724279 53.033265,178.931566 53.0979968,177.167623 C53.1258675,176.424106 53.7417192,175.867591 54.4951262,175.86939 C55.2395426,175.89726 55.8203312,176.523002 55.7933596,177.267418 C55.7295268,178.998096 55.6971609,180.756645 55.6971609,182.495415 L55.6971609,182.644658 C55.6971609,183.389973 55.0938959,183.993238 54.3485804,183.993238 Z M336.550726,189.270683 C336.533644,189.270683 336.516562,189.270683 336.49858,189.269784 C335.755063,189.241913 335.173375,188.616172 335.202145,187.871756 C335.268675,186.088033 335.302839,184.279137 335.302839,182.495415 L335.302839,182.198727 C335.302839,181.453412 335.907003,180.850147 336.65142,180.850147 C337.395836,180.850147 338,181.453412 338,182.198727 L338,182.495415 C338,184.313301 337.965836,186.155462 337.897508,187.97245 C337.869637,188.699784 337.271767,189.270683 336.550726,189.270683 Z M54.9194795,196.643822 C54.2299054,196.643822 53.6410252,196.116976 53.5780915,195.415715 C53.4153628,193.608617 53.2858991,191.769153 53.1914984,189.949468 C53.1537382,189.205951 53.7255363,188.572118 54.4690536,188.533459 C55.2017823,188.492103 55.8464038,189.066598 55.8850631,189.811014 C55.9776656,191.596535 56.1053312,193.400935 56.2644637,195.174768 C56.3318927,195.915588 55.7843691,196.571897 55.0417508,196.638427 C55.0012934,196.642024 54.960836,196.643822 54.9194795,196.643822 Z M335.509621,201.8898 C335.452981,201.8898 335.396341,201.886203 335.337902,201.879011 C334.59888,201.78461 334.07653,201.109421 334.170032,200.370399 C334.396593,198.599263 334.590789,196.801156 334.749022,195.024626 C334.814653,194.282907 335.479054,193.73808 336.211782,193.801014 C336.953502,193.866645 337.501025,194.521156 337.435394,195.263774 C337.274464,197.073569 337.076672,198.90674 336.846514,200.712039 C336.759306,201.392623 336.179416,201.8898 335.509621,201.8898 Z M56.6159937,209.191014 C55.9776656,209.191014 55.4094637,208.734295 55.2907886,208.082481 C54.9671293,206.296062 54.6731388,204.476377 54.4178076,202.672875 C54.3135174,201.935651 54.826877,201.25327 55.5641009,201.148979 C56.2941325,201.045588 56.9837066,201.55715 57.0888959,202.294374 C57.3388328,204.063711 57.627429,205.849232 57.944795,207.601487 C58.0778549,208.334216 57.5914669,209.036377 56.8587382,209.169437 C56.7778233,209.183822 56.6960095,209.191014 56.6159937,209.191014 Z M59.4363249,221.535021 C58.8447476,221.535021 58.3017192,221.143033 58.1371924,220.545162 C57.6535016,218.795604 57.1967823,217.010084 56.7805205,215.236251 C56.6097003,214.511614 57.0592271,213.785178 57.7838644,213.615257 C58.5049054,213.443538 59.2349369,213.893964 59.4057571,214.618601 C59.8148265,216.359169 60.2625552,218.111424 60.7363565,219.826819 C60.9350473,220.545162 60.5142902,221.287781 59.7959464,221.486472 C59.6754732,221.519737 59.555,221.535021 59.4363249,221.535021 Z M89.228265,276.744106 C88.8533596,276.744106 88.4793533,276.58767 88.2132334,276.282891 C87.0094006,274.907339 85.8226498,273.497623 84.6862461,272.092402 C84.2178391,271.514311 84.3077445,270.663806 84.886735,270.196298 C85.4666246,269.727891 86.3153312,269.817797 86.7828391,270.395888 C87.8976656,271.774137 89.0619401,273.157781 90.2432965,274.508159 C90.7332808,275.06827 90.6766404,275.919674 90.11653,276.410557 C89.8602997,276.634421 89.5438328,276.744106 89.228265,276.744106 Z M97.9814511,285.892875 C97.6470032,285.892875 97.3116562,285.768806 97.0500315,285.518869 C95.7410095,284.268285 94.4328864,282.969153 93.1616246,281.657434 C92.6428707,281.122497 92.6563565,280.268396 93.1912934,279.750541 C93.7262303,279.232686 94.5794322,279.244374 95.0981861,279.78021 C96.3460726,281.067655 97.6299211,282.342513 98.9128707,283.569721 C99.4514038,284.083979 99.471183,284.937181 98.9569243,285.475715 C98.6917035,285.753522 98.3365773,285.892875 97.9814511,285.892875 Z M289.024054,289.568207 C288.650946,289.568207 288.279637,289.414468 288.013517,289.113285 C287.520836,288.555872 287.572082,287.70267 288.129495,287.209989 C289.472681,286.019642 290.80418,284.79603 292.085331,283.57062 C292.622965,283.055462 293.476167,283.074342 293.992224,283.612875 C294.506483,284.150509 294.488502,285.005509 293.949968,285.519768 C292.643644,286.768554 291.286972,288.017339 289.917713,289.229263 C289.660584,289.456724 289.34142,289.568207 289.024054,289.568207 Z M107.518612,294.227103 C107.223722,294.227103 106.926136,294.130904 106.677997,293.932213 C105.254795,292.796708 103.835189,291.618948 102.459637,290.432197 C101.895931,289.945809 101.832997,289.093506 102.319385,288.5298 C102.805773,287.965194 103.658076,287.904058 104.220883,288.389547 C105.571262,289.553822 106.963896,290.710005 108.361025,291.824831 C108.942713,292.289642 109.038013,293.13745 108.573202,293.720036 C108.307082,294.053585 107.914196,294.227103 107.518612,294.227103 Z M279.182114,297.52573 C278.768549,297.52573 278.359479,297.33603 278.095158,296.977308 C277.653722,296.377639 277.782287,295.532528 278.381057,295.091093 C279.807855,294.040998 281.241845,292.941456 282.644369,291.822134 C283.226057,291.360021 284.074763,291.453522 284.539574,292.03521 C285.004385,292.616897 284.908186,293.465604 284.326498,293.930415 C282.897003,295.070415 281.435142,296.192434 279.981372,297.263207 C279.740426,297.441219 279.46082,297.52573 279.182114,297.52573 Z M117.766025,301.681156 C117.510694,301.681156 117.252666,301.609232 117.024306,301.458191 C115.512997,300.459342 113.992697,299.412844 112.506562,298.345667 C111.901498,297.911424 111.763044,297.069011 112.197287,296.463948 C112.63153,295.859784 113.473943,295.72133 114.079006,296.154674 C115.537271,297.201172 117.027902,298.22879 118.510442,299.206961 C119.132587,299.617828 119.303407,300.454847 118.892539,301.076093 C118.632713,301.468979 118.203864,301.681156 117.766025,301.681156 Z M268.677571,304.569815 C268.22265,304.569815 267.777618,304.338759 267.523186,303.922497 C267.137492,303.285967 267.33888,302.45614 267.97541,302.068648 C269.501104,301.142623 271.025899,300.17614 272.510237,299.194374 C273.131483,298.782607 273.967603,298.953427 274.37847,299.575573 C274.789338,300.19592 274.619416,301.032938 273.99817,301.443806 C272.485063,302.444453 270.9297,303.430715 269.377035,304.373822 C269.157666,304.506882 268.91582,304.569815 268.677571,304.569815 Z M128.646372,308.191203 C128.4297,308.191203 128.21123,308.139058 128.008044,308.029374 C126.40683,307.167181 124.798423,306.260036 123.226877,305.334011 C122.585852,304.956409 122.371877,304.129279 122.750379,303.487355 C123.12888,302.84633 123.95511,302.631456 124.597035,303.010856 C126.138912,303.9198 127.716751,304.808964 129.287397,305.654973 C129.942808,306.008301 130.18735,306.82644 129.834022,307.48185 C129.590379,307.934074 129.126467,308.191203 128.646372,308.191203 Z M257.589543,310.642024 C257.090568,310.642024 256.612271,310.365115 256.377618,309.886819 C256.049464,309.217923 256.325473,308.410573 256.994369,308.082418 C258.582098,307.303838 260.186909,306.478506 261.763849,305.628002 C262.420158,305.273774 263.237397,305.519216 263.590726,306.174626 C263.944953,306.830935 263.699511,307.648175 263.044101,308.002402 C261.436593,308.868191 259.801215,309.710604 258.182019,310.504468 C257.99142,310.59797 257.788233,310.642024 257.589543,310.642024 Z M140.074243,313.697907 C139.897129,313.697907 139.717319,313.662844 139.5447,313.588222 C137.878754,312.877071 136.194826,312.11827 134.536972,311.333396 C133.864479,311.014232 133.577681,310.210478 133.895946,309.537087 C134.21511,308.864595 135.017965,308.575099 135.693155,308.896062 C137.317744,309.665651 138.971104,310.410068 140.604685,311.109532 C141.289763,311.401724 141.608028,312.194689 141.314038,312.878869 C141.095568,313.39133 140.598391,313.697907 140.074243,313.697907 Z M246.007035,315.69021 C245.464006,315.69021 244.953344,315.361156 244.747461,314.824421 C244.480442,314.128554 244.828375,313.349074 245.525142,313.082954 C247.1803,312.448222 248.85164,311.770336 250.491514,311.068175 C251.177492,310.775983 251.969558,311.093349 252.26265,311.776629 C252.555741,312.461708 252.238375,313.253774 251.554196,313.547765 C249.881057,314.263412 248.178249,314.954784 246.488927,315.601203 C246.330694,315.662339 246.167066,315.69021 246.007035,315.69021 Z M151.958833,318.151819 C151.821278,318.151819 151.681924,318.130241 151.54347,318.085289 C149.800205,317.521582 148.053344,316.917418 146.348738,316.290778 C145.650174,316.033648 145.291451,315.258664 145.547681,314.560099 C145.80571,313.860636 146.578896,313.502812 147.279259,313.759043 C148.950599,314.373995 150.665095,314.966472 152.374196,315.520289 C153.08265,315.749547 153.47194,316.510147 153.241782,317.218601 C153.057476,317.788601 152.527934,318.151819 151.958833,318.151819 Z M233.990284,319.683806 C233.401404,319.683806 232.861972,319.296314 232.69295,318.702938 C232.490662,317.986393 232.906025,317.240178 233.622571,317.036992 C235.35235,316.547008 237.083028,316.021961 238.766956,315.473538 C239.478107,315.244279 240.236909,315.631771 240.467066,316.339326 C240.696325,317.047781 240.309732,317.80838 239.601278,318.039437 C237.884984,318.59685 236.121041,319.132686 234.358896,319.63256 C234.235726,319.666724 234.111656,319.683806 233.990284,319.683806 Z M164.169779,321.505289 C164.071782,321.505289 163.971987,321.4945 163.870394,321.472024 C162.105552,321.071945 160.315536,320.62961 158.550694,320.157607 C157.83235,319.96521 157.404401,319.226188 157.596798,318.506046 C157.789196,317.786803 158.52642,317.36245 159.24836,317.55215 C160.979937,318.014263 162.735789,318.449405 164.467366,318.841393 C165.193801,319.006819 165.649621,319.728759 165.484196,320.455194 C165.342145,321.080935 164.78653,321.505289 164.169779,321.505289 Z M221.660662,322.575162 C221.025032,322.575162 220.458628,322.122938 220.336356,321.474721 C220.1997,320.742891 220.681593,320.038033 221.413423,319.900478 C223.164779,319.572323 224.935915,319.205509 226.678281,318.808128 C227.411009,318.643601 228.127555,319.098522 228.292981,319.824058 C228.457508,320.550494 228.002587,321.272434 227.27705,321.438759 C225.50142,321.842434 223.69612,322.21644 221.910599,322.551787 C221.826088,322.56797 221.742476,322.575162 221.660662,322.575162 Z M176.63336,323.744831 C176.573123,323.744831 176.513785,323.741235 176.451751,323.733144 C174.644653,323.491298 172.821372,323.212591 171.035852,322.904216 C170.302224,322.77655 169.810442,322.078885 169.936309,321.344358 C170.063975,320.61073 170.758044,320.120746 171.496167,320.245715 C173.247524,320.548696 175.034842,320.822008 176.809574,321.060257 C177.547697,321.158254 178.066451,321.837039 177.967555,322.576062 C177.876751,323.253049 177.298659,323.744831 176.63336,323.744831 Z M209.124259,324.345399 C208.438281,324.345399 207.8503,323.823049 207.78377,323.125383 C207.712744,322.384563 208.255773,321.725557 208.998391,321.654532 C210.772224,321.485509 212.568533,321.277828 214.337871,321.040478 C215.080489,320.929894 215.754779,321.458538 215.854574,322.196661 C215.95347,322.934784 215.436514,323.613569 214.698391,323.712465 C212.895789,323.956109 211.064416,324.166487 209.254621,324.339106 C209.211467,324.343601 209.167413,324.345399 209.124259,324.345399 Z M189.244385,324.859658 C189.224606,324.859658 189.204826,324.859658 189.185047,324.858759 C187.368959,324.778743 185.528596,324.663664 183.717003,324.516219 C182.974385,324.455084 182.421467,323.805068 182.482603,323.06245 C182.543738,322.318932 183.187461,321.776803 183.936372,321.828049 C185.713801,321.972797 187.52,322.086077 189.301924,322.163396 C190.046341,322.195762 190.622634,322.825099 190.591167,323.569516 C190.5597,324.294153 189.962729,324.859658 189.244385,324.859658 Z M196.480868,324.991819 C195.740047,324.991819 195.137681,324.393948 195.132287,323.652229 C195.126893,322.907812 195.726562,322.300052 196.471877,322.294658 C198.262792,322.282071 200.071688,322.236219 201.847319,322.157103 C202.610615,322.091472 203.221972,322.699232 203.254338,323.442749 C203.287603,324.188065 202.711309,324.817402 201.967792,324.850667 C200.158896,324.932481 198.315836,324.979232 196.489858,324.991819 L196.480868,324.991819 Z"/>
    <path fill="#FFF" fill-rule="nonzero" d="M195.06,21.4065792 L216.717447,70.1445948 L208.614574,70.1445948 L204.245745,59.2392304 L185.799574,59.2392304 L181.430745,70.1445948 L173.327872,70.1445948 L195.06,21.4065792 Z M201.407872,52.5167455 L195.06,37.2417659 L188.712128,52.5167455 L201.407872,52.5167455 Z M343.891765,219.78498 L351.286588,234.531755 L347.589176,264.06351 L303.410824,264.06351 L299.713412,234.531755 L307.108235,219.78498 L318.924706,219.78498 L318.124235,225.324571 L332.875765,225.324571 L332.075294,219.78498 L343.891765,219.78498 Z M67.5,281.412861 C48.2181595,281.412861 32.5871394,265.78184 32.5871394,246.5 C32.5871394,227.21816 48.2181595,211.587139 67.5,211.587139 C86.7818405,211.587139 102.412861,227.21816 102.412861,246.5 C102.412861,265.78184 86.7818405,281.412861 67.5,281.412861 Z M67.5,264.325721 C77.3448739,264.325721 85.3257212,256.344874 85.3257212,246.5 C85.3257212,236.655126 77.3448739,228.674279 67.5,228.674279 C57.6551261,228.674279 49.6742788,236.655126 49.6742788,246.5 C49.6742788,256.344874 57.6551261,264.325721 67.5,264.325721 Z"/>
    <path fill="#FFC600" d="M240.9085,185.4565 C240.9085,211.111 220.10875,231.91075 194.45425,231.91075 C168.79675,231.91075 148,211.111 148,185.4565 C148,159.799 168.79675,139 194.45425,139 C220.10875,139 240.9085,159.799 240.9085,185.4565 L240.9085,185.4565 Z"/>
    <path fill="#555" fill-rule="nonzero" d="M195.06,12.1358691 L230.864746,24.9063447 L225.418926,72.1247269 L195.06,88.9425161 L164.701074,72.1247269 L159.255254,24.9063447 L195.06,12.1358691 Z M163.16464,27.5129095 L168.043894,69.8188375 L195.06,84.7848205 L222.076106,69.8188375 L226.95536,27.5129095 L195.06,16.1367943 L163.16464,27.5129095 Z M186.449756,60.1968493 L182.080926,71.1022137 L171.850193,71.1022137 L195.06151,19.0468628 L218.193063,71.1022137 L207.964393,71.1022137 L203.595563,60.1968493 L186.449756,60.1968493 Z M195.06,21.4065792 L173.327872,70.1445948 L181.430745,70.1445948 L185.799574,59.2392304 L204.245745,59.2392304 L208.614574,70.1445948 L216.717447,70.1445948 L195.06,21.4065792 Z M201.407872,52.5167455 L188.712128,52.5167455 L195.06,37.2417659 L201.407872,52.5167455 Z M195.06,39.7424501 L190.149306,51.5591265 L199.970694,51.5591265 L195.06,39.7424501 Z M98.0588942,224.757212 C102.421875,230.887019 105,238.405048 105,246.5 C105,267.215144 88.2151442,284 67.5,284 C46.7848558,284 30,267.215144 30,246.5 C30,225.784856 46.7848558,209 67.5,209 C75.5949519,209 83.1129808,211.578125 89.2427885,215.941106 C90.3064904,215.09375 91.6586538,214.588942 93.1370192,214.588942 C96.5985577,214.588942 99.4110577,217.401442 99.4110577,220.862981 C99.4110577,222.323317 98.90625,223.69351 98.0588942,224.757212 Z M91.9831731,270.983173 C95.1742788,267.810096 97.6622596,264.096154 99.4110577,259.967548 C101.213942,255.694712 102.133413,251.151442 102.133413,246.481971 C102.133413,241.794471 101.213942,237.269231 99.4110577,232.996394 C98.4375,230.706731 97.2295673,228.543269 95.8052885,226.524038 C94.9759615,226.902644 94.0745192,227.11899 93.1189904,227.11899 C89.6574519,227.11899 86.8449519,224.30649 86.8449519,220.844952 C86.8449519,219.871394 87.0612981,218.969952 87.4399038,218.158654 C85.4206731,216.734375 83.2572115,215.526442 80.9675481,214.552885 C76.6947115,212.75 72.1514423,211.830529 67.4819712,211.830529 C62.7944712,211.830529 58.2692308,212.75 53.9963942,214.552885 C49.8677885,216.301683 46.171875,218.789663 42.9807692,221.980769 C39.7896635,225.171875 37.3016827,228.867788 35.5528846,232.996394 C33.75,237.269231 32.8305288,241.8125 32.8305288,246.481971 C32.8305288,251.169471 33.75,255.694712 35.5528846,259.967548 C37.3016827,264.096154 39.8076923,267.810096 42.9807692,270.983173 C46.171875,274.174279 49.8677885,276.66226 53.9963942,278.411058 C58.2692308,280.213942 62.8125,281.133413 67.4819712,281.133413 C72.1694712,281.133413 76.6947115,280.213942 80.9675481,278.411058 C85.0961538,276.66226 88.8100962,274.15625 91.9831731,270.983173 Z M67.5,264.325721 C57.6551261,264.325721 49.6742788,256.344874 49.6742788,246.5 C49.6742788,236.655126 57.6551261,228.674279 67.5,228.674279 C77.3448739,228.674279 85.3257212,236.655126 85.3257212,246.5 C85.3257212,256.344874 77.3448739,264.325721 67.5,264.325721 Z M67.5,263.325721 C76.7925892,263.325721 84.3257212,255.792589 84.3257212,246.5 C84.3257212,237.207411 76.7925892,229.674279 67.5,229.674279 C58.2074108,229.674279 50.6742788,237.207411 50.6742788,246.5 C50.6742788,255.792589 58.2074108,263.325721 67.5,263.325721 Z M307.641126,284.554286 L290.63976,284.554286 L282.910884,234.102335 L302.300846,203 L348.699154,203 L368.089116,234.102335 L360.36024,284.554286 L343.358874,284.554286 L344.273698,273.475102 L341.845428,273.475102 L340.930605,284.554286 L310.069395,284.554286 L309.154572,273.475102 L306.726302,273.475102 L307.641126,284.554286 Z M363.910884,234.961175 L346.479199,207 L304.520801,207 L287.089116,234.961175 L294.073652,280.554286 L303.297227,280.554286 L302.382404,269.475102 L312.837899,269.475102 L313.752723,280.554286 L337.247277,280.554286 L338.162101,269.475102 L348.617596,269.475102 L347.702773,280.554286 L356.926348,280.554286 L363.910884,234.961175 Z M331.720879,224.324571 L330.920408,218.78498 L344.508996,218.78498 L352.316548,234.354819 L348.471782,265.06351 L302.528218,265.06351 L298.683452,234.354819 L306.491004,218.78498 L320.079592,218.78498 L319.279121,224.324571 L331.720879,224.324571 Z M343.891765,219.78498 L332.075294,219.78498 L332.875765,225.324571 L318.124235,225.324571 L318.924706,219.78498 L307.108235,219.78498 L299.713412,234.531755 L303.410824,264.06351 L347.589176,264.06351 L351.286588,234.531755 L343.891765,219.78498 Z M314.236235,257.356327 C310.952206,257.356327 309.906588,253.407384 309.906588,247.979592 C309.906588,242.617563 310.985025,238.602857 314.236235,238.602857 C317.520265,238.602857 318.565882,242.5518 318.565882,247.979592 C318.565882,253.341621 317.487445,257.356327 314.236235,257.356327 Z M337.449882,256.783265 C334.165853,256.783265 333.120235,252.834323 333.120235,247.406531 C333.120235,242.044502 334.198672,238.029796 337.449882,238.029796 C340.733912,238.029796 341.779529,241.978738 341.779529,247.406531 C341.779529,252.834323 340.733912,256.783265 337.449882,256.783265 Z M225.7357,177.229525 L225.7357,182.430025 C225.7357,185.994775 224.8972,188.613775 223.22095,190.285525 C222.2137,191.245525 221.1187,191.926525 219.93295,192.333025 C218.74945,192.738025 217.27045,192.942775 215.5012,192.942775 L203.2147,192.942775 C201.15445,192.942775 199.6807,193.383775 198.7972,194.269525 C197.86195,195.153025 197.3947,196.324525 197.3947,197.786275 L197.3947,200.512525 L190.79695,200.512525 L190.79695,197.786275 C190.79695,196.374025 190.32745,195.202525 189.3967,194.269525 C188.5087,193.383775 187.0342,192.942775 184.9792,192.942775 L172.6927,192.942775 C170.8762,192.942775 169.36345,192.733525 168.1657,192.312025 C166.96795,191.895025 165.9037,191.219275 164.9707,190.285525 C163.29445,188.613775 162.4537,185.994775 162.4537,182.430025 L162.4537,177.229525 L169.1992,177.229525 L169.1992,180.063025 C169.1992,182.310775 169.53295,183.735025 170.2042,184.332775 C170.94745,185.075275 172.5142,185.444275 174.9022,185.444275 L186.7417,185.444275 C188.8942,185.444275 190.48945,185.880775 191.53045,186.754525 C192.57295,187.626025 193.4257,188.804275 194.09695,190.285525 C194.71645,188.828275 195.5542,187.656775 196.60645,186.771025 C197.65945,185.885275 199.2712,185.444275 201.44995,185.444275 L213.2512,185.444275 C215.6677,185.444275 217.24645,185.075275 217.9897,184.332775 C218.65645,183.735025 218.9947,182.310775 218.9947,180.063025 L218.9947,177.229525 L225.7357,177.229525 Z"/>
  </g>
</svg>
