<svg xmlns="http://www.w3.org/2000/svg" width="400" height="350" viewBox="0 0 400 350">
  <g fill="none" fill-rule="evenodd">
    <path fill="#FFF" d="M69,280 L69,184 L141,184 L141,280 L69,280 Z M99,293.979313 C99,290.677574 101.688872,288 104.995458,288 C108.302044,288 111,290.677574 111,293.979313 C111,297.26296 108.302044,299.94958 104.995458,299.94958 C101.688872,299.94958 99,297.26296 99,293.979313 Z M310.289801,192.068775 L320.900714,192.068775 C322.024732,192.068775 322.92809,193.30351 322.92809,194.816627 C322.92809,196.335163 322.024732,197.569898 320.900714,197.569898 L310.289801,197.569898 C309.16542,197.569898 308.258427,196.334671 308.258427,194.816627 C308.25879,193.304002 309.165784,192.068775 310.289801,192.068775 Z M194.568539,206.07191 L339.431461,206.07191 L339.431461,299.591011 L194.568539,299.591011 L194.568539,206.07191 Z M192.5,105.951389 C204.583537,105.951389 214.048611,115.416463 214.048611,127.5 C214.048611,139.583537 204.583537,149.048611 192.5,149.048611 C180.416463,149.048611 170.951389,139.583537 170.951389,127.5 C170.951389,115.416463 180.416463,105.951389 192.5,105.951389 Z"/>
    <path fill="#FFECE1" d="M182,224.767712 C181.495574,224.731218 181.1395,224.371699 180.834108,223.528846 L177.077262,200.048555 C176.943466,199.212331 176.323672,198.536585 175.502098,198.331192 C167.441928,196.316149 160.331465,193.449027 154.362574,189.611883 C153.6374,189.145699 152.701827,189.166417 151.998,189.664246 L147.000933,193.198757 L147.000933,165.003473 C147.000933,159.474122 142.520507,155 136.993621,155 L125.002189,155 C123.703085,151.712736 122.595785,148.205811 121.668808,144.497902 C121.463415,143.676328 120.787669,143.056534 119.951445,142.922738 L96.4711556,139.165892 C95.580004,138.843001 95.2291667,138.463452 95.2291667,137.911806 L95.2291667,117.088194 C95.2291667,116.536548 95.580004,116.156999 96.4711556,115.834108 L119.951445,112.077262 C120.787669,111.943466 121.463415,111.323672 121.668808,110.502098 C123.447982,103.385404 126.597191,95.9968741 130.410277,89.8006088 C130.849606,89.0866991 130.82575,88.1806748 130.349459,87.4908744 L116.624806,67.6137911 C115.990876,66.6623897 115.973787,66.4573109 116.379958,66.051139 L131.051139,51.3799585 C131.457311,50.9737866 131.66239,50.9908764 132.642318,51.6441619 L152.490874,65.3494591 C153.160201,65.8116129 154.035278,65.848896 154.741488,65.4453474 C162.068482,61.2584938 168.784564,58.3481919 175.502098,56.6688082 C176.323672,56.4634147 176.943466,55.7876685 177.077262,54.9514451 L180.834108,31.4711556 C181.156999,30.580004 181.536548,30.2291667 182.088194,30.2291667 L202.911806,30.2291667 C203.463452,30.2291667 203.843001,30.580004 204.165892,31.4711556 L207.922738,54.9514451 C208.056534,55.7876685 208.676328,56.4634147 209.497902,56.6688082 C216.215436,58.3481919 222.931518,61.2584938 230.258512,65.4453474 C230.964722,65.848896 231.839799,65.8116129 232.509126,65.3494591 L252.386209,51.6248063 C253.33761,50.9908764 253.542689,50.9737866 253.948861,51.3799585 L268.620042,66.051139 C269.026213,66.4573109 269.009124,66.6623897 268.355838,67.6423181 L254.650541,87.4908744 C254.17425,88.1806748 254.150394,89.0866991 254.589723,89.8006088 C258.402809,95.9968741 261.552018,103.385404 263.331192,110.502098 C263.536585,111.323672 264.212331,111.943466 265.048555,112.077262 L288.528846,115.834108 C289.419996,116.156999 289.770833,116.536548 289.770833,117.088194 L289.770833,137.911806 C289.770833,138.463452 289.419996,138.843001 288.528846,139.165892 L265.048555,142.922738 C264.212331,143.056534 263.536585,143.676328 263.331192,144.497902 C261.316149,152.558072 258.449027,159.668535 254.611883,165.637426 C254.145699,166.3626 254.166417,167.298173 254.664246,168.002 L261.028685,177 L189.325181,177 C185.288379,177 182,180.297949 182,184.351723 L182,224.767712 Z M192.5,105.951389 C180.416463,105.951389 170.951389,115.416463 170.951389,127.5 C170.951389,139.583537 180.416463,149.048611 192.5,149.048611 C204.583537,149.048611 214.048611,139.583537 214.048611,127.5 C214.048611,115.416463 204.583537,105.951389 192.5,105.951389 Z M73,189 L91,189 L91,207 L73,207 L73,189 Z M96,193 L124,193 L124,197 L96,197 L96,193 Z M96,200 L136,200 L136,202 L96,202 L96,200 Z M73,213 L91,213 L91,231 L73,231 L73,213 Z M96,217 L124,217 L124,221 L96,221 L96,217 Z M96,224 L136,224 L136,226 L96,226 L96,224 Z M73,237 L91,237 L91,255 L73,255 L73,237 Z M96,241 L124,241 L124,245 L96,245 L96,241 Z M96,248 L136,248 L136,250 L96,250 L96,248 Z M73,261 L91,261 L91,279 L73,279 L73,261 Z M96,265 L124,265 L124,269 L96,269 L96,265 Z M96,272 L136,272 L136,274 L96,274 L96,272 Z M201,213 L229,213 L229,217 L201,217 L201,213 Z M201,220 L241,220 L241,222 L201,222 L201,220 Z M201,224 L241,224 L241,226 L201,226 L201,224 Z M201,236 L229,236 L229,240 L201,240 L201,236 Z M201,243 L241,243 L241,245 L201,245 L201,243 Z M201,247 L241,247 L241,249 L201,249 L201,247 Z M201,259 L229,259 L229,263 L201,263 L201,259 Z M201,266 L241,266 L241,268 L201,268 L201,266 Z M201,270 L241,270 L241,272 L201,272 L201,270 Z M201,282 L229,282 L229,286 L201,286 L201,282 Z M201,289 L241,289 L241,291 L201,291 L201,289 Z M201,293 L241,293 L241,295 L201,295 L201,293 Z M247,210 L248,210 L248,297 L247,297 L247,210 Z M254,213 L272,213 L272,231 L254,231 L254,213 Z M276,218 L304,218 L304,222 L276,222 L276,218 Z M276,225 L316,225 L316,227 L276,227 L276,225 Z M254,243 L329,243 L329,245 L254,245 L254,243 Z M254,247 L314,247 L314,249 L254,249 L254,247 Z M254,251 L324,251 L324,253 L254,253 L254,251 Z M254,255 L322,255 L322,257 L254,257 L254,255 Z M254,259 L272,259 L272,261 L254,261 L254,259 Z M303,289 L311,289 L311,297 L303,297 L303,289 Z M314,289 L322,289 L322,297 L314,297 L314,289 Z M325,289 L333,289 L333,297 L325,297 L325,289 Z"/>
    <path fill="#FD6A15" fill-rule="nonzero" d="M182,228.999392 C179.319791,228.962312 177.608841,227.233214 176.769277,224.714524 L173.120141,202.085036 C165.717878,200.124564 159.064016,197.441653 153.291243,193.929618 L147.000933,198.378543 L147.000933,193.198757 L151.998,189.664246 C152.701827,189.166417 153.6374,189.145699 154.362574,189.611883 C160.331465,193.449027 167.441928,196.316149 175.502098,198.331192 C176.323672,198.536585 176.943466,199.212331 177.077262,200.048555 L180.834108,223.528846 C181.1395,224.371699 181.495574,224.731218 182,224.767712 L182,228.99942 Z M266.208268,177 L261.028685,177 L254.664246,168.002 C254.166417,167.298173 254.145699,166.3626 254.611883,165.637426 C258.449027,159.668535 261.316149,152.558072 263.331192,144.497902 C263.536585,143.676328 264.212331,143.056534 265.048555,142.922738 L288.528846,139.165892 C289.419996,138.843001 289.770833,138.463452 289.770833,137.911806 L289.770833,117.088194 C289.770833,116.536548 289.419996,116.156999 288.528846,115.834108 L265.048555,112.077262 C264.212331,111.943466 263.536585,111.323672 263.331192,110.502098 C261.552018,103.385404 258.402809,95.9968741 254.589723,89.8006088 C254.150394,89.0866991 254.17425,88.1806748 254.650541,87.4908744 L268.355838,67.6423181 C269.009124,66.6623897 269.026213,66.4573109 268.620042,66.051139 L253.948861,51.3799585 C253.542689,50.9737866 253.33761,50.9908764 252.386209,51.6248063 L232.509126,65.3494591 C231.839799,65.8116129 230.964722,65.848896 230.258512,65.4453474 C222.931518,61.2584938 216.215436,58.3481919 209.497902,56.6688082 C208.676328,56.4634147 208.056534,55.7876685 207.922738,54.9514451 L204.165892,31.4711556 C203.843001,30.580004 203.463452,30.2291667 202.911806,30.2291667 L182.088194,30.2291667 C181.536548,30.2291667 181.156999,30.580004 180.834108,31.4711556 L177.077262,54.9514451 C176.943466,55.7876685 176.323672,56.4634147 175.502098,56.6688082 C168.784564,58.3481919 162.068482,61.2584938 154.741488,65.4453474 C154.035278,65.848896 153.160201,65.8116129 152.490874,65.3494591 L132.642318,51.6441619 C131.66239,50.9908764 131.457311,50.9737866 131.051139,51.3799585 L116.379958,66.051139 C115.973787,66.4573109 115.990876,66.6623897 116.624806,67.6137911 L130.349459,87.4908744 C130.82575,88.1806748 130.849606,89.0866991 130.410277,89.8006088 C126.597191,95.9968741 123.447982,103.385404 121.668808,110.502098 C121.463415,111.323672 120.787669,111.943466 119.951445,112.077262 L96.4711556,115.834108 C95.580004,116.156999 95.2291667,116.536548 95.2291667,117.088194 L95.2291667,137.911806 C95.2291667,138.463452 95.580004,138.843001 96.4711556,139.165892 L119.951445,142.922738 C120.787669,143.056534 121.463415,143.676328 121.668808,144.497902 C122.595785,148.205811 123.703085,151.712736 125.002189,155 L120.473553,155 C119.512097,152.406597 118.661195,149.697445 117.914964,146.879859 L95.6200825,143.312678 C92.7392678,142.381986 91,140.642719 91,137.911806 L91,117.088194 C91,114.357281 92.7392678,112.618014 95.2854768,111.769277 L117.91984,108.119361 C119.72924,101.45619 122.617095,94.671116 126.093882,88.7708142 L113.125283,69.9882375 C111.479858,67.5201002 111.283719,65.1664337 113.389486,63.0606667 L128.060667,48.389486 C130.166434,46.2837188 132.5201,46.4798576 135.016764,48.1446382 L153.804751,61.1172956 C160.518901,57.369291 166.805106,54.6442494 173.119208,52.9207917 L176.687322,30.6200825 C177.618014,27.7392678 179.357281,26 182.088194,26 L202.911806,26 C205.642719,26 207.381986,27.7392678 208.230723,30.2854768 L211.880792,52.9207917 C218.194898,54.6442507 224.481108,57.369295 231.195264,61.1173039 L250.011763,48.1252825 C252.4799,46.4798576 254.833566,46.2837188 256.939333,48.389486 L271.610514,63.0606667 C273.716281,65.1664337 273.520142,67.5201002 271.855362,70.0167645 L258.906127,88.7708292 C262.38291,94.6711274 265.270762,101.456196 267.080151,108.119359 L289.379917,111.687322 C292.260732,112.618014 294,114.357281 294,117.088194 L294,137.911806 C294,140.642719 292.260732,142.381986 289.714524,143.230723 L267.085036,146.879859 C265.124564,154.282122 262.441653,160.935984 258.929618,166.708757 L266.208268,177 Z M192.5,174.826389 C166.362357,174.826389 145.173611,153.637643 145.173611,127.5 C145.173611,101.362357 166.362357,80.1736111 192.5,80.1736111 C218.637643,80.1736111 239.826389,101.362357 239.826389,127.5 C239.826389,153.637643 218.637643,174.826389 192.5,174.826389 Z M192.5,172.711806 C217.469791,172.711806 237.711806,152.469791 237.711806,127.5 C237.711806,102.530209 217.469791,82.2881944 192.5,82.2881944 C167.530209,82.2881944 147.288194,102.530209 147.288194,127.5 C147.288194,152.469791 167.530209,172.711806 192.5,172.711806 Z M192.5,101.722222 C206.919241,101.722222 218.277778,113.080759 218.277778,127.5 C218.277778,141.919241 206.919241,153.277778 192.5,153.277778 C178.080759,153.277778 166.722222,141.919241 166.722222,127.5 C166.722222,113.080759 178.080759,101.722222 192.5,101.722222 Z M192.5,105.951389 C180.416463,105.951389 170.951389,115.416463 170.951389,127.5 C170.951389,139.583537 180.416463,149.048611 192.5,149.048611 C204.583537,149.048611 214.048611,139.583537 214.048611,127.5 C214.048611,115.416463 204.583537,105.951389 192.5,105.951389 Z"/>
    <path fill="#F5F5F5" d="M74.2734375,307 C71.0985188,307 69,305.140403 69,301.709652 L69,281 L141,281 L141,301.709652 C141,305.140403 139.013228,307 135.838309,307 L74.2734375,307 Z M69,166.756208 C69,163.15739 70.9365722,161 74.3159053,161 L135.692832,161 C139.072165,161 141,163.15739 141,166.756208 L141,183 L69,183 L69,166.756208 Z M347,185.808506 L347,309 L187,309 L187,185.808506 C187,183.709353 188.692551,182 190.754799,182 L343.245201,182 C345.316813,182 347,183.703192 347,185.808506 Z M194,206 L194,301 L340,301 L340,206 L194,206 Z"/>
    <path fill="#555" d="M63.0009333,165.003473 C63.0009333,159.478707 67.487441,155 73.0082456,155 L136.993621,155 C142.520507,155 147.000933,159.474122 147.000933,165.003473 L147.000933,302.996527 C147.000933,308.521293 142.514426,313 136.993621,313 L73.0082456,313 C67.4813597,313 63.0009333,308.525878 63.0009333,302.996527 L63.0009333,165.003473 Z M74.2734375,307 L135.838309,307 C139.013228,307 141,305.140403 141,301.709652 L141,281 L69,281 L69,301.709652 C69,305.140403 71.0985188,307 74.2734375,307 Z M69,166.756208 L69,183 L141,183 L141,166.756208 C141,163.15739 139.072165,161 135.692832,161 L74.3159053,161 C70.9365722,161 69,163.15739 69,166.756208 Z M69,280 L141,280 L141,184 L69,184 L69,280 Z M96.9983546,171.149814 L113.001645,171.149814 C115.213081,171.149814 117,170.542397 117,171.773721 C117,173.005046 115.213081,174 113.001645,174 L96.9983546,174 C94.7918552,174 93,173.005046 93,171.773721 C93,170.542397 94.7918552,171.149814 96.9983546,171.149814 Z M113,294 C113,298.410605 109.416044,302 105,302 C100.594833,302 97,298.410605 97,294 C97,289.583956 100.594833,286 105,286 C109.416044,286 113,289.583956 113,294 Z M99,293.979313 C99,297.26296 101.688872,299.94958 104.995458,299.94958 C108.302044,299.94958 111,297.26296 111,293.979313 C111,290.677574 108.302044,288 104.995458,288 C101.688872,288 99,290.677574 99,293.979313 Z M182,184.351723 C182,180.297949 185.288379,177 189.325181,177 L344.674819,177 C348.72234,177 352,180.293572 352,184.351723 L352,313 L182,313 L182,184.351723 Z M346,186.735356 C346,184.670478 344.34417,183 342.306227,183 L191.693773,183 C189.665042,183 188,184.676521 188,186.735356 L188,307 L346,307 L346,186.735356 Z M194,206 L340,206 L340,301 L194,301 L194,206 Z M195,207 L195,300 L339,300 L339,207 L195,207 Z M310.289801,190.235067 L320.900714,190.235067 C323.17778,190.235067 324.761798,192.387595 324.761798,194.816627 C324.761798,197.249929 323.179089,199.403606 320.900714,199.403606 L310.289801,199.403606 C308.011812,199.403606 306.424719,197.249309 306.424719,194.816186 C306.425303,192.387987 308.013539,190.235067 310.289801,190.235067 Z M310.289801,192.068775 C309.165784,192.068775 308.25879,193.304002 308.258427,194.816627 C308.258427,196.334671 309.16542,197.569898 310.289801,197.569898 L320.900714,197.569898 C322.024732,197.569898 322.92809,196.335163 322.92809,194.816627 C322.92809,193.30351 322.024732,192.068775 320.900714,192.068775 L310.289801,192.068775 Z M331.350303,190.029606 C333.880646,190.029606 335.937119,192.082729 335.937119,194.613876 C335.937119,197.145023 333.880646,199.198146 331.350303,199.198146 C328.820232,199.198146 326.76858,197.14483 326.76858,194.613876 C326.76858,192.082809 328.819882,190.029606 331.350303,190.029606 Z"/>
  </g>
</svg>
