<svg xmlns="http://www.w3.org/2000/svg" width="400" height="350" viewBox="0 0 400 350">
  <g fill="none" fill-rule="evenodd">
    <path fill="#FFECE1" d="M199.5,78 C220.448357,78 243,84.3248889 243,98.2222222 L243,148 C243,161.891111 220.451464,168.222222 199.5,168.222222 C178.545429,168.222222 156,161.891111 156,148 L156,98.2222222 C156,84.3248889 178.545429,78 199.5,78 Z"/>
    <path fill="#E2E2E2" d="M101.121672,88.6880352 L148.268856,48.727942 C148.000435,48.3484251 147.782438,47.9307038 147.624624,47.4845362 L85.0365009,65.158623 C85.109657,65.5029587 85.1481481,65.8601123 85.1481481,66.226257 C85.1481481,67.9062639 84.3377897,69.3969786 83.0866745,70.3287544 L101.121672,88.6880352 Z M100.356755,89.3363488 L82.2039838,70.8571767 C81.5460836,71.1656343 80.8116857,71.3379888 80.037037,71.3379888 C79.352487,71.3379888 78.699369,71.2033955 78.1026968,70.9592253 L55.1412143,125.238411 C55.7862518,125.437851 56.3767093,125.761579 56.8846148,126.18162 L100.356755,89.3363488 Z M101.824343,89.4033408 L123.684783,111.656847 C124.561282,110.950652 125.675726,110.527933 126.888889,110.527933 C129.711678,110.527933 132,112.816533 132,115.639665 C132,118.462796 129.711678,120.751397 126.888889,120.751397 C124.0661,120.751397 121.777778,118.462796 121.777778,115.639665 C121.777778,114.389995 122.226157,113.245063 122.970795,112.357006 L101.059426,90.0516544 L57.5915891,126.893278 C58.3099352,127.773667 58.7407407,128.89797 58.7407407,130.122905 C58.7407407,131.889866 57.8443261,133.447433 56.4815098,134.36554 L107.578773,190.808178 C108.515756,189.649042 109.949106,188.907821 111.555556,188.907821 C114.378344,188.907821 116.666667,191.196422 116.666667,194.019553 C116.666667,196.842685 114.378344,199.131285 111.555556,199.131285 C108.732767,199.131285 106.444444,196.842685 106.444444,194.019553 C106.444444,193.17388 106.649778,192.376172 107.013303,191.673575 L55.5731028,134.852126 C55.4102138,134.919153 55.2431004,134.978008 55.0722731,135.028179 L62.8637157,175.543681 C62.9089996,175.542496 62.9544302,175.541899 63,175.541899 C65.8227887,175.541899 68.1111111,177.8305 68.1111111,180.653631 C68.1111111,183.476763 65.8227887,185.765363 63,185.765363 C60.1772113,185.765363 57.8888889,183.476763 57.8888889,180.653631 C57.8888889,178.219137 59.590548,176.182134 61.8691913,175.667435 L54.0897244,135.214207 C53.9381663,135.22773 53.7847045,135.234637 53.6296296,135.234637 C53.167756,135.234637 52.7201913,135.173365 52.2946186,135.058506 L27.0741809,195.262131 C28.922677,196.031816 30.2222222,197.855747 30.2222222,199.98324 C30.2222222,202.806372 27.9338998,205.094972 25.1111111,205.094972 C22.2883224,205.094972 20,202.806372 20,199.98324 C20,197.160109 22.2883224,194.871508 25.1111111,194.871508 C25.4538439,194.871508 25.7886976,194.905247 26.112533,194.969584 L51.3590172,134.703783 C49.6755399,133.867521 48.5185185,132.130348 48.5185185,130.122905 C48.5185185,128.346053 49.4249973,126.780946 50.80068,125.864912 L33.8283352,96.7694634 C33.366318,96.9067397 32.8769507,96.9804469 32.3703704,96.9804469 C29.5475816,96.9804469 27.2592593,94.6918466 27.2592593,91.8687151 C27.2592593,89.0455835 29.5475816,86.7569832 32.3703704,86.7569832 C35.1931591,86.7569832 37.4814815,89.0455835 37.4814815,91.8687151 C37.4814815,93.8273176 36.3800751,95.5286416 34.7629142,96.3869641 L51.6840154,125.394566 C52.283731,125.147468 52.9407655,125.011173 53.6296296,125.011173 C53.8021717,125.011173 53.9727169,125.019724 54.1408647,125.036425 L77.2156908,70.4893035 C75.8357458,69.573979 74.9259259,68.0063808 74.9259259,66.226257 C74.9259259,63.4031254 77.2142483,61.1145251 80.037037,61.1145251 C82.1420494,61.1145251 83.9498453,62.3872148 84.7331092,64.2051903 L147.385574,46.5129342 C147.351149,46.2733641 147.333333,46.0284276 147.333333,45.7793296 C147.333333,44.8268251 147.593822,43.9351683 148.04744,43.1717275 L115.949525,25.5178741 C115.027488,26.4225505 113.764073,26.9804469 112.37037,26.9804469 C109.547582,26.9804469 107.259259,24.6918466 107.259259,21.8687151 C107.259259,19.0455835 109.547582,16.7569832 112.37037,16.7569832 C115.193159,16.7569832 117.481481,19.0455835 117.481481,21.8687151 C117.481481,22.9312857 117.157313,23.9181336 116.60249,24.7357338 L148.645608,42.3594488 C149.581134,41.3206772 150.936531,40.6675978 152.444444,40.6675978 C155.267233,40.6675978 157.555556,42.9561981 157.555556,45.7793296 C157.555556,45.9330171 157.548774,46.0851204 157.535494,46.2353567 L210.120054,59.5583965 C210.656804,58.5550907 211.518512,57.7517928 212.564527,57.289171 L195.114246,26.1821473 C194.321539,26.6875818 193.380152,26.9804469 192.37037,26.9804469 C189.547582,26.9804469 187.259259,24.6918466 187.259259,21.8687151 C187.259259,19.0455835 189.547582,16.7569832 192.37037,16.7569832 C195.193159,16.7569832 197.481481,19.0455835 197.481481,21.8687151 C197.481481,23.3178754 196.878522,24.6261899 195.909824,25.5564107 L213.533525,56.9725734 C213.886629,56.8954081 214.253381,56.8547486 214.62963,56.8547486 C215.315268,56.8547486 215.969375,56.9897704 216.566816,57.2346778 L228.363743,41.0895537 C227.76182,40.2510098 227.407407,39.2227645 227.407407,38.1117318 C227.407407,35.2886003 229.69573,33 232.518519,33 C235.191095,33 237.384573,35.0515086 237.610454,37.6658443 L288.503361,52.4192033 C289.1001,51.8121911 289.847272,51.3535682 290.684475,51.1037448 L273.102414,26.9284106 C272.863341,26.9627023 272.618928,26.9804469 272.37037,26.9804469 C269.547582,26.9804469 267.259259,24.6918466 267.259259,21.8687151 C267.259259,19.0455835 269.547582,16.7569832 272.37037,16.7569832 C275.193159,16.7569832 277.481481,19.0455835 277.481481,21.8687151 C277.481481,24.0673387 276.093586,25.9417625 274.14622,26.663461 L291.775998,50.9044047 C291.898895,50.8955602 292.022996,50.8910615 292.148148,50.8910615 C294.186347,50.8910615 295.945898,52.0842425 296.766564,53.8102895 L337.322828,42.6771975 C337.28099,42.4138616 337.259259,42.1438264 337.259259,41.8687151 C337.259259,39.0455835 339.547582,36.7569832 342.37037,36.7569832 C345.193159,36.7569832 347.481481,39.0455835 347.481481,41.8687151 C347.481481,44.6918466 345.193159,46.9804469 342.37037,46.9804469 C340.171964,46.9804469 338.297733,45.5923206 337.576158,43.6446495 L297.105692,54.7541893 C297.205994,55.1537954 297.259259,55.5720732 297.259259,56.0027933 C297.259259,56.6339121 297.144898,57.2383173 296.935771,57.796412 L353.212782,87.38151 C354.14218,86.4194635 355.44568,85.8212291 356.888889,85.8212291 C359.711678,85.8212291 362,88.1098294 362,90.9329609 C362,93.7560924 359.711678,96.0446927 356.888889,96.0446927 C354.0661,96.0446927 351.777778,93.7560924 351.777778,90.9329609 C351.777778,89.9191612 352.072871,88.9742926 352.581839,88.1795838 L296.494324,58.6941043 C296.416492,58.8195583 296.333381,58.9413935 296.245301,59.0592993 L350.625131,136.106748 C351.440611,135.556124 352.423507,135.234637 353.481481,135.234637 C356.30427,135.234637 358.592593,137.523237 358.592593,140.346369 C358.592593,143.1695 356.30427,145.458101 353.481481,145.458101 C351.748318,145.458101 350.21664,144.595336 349.292401,143.275812 L320.025565,155.818742 C320.224697,156.364966 320.333333,156.954711 320.333333,157.569832 C320.333333,160.392964 318.045011,162.681564 315.222222,162.681564 C312.399434,162.681564 310.111111,160.392964 310.111111,157.569832 C310.111111,154.746701 312.399434,152.458101 315.222222,152.458101 C317.073609,152.458101 318.695086,153.442582 319.591829,154.916661 L348.799226,142.399205 C348.523436,141.770911 348.37037,141.076517 348.37037,140.346369 C348.37037,138.942278 348.936408,137.670409 349.852715,136.746554 L295.554121,59.814203 C295.015478,60.2959962 294.374088,60.6652644 293.666885,60.8850699 L298.634996,105.603506 C300.789579,106.204307 302.37037,108.181491 302.37037,110.527933 C302.37037,113.351065 300.082048,115.639665 297.259259,115.639665 C294.436471,115.639665 292.148148,113.351065 292.148148,110.527933 C292.148148,107.704801 294.436471,105.416201 297.259259,105.416201 C297.376926,105.416201 297.493664,105.420178 297.609346,105.428004 L292.68315,61.086857 C292.507313,61.1051491 292.328825,61.1145251 292.148148,61.1145251 C290.799825,61.1145251 289.573443,60.5923679 288.660138,59.739212 L262.349922,77.9079963 C262.878012,78.7125655 263.185185,79.6751549 263.185185,80.7094972 C263.185185,83.5326287 260.896863,85.8212291 258.074074,85.8212291 C255.251285,85.8212291 252.962963,83.5326287 252.962963,80.7094972 C252.962963,77.8863657 255.251285,75.5977654 258.074074,75.5977654 C259.501926,75.5977654 260.793028,76.1833367 261.720387,77.1274609 L287.995184,58.9831364 C287.788774,58.6959524 287.611409,58.3864851 287.467389,58.0590353 L219.735838,61.7405449 C219.739095,61.8154498 219.740741,61.8907729 219.740741,61.9664804 C219.740741,64.789612 217.452418,67.0782123 214.62963,67.0782123 C211.806841,67.0782123 209.518519,64.789612 209.518519,61.9664804 C209.518519,61.4539557 209.593938,60.9590482 209.734283,60.4922535 L157.349782,47.2199016 C156.899612,48.7556626 155.747992,49.9915805 154.265427,50.557105 L161.12212,69.0196757 C161.609419,68.8653629 162.128323,68.7821229 162.666667,68.7821229 C165.489455,68.7821229 167.777778,71.0707232 167.777778,73.8938547 C167.777778,76.7169863 165.489455,79.0055866 162.666667,79.0055866 C159.843878,79.0055866 157.555556,76.7169863 157.555556,73.8938547 C157.555556,71.9644874 158.624327,70.2847754 160.202054,69.4146026 L153.296458,50.8203574 C153.019378,50.8668575 152.734737,50.8910615 152.444444,50.8910615 C151.079638,50.8910615 149.839772,50.3560593 148.923079,49.4843104 L101.824343,89.4033408 Z M217.458941,57.7087282 C218.508992,58.4080603 219.285621,59.4855772 219.594333,60.7467602 L287.149622,57.0748312 C287.075857,56.7291371 287.037037,56.3704992 287.037037,56.0027933 C287.037037,54.9957942 287.328185,54.0568046 287.830884,53.2654293 L237.595832,38.7027763 C237.302883,41.2474946 235.141429,43.2234637 232.518519,43.2234637 C231.175297,43.2234637 229.953096,42.7052507 229.04089,41.8578213 L217.458941,57.7087282 Z M318.411401,291.343562 C319.162274,290.910057 320.033655,290.662011 320.962963,290.662011 C321.647513,290.662011 322.300631,290.796605 322.897303,291.040775 L345.858786,236.761589 C343.77393,236.116971 342.259259,234.17394 342.259259,231.877095 C342.259259,230.452504 342.841947,229.164023 343.781964,228.237037 L310.704036,200.80656 C309.788409,202.184193 308.222449,203.092179 306.444444,203.092179 C303.621656,203.092179 301.333333,200.803578 301.333333,197.980447 C301.333333,195.157315 303.621656,192.868715 306.444444,192.868715 C309.267233,192.868715 311.555556,195.157315 311.555556,197.980447 C311.555556,198.660655 311.422712,199.309833 311.181558,199.903445 L344.57592,227.59633 C345.379031,227.070869 346.339028,226.765363 347.37037,226.765363 C347.821615,226.765363 348.259201,226.823847 348.675965,226.93365 L354.598164,166.964099 C352.40028,166.392151 350.777778,164.393956 350.777778,162.01676 C350.777778,159.193628 353.0661,156.905028 355.888889,156.905028 C358.711678,156.905028 361,159.193628 361,162.01676 C361,164.839891 358.711678,167.128492 355.888889,167.128492 C355.787765,167.128492 355.687328,167.125555 355.587656,167.119761 L349.644835,227.298133 C351.326225,228.13513 352.481481,229.871184 352.481481,231.877095 C352.481481,233.05903 352.080391,234.147273 351.406912,235.01311 L370.509488,264.082247 C371.372692,263.415928 372.454877,263.019553 373.62963,263.019553 C376.452418,263.019553 378.740741,265.308153 378.740741,268.131285 C378.740741,270.954416 376.452418,273.243017 373.62963,273.243017 C370.806841,273.243017 368.518519,270.954416 368.518519,268.131285 C368.518519,266.848773 368.990775,265.676576 369.770856,264.779145 L350.69881,235.756467 C349.804543,236.52463 348.64166,236.988827 347.37037,236.988827 C347.197828,236.988827 347.027283,236.980276 346.859135,236.963575 L323.784309,291.510697 C325.164254,292.426021 326.074074,293.993619 326.074074,295.773743 C326.074074,298.596875 323.785752,300.885475 320.962963,300.885475 C318.369043,300.885475 316.226435,298.952944 315.896046,296.448956 L243.309068,289.279872 C242.974666,290.7033 242.045391,291.897387 240.797946,292.585397 L247.703542,311.179643 C247.980622,311.133142 248.265263,311.108939 248.555556,311.108939 C251.378344,311.108939 253.666667,313.397539 253.666667,316.22067 C253.666667,316.565616 253.632504,316.902581 253.567377,317.228367 L283.319423,326.382843 C284.22725,324.961769 285.81842,324.019553 287.62963,324.019553 C290.452418,324.019553 292.740741,326.308153 292.740741,329.131285 C292.740741,331.954416 290.452418,334.243017 287.62963,334.243017 C284.806841,334.243017 282.518519,331.954416 282.518519,329.131285 C282.518519,328.481408 282.639778,327.859857 282.860904,327.288027 L253.275711,318.184891 C252.5059,320.033127 250.682441,321.332402 248.555556,321.332402 C246.526075,321.332402 244.772865,320.149407 243.947722,318.435295 L191.457591,322.536087 C191.473395,322.699763 191.481481,322.865697 191.481481,323.03352 C191.481481,325.856651 189.193159,328.145251 186.37037,328.145251 C183.547582,328.145251 181.259259,325.856651 181.259259,323.03352 C181.259259,320.235124 183.507658,317.961933 186.296296,317.922314 L186.296296,271.008231 C186.042688,271.046956 185.782948,271.067039 185.518519,271.067039 C182.69573,271.067039 180.407407,268.778439 180.407407,265.955307 C180.407407,263.132176 182.69573,260.843575 185.518519,260.843575 C188.341307,260.843575 190.62963,263.132176 190.62963,265.955307 C190.62963,268.153205 189.24265,270.027117 187.296296,270.749338 L187.296296,318.005456 C189.186503,318.351388 190.713407,319.737228 191.262395,321.548289 L243.595633,317.459755 C243.496868,317.063027 243.444444,316.647972 243.444444,316.22067 C243.444444,314.03907 244.810931,312.176668 246.734573,311.442895 L239.87788,292.980324 C239.390581,293.134637 238.871677,293.217877 238.333333,293.217877 C235.510545,293.217877 233.222222,290.929277 233.222222,288.106145 C233.222222,285.283014 235.510545,282.994413 238.333333,282.994413 C241.156122,282.994413 243.444444,285.283014 243.444444,288.106145 C243.444444,288.167039 243.44338,288.227684 243.441268,288.288063 L315.862521,295.440779 C315.952337,294.043669 316.60335,292.799335 317.592469,291.930893 L287.881784,259.811233 C286.947325,260.831971 285.60396,261.472067 284.111111,261.472067 C281.288322,261.472067 279,259.183467 279,256.360335 C279,253.537204 281.288322,251.248603 284.111111,251.248603 C286.9339,251.248603 289.222222,253.537204 289.222222,256.360335 C289.222222,257.324921 288.955084,258.227106 288.490762,258.996925 L318.411401,291.343562 Z M113.861482,307.015802 C113.928033,306.686635 113.962963,306.346 113.962963,305.997207 C113.962963,304.88506 113.60784,303.855867 113.004816,303.016864 L139.279613,284.872539 C140.206972,285.816663 141.498074,286.402235 142.925926,286.402235 C145.748715,286.402235 148.037037,284.113634 148.037037,281.290503 C148.037037,278.467371 145.748715,276.178771 142.925926,276.178771 C140.103137,276.178771 137.814815,278.467371 137.814815,281.290503 C137.814815,282.324845 138.121988,283.287435 138.650078,284.092004 L112.339862,302.260788 C111.426557,301.407632 110.200175,300.885475 108.851852,300.885475 C108.671175,300.885475 108.492687,300.894851 108.31685,300.913143 L103.390654,256.571996 C103.506336,256.579822 103.623074,256.583799 103.740741,256.583799 C106.563529,256.583799 108.851852,254.295199 108.851852,251.472067 C108.851852,248.648935 106.563529,246.360335 103.740741,246.360335 C100.917952,246.360335 98.6296296,248.648935 98.6296296,251.472067 C98.6296296,253.818509 100.210421,255.795693 102.365004,256.396494 L107.333115,301.11493 C106.625912,301.334736 105.984522,301.704004 105.445879,302.185797 L51.1472846,225.253446 C52.0635922,224.329591 52.6296296,223.057722 52.6296296,221.653631 C52.6296296,218.8305 50.3413072,216.541899 47.5185185,216.541899 C44.6957298,216.541899 42.4074074,218.8305 42.4074074,221.653631 C42.4074074,224.476763 44.6957298,226.765363 47.5185185,226.765363 C48.5764931,226.765363 49.5593895,226.443876 50.3748687,225.893252 L104.754699,302.940701 C104.666619,303.058607 104.583508,303.180442 104.505676,303.305896 L48.4181613,273.820416 C48.9271289,273.025707 49.2222222,272.080839 49.2222222,271.067039 C49.2222222,268.243908 46.9338998,265.955307 44.1111111,265.955307 C41.2883224,265.955307 39,268.243908 39,271.067039 C39,273.890171 41.2883224,276.178771 44.1111111,276.178771 C45.5543196,276.178771 46.85782,275.580537 47.7872184,274.61849 L104.064229,304.203588 C103.855102,304.761683 103.740741,305.366088 103.740741,305.997207 C103.740741,308.820338 106.029063,311.108939 108.851852,311.108939 C110.955848,311.108939 112.762915,309.837477 113.546789,308.020905 L144.230051,330.049914 C143.687024,330.86187 143.37037,331.838085 143.37037,332.888268 C143.37037,335.7114 145.658693,338 148.481481,338 C151.30427,338 153.592593,335.7114 153.592593,332.888268 C153.592593,330.065137 151.30427,327.776536 148.481481,327.776536 C147.069282,327.776536 145.790852,328.349339 144.865798,329.275311 L113.861482,307.015802 Z"/>
    <path fill="#FD6A15" d="M199.5,112.222222 C220.091036,112.222222 236.785714,105.950222 236.785714,98.2222222 C236.785714,90.4911111 220.091036,84.2222222 199.5,84.2222222 C178.905857,84.2222222 162.214286,90.4911111 162.214286,98.2222222 C162.214286,105.950222 178.905857,112.222222 199.5,112.222222 Z M236.785714,116.888889 L236.785714,109.310222 C228.641893,115.526222 213.715179,118.444444 199.5,118.444444 C185.284821,118.444444 170.358107,115.526222 162.214286,109.310222 L162.214286,116.888889 L162.226714,116.888889 C162.226714,116.92 162.214286,116.954222 162.214286,116.985333 C162.214286,124.666667 178.908964,130.888889 199.5,130.888889 C220.091036,130.888889 236.785714,124.666667 236.785714,116.985333 C236.785714,116.954222 236.773286,116.92 236.773286,116.888889 L236.785714,116.888889 Z M236.785714,132.444444 L236.785714,123.932444 C230.366357,130.556 214.880357,134 199.5,134 C184.119643,134 168.633643,130.556 162.214286,123.932444 L162.214286,132.444444 L162.226714,132.444444 C162.226714,132.475556 162.214286,132.509778 162.214286,132.540889 C162.214286,140.222222 178.908964,146.444444 199.5,146.444444 C220.091036,146.444444 236.785714,140.222222 236.785714,132.540889 C236.785714,132.509778 236.773286,132.475556 236.773286,132.444444 L236.785714,132.444444 Z M236.785714,148 L236.785714,139.491111 C230.366357,146.114667 214.880357,149.555556 199.5,149.555556 C184.119643,149.555556 168.633643,146.114667 162.214286,139.491111 L162.214286,148 C162.214286,155.728 178.905857,162 199.5,162 C220.091036,162 236.785714,155.728 236.785714,148 Z M148.126795,241.987536 C131.962105,241.5255 119,228.276481 119,212 C119,195.431458 132.431458,182 149,182 L149,187.901639 C135.690843,187.901639 124.901639,198.690843 124.901639,212 C124.901639,225.034998 135.250921,235.652792 148.180803,236.084698 C148.392946,235.696011 148.805242,235.449964 149.30602,235.458229 L153.024253,235.519599 L152.984363,233.102748 C152.972089,232.359101 153.429196,231.901993 154.078353,231.819777 L163.349388,230.485909 C164.147634,228.175821 166.165046,226.53637 168.764741,226.393417 L184.347567,224.606143 C184.880754,223.128056 186.255147,221.942644 187.928352,221.97026 C189.97338,222.004014 191.768691,223.799325 191.802445,225.844354 L191.842336,228.261205 L202.997036,228.445315 C204.112505,228.463726 205.048201,228.850892 205.804122,229.606813 C206.560042,230.362734 206.950277,231.484341 206.965619,232.413899 C206.98403,233.529369 206.627549,234.45279 205.896177,235.184163 C205.164804,235.915536 204.149961,236.363438 203.125913,236.253605 L191.971213,236.069495 L192.093953,243.505962 L203.248653,243.690072 C204.364123,243.708483 205.299818,244.095649 206.055739,244.85157 C206.81166,245.60749 207.107404,246.634607 207.217236,247.658656 C207.235647,248.774126 206.879167,249.697547 206.147794,250.428919 C205.416421,251.160292 204.493,251.516773 203.654863,251.410009 L192.500163,251.225899 L192.540054,253.64275 C192.558465,254.75822 192.110563,255.773063 191.470611,256.413014 C190.739239,257.144387 189.815817,257.500868 188.700348,257.482457 C187.027143,257.45484 185.521438,256.314822 185.030577,254.726902 L169.194332,252.42105 C166.5885,252.19218 164.515855,250.485221 163.640896,248.147517 L154.326902,246.878622 C153.674677,246.774926 153.202226,246.302476 153.189952,245.558829 L153.150062,243.141978 L149.431828,243.080608 C149.060005,243.074471 148.779603,242.976912 148.496133,242.693442 C148.274087,242.471395 148.166112,242.251231 148.126795,241.987536 Z M196.355571,182 L196.355571,169.686933 L202.52325,169.686933 L202.52325,184.9 L202.52325,187.9 L149,187.9 L149,182 L196.355571,182 Z M199.5,78 C220.448357,78 243,84.3248889 243,98.2222222 L243,148 C243,161.891111 220.451464,168.222222 199.5,168.222222 C178.545429,168.222222 156,161.891111 156,148 L156,98.2222222 C156,84.3248889 178.545429,78 199.5,78 Z M177,243 C179.209139,243 181,241.209139 181,239 C181,236.790861 179.209139,235 177,235 C174.790861,235 173,236.790861 173,239 C173,241.209139 174.790861,243 177,243 Z"/>
    <path fill="#555" fill-rule="nonzero" d="M254.278591,237 L268,237 L268,243 L254.550568,243 C254.511142,243.317843 254.35496,243.613233 254.196519,243.771675 C254.010133,243.95806 253.634235,244.141317 253.255209,244.135061 L249.464947,244.072502 L249.50561,246.536173 C249.511866,246.915199 249.421801,247.197904 249.142224,247.477482 C248.955839,247.663867 248.673133,247.753932 248.390427,247.843997 L238.93354,248.824678 C238.570153,249.765988 238.110446,250.610977 237.458098,251.263325 C236.43298,252.288443 235.02258,252.928279 233.413282,252.996448 L217.528589,254.818345 C217.34846,255.383756 217.07201,255.852847 216.606047,256.31881 C215.860507,257.064351 214.822876,257.331417 213.782118,257.408969 C211.697474,257.374562 209.867384,255.544472 209.832977,253.459828 L209.27372,225.315568 C209.239313,223.230924 211.009972,221.460265 213.094616,221.494673 C214.800234,221.522824 216.335106,222.684926 216.835477,224.303608 L232.978498,226.654127 C235.541616,226.980624 237.654412,228.720649 238.54632,231.103639 L248.040743,232.397115 C248.705603,232.502819 249.187205,232.984422 249.199717,233.742474 L249.240381,236.206145 L253.030643,236.268704 C253.409669,236.274959 253.695502,236.374408 254.080785,236.75969 C254.160453,236.839358 254.225715,236.918789 254.278591,237 Z M226,243 C228.209139,243 230,241.209139 230,239 C230,236.790861 228.209139,235 226,235 C223.790861,235 222,236.790861 222,239 C222,241.209139 223.790861,243 226,243 Z M268,237 L274,237 L274,243 L268,243 L268,237 Z M277,237 L281,237 L281,243 L277,243 L277,237 Z"/>
  </g>
</svg>
