<svg xmlns="http://www.w3.org/2000/svg" width="400" height="350" viewBox="0 0 400 350">
  <g fill="none" fill-rule="evenodd">
    <path fill="#DCDCDC" d="M149.825392,226.712731 C151.682758,226.712731 154.150595,227.319746 154.150595,229.809746 L154.150595,282.459 C154.150595,284.494358 153.626628,286.794821 151.061164,286.794821 L133.193359,286.794821 C130.678563,286.794821 130.048319,286.467776 129.486042,283.078403 C128.199603,275.318522 127.959636,239.168925 128.199376,230.429149 C128.283408,227.354433 128.159831,226.712731 131.288807,226.712731 L149.825392,226.712731 Z"/>
    <path fill="#555" d="M159.093685,230.34909 C170.910276,229.848859 185.596815,231.724856 192.751083,233.464737 C201.431376,231.837727 219.215125,228.211608 225.582618,227.080726 C231.950112,225.949845 245.52048,236.981415 240.174412,242.584753 C243.204033,242.433361 283.619653,234.593795 288.509727,233.464737 C298.397491,231.181085 303.471788,230.763389 310.397417,231.640734 C314.599854,232.173343 316.542386,240.939502 315.86934,242.584753 C313.972407,247.228665 311.531929,250.778175 308.573443,250.792767 C305.614957,250.807359 241.338107,269.246206 238.350438,270.856801 C235.362768,272.467396 225.912758,277.642093 221.022683,277.240812 C216.132608,276.839531 177.00289,276.905195 170.863393,277.240812 C168.898035,277.748937 163.817115,279.993418 159.093685,282.047133 L159.093685,283.078403 C159.093685,287.758612 156.386107,292.369448 151.061164,292.369448 L132.450195,292.369448 C127.392179,292.369448 125.994599,292.918945 124.786591,283.903809 C123.437376,273.834866 122.728926,241.721364 123.015625,232.487305 C123.221999,225.827484 121.443848,221.751612 130.67092,221.751612 L151.061164,221.321034 C155.259083,221.321034 159.093685,224.657138 159.093685,229.992676 L159.093685,230.34909 Z M159.093685,277.059626 C159.707176,276.813409 160.292423,276.568303 160.831535,276.32881 C165.491789,274.258567 169.457109,272.035107 174.511341,271.768803 C179.565574,271.502498 217.940167,272.868677 222.846657,272.680804 C226.231953,270.590497 234.564697,266.888024 239.533203,265.078613 C244.501709,263.269202 303.896774,246.595736 306.749469,246.232759 C309.602165,245.869783 314.04719,240.352173 308.573443,236.200742 C305.494575,233.866018 297.866715,236.809959 293.98165,237.112744 C290.096585,237.415528 241.646359,249.457597 234.702489,248.968764 C231.340905,250.730751 207.486971,255.115654 201.870954,256.264776 C199.649354,257.158538 197.35297,258.692524 192.751083,261.736786 C191.083971,261.77509 189.119551,261.682065 188.191148,259.912782 C190.73012,257.862603 199.795271,251.493184 206.43089,250.792767 C213.066508,250.09235 233.828806,244.270132 235.614476,240.76075 C237.400147,237.251368 231.074605,232.811744 226.494605,231.640734 C221.914606,230.469724 197.757892,237.875177 190.015122,238.024745 C186.004522,234.907902 169.261993,233.94939 159.093685,234.37974 L159.093685,277.059626 Z M149.825392,226.712731 L131.288807,227.484754 C128.159831,227.484754 128.283408,228.126455 128.199376,231.201172 C127.959636,239.940948 128.470111,275.318522 129.75655,283.078403 C130.318827,286.467776 130.94907,286.794821 133.463867,286.794821 L151.061164,286.794821 C153.626628,286.794821 154.150595,284.494358 154.150595,282.459 L154.150595,229.809746 C154.150595,227.319746 151.682758,226.712731 149.825392,226.712731 Z M143.337587,273.167955 C144.873652,273.167955 146.118075,274.416672 146.118075,275.955269 C146.118075,277.493866 144.873652,278.742582 143.337587,278.742582 C141.801522,278.742582 140.557099,277.493866 140.557099,275.955269 C140.557099,274.416672 141.801522,273.167955 143.337587,273.167955 Z"/>
    <path fill="#E2E2E2" d="M261.682902,136.005582 L227.809799,119.653049 L195.08919,145 L260.848368,145 L261.682902,136.005582 Z M261.781514,134.942757 L265.700916,92.7003131 C264.951292,92.5797778 264.256179,92.2962031 263.653098,91.8871133 L228.692911,118.968949 L261.781514,134.942757 Z M226.803806,119.167397 L214.459677,113.208163 L150.302587,144.217423 C150.521498,144.458411 150.71771,144.720396 150.887845,145 L193.456264,145 L226.803806,119.167397 Z M227.686918,118.483297 L262.867423,91.2307926 C262.563219,90.9202658 262.298304,90.5710945 262.080722,90.1913247 L215.609082,112.652617 L227.686918,118.483297 Z M276.154229,142.991739 L262.644141,136.469628 L261.852663,145 L275.448801,145 C275.541765,144.271545 275.788033,143.590998 276.154229,142.991739 Z M276.77007,142.178612 C277.466974,141.427044 278.387078,140.88542 279.424972,140.659166 L266.687332,92.8930157 L262.742753,135.406804 L276.77007,142.178612 Z M214.459419,112.097607 L261.671082,89.2786369 C261.500062,88.7681392 261.407407,88.2217069 261.407407,87.6536313 C261.407407,86.6229791 261.712393,85.6635688 262.237027,84.8607475 L240.104768,71.2958147 C239.182124,72.204598 237.9158,72.7653631 236.518519,72.7653631 C233.69573,72.7653631 231.407407,70.4767628 231.407407,67.6536313 C231.407407,64.8304997 233.69573,62.5418994 236.518519,62.5418994 C239.341307,62.5418994 241.62963,64.8304997 241.62963,67.6536313 C241.62963,68.7156326 241.305809,69.7019922 240.75153,70.5193357 L262.86879,84.0750756 C263.796393,83.1289102 265.088912,82.5418994 266.518519,82.5418994 C268.845727,82.5418994 270.809662,84.0974491 271.427523,86.2256297 L311.494141,68.5963181 C311.437186,68.2907812 311.407407,67.9756843 311.407407,67.6536313 C311.407407,64.8304997 313.69573,62.5418994 316.518519,62.5418994 C319.341307,62.5418994 321.62963,64.8304997 321.62963,67.6536313 C321.62963,70.4767628 319.341307,72.7653631 316.518519,72.7653631 C314.371259,72.7653631 312.533266,71.441076 311.776531,69.5645865 L271.612865,87.2365993 C271.62397,87.374144 271.62963,87.5132266 271.62963,87.6536313 C271.62963,90.0863008 269.930521,92.1220741 267.65445,92.6386671 L280.428851,140.54267 C280.458679,140.542157 280.488569,140.541899 280.518519,140.541899 C282.539637,140.541899 284.286757,141.715166 285.116105,143.417845 L321.417075,127.970624 C321.410661,127.865782 321.407407,127.760087 321.407407,127.653631 C321.407407,124.8305 323.69573,122.541899 326.518519,122.541899 C329.341307,122.541899 331.62963,124.8305 331.62963,127.653631 C331.62963,130.476763 329.341307,132.765363 326.518519,132.765363 C324.156879,132.765363 322.169342,131.163444 321.582977,128.986801 L285.463682,144.356714 C285.571976,144.770876 285.62963,145.20552 285.62963,145.653631 C285.62963,145.885366 285.614211,146.1135 285.584345,146.337062 L332.730191,184.222117 C333.665344,183.190105 335.016242,182.541899 336.518519,182.541899 C339.341307,182.541899 341.62963,184.8305 341.62963,187.653631 C341.62963,190.476763 339.341307,192.765363 336.518519,192.765363 C333.69573,192.765363 331.407407,190.476763 331.407407,187.653631 C331.407407,186.692636 331.672561,185.793579 332.13369,185.025645 L285.320655,147.408027 C284.604954,149.366995 282.72502,150.765363 280.518519,150.765363 C280.001905,150.765363 279.503194,150.688707 279.033135,150.546149 L259.220249,183.313615 C260.666991,184.216362 261.62963,185.822565 261.62963,187.653631 C261.62963,190.476763 259.341307,192.765363 256.518519,192.765363 C253.69573,192.765363 251.407407,190.476763 251.407407,187.653631 C251.407407,187.158318 251.477847,186.679459 251.609253,186.226526 L177.301219,158.779414 L130.774124,194.82153 C131.314599,195.632243 131.62963,196.606143 131.62963,197.653631 C131.62963,200.476763 129.341307,202.765363 126.518519,202.765363 C124.609437,202.765363 122.944818,201.718567 122.067203,200.167581 L81.3948306,216.117531 C81.5473794,216.602383 81.6296296,217.118401 81.6296296,217.653631 C81.6296296,220.476763 79.3413072,222.765363 76.5185185,222.765363 C73.6957298,222.765363 71.4074074,220.476763 71.4074074,217.653631 C71.4074074,214.8305 73.6957298,212.541899 76.5185185,212.541899 C77.9755333,212.541899 79.2901542,213.151634 80.2211958,214.12989 L121.847271,173.098473 L119.041485,151.35363 L81.5971658,157.07429 C81.6186131,157.26444 81.6296296,157.457749 81.6296296,157.653631 C81.6296296,160.476763 79.3413072,162.765363 76.5185185,162.765363 C73.6957298,162.765363 71.4074074,160.476763 71.4074074,157.653631 C71.4074074,154.8305 73.6957298,152.541899 76.5185185,152.541899 C78.797735,152.541899 80.7285061,154.033953 81.3875897,156.094706 L118.913479,150.361584 L113.803282,110.757564 C113.709019,110.762741 113.614075,110.765363 113.518519,110.765363 C110.69573,110.765363 108.407407,108.476763 108.407407,105.653631 C108.407407,105.432183 108.421487,105.214024 108.448801,105 L91.5882364,105 C91.6155497,105.214024 91.6296296,105.432183 91.6296296,105.653631 C91.6296296,108.476763 89.3413072,110.765363 86.5185185,110.765363 C83.6957298,110.765363 81.4074074,108.476763 81.4074074,105.653631 C81.4074074,102.8305 83.6957298,100.541899 86.5185185,100.541899 C88.7626698,100.541899 90.6690147,101.988396 91.3562705,104 L108.680767,104 C109.094514,102.788957 109.950106,101.782731 111.055248,101.173639 L89.0679215,62.0850582 C88.3175372,62.5177921 87.446936,62.7653631 86.5185185,62.7653631 C83.6957298,62.7653631 81.4074074,60.4767628 81.4074074,57.6536313 C81.4074074,54.8304997 83.6957298,52.5418994 86.5185185,52.5418994 C89.3413072,52.5418994 91.6296296,54.8304997 91.6296296,57.6536313 C91.6296296,59.1868365 90.9547045,60.5623854 89.8857866,61.4993117 L111.979825,100.777603 C112.465425,100.624474 112.98233,100.541899 113.518519,100.541899 C115.454268,100.541899 117.138677,101.618145 118.00615,103.204972 L161.639177,89.1800701 C161.488569,88.6980268 161.407407,88.1853083 161.407407,87.6536313 C161.407407,84.8304997 163.69573,82.5418994 166.518519,82.5418994 C169.341307,82.5418994 171.62963,84.8304997 171.62963,87.6536313 C171.62963,88.872958 171.20276,89.9925718 170.490327,90.8711496 L214.459419,112.097607 Z M213.310014,112.653153 L169.742341,91.6204831 C168.862866,92.3362686 167.740796,92.7653631 166.518519,92.7653631 C166.304087,92.7653631 166.09274,92.7521566 165.885246,92.7265124 L148.5858,142.977286 C148.907526,143.119757 149.211799,143.294462 149.494523,143.497307 L213.310014,112.653153 Z M260.755584,146 L193.798281,146 L178.233055,158.05757 L251.981316,185.297918 C252.833085,183.660318 254.545207,182.541899 256.518519,182.541899 C256.804688,182.541899 257.085365,182.565421 257.358721,182.610636 L260.755584,146 Z M192.165355,146 L151.356271,146 C151.533474,146.518677 151.62963,147.074924 151.62963,147.653631 C151.62963,147.844936 151.619122,148.033787 151.598652,148.219637 L177.127353,157.649157 L192.165355,146 Z M275.418956,146 L261.75988,146 L258.342407,182.832762 L278.099427,150.15769 C276.592548,149.346459 275.539443,147.800929 275.418956,146 Z M176.195517,158.371002 L151.388973,149.208225 C150.731212,151.271218 148.799332,152.765363 146.518519,152.765363 C146.272956,152.765363 146.031438,152.748044 145.795119,152.714559 L128.451542,192.920124 C129.089213,193.180863 129.662453,193.566741 130.140744,194.047234 L176.195517,158.371002 Z M122.008007,174.344181 L80.8404506,214.92363 C80.8970432,215.013057 80.9509375,215.104362 81.002019,215.19743 L121.662312,199.252217 C121.496897,198.749303 121.407407,198.211919 121.407407,197.653631 C121.407407,195.580668 122.641189,193.795905 124.414406,192.993771 L122.008007,174.344181 Z M143.486027,151.768843 C142.29582,150.890105 141.500438,149.507239 141.415043,147.935448 L120.030282,151.202564 L122.741788,172.216734 L143.486027,151.768843 Z M144.375866,152.295863 L122.902525,173.462443 L125.380791,192.669003 C125.746667,192.585822 126.127464,192.541899 126.518519,192.541899 C126.849348,192.541899 127.172837,192.573335 127.486161,192.633383 L144.810293,152.472895 C144.662227,152.420397 144.517299,152.361268 144.375866,152.295863 Z M114.791943,110.605436 L119.902276,150.210517 L141.46009,146.916962 C141.692453,145.306887 142.675132,143.939527 144.042194,143.180858 L115.299731,110.446386 C115.134344,110.507891 114.964912,110.561078 114.791944,110.60544 Z M162.031939,90.104214 L118.398501,104.129247 C118.548698,104.610693 118.62963,105.12271 118.62963,105.653631 C118.62963,107.481228 117.670636,109.084812 116.228469,109.988508 L145.010495,142.768038 C145.487169,142.621039 145.993603,142.541899 146.518519,142.541899 C146.902332,142.541899 147.276264,142.58421 147.635907,142.664423 L164.903886,92.5050546 C163.670935,92.0948078 162.646677,91.2275778 162.031939,90.104214 Z"/>
    <path fill="#FFC600" fill-rule="nonzero" d="M172.788679,109.044906 L187.890566,109.044906 L187.890566,151.711887 C187.890566,170.868491 178.690566,177.660377 164.109434,177.660377 C160.464151,177.660377 155.950943,177.137925 153,176.093019 L154.735849,163.728302 C156.818868,164.424906 159.596226,164.947358 162.54717,164.947358 C168.969811,164.947358 172.962264,161.986792 172.962264,151.711887 L172.788679,109.044906 Z M199.256604,160.941887 C203.249057,163.031698 209.671698,165.121509 216.09434,165.121509 C223.037736,165.121509 226.683019,162.160943 226.683019,157.633019 C226.683019,153.453396 223.558491,151.015283 215.4,148.228868 C204.290566,144.223396 196.826415,137.953962 196.826415,128.027358 C196.826415,116.707547 206.54717,108 222.343396,108 C229.981132,108 235.535849,109.567358 239.528302,111.483019 L236.056604,123.673585 C233.45283,122.454528 228.592453,120.538868 222.169811,120.538868 C215.573585,120.538868 212.449057,123.673585 212.449057,126.982453 C212.449057,131.336226 216.09434,133.251887 224.94717,136.560755 C236.750943,140.914528 242.30566,147.183962 242.30566,156.762264 C242.30566,168.082075 233.8,177.660377 215.226415,177.660377 C207.588679,177.660377 199.950943,175.570566 196.132075,173.480755 L199.256604,160.941887 Z"/>
  </g>
</svg>
