<svg xmlns="http://www.w3.org/2000/svg" width="400" height="350" viewBox="0 0 400 350">
  <g fill="none" fill-rule="evenodd">
    <path fill="#F5F5F5" fill-rule="nonzero" d="M313.764045,88.5030053 L313.764045,258.760563 L91.2359551,258.760563 L91.2359551,88.5030053 C91.2359551,85.601858 93.5899554,83.2394366 96.4581314,83.2394366 L308.541869,83.2394366 C311.423068,83.2394366 313.764045,85.5933429 313.764045,88.5030053 Z M96.4719101,112.056338 L96.4719101,250.901408 L308.52809,250.901408 L308.52809,112.056338 L96.4719101,112.056338 Z"/>
    <path fill="#FFF" fill-rule="nonzero" d="M264.304679,94.6705416 L279.453839,94.6705416 C281.058594,94.6705416 282.348315,96.4345399 282.348315,98.5962474 C282.348315,100.765698 281.058594,102.529697 279.453839,102.529697 L264.304679,102.529697 C262.699405,102.529697 261.404494,100.764994 261.404494,98.5962474 C261.405013,96.4352438 262.699924,94.6705416 264.304679,94.6705416 Z M99.0898876,114.676056 L305.910112,114.676056 L305.910112,248.28169 L99.0898876,248.28169 L99.0898876,114.676056 Z"/>
    <path fill="#E2E2E2" fill-rule="nonzero" d="M86,88.5030053 C86,82.7116003 90.6948055,78 96.4581314,78 L308.541869,78 C314.320499,78 319,82.7053471 319,88.5030053 L319,264 L86,264 L86,88.5030053 Z M313.764045,88.5030053 C313.764045,85.5933429 311.423068,83.2394366 308.541869,83.2394366 L96.4581314,83.2394366 C93.5899554,83.2394366 91.2359551,85.601858 91.2359551,88.5030053 L91.2359551,258.760563 L313.764045,258.760563 L313.764045,88.5030053 Z M96.4719101,112.056338 L308.52809,112.056338 L308.52809,250.901408 L96.4719101,250.901408 L96.4719101,112.056338 Z M99.0898876,114.676056 L99.0898876,248.28169 L305.910112,248.28169 L305.910112,114.676056 L99.0898876,114.676056 Z M264.304679,92.0508233 L279.453839,92.0508233 C282.704796,92.0508233 284.966292,95.1260231 284.966292,98.5962474 C284.966292,102.072573 282.706664,105.149415 279.453839,105.149415 L264.304679,105.149415 C261.052403,105.149415 258.786517,102.071688 258.786517,98.5956178 C258.78735,95.1265824 261.054868,92.0508233 264.304679,92.0508233 Z M264.304679,94.6705416 C262.699924,94.6705416 261.405013,96.4352438 261.404494,98.5962474 C261.404494,100.764994 262.699405,102.529697 264.304679,102.529697 L279.453839,102.529697 C281.058594,102.529697 282.348315,100.765698 282.348315,98.5962474 C282.348315,96.4345399 281.058594,94.6705416 279.453839,94.6705416 L264.304679,94.6705416 Z M294.372675,91.7572925 C297.985236,91.7572925 300.921254,94.6904766 300.921254,98.3065882 C300.921254,101.9227 297.985236,104.855884 294.372675,104.855884 C290.760503,104.855884 287.831367,101.922425 287.831367,98.3065882 C287.831367,94.6905913 290.760002,91.7572925 294.372675,91.7572925 Z"/>
    <path fill="#555" stroke="#555" d="M213.359612,152 L238.609767,50.9993799 C236.519632,50.3579667 235,48.4123354 235,46.1117318 C235,43.2886003 237.288322,41 240.111111,41 C242.9339,41 245.222222,43.2886003 245.222222,46.1117318 C245.222222,48.9348634 242.9339,51.2234637 240.111111,51.2234637 C239.935551,51.2234637 239.762059,51.2146113 239.591056,51.1973284 L214.390388,152 L213.359612,152 Z M260.549887,152.272828 L284.410739,138.122789 C284.14637,137.505544 284,136.825734 284,136.111732 C284,133.2886 286.288322,131 289.111111,131 C291.9339,131 294.222222,133.2886 294.222222,136.111732 C294.222222,138.934863 291.9339,141.223464 289.111111,141.223464 C287.359714,141.223464 285.814063,140.34245 284.893062,138.999376 L261.883938,152.644322 C261.449933,152.495808 261.004714,152.371441 260.549887,152.272828 Z M270,167.310341 L344.079474,147.014595 C344.027251,146.721526 344,146.419812 344,146.111732 C344,143.2886 346.288322,141 349.111111,141 C351.9339,141 354.222222,143.2886 354.222222,146.111732 C354.222222,148.934863 351.9339,151.223464 349.111111,151.223464 C346.94649,151.223464 345.096157,149.877675 344.35098,147.977061 L270,168.347193 L270,167.310341 Z M270,181.172071 L344.022119,175.633001 C344.263452,173.034347 346.449737,171 349.111111,171 C351.9339,171 354.222222,173.2886 354.222222,176.111732 C354.222222,178.934863 351.9339,181.223464 349.111111,181.223464 C346.465121,181.223464 344.288743,179.212567 344.026499,176.635469 L270,182.174867 L270,181.172071 Z M270,199.173845 L294.231177,204.587193 C294.879689,202.508672 296.819237,201 299.111111,201 C301.9339,201 304.222222,203.2886 304.222222,206.111732 C304.222222,208.934863 301.9339,211.223464 299.111111,211.223464 C296.288322,211.223464 294,208.934863 294,206.111732 C294,205.927589 294.009736,205.745721 294.02872,205.566614 L270,200.198496 L270,199.173845 Z M242.070061,213 L266.922002,232.116878 C267.7962,231.417918 268.904857,231 270.111111,231 C272.9339,231 275.222222,233.2886 275.222222,236.111732 C275.222222,238.934863 272.9339,241.223464 270.111111,241.223464 C267.288322,241.223464 265,238.934863 265,236.111732 C265,234.858834 265.450699,233.711215 266.198794,232.822196 L240.429939,213 L242.070061,213 Z M207.584104,213 L210.808951,271.047248 C213.301601,271.387599 215.222222,273.525346 215.222222,276.111732 C215.222222,278.934863 212.9339,281.223464 210.111111,281.223464 C207.288322,281.223464 205,278.934863 205,276.111732 C205,273.39129 207.124877,271.167201 209.805285,271.009 L206.582562,213 L207.584104,213 Z M175.330733,213 L153.068728,232.87679 C153.78968,233.757966 154.222222,234.88433 154.222222,236.111732 C154.222222,238.934863 151.9339,241.223464 149.111111,241.223464 C146.288322,241.223464 144,238.934863 144,236.111732 C144,233.2886 146.288322,231 149.111111,231 C150.346002,231 151.478605,231.437996 152.362081,232.16713 L173.829267,213 L175.330733,213 Z M133,191.361004 L74.1960788,195.591502 C74.213367,195.762562 74.2222222,195.936113 74.2222222,196.111732 C74.2222222,198.934863 71.9338998,201.223464 69.1111111,201.223464 C66.2883224,201.223464 64,198.934863 64,196.111732 C64,193.2886 66.2883224,191 69.1111111,191 C71.4089049,191 73.35255,192.516475 73.9960444,194.603309 L133,190.35842 L133,191.361004 Z M133,170.806224 L64.1813087,156.761594 C63.8620847,159.277877 61.7137783,161.223464 59.1111111,161.223464 C56.2883224,161.223464 54,158.934863 54,156.111732 C54,153.2886 56.2883224,151 59.1111111,151 C61.8111834,151 64.0222495,153.093939 64.2093919,155.746713 L133,169.785612 L133,170.806224 Z M162.957583,152 L133.190701,129.191609 C132.257648,130.42589 130.77751,131.223464 129.111111,131.223464 C126.288322,131.223464 124,128.934863 124,126.111732 C124,123.2886 126.288322,121 129.111111,121 C131.9339,121 134.222222,123.2886 134.222222,126.111732 C134.222222,126.908079 134.040143,127.661893 133.715351,128.333807 L164.601739,152 L162.957583,152 Z M199.773354,152 L189.588663,71.2014455 C189.431435,71.2160157 189.272143,71.2234637 189.111111,71.2234637 C186.288322,71.2234637 184,68.9348634 184,66.1117318 C184,63.2886003 186.288322,61 189.111111,61 C191.9339,61 194.222222,63.2886003 194.222222,66.1117318 C194.222222,68.4269245 192.683255,70.3826286 190.572624,71.0114247 L200.781267,152 L199.773354,152 Z"/>
    <path fill="#FD6A15" d="M133,163.997036 C133,157.371256 138.370562,152 145.007825,152 L257.992175,152 C264.623914,152 270,157.373226 270,163.997036 L270,201.002964 C270,207.628744 264.629438,213 257.992175,213 L145.007825,213 C138.376086,213 133,207.626774 133,201.002964 L133,163.997036 Z M188.226562,191.847656 L190.297852,198 L196.839844,198 L185.663086,168.140625 L179.961914,168.140625 L168.84668,198 L175.388672,198 L177.439453,191.847656 L188.226562,191.847656 Z M205.78125,187.479492 L211.174805,187.479492 C214.715838,187.479492 217.487783,186.635262 219.490723,184.946777 C221.493662,183.258292 222.495117,180.951187 222.495117,178.025391 C222.495117,176.097647 222.037114,174.378426 221.121094,172.867676 C220.205074,171.356926 218.896005,170.19141 217.193848,169.371094 C215.491691,168.550777 213.519542,168.140625 211.277344,168.140625 L199.628906,168.140625 L199.628906,198 L205.78125,198 L205.78125,187.479492 Z M233.261719,198 L233.261719,168.140625 L227.109375,168.140625 L227.109375,198 L233.261719,198 Z M179.100586,186.864258 L182.8125,175.6875 L186.56543,186.864258 L179.100586,186.864258 Z M205.78125,182.496094 L205.78125,173.124023 L211.420898,173.124023 C212.938484,173.151367 214.127925,173.616206 214.989258,174.518555 C215.85059,175.420903 216.28125,176.603508 216.28125,178.066406 C216.28125,179.488288 215.854008,180.582027 214.999512,181.347656 C214.145015,182.113285 212.904305,182.496094 211.277344,182.496094 L205.78125,182.496094 Z"/>
  </g>
</svg>
