<svg xmlns="http://www.w3.org/2000/svg" width="400" height="350" viewBox="0 0 400 350">
  <g fill="none" fill-rule="evenodd" transform="translate(64 44)">
    <path fill="#F5F5F5" d="M219.544426,68 C222.555903,68 225,70.3580933 225,73.2636011 L225,187.736399 C225,190.641907 222.555903,193 219.544426,193 L66.4555737,193 C63.444097,193 61,190.641907 61,187.736399 L61,73.2636011 C61,70.3580933 63.444097,68 66.4555737,68 L219.544426,68 Z"/>
    <path fill="#DADADA" fill-rule="nonzero" d="M73,175 L81,175 L81,179 L73,179 L73,175 Z M73,163 L81,163 L81,167 L73,167 L73,163 Z M73,151 L81,151 L81,155 L73,155 L73,151 Z M73,139 L81,139 L81,143 L73,143 L73,139 Z M73,127 L81,127 L81,131 L73,131 L73,127 Z M73,115 L81,115 L81,119 L73,119 L73,115 Z M73,103 L81,103 L81,107 L73,107 L73,103 Z M73,91 L81,91 L81,95 L73,95 L73,91 Z M73,79 L81,79 L81,83 L73,83 L73,79 Z M89,151 L121,151 L121,155 L89,155 L89,151 Z M117,175 L149,175 L149,179 L117,179 L117,175 Z M153,175 L161,175 L161,179 L153,179 L153,175 Z M104,163 L136,163 L136,167 L104,167 L104,163 Z M161,151 L193,151 L193,155 L161,155 L161,151 Z M125,151 L157,151 L157,155 L125,155 L125,151 Z M89,127 L137,127 L137,131 L89,131 L89,127 Z M141,127 L157,127 L157,131 L141,131 L141,127 Z M121,115 L147,115 L147,119 L121,119 L121,115 Z M89,103 L121,103 L121,107 L89,107 L89,103 Z M125,103 L133,103 L133,107 L125,107 L125,103 Z M137,103 L153,103 L153,107 L137,107 L137,103 Z M157,103 L189,103 L189,107 L157,107 L157,103 Z M193,103 L201,103 L201,107 L193,107 L193,103 Z M121,91 L129,91 L129,95 L121,95 L121,91 Z M101,91 L117,91 L117,95 L101,95 L101,91 Z M133,91 L165,91 L165,95 L133,95 L133,91 Z M113,139 L145,139 L145,143 L113,143 L113,139 Z M149,139 L157,139 L157,143 L149,143 L149,139 Z M89,139 L109,139 L109,143 L89,143 L89,139 Z M89,91 L97,91 L97,95 L89,95 L89,91 Z M89,79 L121,79 L121,83 L89,83 L89,79 Z"/>
    <path fill="#555" d="M141,234.65 L141,211 L147,211 L147,234.65 L219.333333,234.65 L219.333333,240.65 L69.3333333,240.65 L69.3333333,234.65 L141,234.65 Z M234.793889,201 L255,201 L244.901919,207 L40.6602701,207 L31,201 L51.1786037,201 C50.2163498,199.311943 49.6644761,197.344208 49.6644761,195.243363 L49.6644761,68.3509617 C49.6644761,62.0852309 54.5823982,57 60.6542462,57 L225.319467,57 C231.38582,57 236.309237,62.0852309 236.309237,68.3509617 L236.309237,195.243363 C236.309237,197.344208 235.756747,199.311943 234.793879,201 Z M62.7216992,64 C59.5633212,64 57,66.5090113 57,69.6004716 L57,191.399528 C57,194.490989 59.5633212,197 62.7216992,197 L223.278301,197 C226.436679,197 229,194.490989 229,191.399528 L229,69.6004716 C229,66.5090113 226.436679,64 223.278301,64 L62.7216992,64 Z"/>
    <path fill="#FFECE1" d="M62.5,123 C95.9132274,123 123,95.9132274 123,62.5 C123,29.0867726 95.9132274,2 62.5,2 C29.0867726,2 2,29.0867726 2,62.5 C2,95.9132274 29.0867726,123 62.5,123 Z"/>
    <path fill="#FD6A15" fill-rule="nonzero" d="M62.5,125 C27.9822031,125 0,97.0177969 0,62.5 C0,27.9822031 27.9822031,0 62.5,0 C97.0177969,0 125,27.9822031 125,62.5 C125,97.0177969 97.0177969,125 62.5,125 Z M62.5,123 C95.9132274,123 123,95.9132274 123,62.5 C123,29.0867726 95.9132274,2 62.5,2 C29.0867726,2 2,29.0867726 2,62.5 C2,95.9132274 29.0867726,123 62.5,123 Z M63.2094142,29.5031056 L99.378882,45.8734141 L63.2094142,61.5017391 L26.3975155,45.7983365 L63.2094142,29.5031056 Z M26.3975155,63.6920296 L40.0302095,56.9756241 L62.541474,66.0593428 L85.0164885,57.1832712 L98.9371687,63.4843824 L62.541474,79.0098984 L26.3975155,63.6920296 Z M26.3975155,80.1606066 L40.0302095,74.1259872 L62.541474,83.2090295 L85.0164885,74.3336344 L98.894877,80.0517101 L62.541474,96.1602615 L26.3975155,80.1606066 Z"/>
  </g>
</svg>
