<?xml version="1.0" encoding="utf-8"?>
<!-- Generator: Adobe Illustrator 21.0.2, SVG Export Plug-In . SVG Version: 6.00 Build 0)  -->
<svg version="1.1" id="Layer_1" xmlns="http://www.w3.org/2000/svg" xmlns:xlink="http://www.w3.org/1999/xlink" x="0px" y="0px"
	 viewBox="0 0 5000 5000" style="enable-background:new 0 0 5000 5000;" xml:space="preserve">
<style type="text/css">
	.st0{display:none;fill:#F2F5F9;}
	.st1{fill:#666562;}
	.st2{fill:#2E333A;}
	.st3{fill:#E8B32E;}
	.st4{fill:#FFDC3E;}
	.st5{fill:#C9C6C0;}
	.st6{fill:#FFCD40;}
	.st7{fill:#F09C1F;}
	.st8{fill:#F7C546;}
	.st9{fill:#1A1D22;}
	.st10{fill:#EDBC40;}
	.st11{fill:#60C2E9;}
	.st12{fill:#286162;}
	.st13{fill:#151515;}
	.st14{fill:#3F3F3D;}
	.st15{fill:#B8B8B8;}
	.st16{fill:#7C7C7B;}
	.st17{fill:#4C4C4C;}
	.st18{fill:#A3A29F;}
	.st19{fill:#918E87;}
	.st20{fill:#454C4C;}
	.st21{fill:#3D3C3C;}
	.st22{fill:#595858;}
	.st23{fill:#E5E7E9;}
	.st24{fill:#ACEFEF;}
	.st25{fill:#7E7F7F;}
</style>
<rect class="st0" width="5000" height="5000"/>
<g>
	<polygon class="st1" points="4079,1622 4034.3,1622 4034.3,1617 4034,609 3955.8,609 3955,1622 3911,1622 3911,604 3921,604 
		3921,1612 3945,1612 3945.8,599 4044,599 4044,604 4044.3,1612 4069,1612 4068.7,544 4078.7,544 	"/>
	<rect x="1167.9" y="3448.5" class="st2" width="32.6" height="88.3"/>
	<path d="M2037.3,3805c0,25.6-11.8,46.3-26.5,46.3h-426.3c-14.6,0-26.5-20.7-26.5-46.3v-232.2c0-25.6,11.8-46.3,26.5-46.3h426.3
		c14.6,0,26.5,20.7,26.5,46.3V3805z M2025.8,3572.4c0-14.7-6.8-26.7-15.2-26.7h-425.7c-8.4,0-15.2,11.9-15.2,26.7v231.1
		c0,14.7,6.8,26.7,15.2,26.7h425.7c8.4,0,15.2-11.9,15.2-26.7V3572.4z"/>
	<path class="st2" d="M1430.5,3557.7c0-11.5-13.2-20.8-29.5-20.8h-281.3c-16.3,0-29.5,9.3-29.5,20.8v60.9
		c0,11.5,13.2,20.8,29.5,20.8H1401c16.3,0,29.5-9.3,29.5-20.8V3557.7z"/>
	<path class="st3" d="M2483.8,3326.8c-4.4,0-8.5-3-9.7-7.4c-1.4-5.3,1.8-10.8,7.1-12.2l261.8-69.6l-213.4-118.5l337.3-112.7
		L2620.8,2869l396.4-144.4L2738,2543.6l408.3-120.9l-297.5-194.9l458.3-87.2l-348.6-220.1l466.7-80.6l-294.6-246.8l383.3-67.8
		l-257.5-188.9l334.7-33.2l-197.3-238.1l243.1,27.1l-157.9-183.5l190,37.4L3545,796.4c-3.5-4.3-2.9-10.6,1.3-14.1
		c4.3-3.5,10.6-2.9,14.1,1.3l159.6,193l-188.3-37.1l153.4,178.2l-244.4-27.3l189.7,229l-320.2,31.8l253.2,185.7l-387.1,68.4
		l294.8,246.9l-458,79.1l347.5,219.4l-459.5,87.4l292.2,191.4l-408,120.8l276.4,179.1l-393,143.2l247.5,138.2l-337.1,112.6
		l217.1,120.5l-309.8,82.3C2485.5,3326.7,2484.7,3326.8,2483.8,3326.8z"/>
	<path class="st4" d="M2127.4,3683.8c0-37.2-31.4-67.3-70.1-67.3H824.4c-38.7,0-70.1,30.1-70.1,67.3v368.2
		c0,37.2,31.4,67.3,70.1,67.3h1232.9c38.7,0,70.1-30.1,70.1-67.3V3683.8z"/>
	<polygon class="st1" points="2174.7,3351.8 2165.8,3347.4 2873.8,1918 3503.6,440.2 3512.8,444.2 2882.9,1922.2 2882.8,1922.3 	"/>
	<path class="st5" d="M1493.2,3352c2.1,5.2-0.5,11.1-5.7,13.1l-0.4,0.2c-5.2,2.1-11.1-0.5-13.1-5.7l-65.5-166
		c-2.1-5.2,0.5-11.1,5.7-13.1l0.4-0.2c5.2-2.1,11.1,0.5,13.1,5.7L1493.2,3352z"/>
	<path class="st3" d="M1580.4,3537c4.8,12.1-1.2,25.8-13.3,30.5l0,0c-12.1,4.8-25.8-1.2-30.5-13.3l-79.6-201.5
		c-4.8-12.1,1.2-25.8,13.3-30.5l0,0c12.1-4.8,25.8,1.2,30.5,13.3L1580.4,3537z"/>
	<path class="st6" d="M1755.9,3480c-4.6,0-9.3-1.6-13.1-4.9c-8.3-7.2-9.3-19.9-2-28.2l1078.5-1244.8c7.2-8.3,19.9-9.3,28.2-2
		c8.3,7.2,9.3,19.9,2,28.2L1771.1,3473.1C1767.1,3477.6,1761.5,3480,1755.9,3480z"/>
	<path class="st7" d="M2704,3420l-35.5-18.5l719.8-1381.7l447.4-1557.4c0.1-0.3,7.3-25.5,9-52.2c0.8-13,1.2-44-13.1-49.8
		c-26.7-10.9-65.2,47.7-78.7,76.1l-0.2,0.4l-736.4,1463L2479,3364.5l-37.6-13.8L2979.7,1884l0.5-1L3717,419.2
		c1.5-3.1,14.7-30.1,34.5-54.9c39.8-49.7,73.8-49.6,95.3-40.9c19.4,7.9,41.8,30,37.8,90c-2,30.9-10.1,58.9-10.5,60.1l-448.5,1561.2
		l-0.9,1.8L2704,3420z"/>
	<path class="st4" d="M1776.7,3429.4L841.5,2265.2c-3-18.5-19.1-32.2-38.5-32.2h-10c-15.4,0-29.2,8.4-35.6,21.4
		c-5.4,8.5-6.4,19.3-4.4,31.2V3352c0,21.5,18.5,40,40,40h10c21.5,0,38-18.5,38-40v-946.1l866.6,1078.6
		c18.7,23.3,47.8,31.3,64.6,17.8l7.9-6.3C1796.9,3482.5,1795.4,3452.7,1776.7,3429.4z"/>
	<polygon class="st8" points="1840.4,3617.8 1797.5,3425.7 1736.9,3379.8 1670.6,3442.9 1685.9,3463.6 1506,3569.7 1506,3617 	"/>
	<path class="st4" d="M2127.4,3807.9v-465.1h518.2c0,0,115.8,82.6,163.5,326.2c47.7,243.6-57.5,449.2-57.5,449.2L2127.4,3807.9z"/>
	<polygon class="st6" points="2029.8,4113.8 2751.4,4118.1 2268.4,3807.6 2029.8,3807.6 	"/>
	<rect x="1604.2" y="4116.7" class="st2" width="714.3" height="71.8"/>
	<rect x="1663.8" y="4188.5" class="st9" width="592.3" height="74.6"/>
	<polygon class="st6" points="468.8,4176.2 941.7,4176.2 941.7,3300.5 557.5,3300.5 	"/>
	<path class="st10" d="M1944.4,4028.6c0,23.2-18.8,42-42,42h-174.9c-23.2,0-42-18.8-42-42v-315.8c0-23.2,18.8-42,42-42h174.9
		c23.2,0,42,18.8,42,42V4028.6z M1930.9,3712.8c0-15.7-12.7-28.5-28.5-28.5h-174.9c-15.7,0-28.5,12.7-28.5,28.5v315.8
		c0,15.7,12.7,28.5,28.5,28.5h174.9c15.7,0,28.5-12.7,28.5-28.5V3712.8z"/>
	<path class="st10" d="M1670.6,4028.6c0,23.2-16.7,42-37.3,42h-155.2c-20.6,0-37.3-18.8-37.3-42v-315.8c0-23.2,16.7-42,37.3-42
		h155.2c20.6,0,37.3,18.8,37.3,42V4028.6z M1658.6,3712.8c0-15.7-11.3-28.5-25.3-28.5h-155.2c-14,0-25.3,12.7-25.3,28.5v315.8
		c0,15.7,11.3,28.5,25.3,28.5h155.2c14,0,25.3-12.7,25.3-28.5V3712.8z"/>
	<path class="st10" d="M1431.4,4028.6c0,23.2-17.2,42-38.3,42h-159.5c-21.2,0-38.3-18.8-38.3-42v-315.8c0-23.2,17.2-42,38.3-42
		h159.5c21.2,0,38.3,18.8,38.3,42V4028.6z M1419.1,3712.8c0-15.7-11.6-28.5-26-28.5h-159.5c-14.3,0-26,12.7-26,28.5v315.8
		c0,15.7,11.6,28.5,26,28.5h159.5c14.3,0,26-12.7,26-28.5V3712.8z"/>
	<path class="st10" d="M1184.3,4028.6c0,23.2-16.9,42-37.8,42H989.4c-20.9,0-37.8-18.8-37.8-42v-315.8c0-23.2,16.9-42,37.8-42h157.1
		c20.9,0,37.8,18.8,37.8,42V4028.6z M1172.1,3712.8c0-15.7-11.5-28.5-25.6-28.5H989.4c-14.1,0-25.6,12.7-25.6,28.5v315.8
		c0,15.7,11.5,28.5,25.6,28.5h157.1c14.1,0,25.6-12.7,25.6-28.5V3712.8z"/>
	<path class="st10" d="M917.6,3900c0,35.5-23.1,64.4-51.6,64.4H606.4c-28.5,0-51.6-28.8-51.6-64.4l44.8-483.7
		c0-35.5,23.1-64.4,51.6-64.4H866c28.5,0,51.6,28.8,51.6,64.4V3900z M900.9,3416.4c0-24.1-15.7-43.6-35-43.6H651.2
		c-19.3,0-35,19.5-35,43.6L571.5,3900c0,24.1,15.7,43.6,35,43.6H866c19.3,0,35-19.5,35-43.6V3416.4z"/>
	<path class="st9" d="M1742.2,3526.5h198v601h-198V3526.5z M1925.8,3539.6h-170.1v574.9h170.1V3539.6z"/>
	<rect x="1749" y="3639.3" class="st9" width="183.6" height="14.4"/>
	<rect x="1749" y="3776.7" class="st9" width="183.6" height="14.4"/>
	<rect x="1749" y="3911.3" class="st9" width="183.6" height="14.4"/>
	<polygon class="st9" points="474.6,4119.4 941.7,4119.4 941.7,4047.6 2029.8,4047.6 2029.8,4008.3 486.4,4008.3 	"/>
	<path class="st9" d="M835.9,3790c5.5,0,9.5-4.4,9.5-9.9v-49.5c0-5.5-4-9.9-9.5-9.9c-5.5,0-9.5,4.4-9.5,9.9v49.5
		C826.4,3785.6,830.4,3790,835.9,3790z"/>
	<path class="st9" d="M2270,3864.6c0-5.5-14.6-9.5-32.6-9.5h-162.9c-18,0-32.6,4-32.6,9.5s14.6,9.5,32.6,9.5h162.9
		C2255.4,3874.1,2270,3870,2270,3864.6z"/>
	<path class="st9" d="M1081.7,4126.7c5.5,0,10.2-4.4,10.2-9.9v-49.5c0-5.5-4.7-9.9-10.2-9.9s-10.2,4.4-10.2,9.9v49.5
		C1071.5,4122.2,1076.2,4126.7,1081.7,4126.7z"/>
	<path class="st9" d="M869.8,3790c5.5,0,10.2-4.4,10.2-9.9v-49.5c0-5.5-4.7-9.9-10.2-9.9s-10.2,4.4-10.2,9.9v49.5
		C859.6,3785.6,864.3,3790,869.8,3790z"/>
	<path class="st9" d="M1086.4,3790c5.5,0,9.5-4.4,9.5-9.9v-49.5c0-5.5-4-9.9-9.5-9.9c-5.5,0-9.5,4.4-9.5,9.9v49.5
		C1076.9,3785.6,1081,3790,1086.4,3790z"/>
	<path class="st9" d="M1246.4,4126.7c5.5,0,9.5-4.4,9.5-9.9v-49.5c0-5.5-4-9.9-9.5-9.9c-5.5,0-9.5,4.4-9.5,9.9v49.5
		C1236.9,4122.2,1240.9,4126.7,1246.4,4126.7z"/>
	<path class="st9" d="M1413.8,4126.7c5.5,0,10.2-4.4,10.2-9.9v-49.5c0-5.5-4.7-9.9-10.2-9.9s-10.2,4.4-10.2,9.9v49.5
		C1403.6,4122.2,1408.3,4126.7,1413.8,4126.7z"/>
	<path class="st9" d="M1726.2,4126.7c5.5,0,9.5-4.4,9.5-9.9v-49.5c0-5.5-4-9.9-9.5-9.9c-5.5,0-9.5,4.4-9.5,9.9v49.5
		C1716.7,4122.2,1720.7,4126.7,1726.2,4126.7z"/>
	<path class="st9" d="M2029.8,4126.7c5.5,0,10.8-4.4,10.8-9.9v-49.5c0-5.5-5.4-9.9-10.8-9.9c-5.5,0-10.8,4.4-10.8,9.9v49.5
		C2019,4122.2,2024.4,4126.7,2029.8,4126.7z"/>
	<path class="st9" d="M2197.9,4126.7c5.5,0,9.5-4.4,9.5-9.9v-49.5c0-5.5-4-9.9-9.5-9.9s-9.5,4.4-9.5,9.9v49.5
		C2188.4,4122.2,2192.4,4126.7,2197.9,4126.7z"/>
	<path class="st9" d="M2362.6,4126.7c5.5,0,10.2-4.4,10.2-9.9v-49.5c0-5.5-4.7-9.9-10.2-9.9s-10.2,4.4-10.2,9.9v49.5
		C2352.4,4122.2,2357.1,4126.7,2362.6,4126.7z"/>
	<path class="st9" d="M2530.7,4126.7c5.5,0,10.2-4.4,10.2-9.9v-49.5c0-5.5-4.7-9.9-10.2-9.9s-10.2,4.4-10.2,9.9v49.5
		C2520.5,4122.2,2525.2,4126.7,2530.7,4126.7z"/>
	<path class="st2" d="M1200.3,3448.5c0,0,1.2-36.5-16.1-44.9c-17.4-8.4-47.4-5.2-47.4-5.2l15.1,32.7c0,0,15.9-4.7,15.9,17.3"/>
	<g>
		<path class="st11" d="M2269.7,3390.2h421.5c0,0,91.9,106.7,121.8,301.4c4,25.9,6.5,49.7,7.9,72.7h-551.2V3390.2z"/>
		<path class="st12" d="M2820.9,3764.3c8.1,126.1-17.9,200.6-17.9,200.6h-294l-239.3-157v-43.6H2820.9z"/>
	</g>
	
		<rect x="838.5" y="2151.9" transform="matrix(0.8247 -0.5656 0.5656 0.8247 -1074.2791 923.2139)" class="st7" width="227" height="85"/>
	
		<rect x="1035.1" y="2053.8" transform="matrix(0.8247 -0.5656 0.5656 0.8247 -993.6875 986.9352)" class="st6" width="120" height="85"/>
	
		<rect x="2206.5" y="1307.6" transform="matrix(0.8413 -0.5405 0.5405 0.8413 -361.6313 1468.1978)" class="st7" width="227" height="85"/>
	
		<rect x="2114" y="1401.3" transform="matrix(0.8413 -0.5405 0.5405 0.8413 -435.4814 1404.1768)" class="st6" width="120" height="85"/>
	<g>
		<g>
			<path class="st13" d="M1022.6,4384.7l559.4-58.4c228.8-32.3,747.7-0.1,747.7-0.1l569.5,58.1l0,0.6
				c73.8,6.9,131.6,68.9,131.6,144.5c0,80.2-65,145.2-145.2,145.2l-1829.1-1.7c-7.3,1.1-14.9,1.7-22.5,1.7
				c-80.2,0-145.2-65-145.2-145.2C888.8,4453.1,947.7,4390.5,1022.6,4384.7z"/>
			<path class="st14" d="M1878.5,4312c221.2,0,451.2,14.2,451.2,14.2l569.5,58.1l0,0.6c73.8,6.9,131.6,68.9,131.6,144.5
				c0,80.2-65,145.2-145.2,145.2l-1829.1-1.7c-7.3,1.1-14.9,1.7-22.5,1.7c-80.2,0-145.2-65-145.2-145.2c0-76.4,59-138.9,133.8-144.7
				l559.4-58.4C1658.5,4315.5,1767.4,4312,1878.5,4312 M1878.5,4244.3c-131.5,0-234,5-304.7,14.9l-557.4,58.2
				c-53,4.4-102.1,28.2-138.3,67.2c-36.7,39.5-57,91-57,144.9c0,117.4,95.5,212.9,212.9,212.9c9.1,0,18.2-0.6,27.2-1.7l1824.4,1.7
				c117.4,0,212.9-95.5,212.9-212.9c0-53.4-19.9-104.5-55.9-143.8c-20.7-22.6-56.6-48.8-88.8-58.4l-47.7-10.3l-569.5-58.1l-1.3-0.1
				l-1.3-0.1C2331.5,4258.5,2099.3,4244.3,1878.5,4244.3L1878.5,4244.3z"/>
		</g>
		<path class="st14" d="M1015.2,4761.4l3.2-39.5c7.1,0.6,14.4,0.8,21.6,0.5l1.2,39.6c-2.4,0.1-4.8,0.1-7.2,0.1
			C1027.7,4762.1,1021.4,4761.9,1015.2,4761.4z M2873.8,4762.1l0-39.6l11.7,0c3.6,0,7.3-0.1,10.9-0.3l2.2,39.5
			c-4.4,0.2-8.8,0.4-13.2,0.4L2873.8,4762.1z M2826.2,4762.1l0-39.6l23.8,0l0,39.6L2826.2,4762.1z M2778.5,4762l0-39.6l23.8,0
			l0,39.6L2778.5,4762z M2730.9,4762l0-39.6l23.8,0l0,39.6L2730.9,4762z M2683.3,4761.9l0-39.6l23.8,0l0,39.6L2683.3,4761.9z
			 M2635.7,4761.9l0-39.6l23.8,0l0,39.6L2635.7,4761.9z M2588.1,4761.8l0-39.6l23.8,0l0,39.6L2588.1,4761.8z M2540.4,4761.8l0-39.6
			l23.8,0l0,39.6L2540.4,4761.8z M2492.8,4761.8l0-39.6l23.8,0l0,39.6L2492.8,4761.8z M2445.2,4761.7l0-39.6l23.8,0l0,39.6
			L2445.2,4761.7z M2397.6,4761.7l0-39.6l23.8,0l0,39.6L2397.6,4761.7z M2350,4761.6l0-39.6l23.8,0l0,39.6L2350,4761.6z
			 M2302.3,4761.6l0-39.6l23.8,0l0,39.6L2302.3,4761.6z M2254.7,4761.5l0-39.6l23.8,0l0,39.6L2254.7,4761.5z M2207.1,4761.5l0-39.6
			l23.8,0l0,39.6L2207.1,4761.5z M2159.5,4761.4l0-39.6l23.8,0l0,39.6L2159.5,4761.4z M2111.9,4761.4l0-39.6l23.8,0l0,39.6
			L2111.9,4761.4z M2064.2,4761.3l0-39.6l23.8,0l0,39.6L2064.2,4761.3z M2016.6,4761.3l0-39.6l23.8,0l0,39.6L2016.6,4761.3z
			 M1969,4761.3l0-39.6l23.8,0l0,39.6L1969,4761.3z M1921.4,4761.2l0-39.6l23.8,0l0,39.6L1921.4,4761.2z M1873.8,4761.2l0-39.6
			l23.8,0l0,39.6L1873.8,4761.2z M1826.1,4761.1l0-39.6l23.8,0l0,39.6L1826.1,4761.1z M1778.5,4761.1l0-39.6l23.8,0l0,39.6
			L1778.5,4761.1z M1730.9,4761l0-39.6l23.8,0l0,39.6L1730.9,4761z M1683.3,4761l0-39.6l23.8,0l0,39.6L1683.3,4761z M1635.7,4760.9
			l0-39.6l23.8,0l0,39.6L1635.7,4760.9z M1588.1,4760.9l0-39.6l23.8,0l0,39.6L1588.1,4760.9z M1540.4,4760.8l0-39.6l23.8,0l0,39.6
			L1540.4,4760.8z M1492.8,4760.8l0-39.6l23.8,0l0,39.6L1492.8,4760.8z M1445.2,4760.8l0-39.6l23.8,0l0,39.6L1445.2,4760.8z
			 M1397.6,4760.7l0-39.6l23.8,0l0,39.6L1397.6,4760.7z M1350,4760.7l0-39.6l23.8,0l0,39.6L1350,4760.7z M1302.3,4760.6l0-39.6
			l23.8,0l0,39.6L1302.3,4760.6z M1254.7,4760.6l0-39.6l23.8,0l0,39.6L1254.7,4760.6z M1207.1,4760.5l0-39.6l23.8,0l0,39.6
			L1207.1,4760.5z M1159.5,4760.5l0-39.6l23.8,0l0,39.6L1159.5,4760.5z M1111.9,4760.4l0-39.6l23.8,0l0,39.6L1111.9,4760.4z
			 M1064.2,4760.4l0-39.6l23.8,0l0,39.6L1064.2,4760.4z M2917.9,4719.8c7.1-1.2,14.1-2.8,21-4.8l11,38.1c-8.3,2.4-16.8,4.3-25.4,5.8
			L2917.9,4719.8z M964.1,4751.4l11.9-37.8c6.8,2.2,13.9,3.9,20.9,5.3l-7.6,38.9C980.9,4756.2,972.4,4754,964.1,4751.4z
			 M2959.3,4707.9c6.6-2.7,13.1-5.9,19.4-9.4l19.2,34.7c-7.6,4.2-15.4,8-23.4,11.3L2959.3,4707.9z M916.6,4730.3l20-34.2
			c6.2,3.6,12.6,6.9,19.2,9.8l-16.1,36.2C931.9,4738.7,924.1,4734.7,916.6,4730.3z M2997,4687c5.9-4.2,11.5-8.7,16.9-13.5l26.3,29.6
			c-6.4,5.7-13.3,11.2-20.3,16.2L2997,4687z M875.1,4699.3l27.1-28.9c5.2,4.9,10.8,9.6,16.6,13.9L895,4716
			C888.1,4710.8,881.4,4705.2,875.1,4699.3z M3029.2,4658.3c4.8-5.3,9.4-11,13.5-16.8l32.2,23c-5,7-10.5,13.8-16.3,20.3
			L3029.2,4658.3z M841.3,4659.9l32.8-22.3c4,5.9,8.4,11.7,13.1,17.2l-30.1,25.7C851.5,4674,846.2,4667,841.3,4659.9z
			 M3054.3,4623.3c3.5-6.3,6.7-12.8,9.5-19.4l36.5,15.3c-3.3,8-7.2,15.8-11.4,23.4L3054.3,4623.3z M817.1,4613.9l36.9-14.4
			c2.6,6.7,5.6,13.3,9,19.6l-35,18.5C823.9,4629.9,820.3,4622,817.1,4613.9z M3070.9,4583.5c2-6.9,3.7-14,4.9-21l39,6.8
			c-1.5,8.5-3.5,17-5.9,25.3L3070.9,4583.5z M803.8,4563.7l39.2-5.8c1.1,7.1,2.5,14.2,4.4,21.1l-38.3,10.2
			C806.8,4580.8,805,4572.3,803.8,4563.7z M3078.3,4541.1c0.2-3.9,0.3-7.8,0.3-11.7c0-3.3-0.1-6.6-0.3-9.9l39.6-2
			c0.2,4,0.3,8,0.3,11.9c0,4.7-0.1,9.4-0.4,14L3078.3,4541.1z M801.3,4529.4c0-5.8,0.2-11.8,0.7-17.6l39.5,3
			c-0.4,4.8-0.5,9.8-0.5,14.6c0,2.3,0,4.7,0.1,7l-39.6,1.4C801.3,4535,801.3,4532.2,801.3,4529.4z M3071.4,4477l38.1-10.7
			c2.3,8.3,4.2,16.9,5.6,25.4l-39.1,6.4C3074.9,4491,3073.4,4483.9,3071.4,4477z M805.3,4486c1.6-8.5,3.7-17,6.3-25.3l37.8,11.7
			c-2.1,6.8-3.9,13.9-5.2,20.9L805.3,4486z M3055.2,4437.1l34.8-19c4.1,7.6,7.9,15.5,11.2,23.5l-36.7,14.9
			C3061.7,4450,3058.6,4443.4,3055.2,4437.1z M820.6,4436.4c3.5-7.9,7.4-15.7,11.7-23.2l34.3,19.8c-3.6,6.2-6.9,12.7-9.7,19.2
			L820.6,4436.4z M3030.4,4401.8l29.7-26.2c5.7,6.5,11.1,13.4,16.1,20.4l-32.4,22.7C3039.7,4412.9,3035.2,4407.2,3030.4,4401.8z
			 M846.6,4391.4c5.1-6.9,10.7-13.7,16.6-20l29.1,26.9c-4.9,5.3-9.5,10.9-13.8,16.6L846.6,4391.4z M2998.2,4372.8l23.4-31.9
			c7,5.1,13.7,10.6,20,16.2l-26.4,29.5C3009.9,4381.9,3004.2,4377.2,2998.2,4372.8z M881.9,4353.3c6.5-5.7,13.5-11,20.6-15.9
			l22.4,32.7c-5.9,4.1-11.7,8.5-17.1,13.2L881.9,4353.3z M2961,4351l15.8-36.3c7.6,3.3,15.5,7.3,23.4,12l-20.2,34.1
			C2973.5,4357,2967.1,4353.7,2961,4351z M924.7,4324c7.6-4.1,15.6-7.7,23.6-10.9l14.6,36.8c-6.7,2.6-13.2,5.7-19.6,9L924.7,4324z
			 M2918.8,4340l8.4-38.7l23.3,5l-8.4,38.7L2918.8,4340z M973,4304.8c8.3-2.3,16.9-4.1,25.4-5.4l6,39.1c-7.1,1.1-14.2,2.6-21.1,4.5
			L973,4304.8z M1023.1,4296.7l23.7-2.5l4.1,39.4l-23.7,2.5L1023.1,4296.7z M2873.9,4333.6l4-39.4l23.7,2.4l-4,39.4L2873.9,4333.6z
			 M2826.6,4328.7l4-39.4l23.7,2.4l-4,39.4L2826.6,4328.7z M1070.4,4291.7l23.7-2.5l4.1,39.4l-23.7,2.5L1070.4,4291.7z
			 M2779.2,4323.9l4-39.4l23.7,2.4l-4,39.4L2779.2,4323.9z M1117.8,4286.8l23.7-2.5l4.1,39.4l-23.7,2.5L1117.8,4286.8z
			 M2731.8,4319.1l4-39.4l23.7,2.4l-4,39.4L2731.8,4319.1z M1165.2,4281.9l23.7-2.5l4.1,39.4l-23.7,2.5L1165.2,4281.9z
			 M2684.4,4314.2l4-39.4l23.7,2.4l-4,39.4L2684.4,4314.2z M1212.5,4276.9l23.7-2.5l4.1,39.4l-23.7,2.5L1212.5,4276.9z
			 M2637.1,4309.4l4-39.4l23.7,2.4l-4,39.4L2637.1,4309.4z M1259.9,4272l23.7-2.5l4.1,39.4l-23.7,2.5L1259.9,4272z M2589.7,4304.6
			l4-39.4l23.7,2.4l-4,39.4L2589.7,4304.6z M1307.2,4267l23.7-2.5l4.1,39.4l-23.7,2.5L1307.2,4267z M2542.3,4299.7l4-39.4l23.7,2.4
			l-4,39.4L2542.3,4299.7z M1354.6,4262.1l23.7-2.5l4.1,39.4l-23.7,2.5L1354.6,4262.1z M2494.9,4294.9l4-39.4l23.7,2.4l-4,39.4
			L2494.9,4294.9z M1402,4257.1l23.7-2.5l4.1,39.4l-23.7,2.5L1402,4257.1z M2447.6,4290.1l4-39.4l23.7,2.4l-4,39.4L2447.6,4290.1z
			 M1449.3,4252.2l23.7-2.5l4.1,39.4l-23.7,2.5L1449.3,4252.2z M2400.2,4285.2l4-39.4l23.7,2.4l-4,39.4L2400.2,4285.2z
			 M1496.7,4247.3l23.7-2.5l4.1,39.4l-23.7,2.5L1496.7,4247.3z M2352.8,4280.4l4-39.4l23.7,2.4l-4,39.4L2352.8,4280.4z
			 M1544.1,4242.3l23.7-2.5l4.1,39.4l-23.7,2.5L1544.1,4242.3z M2306.2,4276.9l2.2-39.5c11.7,0.6,19.9,1.1,23.9,1.4l-2.4,39.5
			C2326,4278,2317.8,4277.5,2306.2,4276.9z M1591.1,4236.9c7.7-0.9,15.8-1.8,24.1-2.6l3.8,39.4c-8,0.8-15.9,1.6-23.3,2.5
			L1591.1,4236.9z M2258.7,4274.4l1.9-39.6c8.6,0.4,16.6,0.8,23.9,1.2l-2.1,39.5C2275.2,4275.2,2267.2,4274.8,2258.7,4274.4z
			 M2211.2,4272.2l1.7-39.6c8.3,0.4,16.2,0.7,23.9,1.1l-1.8,39.6C2227.3,4272.9,2219.4,4272.6,2211.2,4272.2z M1639.2,4232.2
			c7.7-0.6,15.8-1.2,24-1.8l2.7,39.5c-8.1,0.5-16,1.1-23.5,1.7L1639.2,4232.2z M2163.6,4270.2l1.6-39.6c8.2,0.3,16.1,0.6,23.9,1
			l-1.6,39.6C2179.7,4270.9,2171.8,4270.5,2163.6,4270.2z M2116.1,4268.5l1.3-39.6c8.1,0.3,16.1,0.6,23.9,0.8l-1.5,39.6
			C2132.1,4269,2124.1,4268.7,2116.1,4268.5z M1687.2,4229c7.8-0.4,15.8-0.8,24-1.2l1.8,39.6c-8,0.4-15.9,0.8-23.6,1.2L1687.2,4229z
			 M2068.6,4267l1.1-39.6c8.1,0.2,16,0.5,23.9,0.7l-1.2,39.6C2084.5,4267.5,2076.6,4267.2,2068.6,4267z M1735.2,4226.8
			c7.8-0.3,15.8-0.5,24-0.8l1.1,39.6c-8,0.2-15.9,0.5-23.6,0.8L1735.2,4226.8z M2021,4265.8l0.9-39.6c8,0.2,16,0.4,23.9,0.6l-1,39.6
			C2036.9,4266.1,2029,4266,2021,4265.8z M1973.5,4264.9l0.6-39.6c8,0.1,16,0.3,23.9,0.4l-0.8,39.6
			C1989.4,4265.1,1981.5,4265,1973.5,4264.9z M1783.1,4225.4c7.8-0.2,15.8-0.3,23.9-0.4l0.6,39.6c-8,0.1-15.9,0.3-23.7,0.4
			L1783.1,4225.4z M1926,4264.3l0.3-39.6c8,0.1,16,0.2,23.9,0.3l-0.5,39.6C1941.9,4264.4,1933.9,4264.3,1926,4264.3z M1830.9,4224.7
			c7.9-0.1,15.8-0.1,23.9-0.2l0.2,39.6c-8,0-15.9,0.1-23.7,0.2L1830.9,4224.7z M1879.4,4264.1v-39.6c8.1,0,15.7,0,23.7,0.1
			l-0.4,39.6C1894.7,4264.1,1887.5,4264.1,1879.4,4264.1z"/>
		<circle class="st15" cx="2280.5" cy="4419" r="71.1"/>
		<circle class="st15" cx="2646" cy="4622.1" r="50.8"/>
		<circle class="st15" cx="2402.3" cy="4622.1" r="50.8"/>
		<circle class="st15" cx="2141.7" cy="4622.1" r="50.8"/>
		<circle class="st15" cx="1897.9" cy="4622.1" r="50.8"/>
		<circle class="st15" cx="1640.7" cy="4622.1" r="50.8"/>
		<circle class="st15" cx="1397" cy="4622.1" r="50.8"/>
		<circle class="st15" cx="1691.5" cy="4419" r="71.1"/>
		<g>
			<path class="st14" d="M2907.5,4406l3.6-20.5l7.8,0.4l0.9-19.3l-30.4-3.1l-2.1,20.4l-7.9-0.4l-0.9,19.5l18.8,1.7
				C2900.7,4404.9,2904.1,4405.4,2907.5,4406z"/>
			<path class="st14" d="M1028.4,4694.3l1.3-39.6c6.8,0.2,13.8-0.1,20.6-1l5.1,39.3c-7.1,0.9-14.3,1.4-21.4,1.4
				C1032.1,4694.4,1030.2,4694.4,1028.4,4694.3z M2887.2,4654.8c6.9-0.1,13.8-0.7,20.5-1.9l6.9,39c-8.8,1.6-17.9,2.4-26.9,2.5
				L2887.2,4654.8z M2839.8,4694.4l0-39.6l23.8,0l0,39.6L2839.8,4694.4z M2792.1,4694.3l0-39.6l23.8,0l0,39.6L2792.1,4694.3z
				 M2744.5,4694.3l0-39.6l23.8,0l0,39.6L2744.5,4694.3z M2696.8,4694.2l0-39.6l23.8,0l0,39.6L2696.8,4694.2z M2649.1,4694.2l0-39.6
				l23.8,0l0,39.6L2649.1,4694.2z M2601.5,4694.2l0-39.6l23.8,0l0,39.6L2601.5,4694.2z M2553.8,4694.1l0-39.6l23.8,0l0,39.6
				L2553.8,4694.1z M2506.2,4694.1l0-39.6l23.8,0l0,39.6L2506.2,4694.1z M2458.5,4694l0-39.6l23.8,0l0,39.6L2458.5,4694z
				 M2410.9,4694l0-39.6l23.8,0l0,39.6L2410.9,4694z M2363.2,4693.9l0-39.6l23.8,0l0,39.6L2363.2,4693.9z M2315.6,4693.9l0-39.6
				l23.8,0l0,39.6L2315.6,4693.9z M2267.9,4693.8l0-39.6l23.8,0l0,39.6L2267.9,4693.8z M2220.3,4693.8l0-39.6l23.8,0l0,39.6
				L2220.3,4693.8z M2172.6,4693.7l0-39.6l23.8,0l0,39.6L2172.6,4693.7z M2125,4693.7l0-39.6l23.8,0l0,39.6L2125,4693.7z
				 M2077.3,4693.7l0-39.6l23.8,0l0,39.6L2077.3,4693.7z M2029.7,4693.6l0-39.6l23.8,0l0,39.6L2029.7,4693.6z M1982,4693.6l0-39.6
				l23.8,0l0,39.6L1982,4693.6z M1934.3,4693.5l0-39.6l23.8,0l0,39.6L1934.3,4693.5z M1886.7,4693.5l0-39.6l23.8,0l0,39.6
				L1886.7,4693.5z M1839,4693.4l0-39.6l23.8,0l0,39.6L1839,4693.4z M1791.4,4693.4l0-39.6l23.8,0l0,39.6L1791.4,4693.4z
				 M1743.7,4693.3l0-39.6l23.8,0l0,39.6L1743.7,4693.3z M1696.1,4693.3l0-39.6l23.8,0l0,39.6L1696.1,4693.3z M1648.4,4693.2l0-39.6
				l23.8,0l0,39.6L1648.4,4693.2z M1600.8,4693.2l0-39.6l23.8,0l0,39.6L1600.8,4693.2z M1553.1,4693.2l0-39.6l23.8,0l0,39.6
				L1553.1,4693.2z M1505.5,4693.1l0-39.6l23.8,0l0,39.6L1505.5,4693.1z M1457.8,4693.1l0-39.6l23.8,0l0,39.6L1457.8,4693.1z
				 M1410.2,4693l0-39.6l23.8,0l0,39.6L1410.2,4693z M1362.5,4693l0-39.6l23.8,0l0,39.6L1362.5,4693z M1314.9,4692.9l0-39.6l23.8,0
				l0,39.6L1314.9,4692.9z M1267.2,4692.9l0-39.6l23.8,0l0,39.6L1267.2,4692.9z M1219.6,4692.8l0-39.6l23.8,0l0,39.6L1219.6,4692.8z
				 M1171.9,4692.8l0-39.6l23.8,0l0,39.6L1171.9,4692.8z M1124.2,4692.7l0-39.6l23.8,0l0,39.6L1124.2,4692.7z M1076.6,4692.7l0-39.6
				l23.8,0l0,39.6L1076.6,4692.7z M975.5,4683.8l14-37c6.4,2.4,13,4.3,19.7,5.7l-7.7,38.8C992.7,4689.5,983.9,4687,975.5,4683.8z
				 M2927.5,4647.6c6.4-2.3,12.7-5.1,18.7-8.4l19.2,34.6c-7.9,4.4-16.2,8.1-24.6,11.1L2927.5,4647.6z M928.9,4656.7l25.2-30.5
				c5.3,4.4,10.9,8.3,16.9,11.8l-19.9,34.2C943.3,4667.6,935.8,4662.4,928.9,4656.7z M2963.3,4627.8c5.4-4.3,10.4-9,15-14l29.3,26.6
				c-6.1,6.7-12.7,12.9-19.7,18.4L2963.3,4627.8z M893.5,4616.1l33.7-20.8c3.6,5.8,7.7,11.4,12.2,16.5l-29.8,26
				C903.6,4631,898.2,4623.7,893.5,4616.1z M2990.9,4597.5c3.7-5.8,7-11.8,9.7-18.1l36.3,15.8c-3.6,8.2-7.9,16.3-12.8,23.8
				L2990.9,4597.5z M873.1,4566.2l38.6-8.8c1.5,6.7,3.6,13.2,6.2,19.6l-36.6,15C877.8,4583.7,875.1,4575,873.1,4566.2z
				 M3007.2,4559.9c1.7-6.6,2.8-13.4,3.3-20.3l39.5,3.2c-0.7,9-2.2,18-4.4,26.7L3007.2,4559.9z M869,4529.4c0-5.7,0.3-11.4,0.9-17
				l39.4,4c-0.4,4.3-0.7,8.6-0.7,13c0,2.5,0.1,5.1,0.2,7.6l-39.5,2.4C869.1,4536.1,869,4532.7,869,4529.4z M3007.2,4498.8l38.4-9.6
				c2.2,8.7,3.7,17.7,4.4,26.7l-39.5,3.2C3010,4512.2,3008.8,4505.4,3007.2,4498.8z M874.8,4485.8c2.4-8.7,5.5-17.3,9.3-25.4
				l36,16.6c-2.9,6.2-5.2,12.7-7,19.3L874.8,4485.8z M2990.8,4461.3l33.2-21.6c4.9,7.6,9.2,15.6,12.8,23.8l-36.3,15.8
				C2997.8,4473.1,2994.5,4467,2990.8,4461.3z M897.4,4436.9c5.1-7.4,10.8-14.5,17-21l28.7,27.3c-4.7,5-9.1,10.4-12.9,16
				L897.4,4436.9z M2963.2,4431l24.5-31.1c7.1,5.6,13.7,11.8,19.8,18.4l-29.3,26.7C2973.6,4439.9,2968.6,4435.2,2963.2,4431z
				 M934.5,4397.8c7.2-5.4,14.9-10.3,22.8-14.5l18.4,35.1c-6,3.2-11.9,6.9-17.3,11L934.5,4397.8z M2927.3,4411.2l13.2-37.3
				c8.5,3,16.8,6.7,24.7,11.1l-19.2,34.7C2940.1,4416.3,2933.8,4413.5,2927.3,4411.2z M982.2,4372.8c8.5-2.8,17.4-5,26.3-6.3
				l6.1,39.1c-6.8,1-13.5,2.7-20,4.8L982.2,4372.8z M1033.2,4363.7l23.7-2.5l4.1,39.4l-23.7,2.5L1033.2,4363.7z M2838.1,4398l4-39.4
				l23.7,2.4l-4,39.4L2838.1,4398z M1080.6,4358.8l23.7-2.5l4.1,39.4l-23.7,2.5L1080.6,4358.8z M2790.7,4393.1l4-39.4l23.7,2.4
				l-4,39.4L2790.7,4393.1z M1128,4353.8l23.7-2.5l4.1,39.4l-23.7,2.5L1128,4353.8z M2743.3,4388.3l4-39.4l23.7,2.4l-4,39.4
				L2743.3,4388.3z M1175.3,4348.9l23.7-2.5l4.1,39.4l-23.7,2.5L1175.3,4348.9z M2695.9,4383.5l4-39.4l23.7,2.4l-4,39.4
				L2695.9,4383.5z M1222.7,4343.9l23.7-2.5l4.1,39.4l-23.7,2.5L1222.7,4343.9z M2648.5,4378.6l4-39.4l23.7,2.4l-4,39.4
				L2648.5,4378.6z M1270.1,4339l23.7-2.5l4.1,39.4l-23.7,2.5L1270.1,4339z M2601.1,4373.8l4-39.4l23.7,2.4l-4,39.4L2601.1,4373.8z
				 M1317.5,4334l23.7-2.5l4.1,39.4l-23.7,2.5L1317.5,4334z M2553.7,4368.9l4-39.4l23.7,2.4l-4,39.4L2553.7,4368.9z M1364.9,4329.1
				l23.7-2.5l4.1,39.4l-23.7,2.5L1364.9,4329.1z M2506.3,4364.1l4-39.4l23.7,2.4l-4,39.4L2506.3,4364.1z M1412.3,4324.1l23.7-2.5
				l4.1,39.4l-23.7,2.5L1412.3,4324.1z M2458.9,4359.3l4-39.4l23.7,2.4l-4,39.4L2458.9,4359.3z M1459.7,4319.2l23.7-2.5l4.1,39.4
				l-23.7,2.5L1459.7,4319.2z M2411.5,4354.4l4-39.4l23.7,2.4l-4,39.4L2411.5,4354.4z M1507.1,4314.2l23.7-2.5l4.1,39.4l-23.7,2.5
				L1507.1,4314.2z M2364,4349.6l4-39.4l23.7,2.4l-4,39.4L2364,4349.6z M1554.5,4309.3l23.7-2.5l4.1,39.4l-23.7,2.5L1554.5,4309.3z
				 M2328,4345.9c-1.1-0.1-4.8-0.3-10.6-0.6l2.3-39.5c7.3,0.4,11.2,0.7,11.2,0.7l13.5,1.4l-4,39.4L2328,4345.9z M2269.9,4342.7
				l2-39.6c8.9,0.5,16.8,0.9,23.9,1.3l-2.1,39.5C2286.6,4343.6,2278.7,4343.2,2269.9,4342.7z M1601.6,4303.9
				c7.6-0.9,15.7-1.7,24.1-2.5l3.7,39.4c-8.1,0.8-15.9,1.6-23.3,2.4L1601.6,4303.9z M2222.3,4340.4l1.8-39.6
				c8.4,0.4,16.3,0.8,23.9,1.1l-1.9,39.6C2238.6,4341.2,2230.6,4340.8,2222.3,4340.4z M2174.8,4338.4l1.6-39.6
				c8.2,0.3,16.2,0.7,23.9,1l-1.7,39.6C2190.9,4339,2182.9,4338.7,2174.8,4338.4z M1649.8,4299.3c7.8-0.6,15.9-1.2,24.1-1.7
				l2.5,39.5c-8,0.5-15.9,1.1-23.5,1.7L1649.8,4299.3z M2127.2,4336.6l1.4-39.6c8.1,0.3,16.1,0.6,23.9,0.9l-1.5,39.6
				C2143.2,4337.2,2135.3,4336.9,2127.2,4336.6z M2079.6,4335l1.2-39.6c8.1,0.2,16,0.5,23.9,0.7l-1.3,39.6
				C2095.6,4335.5,2087.7,4335.3,2079.6,4335z M1697.9,4296.2c7.9-0.4,15.9-0.8,24-1.1l1.7,39.6c-8,0.3-15.8,0.7-23.6,1.1
				L1697.9,4296.2z M2032.1,4333.7l1-39.6c8,0.2,16,0.4,23.9,0.6l-1.1,39.6C2048,4334.1,2040.1,4333.9,2032.1,4333.7z
				 M1745.9,4294.2c7.9-0.3,15.9-0.5,24-0.7l1,39.6c-8,0.2-15.9,0.4-23.7,0.7L1745.9,4294.2z M1984.5,4332.7l0.7-39.6
				c8,0.1,16,0.3,23.9,0.5l-0.8,39.6C2000.4,4333,1992.5,4332.9,1984.5,4332.7z M1793.8,4292.9c7.9-0.2,15.9-0.3,23.9-0.4l0.5,39.6
				c-7.9,0.1-15.8,0.2-23.7,0.4L1793.8,4292.9z M1937,4332.1l0.4-39.6c8,0.1,16,0.2,23.9,0.3l-0.6,39.6
				C1952.9,4332.2,1944.9,4332.2,1937,4332.1z M1841.7,4292.3c7.9-0.1,15.9-0.1,23.9-0.1l0.1,39.6c-7.9,0-15.8,0.1-23.7,0.1
				L1841.7,4292.3z M1889.4,4331.8l0.1-39.6c8,0,16,0.1,23.9,0.1l-0.3,39.6C1905.3,4331.8,1897.4,4331.8,1889.4,4331.8z"/>
		</g>
		<g>
			<polygon class="st16" points="2886.5,4452.8 2886.5,4608.7 2260.4,4608.7 1602.5,4452.8 			"/>
			<polygon class="st17" points="1045.8,4452.8 1602.5,4452.8 2260.4,4608.7 1045.8,4608.7 			"/>
		</g>
		<g>
			<circle class="st14" cx="2911.8" cy="4529" r="86.3"/>
			<path class="st18" d="M2910.9,4422.9v20.5c0,0,0.9,0,0.9,0c0,0,0,0,0,0c0,0,0,0,0,0c0,0,0,0,0,0c0,0,0,0,0,0c0,0,0,0,0,0
				c0,0,0,0,0,0c0,0,0,0,0,0c0,0,0,0,0,0c0,0,0,0,0,0c0,0,0,0,0,0c0,0,0,0,0,0c0,0,0,0,0,0c0,0,0,0,0,0c0,0,0,0,0,0c0,0,0,0,0,0
				c0,0,0,0,0,0c0,0,0,0,0,0c0,0,0,0,0.1,0c0,0,0,0,0,0c0,0,0,0,0,0c0,0,0,0,0,0c0,0,0,0,0,0c0,0,0,0,0,0c0,0,0,0,0,0c0,0,0,0,0,0
				c0,0,0,0,0,0c0,0,0,0,0,0c0,0,0,0,0,0c0,0,0,0,0,0c0,0,0,0,0,0c0,0,0,0,0,0c0,0,0,0,0,0c0,0,0,0,0,0c0,0,0,0,0,0c0,0,0,0,0,0
				c0,0,0,0,0.1,0c0,0,0,0,0,0c0,0,0,0,0,0c0,0,0,0,0,0c0,0,0,0,0,0c0,0,0,0,0,0c0,0,0,0,0,0c0,0,0,0,0,0c0,0,0,0,0,0c0,0,0,0,0,0
				c0,0,0,0,0,0c0,0,0,0,0,0c0,0,0,0,0,0c0,0,0,0,0,0c0,0,0,0,0,0c0,0,0,0,0,0c0,0,0,0,0,0c0,0,0,0,0,0c0,0,0,0,0,0c0,0,0,0,0,0
				c0,0,0,0,0,0c0,0,0,0,0,0c0,0,0,0,0,0c0,0,0,0,0,0c0,0,0,0,0,0c0,0,0,0,0,0c0,0,0,0,0,0c0,0,0,0,0,0c0,0,0,0,0,0c0,0,0,0,0,0
				c0,0,0,0,0,0c0,0,0,0,0,0c0,0,0,0,0,0c0,0,0,0,0,0c0,0,0,0,0,0c0,0,0,0,0,0c0,0,0,0,0,0c0,0,0.1,0,0.1,0c0,0,0,0,0,0c0,0,0,0,0,0
				c0,0,0,0,0,0c0,0,0,0,0,0c0,0,0,0,0,0c0,0,0,0,0,0c0,0,0,0,0,0c0,0,0,0,0,0c0,0,0,0,0,0c0,0,0,0,0,0c0,0,0,0,0,0c0,0,0,0,0,0
				c0,0,0,0,0,0c0,0,0,0,0,0c0,0,0,0,0,0c0,0,0,0,0,0c0,0,0,0,0,0c0.1,0,0.1,0,0.2,0c0,0,0,0,0,0c0,0,0,0,0,0c0,0,0,0,0,0
				c0,0,0,0,0,0c0,0,0,0,0,0c0,0,0,0,0,0c0,0,0,0,0,0c0,0,0,0,0,0c0,0,0,0,0,0c0,0,0,0,0,0c0,0,0,0,0,0c0,0,0,0,0,0c0,0,0,0,0,0
				c0,0,0,0,0,0c0,0,0,0,0,0c0.1,0,0.2,0,0.2,0c0,0,0,0,0,0c0,0,0,0,0,0c0,0,0,0,0,0c0,0,0,0,0,0c0,0,0,0,0,0c0,0,0,0,0,0
				c0,0,0,0,0,0c0,0,0,0,0,0c0,0,0,0,0,0c0,0,0,0,0,0c0,0,0,0,0,0c0.1,0,0.2,0,0.4,0c0,0,0,0,0,0c0,0,0,0,0.1,0c0,0,0,0,0,0
				c0,0,0,0,0.1,0c0,0,0,0,0,0c0,0,0,0,0.1,0c0,0,0,0,0,0c0,0,0,0,0.1,0c0,0,0,0,0,0c0.1,0-0.4,0-0.4,0v-0.2c0,0,0.9,0.2,0.9,0.2
				c0,0,0,0,0,0c0,0,0,0,0.1,0c0,0,0,0,0,0c0.2,0-1-0.2-1-0.2v-0.3v0v0v0v0c2.7,0.1,3,0.2,4,0.3l0,0c0.2,0,1.4,0.1,1.4,0.1v0.1
				c0,0-0.1,0-0.1,0c0,0,0,0,0,0c0,0,0,0,0.1,0c0,0,0,0,0,0c0,0,0,0,0.1,0c0,0,0,0,0,0c0,0,0,0,0.1,0h0c0.1,0,0.2,0,0.4,0
				c0,0,0,0,0,0c0,0,0,0,0.1,0c0,0,0,0,0,0c0,0,0,0,0,0c0,0,0,0,0,0c0,0,0,0,0,0c0,0,0,0,0,0c0,0,0,0,0,0c0,0,0,0,0,0c0,0,0,0,0.1,0
				c0,0,0,0,0,0c0.1,0,0.2,0,0.2,0h0c0,0,0,0,0,0c0,0,0,0,0,0c0,0,0,0,0,0c0,0,0,0,0,0c0,0,0,0,0,0c0,0,0,0,0,0c0,0,0,0,0,0
				c0,0,0,0,0,0c0,0,0,0,0,0c0,0,0,0,0,0c0,0,0,0,0,0c0,0,0,0,0,0c0,0,0,0,0,0c0,0,0,0,0,0c0,0,0,0,0,0c0,0,0,0,0,0c0,0,0.1,0,0.1,0
				c0,0,0,0,0,0c0,0,0,0,0,0c0,0,0,0,0,0c0,0,0,0,0,0c0,0,0,0,0,0c0,0,0,0,0,0c0,0,0-0.1,0-0.1c0,0,0,0,0,0c0,0,0,0.1,0,0.1
				c0,0,0,0,0,0c0,0,0,0,0,0c0,0,0,0,0,0c0,0,0-0.1,0-0.1c0,0,0,0,0,0c0,0,0,0,0.1,0c0,0,0,0,0,0c0,0,0.1,0,0.1,0c0,0,0,0,0,0
				c0,0,0,0,0.1,0c0,0,0,0,0,0c0,0,0,0,0.1,0c0,0,0,0,0,0c0,0,0-0.1,0.1-0.1c0,0,0,0,0,0c0,0,0,0,0.1,0c0,0,0,0,0,0c0,0,0,0,0.1,0
				c0,0,0,0,0,0c0,0,0,0,0.1,0c0,0,0,0,0,0c0.1,0,0.2,0.2,0.3,0.2l-0.1,0.1c0.9,0.1,1.7,0.3,2.6,0.5l3.4-19.4
				c-6.3-1.2-19.8-1.7-19.8-1.7V4422.9z M2949.8,4429.9l-7.1,18.1c0.9,0.4,1.9,0.8,2.8,0.8h0c0,0-0.7,0.7-0.7,0.7v0
				c1.4,0.1,0.8-0.8,1-0.8h0.5c0,0,0,0.5,0.1,0.6c0,0,0,0.5,0,0.5c0,0,0,0,0,0c0,0,0,0,0,0c0,0,0,0,0,0c0,0,0,0,0,0c0,0,0,0,0,0
				c0,0,0,0,0,0c0,0,0,0,0,0c0,0,0,0,0,0c0,0,0,0,0,0c0,0,0,0,0,0c0,0,0,0,0,0c0,0,0,0,0,0c0,0,0,0,0,0c0,0,0,0,0,0c0,0,0,0,0,0
				c0,0,0,0,0,0c0,0,0,0,0,0c0,0,0,0,0,0c0,0,0,0,0,0c0,0,0,0,0,0c0,0,0,0,0,0c0,0,0,0,0,0c0.1,0,0.2,0.1,0.3,0.1c0,0,0,0,0,0
				c0,0,0,0,0,0c0,0,0,0,0,0c0,0,0,0,0,0c0,0,0,0,0,0c0,0,0,0,0,0c0,0,0,0,0,0c0,0,0,0,0,0c0,0,0,0,0,0c0,0,0,0,0,0c0,0,0,0,0,0
				c0,0,0,0,0,0c0,0,0,0,0,0c0,0,0,0,0,0c0,0,0,0,0,0c0,0,0,0,0,0c0,0,0,0,0,0c0,0,0,0,0,0c0,0,0,0,0,0c0,0,0,0,0,0c0,0,0,0,0,0
				c0,0,0,0,0,0c0,0,0,0,0,0c0,0,0,0,0,0c0,0,0,0,0,0c0,0,0,0,0,0c0,0,0,0,0,0c0,0,0,0,0,0c0,0,0,0,0,0c0,0,0,0,0,0
				c0,0,0.1,0,0.1,0.1c0,0,0,0,0,0c0,0,0,0,0,0c0,0,0,0,0,0c0,0,0,0,0,0c0,0,0,0,0,0c0,0,0,0,0,0c0,0,0,0,0,0c0,0,0,0,0,0
				c0,0,0,0,0,0c0,0,0,0,0,0c0,0,0,0,0,0c0,0,0,0,0,0c0,0,0,0,0,0c0,0,0,0,0,0c0,0,0,0,0,0c0,0,0,0,0,0c0,0,0,0,0,0c0,0,0,0,0,0
				c0,0,0,0,0,0c0,0,0,0,0,0c0,0,0,0,0,0c0,0,0,0,0,0c0,0,0,0,0,0c0,0,0,0,0,0c0,0,0,0,0,0c0,0,0,0,0,0c0,0,0,0,0,0c0,0,0,0.1,0,0.1
				c0,0,0,0.1,0,0.1c0,0,0,0.2,0.1,0.2h0c0.1,0,0.2-0.1,0.2-0.1c0,0,0-0.2,0-0.2c0,0,0,0,0.1,0c0,0,0,0,0,0c0,0,0,0,0,0c0,0,0,0,0,0
				c0,0,0,0,0,0c0,0,0,0,0,0c0,0,0,0,0,0c0,0,0,0,0,0c0,0,0,0,0,0c0,0,0,0,0,0c0,0,0,0,0,0c0,0,0,0,0,0c0,0,0,0,0,0c0,0,0,0,0,0
				c0,0,0,0,0.1,0c0,0,0,0,0,0c0,0,0.1,0,0.1,0c0,0,0.1,0,0.1,0c0,0,0.2,0,0.3,0c0,0,0.4,0,0.4,0c0,0,0.9,0,0.9,0v-0.1
				c0,0.1-1.3,0.1-1.1,0.1h0c0,0,0,0.2,0.1,0.2l0,0.2c0,0,0,0,0.1,0c0,0,0,0,0,0c0,0,0,0,0.1,0l0,0c0,0,0,0,0.1,0l0,0c0,0,0,0,0.1,0
				l0,0c0,0,0,0,0.1,0l0,0c0,0,0,0,0.1,0l0,0c0.2,0.1,0.7,0.2,0.7,0.4v0.1c0,0,0,0.1,0,0.2v0.2c0,0,0.1,0,0.1,0h0
				c0,0-0.1,0.1-0.1,0.1v-0.5c0,0,0,0.1,0,0.1v0.1c0,0.2,0.8,0.2,1.1,0.2h0c0,0-1.1,0.4-1.1,0.5v-0.1c0,0,1.2-0.3,1.2-0.3h0
				c0,0-1.2,0.4-1.2,0.4v-0.2c0,0,0,0,0,0v0c0,0.1,0,0.3,2.7,0.4v0c0,0,0,0,0,0v0c0,0-0.5-0.6-0.4-0.6h0c0.3,0,0.5,0,0.8,0h0
				c0,0-0.4,0.9-0.4,0.9v0.3c0,0,0.1,0,0.1,0l0.1,0c0,0-0.2,0-0.2,0.1v0.1c0,0,0,0.1,0,0.1v0.2c0,0.1,1,1,1.3,1h0c0,0,0-0.5,0.1-0.5
				l0-0.5c0,0,0,0,0,0c0,0,0,0,0,0c0,0,0,0,0,0l0,0c0,0,0,0,0.1,0.1l0,0.1c0,0,0,0.1,0.1,0.1l0,0.2c0,0,0,0.4,0.1,0.4h0
				c0.2,0,1.1-0.3,1.1-0.2v-0.3c0,0-0.2,0-0.2,0l-0.3,0c0,0,0,0,0.1,0c0,0,0,0,0,0c0,0,0,0,0,0c0,0,0,0,0,0c0,0,0,0,0,0c0,0,0,0,0,0
				c0,0,0,0,0,0l0,0c0,0,0,0,0,0c0,0,0,0,0,0c0,0,0,0,0.1,0l0,0c0,0,0.1,0,0.1,0.1l10.4-16.9
				C2961.8,4435.1,2955.9,4432.2,2949.8,4429.9L2949.8,4429.9z M2982.8,4450.2l-13.3,14.7c0.3,0.2,0.5,0.5,0.8,0.8l0,0c0,0,0,0,0,0
				l0,0c0,0,0,0,0,0c0,0,0,0,0,0c0,0,0,0,0,0c0,0,0,0,0,0c0,0,0,0,0,0c0,0,0,0,0,0c0,0,0,0,0,0c0,0,0,0,0,0c0,0,0,0,0,0c0,0,0,0,0,0
				c0,0,0,0,0,0c0,0,0,0,0,0c0,0,0,0,0,0c0,0,0,0,0,0c0,0,0,0,0,0c0,0,0,0,0,0c0,0,0,0,0,0c0,0,0,0,0,0c0,0,0,0,0,0c0,0,0,0,0,0
				c0,0,0,0,0,0c0,0,0,0,0,0c0,0,0,0,0,0c0.1,0.1,0.2,0.2,0.3,0.3c0,0,0,0,0,0c0,0,0,0,0,0l0,0c0,0,0,0,0.1,0l0,0c0,0,0.1,0,0.1,0
				l0.1,0c0,0,0.2,0,0.2,0v0c0,0-0.2-0.1-0.2-0.1l-0.2-0.1c0,0,0-0.1,0-0.1h-0.1c1.3,1.4,1.8,2.8,3.2,4.1v0c0,0,0.4,0,0.4,0
				c0,0,0.3,0,0.3,0c0,0,0,0,0,0c0,0,0,0,0,0c0,0,0,0,0,0c0,0,0,0,0,0c0,0,0,0,0,0c0,0,0,0,0,0c0,0,0,0,0,0c0,0,0,0,0,0c0,0,0,0,0,0
				c0,0,0,0,0,0c0,0,0,0,0,0c0,0,0,0,0,0c0,0,0,0,0,0c0,0,0,0,0,0c0,0,0,0,0,0c0,0,0,0,0,0c0,0,0,0,0,0c0,0,0,0,0,0c0,0,0,0,0,0
				c0,0,0,0,0,0c0,0,0,0,0,0c0,0,0,0,0,0c0,0,0,0,0,0c0,0,0,0,0,0c0,0,0,0,0,0c0,0,0,0,0,0c0,0,0,0,0,0c0,0,0,0,0,0c0,0,0,0,0,0
				c0.1,0.1,0.1,0.1,0.2,0.2c0,0,0,0,0,0c0,0,0,0,0,0c0,0,0,0,0,0c0,0,0,0,0,0c0,0,0,0,0,0c0,0,0,0,0,0c0,0,0,0,0,0c0,0,0,0,0,0
				c0,0,0,0,0,0c0,0,0,0,0,0c0,0,0,0,0,0c0,0,0,0,0,0c0,0,0,0,0,0c0,0,0,0,0,0c0,0,0,0,0,0c0,0,0,0,0,0c0,0,0,0,0,0c0,0,0,0,0,0
				c0,0,0,0,0,0c0,0,0,0,0,0c0,0,0,0,0,0c0,0,0,0,0,0l0,0c1.3,1.5,2.6,3,3.8,4.6l15.7-12C2992.1,4459.3,2987.6,4454.5,2982.8,4450.2
				L2982.8,4450.2z M3006.4,4480.9l-17.6,9c1.2,2.4,2.4,5,3.4,7.5l0,0c0,0,0,0.1,0,0.1h0c0,0,0,0,0,0h0c0,0,0,0,0,0v0c0,0,0,0,0,0h0
				c0,0,0,0.1,0,0.1v0c0,0.2,0,0.3,0,0.5v0c0,0,0.1,0,0.1,0.1c0,0,0.1,0,0.1,0c0,0,0,0,0,0c0,0,0,0,0,0c0,0,0,0,0,0c0,0,0,0,0,0
				c0,0,0,0,0,0c0,0,0,0,0,0c0,0,0,0,0,0c0,0,0,0,0,0c0,0,0,0,0,0c0,0,0,0,0,0c0,0,0,0,0,0c0,0,0,0,0,0c0,0,0,0,0,0c0,0,0,0,0,0
				c0,0,0,0,0,0c0,0,0,0,0,0c0,0,0,0,0,0c0,0,0,0,0,0c0,0,0,0,0,0.1c0,0,0,0,0,0c0,0.1,0,0.1,0.1,0.2c0,0,0,0,0,0c0,0,0,0,0,0
				c0,0,0,0,0,0c0,0,0,0,0,0c0,0,0,0,0,0c0,0,0,0,0,0c0,0,0,0,0,0c0,0,0,0,0,0c0,0,0,0,0,0c0,0,0,0,0,0c0,0,0,0,0,0c0,0,0,0,0,0
				c0,0,0,0,0,0c0,0,0,0,0,0c0,0,0,0,0,0c0,0,0,0,0,0c0,0,0,0,0,0c0,0,0,0,0,0c0,0,0,0,0,0c0,0,0,0,0,0c0,0,0,0,0,0c0,0,0,0,0,0
				c0,0,0,0,0,0c0,0,0,0,0,0c0,0,0,0,0,0c0,0,0,0,0,0c0,0,0,0,0,0c0,0,0,0,0,0c0,0,0,0,0,0c0,0,0,0,0,0.1c0,0,0,0,0,0c0,0,0,0,0,0
				c0,0,0,0,0,0c0,0,0,0,0,0c0,0,0,0,0,0c0,0,0,0,0,0c0,0,0,0,0,0c0,0,0,0,0,0c0,0,0,0,0,0c0,0,0,0,0,0c0,0,0,0,0,0c0,0,0,0,0,0
				c0,0,0,0,0,0c0,0,0,0,0,0c0,0,0,0,0,0c0,0,0,0,0,0c0,0,0,0,0,0s0,0,0,0c0,0,0,0,0,0c0,0,0,0,0,0c0,0,0,0,0,0c0,0,0,0,0,0
				c0,0,0,0,0,0c0,0,0,0,0,0c0,0,0,0,0,0c0,0,0.1,0,0.1,0c0,0,0.1,0,0.1,0c0,0,0.2,0,0.2,0c0,0,0.4,0,0.4,0c0,0,0.8,0,0.8,0.1v0
				c0,0-0.7,0-0.7,0.1c0,0-0.8,0-0.7,0c0,0,0,0,0,0c0,0,0,0,0,0c0,0,0,0,0,0c0,0,0,0,0,0c0,0,0,0,0,0c0,0,0,0,0,0c0,0,0,0,0,0
				c0,0,0,0,0,0c0,0,0,0,0,0c0,0,0,0,0,0c0,0,0,0,0,0c0,0,0,0,0,0c0,0,0,0,0,0c0,0,0,0,0,0c0,0,0,0,0,0c0,0,0,0,0,0c0,0,0,0,0,0
				c0,0,0,0,0,0c0,0,0,0,0,0c0,0,0,0,0,0c0,0,0,0,0,0c0,0,0,0,0,0c0,0,0,0,0,0l0,0c0,0,0,0,0,0.1c0,0,0,0,0,0c0,0.1,0.1,0.2,0.1,0.2
				c0,0,0,0,0,0c0,0,0,0,0,0c0,0,0,0,0,0c0,0,0,0,0,0.1c0,0,0,0,0,0c0,0,0,0,0,0c0,0,0,0,0,0c0,0,0,0,0,0c0,0,0,0,0,0c0,0,0,0,0,0
				c0,0,0,0,0,0c0,0,0,0,0,0c0,0,0,0,0,0c0,0,0,0,0,0c0,0,0.1,0,0.1,0c0,0,0.1,0,0.1,0.1c0,0,0.2,0,0.2,0c0,0,0.5,0,0.5,0.1v0
				c0,0.7-0.1,1.3,0.1,2l18.5-5.6C3011.7,4492.8,3009.3,4486.7,3006.4,4480.9L3006.4,4480.9z M3017.3,4518.1l-19.8,2
				c0.1,1.1,0.1,2.1,0.2,3.2l0,0c0,0-0.1,0.1-0.1,0.1v0c0,0,0,0,0,0.1v0c0,0,0,0,0,0.1c0,0,0,0,0,0c0,0,0,0,0,0.1v0c0,0,0,0,0,0.1
				c0,0,0,0,0,0c0,0,0,0,0,0.1c0,0,0,0,0,0c0,0,0,0,0,0.1c0,0,0,0,0,0c0,0,0,0,0,0.1v0c0,0,0,0,0,0.1v0c0,0,0,0,0,0.1v0
				c0,0,0,0,0,0.1v0c0,0,0,0,0,0.1v0c0,0,0,0,0,0.1c0,0,0,0,0,0c0,0,0,0,0,0.1c0,0,0,0,0,0c0,0,0,0,0,0c0,0,0,0,0,0c0,0,0,0,0,0
				c0,0,0,0,0,0c0,0,0,0,0,0c0,0,0,0,0,0c0,0,0,0,0,0c0,0,0,0,0,0c0,0,0,0,0,0c0,0,0,0,0,0c0,0,0,0,0,0c0,0,0,0,0,0c0,0,0,0,0,0
				c0,0,0,0,0,0c0,0,0,0,0,0c0,0,0,0,0,0c0,0,0,0,0,0c0,0,0,0,0,0c0,0,0,0,0,0c0,0,0,0,0,0c0,0,0,0,0,0c0,0,0,0,0,0c0,0,0,0,0,0
				c0,0,0,0,0,0c0,0,0,0,0,0c0,0,0,0,0,0c0,0,0,0,0,0c0,0,0,0,0,0c0,0,0,0,0,0c0,0,0,0,0,0c0,0,0,0,0,0c0,0,0,0,0,0c0,0,0,0,0,0
				c0,0,0,0,0,0c0,0,0,0,0,0c0,0,0,0,0,0c0,0,0,0,0,0c0,0,0,0,0,0c0,0,0,0,0,0c0,0,0,0,0,0s0,0,0,0c0,0,0,0,0,0c0,0,0,0,0,0
				c0,0,0,0,0,0c0,0,0,0,0,0s0,0,0,0s0,0,0,0c0,0,0,0,0,0s0,0,0,0c0,0,0,0,0,0c0,0,0,0,0,0c0,0,0,0,0,0c0,0,0,0,0,0c0,0,0,0,0,0
				c0,0,0,0,0,0c0,0,0,0,0,0c0,0,0,0,0,0c0,0,0,0,0,0c0,0,0,0,0,0c0,0,0,0,0,0c0,0,0,0,0,0c0,0,0,0,0,0c0,0,0,0,0,0c0,0,0,0,0,0
				s0,0,0,0c0,0,0,0,0,0c0,0,0,0,0,0c0,0,0,0,0,0c0,0,0,0,0,0c0,0,0,0,0,0c0,0,0,0,0,0c0,0,0,0,0,0c0,0,0,0,0,0s0,0,0,0c0,0,0,0,0,0
				c0,0,0,0,0,0c0,0,0,0,0,0c0,0,0,0,0,0c0,0,0,0,0,0c0,0,0,0,0,0c0,0,0,0,0,0c0,0,0,0,0,0c0,0,0,0,0,0c0,0,0,0,0,0c0,0,0,0,0,0
				c0,0,0,0,0,0c0,0,0,0,0,0s0,0,0,0c0,0,0,0,0,0s0,0,0,0c0,0,0,0,0,0s0,0,0,0c0,0,0,0,0,0s0,0,0,0s0,0,0,0c0,0,0,0,0,0c0,0,0,0,0,0
				c0,0,0,0,0,0c0,0,0,0,0,0c0,0,0,0,0,0c0,0,0,0,0,0c0,0,0,0,0,0c0,0,0,0,0,0c0,0,0,0,0,0c0,0,0,0,0,0c0,0,0,0,0,0s0,0,0,0s0,0,0,0
				c0,0,0,0,0,0c0,0,0,0,0,0c0,0,0,0,0,0c0,0,0,0,0,0c0,0,0,0,0,0s0,0,0,0c0,0,0,0,0,0c0,0,0,0,0,0c0,0,0,0,0,0c0,0,0,0,0,0
				c0,0,0,0,0,0c0,0,0,0,0,0c0,0,0,0,0,0c0,0,0,0,0,0c0,0,0,0.1,0,0.1c0,0,0,0,0,0c0,0,0,0,0,0.1c0,0,0,0,0,0c0,0,0,0,0,0
				c0,0,0,0,0,0.1c0,0,0,0,0,0c0,0,0,0,0,0.1l0,0l0,0l0,0l0,0c0,0,0,0,0,0.1c0,0,0,0,0,0c0,0,0,0,0,0c0,0,0,0,0,0c0,0,0,0,0,0
				c0,0,0,0,0,0c0,0,0,0,0,0.1c0,0,0,0,0,0c0,0,0,0,0,0.1c0,0,0,0,0,0c0,0,0,0,0,0c0,0,0,0,0,0c0,0,0,0,0,0.1c0,0,0,0,0,0
				c0,0,0,0,0,0.1c0,0,0,0,0,0c0,0,0,0,0,0c0,0,0,0,0,0c0,0,0,0,0,0c0,0,0,0,0,0c0,0,0,0,0,0.1c0,0,0,0,0,0c0,0,0,0,0,0.1
				c0,0,0,0,0,0c0,0,0,0,0,0c0,0,0,0,0,0c0,0,0,0,0,0c0,0,0,0,0,0c0,0,0,0,0,0c0,0,0,0,0,0c0,0,0,0,0,0c0,0,0,0,0,0c0,0,0,0,0,0
				c0,0,0,0,0,0c0,0,0,0,0,0c0,0,0,0,0,0c0,0,0,0,0,0.1c0,0,0,0,0,0c0,0,0,0,0,0c0,0,0,0,0,0c0,0,0,0,0,0c0,0,0,0,0,0c0,0,0,0,0,0
				c0,0,0,0.1,0,0.1c0,0,0,0,0,0c0,0,0,0,0,0c0,0,0,0,0,0c0,0,0,0,0,0c0,0,0,0,0,0c0,0,0,0,0,0c0,0,0,0,0,0c0,0,0,0.1,0,0.1
				c0,0,0,0,0,0c0,0,0,0,0,0v0c0,0,0,0,0,0v0c0,0.1,0,0.1,0,0.2v0c0,1.6,0.1,3.2,0,4.8l19.9,1.6c0.2-2.8,0.3-5.7,0.3-8.5
				C3017.9,4525.4,3017.7,4521.7,3017.3,4518.1L3017.3,4518.1z M2995.1,4551.5c-1.4,5.2-3.2,10.1-5.5,14.8l17.8,8.6
				c2.8-5.8,5.1-12,6.8-18.3L2995.1,4551.5L2995.1,4551.5z M2981.1,4579.9c-0.2,0.3-1.1,0.7-1.1,1v0c0,0,0.3-0.1,0.3-0.1l0.3-0.1
				c0,0,0-0.2,0-0.2l0-0.5c0,0-0.1-1-0.1-1h-0.1c0,2.7-0.5,2.2-0.5,2.2v0c0,0,0.4,0.5,0.4,0.5h0.1c0,0,0-0.2,0-0.2l0-0.2
				c-0.2,0.2-0.4,0.5-0.6,0.7l0,0c0,0,0,0,0,0l0,0c0,0,0,0,0,0c0,0,0,0,0,0c0,0,0,0,0,0c0,0,0,0,0,0c0,0,0,0,0,0c0,0,0,0,0,0
				c0,0,0,0,0,0c0,0,0,0,0,0c0,0,0,0,0,0c0,0,0,0,0,0c0,0,0,0,0,0c0,0,0,0,0,0c0,0,0,0,0,0c0,0,0,0,0,0c0,0,0,0,0,0c0,0,0,0,0,0
				c0,0,0,0,0,0l0,0c-0.1,0.2-0.3,0.3-0.4,0.5l0,0c0,0,0,0,0,0c0,0,0,0,0,0c0,0,0,0,0,0c0,0,0,0,0,0c0,0,0,0,0,0c0,0,0,0,0,0
				c0,0,0,0,0,0c0,0,0,0,0,0c0,0,0,0,0,0c0,0,0,0,0,0c0,0,0,0,0,0c0,0,0,0,0,0c0,0,0,0,0,0c0,0,0,0,0,0c0,0,0,0,0,0c0,0,0,0,0,0
				c0,0,0,0,0,0c0,0,0,0,0,0c0,0,0,0,0,0c0,0,0,0,0,0c0,0,0,0,0,0c0,0,0,0,0,0c0,0,0,0,0,0c0,0,0,0,0,0c0,0,0,0,0,0l0,0c0,0,0,0,0,0
				l0,0c-0.1,0.1-0.1,0.2-0.2,0.2l0,0c0,0,0,0,0,0c0,0,0,0,0,0c0,0,0,0,0,0c0,0,0,0,0,0c0,0,0,0,0,0c0,0,0,0,0,0c0,0,0,0,0,0
				c0,0,0,0,0,0c0,0,0,0,0,0c0,0,0,0,0,0c0,0,0,0,0,0c0,0,0,0,0,0c0,0,0,0,0,0c0,0,0,0,0,0c0,0,0,0,0,0c0,0,0,0,0,0c0,0,0,0,0,0
				c0,0,0,0,0,0c0,0,0,0,0,0c0,0,0,0,0,0c0,0,0,0,0,0c0,0,0,0,0,0c0,0,0,0,0,0c0,0,0,0,0,0c0,0,0,0,0,0c0,0,0,0,0,0c0,0,0,0,0,0
				c0,0,0,0,0,0c0,0,0,0,0,0c0,0,0.1-0.1,0.1-0.1c0,0,0.1-0.2,0.1-0.2h0.2c-0.1,0,0.5,0.6,0.5,0.7v0c0,0-0.7,0-0.7,0
				c0,0-0.6,0-0.6,0c0,0,0,0,0,0c0,0,0,0,0,0c0,0,0,0,0,0c0,0,0,0,0,0c0,0,0,0,0,0c0,0,0,0,0,0c0,0,0,0,0,0c0,0,0,0,0,0c0,0,0,0,0,0
				c0,0,0,0,0,0c0,0,0,0,0,0c0,0,0,0,0,0c0,0,0,0,0,0c0,0,0,0,0,0c0,0,0,0,0,0c0,0,0,0,0,0c0,0,0,0,0,0c0,0,0,0,0,0c0,0,0,0,0,0
				c0,0,0,0,0,0c0,0,0,0,0,0c0,0,0,0,0,0c0,0,0,0-0.1,0c0,0-0.1,0-0.1,0c0,0-0.1,0-0.1,0c0,0-0.2,0-0.2,0c0,0-0.5,0-0.5,0v0
				c0,0.1,0.4,1.3,0.3,1.3h0.2c0,0,0-0.4,0-0.4c0,0,0-0.4,0-0.4c0,0,0,0,0,0c0,0,0,0,0,0c0,0,0,0,0,0c0,0,0,0,0,0c0,0,0,0,0,0
				c0,0,0,0,0,0c0,0,0,0,0,0c0,0,0,0,0,0c0,0,0,0,0,0c0,0,0,0,0,0c0,0,0,0,0,0c0,0,0,0,0,0c0,0,0,0,0,0c0,0,0,0,0,0c0,0,0,0,0,0
				c0,0,0,0,0,0c0,0,0,0,0,0c0,0,0,0,0,0c0,0,0,0,0,0c0,0,0,0,0,0c0,0,0,0,0,0c0,0,0,0,0,0c0,0,0,0.1,0,0.1c0,0,0,0.1,0,0.1
				c0,0,0.1,0.1,0.1,0.1h0.2c-0.1,0-0.3,0-0.3,0.1v0c0,0-0.2,0-0.2,0c0,0-0.2,0-0.2,0c0,0,0,0,0,0c0,0,0,0,0,0c0,0,0,0,0,0
				c0,0,0,0,0,0c0,0,0,0,0,0c0,0,0,0,0,0c0,0,0,0,0,0c0,0,0,0,0,0c0,0,0,0,0,0c0,0,0,0,0,0c0,0,0,0,0,0c0,0,0,0,0,0c0,0,0,0,0,0
				c0,0,0,0,0,0c0,0,0,0,0,0c0,0,0,0,0,0c0,0,0,0,0,0c0,0,0,0,0,0c0,0,0,0,0,0c0,0,0,0,0,0c0,0,0,0,0,0c0,0,0,0,0,0c0,0,0,0,0,0
				c0,0,0,0,0,0c0,0,0,0,0,0c0,0,0,0,0,0c0,0,0,0,0,0c0,0,0,0,0,0c0,0,0,0,0,0c0,0,0,0,0,0c-0.1,0.1-0.2,0.2-0.3,0.3c0,0,0,0,0,0
				c0,0,0,0,0,0c0,0,0,0,0,0c0,0,0,0,0,0c0,0,0,0,0,0c0,0,0,0,0,0c0,0,0,0,0,0c0,0,0,0,0,0c0,0,0,0,0,0c0,0,0,0,0,0c0,0,0,0,0,0
				c0,0,0,0,0,0c0,0,0,0,0,0c0,0,0,0,0,0c0,0,0,0,0,0c0,0,0,0,0,0c0,0,0,0,0,0c0,0,0,0,0,0c0,0,0,0,0,0c0,0,0,0,0,0c0,0,0,0,0,0
				c0,0,0,0,0,0c0,0,0,0,0,0c0,0,0,0,0,0c0,0,0,0,0,0c0,0,0,0,0,0c0,0,0,0,0,0c0,0,0,0,0,0c0,0,0,0,0,0c0,0,0,0,0,0c0,0,0,0,0,0
				c0,0,0,0,0,0c0,0,0,0,0,0c-0.1,0.1-0.1,0.1-0.2,0.2c0,0,0,0,0,0c0,0,0,0,0,0c0,0,0,0,0,0c0,0,0,0,0,0c0,0,0,0,0,0c0,0,0,0,0,0
				c0,0,0,0,0,0c0,0,0,0,0,0c0,0,0,0,0,0c0,0,0,0,0,0c0,0,0,0,0,0c0,0,0,0,0,0c0,0,0,0,0,0c0,0,0,0,0,0c0,0,0,0,0,0c0,0,0,0,0,0
				c0,0,0,0,0,0c0,0,0,0,0,0c0,0,0,0,0,0c0,0,0,0,0,0c0,0,0,0,0,0c0,0,0,0,0,0c0,0,0,0,0,0c0,0,0,0,0,0c0,0,0,0,0,0c0,0,0,0,0,0
				c0,0,0,0,0,0c0,0,0,0,0,0c0,0,0,0,0,0c0,0,0,0,0,0c0,0,0,0,0,0c0,0,0,0,0,0c0,0,0,0,0,0c0,0,0,0,0,0c0,0,0,0,0,0c0,0,0,0,0,0
				c0,0,0,0,0,0c0,0,0,0,0,0c0,0-0.1,0.1-0.1,0.1c0,0,0,0,0,0c0,0,0,0,0,0c0,0,0,0,0,0c0,0,0,0,0,0c0,0,0,0,0,0c0,0,0,0,0,0
				c0,0,0,0,0,0c0,0,0,0,0,0c0,0,0,0,0,0c0,0,0,0,0,0c0,0,0,0,0,0c0,0,0,0,0,0c0,0,0,0,0,0c0,0,0,0,0,0c0,0,0,0,0,0c0,0,0,0,0,0
				c0,0,0,0,0,0c0,0,0,0,0,0c0,0,0,0,0,0c0,0,0,0,0,0c0,0,0,0,0,0c0,0,0,0,0,0c0,0,0,0,0,0c0,0,0,0,0,0c0,0,0,0,0,0c0,0,0,0,0,0
				c0,0,0,0,0,0c0,0,0,0,0,0c0,0,0,0,0,0c0,0,0,0,0,0c0,0,0,0,0,0c0,0,0,0,0,0c0,0,0,0,0,0c0,0,0,0,0,0c0,0,0,0,0,0c0,0,0,0,0,0
				c0,0,0,0,0,0c0,0,0,0,0,0c0,0,0,0,0,0c-0.1,0.1-0.1,0.1-0.2,0.2c0,0,0,0,0,0c0,0,0,0,0,0c0,0,0,0,0,0c0,0,0,0,0,0c0,0,0,0,0,0
				c0,0,0,0,0,0c0,0,0,0,0,0c0,0,0,0,0,0c0,0,0,0,0,0c0,0,0,0,0,0c0,0,0,0,0,0c0,0,0,0,0,0c0,0,0,0,0,0c0,0,0,0,0,0c0,0,0,0,0,0
				c0,0,0,0,0,0c0,0,0,0,0,0c0,0,0,0,0,0c0,0,0,0,0,0c0,0,0,0,0,0c0,0,0,0,0,0c0,0,0,0,0,0c0,0,0,0,0,0c0,0,0,0,0,0c0,0,0,0,0,0
				c0,0,0,0,0,0.1c0,0,0,0,0,0.1c0,0,0,0.1,0,0.1c0,0,0,0.2,0,0.2c0,0,0,0.4,0,0.4h0c0,0-0.1-0.3-0.1-0.3l13.5,14
				c4.7-4.4,9-9.3,12.8-14.6L2981.1,4579.9L2981.1,4579.9z M2958.5,4601.5C2958.5,4601.6,2958.5,4601.6,2958.5,4601.5L2958.5,4601.5
				C2958.5,4601.6,2958.5,4601.6,2958.5,4601.5C2958.4,4601.6,2958.4,4601.6,2958.5,4601.5c-0.1,0.1-0.1,0.1-0.1,0.1c0,0,0,0,0,0
				c0,0,0,0,0,0c0,0,0,0,0,0c0,0,0,0,0,0c0,0,0,0,0,0c0,0,0,0,0,0c0,0,0,0,0,0c0,0,0,0,0,0c0,0,0,0,0,0c0,0,0,0,0,0c0,0,0,0,0,0
				c0,0,0,0,0,0c0,0,0,0,0,0c0,0-0.1,0-0.1,0.1c0,0,0,0,0,0c0,0,0,0,0,0c0,0,0,0,0,0c0,0,0,0,0,0c0,0,0,0,0,0c0,0,0,0,0,0
				c0,0,0,0,0,0c0,0,0,0,0,0c0,0,0,0,0,0c0,0,0,0,0,0c0,0,0,0,0,0c0,0,0,0,0,0c0,0,0,0,0,0c0,0,0,0,0,0c0,0,0,0,0,0c0,0,0,0,0,0
				c0,0,0,0,0,0c0,0,0,0,0,0c0,0,0,0,0,0c0,0,0,0,0,0c0,0,0,0,0,0c0,0,0,0,0,0c0,0,0,0,0,0c0,0,0,0,0,0c0,0,0,0.1,0,0.1
				c0,0,0,0.1,0,0.1c0,0,0,0.2,0,0.2c0,0,0,0.4,0,0.4c-2.8,1.7-5.7,2.8-8.7,5.5c0,0,0,0,0,0c0,0,0-0.8-0.1-0.8c0,0,0-0.8,0-0.8
				c0,0,0,0,0,0c0,0,0,0,0,0c0,0,0,0,0,0c0,0,0,0,0,0c0,0,0,0,0,0c0,0,0,0,0,0c0,0,0,0,0,0c0,0,0,0,0,0c0,0,0,0,0,0c0,0,0,0,0,0
				c0,0,0,0,0,0c0,0,0,0,0,0c0,0,0,0,0,0c0,0,0,0,0,0c0,0,0,0,0,0c0,0,0,0,0,0c0,0,0,0,0,0c0,0,0,0,0,0c0,0,0,0,0,0c0,0,0,0,0,0
				c0,0,0,0,0,0c-1.1,0.5-2.2,1-3.4,1.5l7.5,18.3c6-2.5,11.8-5.5,17.2-9L2958.5,4601.5L2958.5,4601.5z M2929.6,4613.5
				c-0.9,0.2-2.4,0.3-2.4,0.4v-0.1c0,0-0.8,0.3-1,0.3h0c0,0,1-0.3,1-0.3v0.1c0,0-1.1,0.2-1.1,0.2h0c-0.2,0-0.3,0-0.5,0c0,0,0,0,0,0
				c0,0,0,0-0.1,0c0,0,0,0,0,0c0,0,0,0-0.1,0c0,0,0,0,0,0c0,0-1-0.2-1-0.2v0.2c0,0,0.2,0.1,0,0.1l0,0c0,0,0.4-0.1,0.4-0.1h0
				c0,0,0,0-0.1,0c0,0,0,0,0,0c0,0,0,0-0.1,0c0,0,0,0,0,0c0,0,0,0-0.1,0h0c-0.1,0-0.2-0.2-0.2-0.2v0.1c0,0-0.2,0.1-0.2,0.1
				c0,0,0,0,0,0c0,0,0,0-0.1,0c0,0,0,0,0,0c0,0,0,0-0.1,0c0,0,0,0,0,0c-0.1,0-0.3,0-0.4,0h0c0,0,0,0-0.1,0c0,0,0,0,0,0
				c0,0,0,0-0.1,0c0,0,0,0,0,0c0,0,0,0-0.1,0c0,0,0,0,0,0c0,0,0,0-0.1,0c0,0,0,0,0,0c-0.2,0-0.3,0-0.5,0c0,0,0,0,0,0c0,0,0,0-0.1,0
				c0,0,0,0,0,0c0,0,0,0-0.1,0c0,0,0,0,0,0c0,0,0.3-0.2,0.3-0.2v0.2c0,0-0.6,0-0.8,0c0,0,0,0,0,0c0,0,0,0-0.1,0c0,0,0,0,0,0
				c0,0,0,0-0.1,0c0,0,0,0,0,0c0,0,0,0-0.1,0c0,0,0,0,0,0c0,0,1-0.1,1-0.1v0.2c0,0-1.3-0.1-1.5-0.1c0,0,0,0,0,0c0,0,0,0-0.1,0
				c0,0,0,0,0,0c0,0,0,0-0.1,0c0,0,0,0,0,0c0,0,0,0-0.1,0c0,0,0,0,0,0c0,0,0.3,0.4,0.3,0.4v0.7c0,0-0.6,0.3-0.8,0.3h0c0,0,0,0-0.1,0
				c0,0,0,0,0,0c0,0,0,0-0.1,0c0,0,0,0,0,0c0,0,0,0-0.1,0h0c-0.2,0-0.3,0-0.5,0c0,0,0,0,0,0c0,0,0,0-0.1,0c0,0,0,0,0,0
				c0,0,0,0-0.1,0c0,0,0,0,0,0c0,0,1.6,0,1.6,0v-0.2c0,0-1.9,0.2-2.1,0.2c0,0,0,0,0,0c0,0,0,0-0.1,0c0,0,0,0,0,0c0,0,0,0-0.1,0
				c0,0,0,0,0,0c0,0,0,0-0.1,0c0,0,0,0,0,0c0,0,0,0-0.1,0c0,0,0,0,0,0c-0.1,0-0.2,0-0.4,0c0,0,0,0,0,0c0,0,0,0-0.1,0c0,0,0,0,0,0
				c0,0,0,0-0.1,0c0,0,0,0,0,0c0,0,0,0,0,0c0,0,0,0,0,0c0,0,0,0,0,0c0,0,0,0,0,0c0,0,0,0,0,0c0,0,0,0,0,0c0,0,0.3,0.1,0.3,0.1v-0.2
				c0,0-0.5,0.1-0.6,0.1c0,0,0,0,0,0c0,0,0,0-0.1,0c0,0,0,0,0,0c0,0,0,0,0,0c0,0,0,0,0,0c0,0,0,0,0,0c0,0,0,0,0,0c0,0,0,0,0,0
				c0,0,0,0,0,0c0,0,0,0,0,0c0,0,0,0,0,0c0,0,0,0,0,0c0,0,0,0,0,0c0,0,0,0,0,0c0,0,0,0,0,0c-0.1,0-0.1,0-0.2,0c0,0,0,0,0,0
				c0,0,0,0,0,0c0,0,0,0,0,0c0,0,0,0,0,0c0,0,0,0,0,0c0,0,0,0,0,0c0,0,0,0,0,0c0,0,0,0,0,0c0,0,0,0,0,0c0,0,0,0,0,0c0,0,0,0,0,0
				c0,0,0,0,0,0c0,0,0,0,0,0c0,0,0,0,0,0c0,0,0,0,0,0c0,0,0,0,0,0c0,0,0,0,0,0c0,0-0.1,0-0.1,0c0,0,0,0,0,0c0,0,0,0,0,0c0,0,0,0,0,0
				s0,0,0,0c0,0,0,0,0,0c0,0,0,0,0,0c0,0,0,0,0,0c0,0,0,0,0,0c0,0,0,0,0,0s0,0,0,0c0,0,0,0,0,0c0,0,0,0,0,0c0,0,0,0,0,0c0,0,0,0,0,0
				c0,0,0,0,0,0c0,0,0,0,0,0c0,0,0,0-0.1,0c0,0,0,0,0,0c0,0-0.1,0-0.1,0c0,0,0,0,0,0c0,0,0,0-0.1,0c0,0,0,0,0,0c0,0,0,0,0,0
				c0,0,0,0,0,0c0,0,0,0,0,0c0,0,0,0,0,0c0,0,0,0,0,0c0,0,0,0,0,0c0,0,0,0,0,0c0,0,0,0,0,0c0,0,0,0-0.1,0c0,0,0,0,0,0c0,0,0,0-0.1,0
				c0,0,0,0,0,0c-0.1,0-1,0.1-1,0.1v-0.1c0,0,0.7,0,0.7,0h0c0,0,0,0-0.1,0h0c0,0,0,0-0.1,0h0c-0.6,0-1.2-0.1-1.8-0.1l0.5,19.7
				c6.5-0.1,13-0.9,19.4-2.2L2929.6,4613.5L2929.6,4613.5z M2882.6,4609.2l-6.7,19.2c6.1,2.2,12.4,4.4,18.9,5.4l3.2-19.5
				c-0.6-0.1-1.2-0.2-1.9-0.2h0c0,0,0-0.1-0.1-0.1c0,0,0-0.1,0-0.1c0,0,0,0-0.1,0c0,0,0,0,0,0c0,0,0,0,0,0c0,0,0,0,0,0c0,0,0,0,0,0
				c0,0,0,0,0,0c0,0,0,0,0,0c0,0,0,0,0,0c0,0,0,0,0,0c0,0,0,0,0,0c0,0,0,0,0,0c0,0,0,0,0,0c0,0,0,0.1,0,0.1c0,0,0,0.2,0,0.2
				c0,0,0,0,0,0c0,0,0-0.1,0-0.1c0,0,0-0.1,0-0.1c-0.1,0-0.1,0.2-0.2,0.2c0,0,0,0,0,0c0,0,0-0.2,0-0.2c0,0,0-0.2,0-0.2c0,0,0,0,0,0
				c0,0,0,0,0,0c0,0,0,0,0,0c0,0,0,0,0,0c0,0,0,0.1,0,0.1c0,0,0,0.1,0,0.1c0,0,0,0.2,0,0.2c0,0,0,0,0,0c0,0,0-0.2,0-0.2
				c0,0,0-0.2,0-0.2c0,0,0,0.1,0,0.1c0,0,0,0.1,0,0.1c0,0,0,0.2-0.1,0.2c0,0,0,0,0,0c0,0-0.2-0.2-0.2-0.2l0,0
				c-2.7-0.5-5.3-1.4-8-2.2v0c0,0,0.3-0.3,0.3-0.3c0,0,0,0,0,0c0,0,0,0-0.1,0c0,0,0,0,0,0c0,0,0,0-0.1,0c0,0,0,0,0,0
				c0,0-0.1,0.3-0.1,0.3v0c0,0-0.2-0.3-0.4-0.3c0,0,0,0,0,0c0,0,0,0-0.1,0c0,0,0,0,0,0c0,0,0,0,0,0c0,0,0,0,0,0c0,0,0,0,0,0
				c0,0,0,0,0,0c0,0,0,0,0,0c0,0,0,0,0,0c0,0,0,0,0,0c0,0,0,0,0,0c0,0,0,0,0,0c0,0,0,0,0,0c0,0,0,0,0,0c0,0,0,0,0,0c0,0,0,0,0,0
				c0,0,0,0,0,0c-0.1,0-0.1,0-0.2-0.1c0,0,0,0,0,0c0,0,0,0,0,0c0,0,0,0,0,0c0,0,0,0,0,0c0,0,0,0,0,0c0,0,0,0,0,0c0,0,0,0,0,0
				c0,0,0,0,0,0c0,0,0,0,0,0c0,0,0,0,0,0c0,0,0,0,0,0c0,0,0,0,0,0c0,0,0,0,0,0c0,0,0,0,0,0c0,0,0,0,0,0c0,0,0,0,0,0c0,0,0,0,0,0
				c0,0,0,0,0,0c0,0,0,0,0,0c0,0,0,0,0,0c-0.1,0-0.2-0.1-0.2-0.1c0,0,0,0,0,0c0,0,0,0,0,0c0,0,0,0,0,0c0,0,0,0-0.1,0c0,0,0,0,0,0
				c0,0,0,0-0.1,0c0,0,0,0,0,0c0,0,0,0-0.1,0c0,0,0,0,0,0c0,0,0,0-0.1,0c0,0,0,0,0,0c0,0,0-0.1-0.1-0.1c0,0,0-0.1,0-0.1
				c0,0,0-0.3-0.1-0.3c0,0,0-0.5,0-0.5c0,0,0-1-0.1-1h0C2883.6,4608.7,2883.1,4609.4,2882.6,4609.2L2882.6,4609.2z M2855.4,4594.3
				l-12.9,14.8c4.9,4.2,10.2,7.9,15.8,11.1l10-17.5c-3.5-2.1-6.9-2.2-10.1-7.6h0c0,0,0,0.7,0,0.7c0,0,0,0.7,0,0.7c0,0,0,0,0,0
				c0,0,0,0,0,0c0,0,0,0,0,0c0,0,0,0,0,0c0,0,0,0,0,0c0,0,0,0,0,0c0,0,0,0,0,0c0,0,0,0,0,0c0,0,0,0,0,0c0,0,0,0,0,0c0,0,0,0,0,0
				c0,0,0,0,0,0c0,0,0,0,0,0c0,0,0,0,0,0c0,0,0,0,0,0c0,0,0,0,0,0c0,0,0,0,0,0c0,0,0,0,0,0c0,0,0,0,0,0c0,0,0,0,0,0c0,0,0,0,0,0
				c0,0,0,0,0,0c0,0,0,0,0,0c0,0,0,0,0,0c0,0,0,0,0,0c0,0,0.1,0,0,0c0,0,0.2,0,0.2,0c0,0,0.3,0,0.3,0v0c0-0.1,0-0.1,0-0.2v0
				c0,0-0.5-0.2-0.5-0.2l-0.5-0.1c0,0,0-0.3,0-0.3h0c0,0,0,0.2,0,0.2l0,0.3c0,0,0,0,0,0l0,0c0,0,0,0,0,0l0,0c0,0,0,0,0,0l0,0
				c0,0,0,0,0,0l0,0C2856.3,4595.1,2855.8,4594.7,2855.4,4594.3L2855.4,4594.3z M2835.8,4569.8l-17.5,9.4
				c3.1,5.7,6.6,11.2,10.7,16.2l15.4-12.4c-0.3-0.4-0.7-0.9-1-1.3l0,0c0,0-0.1-0.1-0.1-0.1l0,0c0,0,0,0,0-0.1l0,0c0,0,0,0,0-0.1l0,0
				c-0.1-0.2-0.3-0.4-0.4-0.6h0c0,0,0,0,0-0.1c0,0,0,0,0,0c0,0,0,0,0,0l0,0c0,0,0,0,0,0c0,0,0,0,0,0c0,0,0,0,0,0c0,0,0,0,0,0
				c0,0,0,0,0,0c0,0,0,0,0,0c0,0,0,0,0,0c0,0,0,0,0,0c0,0,0,0,0,0c0,0,0,0,0,0c0,0,0,0,0,0c0,0,0,0,0,0c0,0,0,0,0,0c0,0,0,0,0,0
				c0,0,0,0-0.1,0c0,0,0,0,0,0c0,0-0.1,0-0.1,0c0,0-0.1,0-0.1,0c0,0-0.3,0-0.3,0v0c0,0,0.2-1.4,0.2-1.4h0.3c-0.1,0,0.8,1.1,0.8,1v0
				c0,0-0.6,0-0.6,0c0,0-0.5,0-0.5,0c0,0,0,0,0,0c0,0,0,0,0,0c0,0,0,0,0,0c0,0,0,0,0,0c0,0,0,0,0,0c0,0,0,0,0,0c0,0,0,0,0,0
				c0,0,0,0,0,0c0,0,0,0,0,0c0,0,0,0,0,0c0,0,0,0,0,0c0,0,0,0,0,0c0,0,0,0,0,0c0,0,0,0,0,0c0,0,0,0,0,0c0,0,0,0,0,0c0,0,0,0,0,0
				c0,0,0,0,0,0c0,0,0,0,0,0c0,0,0,0,0,0c0,0,0,0,0,0c0,0,0,0,0,0c0,0,0,0,0,0c0,0,0,0,0,0c0,0,0,0,0,0c0,0,0,0,0,0
				c0-0.1-0.1-0.1-0.1-0.2l0,0c0,0,0,0,0-0.1l0,0c0,0,0,0,0,0c0,0,0,0,0,0c0,0,0,0,0,0c0,0,0,0,0,0c0,0,0,0,0,0c0,0,0,0,0,0
				c0,0,0,0,0,0c0,0,0,0,0,0c0,0,0,0,0,0c0,0,0,0,0,0c0,0,0,0,0,0c0,0,0,0,0,0c0,0,0,0,0,0c0,0,0,0,0,0c0,0,0,0,0,0c0,0,0,0,0,0
				c0,0,0,0,0,0c0,0,0,0,0,0c0,0,0,0,0,0c0,0,0,0,0,0c0,0,0,0,0,0c0,0,0,0,0,0c0,0,0,0,0,0c0,0,0,0,0,0c0,0,0,0,0,0c0,0,0,0,0,0
				c0,0,0,0,0,0c0,0,0.1,0,0.1,0c0,0,0.1,0,0.1,0c0,0,0.2,0,0.2,0c0,0,0.5,0,0.5,0v0c-1.4-0.1-0.6-0.1-0.7-0.2c0,0-0.5,0-0.5,0
				c0,0,0,0,0,0c0,0,0,0,0,0c0,0,0,0,0,0c0,0,0,0,0,0c0,0,0,0,0,0c0,0,0,0,0,0c0,0,0,0,0,0c0,0,0,0,0,0c0,0,0,0,0,0c0,0,0,0,0,0
				c0,0,0,0,0,0c0,0,0,0,0,0c0,0,0,0,0,0c0,0,0,0,0,0c0,0,0,0,0,0c0,0,0,0,0,0c0,0,0,0,0,0c0,0,0,0,0,0c0,0,0,0,0,0c0,0,0,0,0,0
				c0,0,0,0,0,0c0,0,0,0,0,0c0,0,0,0,0,0c0,0,0,0,0,0c0,0,0,0,0,0c0,0,0,0,0,0c0,0,0,0,0-0.1c0,0,0-0.1,0-0.1c0,0,0-0.1,0-0.1
				c0,0,0-0.2,0-0.2c0,0,0-0.4-0.1-0.4h0c0,0,0.5,0.7,0.5,0.6v0c0,0-0.3,0-0.3,0c0,0-0.3,0-0.3,0c0,0,0,0,0,0c0,0,0,0,0,0
				c0,0,0,0,0,0c0,0,0,0,0,0c0,0,0,0,0,0c0,0,0,0,0,0c0,0,0,0,0,0c0,0,0,0,0,0c0,0,0,0,0,0c0,0,0,0,0,0c0,0,0,0,0,0c0,0,0,0,0,0
				c0,0,0,0,0,0c0,0,0,0,0,0c0,0,0,0,0,0c0,0,0,0,0,0c0,0,0,0,0,0c0,0,0,0,0,0c0,0,0,0,0,0c0,0,0,0,0,0c0,0,0,0,0,0c0,0,0,0,0,0
				c0,0,0,0,0,0c0,0,0,0,0,0c0,0,0,0,0,0c0,0,0,0,0,0c0,0,0,0,0,0c0,0,0,0,0,0c0,0,0,0,0,0c0,0,0,0,0,0c0,0,0,0,0,0c0,0,0,0,0,0
				c0-0.1-0.1-0.1-0.1-0.2l0,0c0,0,0,0,0,0c0,0,0,0,0,0c0,0,0,0,0,0c0,0,0,0,0,0c0,0,0,0,0,0c0,0,0,0,0,0c0,0,0,0,0,0c0,0,0,0,0,0
				c0,0,0,0,0,0c0,0,0,0,0,0c0,0,0,0,0,0c0,0,0,0,0,0c0,0,0,0,0,0c0,0,0,0,0,0c0,0,0,0,0,0c0,0,0,0,0,0c0,0,0,0,0,0c0,0,0,0,0,0
				c0,0,0,0,0,0c0,0,0,0,0,0c0,0,0,0,0,0c0,0,0,0,0,0c0,0,0,0,0,0c0,0,0,0,0,0c0,0,0,0,0,0c0,0,0,0,0,0c0,0,0,0,0,0c0,0,0,0,0,0
				c0,0,0,0,0,0c0,0,0,0,0,0c0,0,0,0,0,0c0,0,0,0,0,0c0,0,0,0,0,0c0,0,0,0,0,0c0,0-0.1,0-0.1,0c0,0-0.1,0-0.1-0.1c0,0-0.2,0-0.2,0
				c0,0-0.4,0-0.4-0.1v0c0,0,0.4,0,0.4,0c0,0,0.4,0,0.4,0c0,0,0,0,0,0c0,0,0,0,0,0c0,0,0,0,0,0c0,0,0,0,0,0c0,0,0,0,0,0c0,0,0,0,0,0
				c0,0,0,0,0,0c0,0,0,0,0,0c0,0,0,0,0,0c0,0,0,0,0,0c0,0,0,0,0,0c0,0,0,0,0,0c0,0,0,0,0,0c0,0,0,0,0,0c0,0,0,0,0,0c0,0,0,0,0,0
				c0,0,0,0,0,0c0,0,0,0,0,0c0,0,0,0,0,0c0,0,0,0,0,0c0,0,0,0,0,0c0,0,0,0,0,0c0,0,0,0,0,0c0,0,0,0,0,0c0,0,0,0,0,0c0,0,0,0,0,0
				c0,0-0.1,0-0.1,0c0,0-0.1,0-0.1,0c0,0-0.2,0-0.2,0v0c0-0.1,0-0.2,0-0.4v0c0,0,0,0,0-0.1v0c0,0,0,0,0,0c0,0,0,0,0,0c0,0,0,0,0,0
				c0,0,0,0,0,0c0,0,0,0,0,0c0,0,0,0,0,0c0,0,0,0,0,0c0,0,0,0,0,0c0,0,0,0,0,0c0,0,0,0,0,0c0,0,0.1,0,0.1,0c0,0,0,0,0,0
				c0,0-0.1,0-0.1,0c0,0-0.1,0-0.1,0c0,0,0,0,0,0c0,0,0.1,0,0.1,0c0,0,0.1,0,0.1,0v0C2837.7,4571.9,2836.4,4570.8,2835.8,4569.8
				L2835.8,4569.8z M2825.6,4539.7l-19.4,2.4c0.8,6.4,2.4,12.8,4.4,19l18.9-6c0,0,0,0,0,0v0c0,0-0.1,0-0.1-0.1c0,0,0,0,0,0
				c0,0,0,0,0-0.1c0,0,0,0,0,0c0,0,0,0,0-0.1c0,0,0,0,0,0c0,0,0,0-0.1-0.1c0,0-0.1,0-0.1,0c0,0-0.2,0-0.2-0.1c0,0-0.3,0-0.3,0
				c0,0-0.6,0-0.6-0.1v0c0,0,0.6-0.1,0.5-0.1c0,0,0.6,0,0.6,0c0,0,0,0,0,0c0,0,0,0,0,0c0,0,0,0,0,0c0,0,0,0,0,0c0,0,0,0,0,0
				c0,0,0,0,0,0c0,0,0,0,0,0c0,0,0,0,0,0c0,0,0,0,0,0c0,0,0,0,0,0c0,0,0,0,0,0c0,0,0,0,0,0c0,0,0,0,0,0c0,0,0,0,0,0c0,0,0,0,0,0
				c0,0,0,0,0,0c0,0,0,0,0,0c0,0,0,0,0,0c0,0,0,0,0,0c0-0.1,0-0.1-0.1-0.2c0,0,0,0,0,0c0,0,0,0,0,0c0,0,0,0,0,0c0,0,0.1,0,0.1,0
				c0,0,0.1,0,0.1,0c0,0,0.3,0,0.3,0v0c0,0-0.3,0-0.3,0c0,0-0.3,0-0.3,0c0,0,0,0,0,0c0,0,0,0,0,0c0,0,0.1,0,0.1,0c0,0,0.1,0,0.1,0
				c0,0,0.3,0,0.3-0.1c0,0,0,0,0,0c0-0.2-0.3-1.6-0.4-1.6h-0.5c0,0-0.1,0-0.1,0h-0.2c0,0-0.1,1.1-0.1,1v0c0,0,0.8,0,0.8-0.1l0,0
				c-0.6-2.2-0.8-4.5-0.8-6.8v0c0,0,0,0,0-0.1v0c0,0,0,0,0-0.1v0c0,0,0,0,0-0.1v0c0,0,0,0,0-0.1c0,0,0,0,0,0c0-0.2,0-0.3,0-0.5
				c0,0,0,0,0,0c0,0-0.3,0-0.3-0.1c0,0-0.3,0-0.3,0c0,0,0.6,0,0.6,0c0,0,0,0,0,0c0,0-0.6,0-0.6,0c0,0-0.6,0-0.6,0c0,0,0,0,0-0.1
				c0,0,0.1,0,0.1,0c0,0,0.2,0,0.2,0c0,0,0.3,0,0.3,0c0,0,0.6,0,0.6-0.1c0,0,0,0,0,0c0,0-0.8-1.2-0.8-1.2h-0.5c0,0,0,0.4,0,0.4
				c0,0,0,0.6,0,0.6c0,0,0,0,0,0c0,0,0,0,0,0c0,0,0,0,0,0c0,0,0,0,0,0c0,0,0,0,0,0c0,0,0,0,0,0c0,0,0,0,0,0c0,0,0,0,0,0c0,0,0,0,0,0
				c0,0,0,0,0,0c0,0,0,0,0,0c0,0,0,0,0,0c0,0,0,0,0,0c0,0,0,0,0,0c0,0,0,0,0,0c0,0,0,0,0,0c0,0,0,0,0,0c0,0,0,0,0,0c0,0,0,0,0-0.1
				c0,0,0,0,0,0c0,0,0,0,0,0c0,0,0,0,0,0c0,0,0,0,0,0c0,0,0,0,0,0c0,0,0,0,0,0c0,0,0,0,0,0c0,0,0,0,0,0c0,0,0,0,0,0c0,0,0,0,0,0
				c0,0,0,0,0,0c0,0,0,0,0,0c0,0,0,0,0,0c0,0,0,0,0,0c0,0,0,0,0,0c0,0,0,0,0,0c0,0,0,0,0,0c0,0,0,0,0,0c0,0,0,0,0,0c0,0-0.1,0-0.1,0
				c0,0-0.1,0-0.1,0c0,0-0.3,0-0.3,0c0,0-0.6,0-0.6-0.1v0c0,0,0-0.1,0-0.1v0c0,0,0.5,0,0.5-0.1c0,0,0.5,0,0.5,0c0,0,0,0,0,0
				c0,0,0,0,0,0c0,0,0,0,0,0c0,0,0,0,0,0c0,0,0,0,0,0c0,0,0,0,0,0c0,0,0,0,0,0c0,0-0.1,0-0.1,0c0,0-0.1,0-0.1-0.1c0,0-0.3,0-0.3,0
				c0,0-0.5,0-0.5-0.1v0c0,0,0,0,0-0.1v0c0-0.1,0-0.2,0-0.3v0c0,0,0,0,0-0.1c0,0,0,0,0,0c0,0,0,0,0-0.1c0,0,0,0,0,0c0,0,0,0,0-0.1
				c0,0,0,0,0,0c0,0,0,0,0-0.1v0c0,0,0,0,0-0.1v0C2825.5,4541.2,2825.7,4540.4,2825.6,4539.7L2825.6,4539.7z M2808.7,4503.5
				c-1.5,6.3-2.5,12.7-2.9,19.2l19.7,1.1c0-0.1,0-0.2,0-0.3v0c0,0,0,0,0-0.1v0c0,0,0,0,0-0.1v0c0-5.2,1.2-10.3,2.4-15.2
				L2808.7,4503.5L2808.7,4503.5z M2824.7,4468.2c-3.7,5.3-7,11-9.6,16.9l18,8.2c0,0,0,0,0,0c0,0,0,0,0,0c0,0,0,0,0,0c0,0,0,0,0,0
				c0,0,0,0,0,0c0,0,0,0,0,0c0,0,0,0,0,0c0-0.1,0.1-0.1,0.1-0.2c0,0,0,0,0,0c0,0,0,0,0,0c0,0,0,0,0,0c0,0,0,0,0,0c0,0,0,0,0,0
				c0,0,0,0,0,0c0,0,0,0,0,0c0,0,0,0,0,0c0,0,0,0,0,0c0,0,0,0,0,0c0,0,0,0,0,0c0,0,0,0,0,0c0,0,0,0,0,0c0,0,0,0,0,0c0,0,0,0,0,0
				c0,0,0,0,0,0c0,0,0,0,0,0c0,0,0,0,0,0c0,0,0,0,0,0c0,0,0,0,0,0c0,0,0,0,0,0c0,0,0,0,0,0c0,0,0,0,0,0c0,0,0,0,0,0c0,0,0,0,0,0
				c0,0,0,0,0-0.1v0c0-0.2,0.3-1.4,0.4-1.4h-0.1c2-4.1,4.4-7.8,7-11.6L2824.7,4468.2L2824.7,4468.2z M2852.3,4441.1
				c-5.4,3.6-10.4,7.8-15,12.3l13.9,14.1c3.8-3.7,7.9-7.1,12.2-10L2852.3,4441.1L2852.3,4441.1z M2887.8,4425.6
				c-6.3,1.5-12.6,3.5-18.5,6.1l7.9,18.2c2.2-0.9,3.9-1.8,6.6-2.5v0.1c0-0.1,0.6,0,0.8,0h0c0,0,0,0,0.1,0c0,0,0,0,0,0
				c0,0,0-0.1,0.1-0.1c0,0,0-0.1,0-0.1c0,0,0,0.2,0.1,0.2c0,0,0,0,0,0c0,0,0,0,0.1,0c0,0,0,0,0,0c0.2,0,0.3-0.4,0.3-0.5v-0.3
				c0,0,0.4,0.7,0.4,0.7h0.1c2.2-1.4,4.4-1.7,6.6-2.2L2887.8,4425.6L2887.8,4425.6z M2910.9,4423c0,0-2.7,0.1-4.2,0.1l1.3,20
				c0.8,0,1.6,0.3,2.3,0.3h0c0,0,0,0,0.1,0h0c0.1,0,0.2,0,0.3,0c0,0,0,0,0,0c0,0,0,0,0.1,0c0,0,0,0,0,0c0,0,0,0,0.1,0c0,0,0,0,0,0
				c0,0,0,0,0.1,0c0,0,0,0,0,0c0,0,0.1,0,0.1,0c0,0,0,0,0,0c0,0,0,0,0.1,0c0,0,0,0,0,0c0,0,0,0,0,0c0,0,0,0,0,0c0,0,0,0,0,0
				c0,0,0,0,0,0c0,0,0,0,0,0c0,0,0,0,0,0c0,0,0.1,0,0.1,0c0,0,0,0,0,0c0,0,0,0,0,0c0,0,0,0,0,0c0,0,0,0,0,0c0,0,0,0,0,0c0,0,0,0,0,0
				c0,0,0,0,0,0c0,0,0,0,0,0c0,0,0,0,0,0c0,0-0.8,0-0.8,0v-20.5V4423z"/>
		</g>
		<g>
			<circle class="st14" cx="1019.5" cy="4529" r="86.3"/>
			<path class="st18" d="M1020,4422.9v20.5c0,0-0.4,0-0.4,0c0,0,0,0,0,0c0,0,0,0,0,0c0,0,0,0,0,0c0,0,0,0,0,0c0,0,0,0,0,0
				c0,0,0,0,0,0c0,0,0,0,0,0c0,0,0,0,0,0c0,0,0,0,0,0c0,0,0,0,0,0c0,0,0,0,0,0c0,0,0,0,0,0c0,0,0,0,0,0c0,0,0,0,0,0c0,0,0,0,0,0
				c0,0,0,0,0,0c0,0,0,0,0,0c0,0,0,0,0.1,0c0,0,0,0,0,0c0,0,0,0,0,0c0,0,0,0,0,0c0,0,0,0,0,0c0,0,0,0,0,0c0,0,0,0,0,0c0,0,0,0,0,0
				c0,0,0,0,0,0c0,0,0,0,0,0c0,0,0,0,0,0c0,0,0,0,0,0c0,0,0,0,0,0c0,0,0,0,0,0c0,0,0,0,0,0c0,0,0,0,0,0c0,0,0,0,0,0c0,0,0,0,0,0
				c0,0,0,0,0.1,0c0,0,0,0,0,0c0,0,0,0,0,0c0,0,0,0,0,0c0,0,0,0,0,0c0,0,0,0,0,0c0,0,0,0,0,0c0,0,0,0,0,0c0,0,0,0,0,0c0,0,0,0,0,0
				c0,0,0,0,0,0c0,0,0,0,0,0c0,0,0,0,0,0c0,0,0,0,0,0c0,0,0,0,0,0c0,0,0,0,0,0c0,0,0,0,0,0c0,0,0,0,0,0c0,0,0,0,0,0c0,0,0,0,0,0
				c0,0,0,0,0,0c0,0,0,0,0,0c0,0,0,0,0,0c0,0,0,0,0,0c0,0,0,0,0,0c0,0,0,0,0,0c0,0,0,0,0,0c0,0,0,0,0,0c0,0,0,0,0,0c0,0,0,0,0,0
				c0,0,0,0,0,0c0,0,0,0,0,0c0,0,0,0,0,0c0,0,0,0,0,0c0,0,0,0,0,0c0,0,0,0,0,0c0,0,0,0,0,0c0,0,0.1,0,0.1,0c0,0,0,0,0,0c0,0,0,0,0,0
				c0,0,0,0,0,0c0,0,0,0,0,0c0,0,0,0,0,0c0,0,0,0,0,0c0,0,0,0,0,0c0,0,0,0,0,0c0,0,0,0,0,0c0,0,0,0,0,0c0,0,0,0,0,0c0,0,0,0,0,0
				c0,0,0,0,0,0c0,0,0,0,0,0c0,0,0,0,0,0c0,0,0,0,0,0c0,0,0,0,0,0c0.1,0,0.1,0,0.2,0c0,0,0,0,0,0c0,0,0,0,0,0c0,0,0,0,0,0
				c0,0,0,0,0,0c0,0,0,0,0,0c0,0,0,0,0,0c0,0,0,0,0,0c0,0,0,0,0,0c0,0,0,0,0,0c0,0,0,0,0,0c0,0,0,0,0,0c0,0,0,0,0,0c0,0,0,0,0,0
				c0,0,0,0,0,0c0,0,0,0,0,0c0.1,0,0.2,0,0.2,0c0,0,0,0,0,0c0,0,0,0,0,0c0,0,0,0,0,0c0,0,0,0,0,0c0,0,0,0,0,0c0,0,0,0,0,0
				c0,0,0,0,0,0c0,0,0,0,0,0c0,0,0,0,0,0c0,0,0,0,0,0c0,0,0,0,0,0c0.1,0,0.2,0,0.4,0h0c0,0,0,0,0.1,0c0,0,0,0,0,0c0,0,0,0,0.1,0
				c0,0,0,0,0,0c0,0,0,0,0.1,0c0,0,0,0,0,0c0,0,0,0,0.1,0c0,0,0,0,0,0c0.1,0-0.4,0,2.3,0v-0.2c0,0-1.8,0.2-1.8,0.2c0,0,0,0,0,0
				c0,0,0,0,0.1,0c0,0,0,0,0,0c0.2,0,1.7-0.2,1.7-0.2v-0.3v0v0v0v0c0,0.1,1.6,0.2,2.7,0.3l0,0c0.2,0,0.1,0.1,0.1,0.1v0.1
				c0,0-0.1,0-0.1,0c0,0,0,0,0,0c0,0,0,0,0.1,0c0,0,0,0,0,0c0,0,0,0,0.1,0c0,0,0,0,0,0c0,0,0,0,0.1,0c0,0,0,0,0,0c0.1,0,0.2,0,0.4,0
				c0,0,0,0,0,0c0,0,0,0,0.1,0c0,0,0,0,0,0c0,0,0,0,0,0c0,0,0,0,0,0c0,0,0,0,0,0c0,0,0,0,0,0c0,0,0,0,0,0c0,0,0,0,0,0c0,0,0,0,0.1,0
				c0,0,0,0,0,0c0.1,0,0.2,0,0.2,0h0c0,0,0,0,0,0c0,0,0,0,0,0c0,0,0,0,0,0c0,0,0,0,0,0c0,0,0,0,0,0c0,0,0,0,0,0c0,0,0,0,0,0
				c0,0,0,0,0,0c0,0,0,0,0,0c0,0,0,0,0,0c0,0,0,0,0,0c0,0,0,0,0,0c0,0,0,0,0,0c0,0,0,0,0,0c0,0,0,0,0,0c0,0,0,0,0,0c0,0,0.1,0,0.1,0
				c0,0,0,0,0,0c0,0,0,0,0,0c0,0,0,0,0,0c0,0,0,0,0,0c0,0,0,0,0,0c0,0,0,0,0,0c0,0,0-0.1,0-0.1c0,0,0,0,0,0c0,0,0,0.1,0,0.1
				c0,0,0,0,0,0c0,0,0,0,0,0c0,0,0,0,0,0c0,0,0-0.1,0-0.1c0,0,0,0,0,0c0,0,0,0,0.1,0c0,0,0,0,0,0c0,0,0.1,0,0.1,0c0,0,0,0,0,0
				c0,0,0,0,0.1,0c0,0,0,0,0,0c0,0,0,0,0.1,0c0,0,0,0,0,0c0,0,0-0.1,0.1-0.1c0,0,0,0,0,0c0,0,0,0,0.1,0c0,0,0,0,0,0c0,0,0,0,0.1,0
				c0,0,0,0,0,0c0,0,0,0,0.1,0c0,0,0,0,0,0c0.1,0,0.3,0.2,0.4,0.2l0,0.1c0.9,0.1,1.9,0.3,2.8,0.5l3.7-19.5
				C1032.8,4423.5,1020,4422.9,1020,4422.9L1020,4422.9z M1057.6,4429.9l-7.1,18.1c0.9,0.4,1.9,0.8,2.8,0.8c0,0,0,0,0,0
				c0,0,0.6,0.7,0.6,0.7v0c0,0.1,0-0.8,0.2-0.8c0,0-0.1,0-0.1,0c0,0,0,0.5,0.1,0.6c0,0,0,0.5,0,0.5c0,0,0,0,0,0c0,0,0,0,0,0
				c0,0,0,0,0,0c0,0,0,0,0,0c0,0,0,0,0,0c0,0,0,0,0,0c0,0,0,0,0,0c0,0,0,0,0,0c0,0,0,0,0,0c0,0,0,0,0,0c0,0,0,0,0,0c0,0,0,0,0,0
				c0,0,0,0,0,0c0,0,0,0,0,0c0,0,0,0,0,0c0,0,0,0,0,0c0,0,0,0,0,0c0,0,0,0,0,0c0,0,0,0,0,0c0,0,0,0,0,0c0,0,0,0,0,0c0,0,0,0,0,0
				c0.1,0,0.2,0.1,0.3,0.1c0,0,0,0,0,0c0,0,0,0,0,0c0,0,0,0,0,0c0,0,0,0,0,0c0,0,0,0,0,0c0,0,0,0,0,0c0,0,0,0,0,0c0,0,0,0,0,0
				c0,0,0,0,0,0c0,0,0,0,0,0c0,0,0,0,0,0c0,0,0,0,0,0c0,0,0,0,0,0c0,0,0,0,0,0c0,0,0,0,0,0c0,0,0,0,0,0c0,0,0,0,0,0c0,0,0,0,0,0
				c0,0,0,0,0,0c0,0,0,0,0,0c0,0,0,0,0,0c0,0,0,0,0,0c0,0,0,0,0,0c0,0,0,0,0,0c0,0,0,0,0,0c0,0,0,0,0,0c0,0,0,0,0,0c0,0,0,0,0,0
				c0,0,0,0,0,0c0,0,0,0,0,0c0,0,0.1,0,0.1,0.1c0,0,0,0,0,0c0,0,0,0,0,0c0,0,0,0,0,0c0,0,0,0,0,0c0,0,0,0,0,0c0,0,0,0,0,0
				c0,0,0,0,0,0c0,0,0,0,0,0c0,0,0,0,0,0c0,0,0,0,0,0c0,0,0,0,0,0c0,0,0,0,0,0c0,0,0,0,0,0c0,0,0,0,0,0c0,0,0,0,0,0c0,0,0,0,0,0
				c0,0,0,0,0,0c0,0,0,0,0,0c0,0,0,0,0,0c0,0,0,0,0,0c0,0,0,0,0,0c0,0,0,0,0,0c0,0,0,0,0,0c0,0,0,0,0,0c0,0,0,0,0,0c0,0,0,0,0,0
				c0,0,0,0,0,0c0,0,0,0.1,0,0.1c0,0,0,0.1,0,0.1c0,0,0,0.2,0.1,0.2h0c0.1,0,0.2-0.1,0.2-0.1c0,0,0-0.2,0-0.2c0,0,0,0,0,0
				c0,0,0,0,0,0c0,0,0,0,0,0c0,0,0,0,0,0c0,0,0,0,0,0c0,0,0,0,0,0c0,0,0,0,0,0c0,0,0,0,0,0c0,0,0,0,0,0c0,0,0,0,0,0c0,0,0,0,0,0
				c0,0,0,0,0,0c0,0,0,0,0,0c0,0,0,0,0,0c0,0,0,0,0,0c0,0,0,0,0,0c0,0,0,0,0,0c0,0-0.1,0-0.1,0c0,0-0.1,0-0.1,0c0,0-0.3,0-0.3,0
				c0,0-0.5,0-0.5,0v-0.1c0,0.1,1.5,0.1,1.7,0.1h0c0,0,0,0.2,0.1,0.2l0,0.2c0,0,0,0,0.1,0c0,0,0,0,0,0c0,0,0,0,0.1,0l0,0
				c0,0,0,0,0.1,0l0,0c0,0,0,0,0.1,0l0,0c0,0,0,0,0.1,0l0,0c0,0,0,0,0.1,0l0,0c0.2,0.1,0.6,0.2,0.6,0.4v0.1c0,0,0,0.1,0,0.2v0.2
				c0,0,0.1,0,0.1,0h0c0,0-0.1,0.1-0.1,0.1v-0.5c0,0,0,0.1,0,0.1v0.1c0,0.2,0.8,0.2,1.1,0.2h0c0,0-1.1,0.4-1.1,0.5v-0.1
				c2.7,0,1.2-0.3,1.3-0.3h0c0,0,1.4,0.4,1.4,0.4v-0.2c0,0,0,0,0,0v0c0,0.1,0,0.3,0,0.4v0c0,0,0,0,0,0v0c0,0-0.4-0.6-0.4-0.6h0
				c0.3,0,0.5,0,0.8,0h0c0,0-0.4,0.9-0.4,0.9v0.3c0,0,0.5,0,0.5,0l0.4,0c0,0,0.5,0,0.5,0.1v0.1c0,0,0,0.1,0,0.1v0.2
				c0,0.1-0.3,1-0.1,1h0c0,0,0-0.5,0.1-0.5l0-0.5c0,0,0,0,0,0c0,0,0,0,0,0c0,0,0,0,0,0l0,0c0,0,0,0,0.1,0.1l0,0.1c0,0,0,0.1,0.1,0.1
				l0,0.2c0,0,0,0.4,0.1,0.4h0c0.2,0-0.3-0.3-0.3-0.2v-0.3c0,0,0.4,0,0.5,0l0.4,0c0,0,0,0,0.1,0c0,0,0,0,0,0c0,0,0,0,0,0
				c0,0,0,0,0,0c0,0,0,0,0,0c0,0,0,0,0,0c0,0,0,0,0,0l0,0c0,0,0,0,0,0c0,0,0,0,0,0c0,0,0,0,0.1,0l0,0c0,0,0.1,0,0.1,0.1l10.4-16.9
				C1069.5,4435.1,1063.7,4432.2,1057.6,4429.9L1057.6,4429.9z M1090.6,4450.2l-13.3,14.7c0.3,0.2,0.5,0.5,0.8,0.8c0,0,0,0,0,0
				c0,0,0,0,0,0c0,0,0,0,0,0c0,0,0,0,0,0c0,0,0,0,0,0c0,0,0,0,0,0c0,0,0,0,0,0c0,0,0,0,0,0c0,0,0,0,0,0c0,0,0,0,0,0c0,0,0,0,0,0
				c0,0,0,0,0,0c0,0,0,0,0,0c0,0,0,0,0,0c0,0,0,0,0,0c0,0,0,0,0,0c0,0,0,0,0,0c0,0,0,0,0,0c0,0,0,0,0,0s0,0,0,0c0,0,0,0,0,0
				c0,0,0,0,0,0c0,0,0,0,0,0c0,0,0,0,0,0c0,0,0,0,0,0c0,0,0,0,0,0c0.1,0.1,0.2,0.2,0.3,0.3c0,0,0,0,0,0c0,0,0,0,0,0l0,0c0,0,0,0,0,0
				l0-0.1c0,0,0-0.1,0-0.1h0c0,0,0,0.1,0,0.1l0,0.1c0,0,0,0,0.1,0l0-0.1c0,0,0.1-0.1,0.1-0.1h0.1c1.3,1.4,2.8,2.8,4.2,4.1v0
				c0,0-0.3,0-0.3,0c0,0-0.3,0-0.3,0c0,0,0,0,0,0c0,0,0,0,0,0c0,0,0,0,0,0c0,0,0,0,0,0c0,0,0,0,0,0c0,0,0,0,0,0c0,0,0,0,0,0
				c0,0,0,0,0,0c0,0,0,0,0,0c0,0,0,0,0,0c0,0,0,0,0,0c0,0,0,0,0,0c0,0,0,0,0,0c0,0,0,0,0,0c0,0,0,0,0,0c0,0,0,0,0,0c0,0,0,0,0,0
				c0,0,0,0,0,0c0,0,0,0,0,0c0,0,0,0,0,0c0,0,0,0,0,0c0,0,0,0,0,0c0,0,0,0,0,0c0,0,0,0,0,0c0,0,0,0,0,0c0,0,0,0,0,0c0,0,0,0,0,0
				c0,0,0,0,0,0c0,0,0,0,0,0c0.1,0.1,0.1,0.1,0.2,0.2c0,0,0,0,0,0c0,0,0,0,0,0c0,0,0,0,0,0c0,0,0,0,0,0c0,0,0,0,0,0c0,0,0,0,0,0
				c0,0,0,0,0,0c0,0,0,0,0,0c0,0,0,0,0,0c0,0,0,0,0,0c0,0,0,0,0,0c0,0,0,0,0,0c0,0,0,0,0,0c0,0,0,0,0,0c0,0,0,0,0,0c0,0,0,0,0,0
				c0,0,0,0,0,0c0,0,0,0,0,0c0,0,0,0,0,0c0,0,0,0,0,0c0,0,0,0,0,0c0,0,0,0,0,0c0,0,0,0,0,0c1.3,1.5,2.6,3,3.8,4.6l15.7-12
				C1099.9,4459.3,1095.4,4454.5,1090.6,4450.2L1090.6,4450.2z M1114.2,4480.9l-17.7,9c1.2,2.4,2.4,5,3.4,7.5l0,0c0,0,0,0.1,0,0.1
				h-0.1c0,0-0.1,0-0.1,0h-0.2c0,0,0.4,0,0.4,0v0c0,0-0.6,0-0.6,0h0.2c0,0,0.4,0.1,0.4,0.1v0c0,0.2,1.4,0.3,1.4,0.5v0
				c0,0-0.5,0-0.5,0.1c0,0-0.6,0-0.6,0c0,0,0,0,0,0c0,0,0,0,0,0c0,0,0,0,0,0c0,0,0,0,0,0c0,0,0,0,0,0c0,0,0,0,0,0c0,0,0,0,0,0
				c0,0,0,0,0,0c0,0,0,0,0,0c0,0,0,0,0,0c0,0,0,0,0,0c0,0,0,0,0,0c0,0,0,0,0,0c0,0,0,0,0,0c0,0,0,0,0,0c0,0,0,0,0,0c0,0,0,0,0,0
				c0,0,0,0,0,0c0,0,0,0,0,0.1c0,0,0,0,0,0c0,0.1,0,0.1,0.1,0.2c0,0,0,0,0,0c0,0,0,0,0,0c0,0,0,0,0,0c0,0,0,0,0,0c0,0,0,0,0,0
				c0,0,0,0,0,0c0,0,0,0,0,0c0,0,0,0,0,0c0,0,0,0,0,0c0,0,0,0,0,0c0,0,0,0,0,0c0,0,0,0,0,0c0,0,0,0,0,0c0,0,0,0,0,0c0,0,0,0,0,0
				c0,0,0,0,0,0c0,0,0,0,0,0c0,0,0,0,0,0c0,0,0,0,0,0c0,0,0,0,0,0c0,0,0,0,0,0c0,0,0,0,0,0c0,0,0,0,0,0c0,0,0,0,0,0c0,0,0,0,0,0
				c0,0,0,0,0,0c0,0,0,0,0,0c0,0,0,0,0,0c0,0,0,0,0,0c0,0,0,0,0,0.1c0,0,0,0,0,0c0,0,0,0,0,0c0,0,0,0,0,0c0,0,0,0,0,0c0,0,0,0,0,0
				c0,0,0,0,0,0c0,0,0,0,0,0c0,0,0,0,0,0c0,0,0,0,0,0c0,0,0,0,0,0c0,0,0,0,0,0c0,0,0,0,0,0c0,0,0,0,0,0c0,0,0,0,0,0c0,0,0,0,0,0
				c0,0,0,0,0,0c0,0,0,0,0,0c0,0,0,0,0,0c0,0,0,0,0,0c0,0,0,0,0,0c0,0,0,0,0,0c0,0,0,0,0,0c0,0,0,0,0,0c0,0,0,0,0,0c0,0,0,0,0,0
				c0,0,0,0,0,0c0,0,0,0,0,0c0,0,0,0,0,0c0,0,0,0,0,0c0,0,0.1,0,0.1,0.1v0c0,0-0.1,0,0,0.1c0,0-0.1,0-0.1,0c0,0,0,0,0,0c0,0,0,0,0,0
				c0,0,0,0,0,0c0,0,0,0,0,0c0,0,0,0,0,0c0,0,0,0,0,0c0,0,0,0,0,0c0,0,0,0,0,0c0,0,0,0,0,0c0,0,0,0,0,0c0,0,0,0,0,0c0,0,0,0,0,0
				c0,0,0,0,0,0c0,0,0,0,0,0c0,0,0,0,0,0c0,0,0,0,0,0c0,0,0,0,0,0c0,0,0,0,0,0c0,0,0,0,0,0c0,0,0,0,0,0c0,0,0,0,0,0c0,0,0,0,0,0
				c0,0,0,0,0,0c0,0,0,0,0,0c0,0,0,0,0,0.1c0,0,0,0,0,0c0,0.1,0.1,0.2,0.1,0.2c0,0,0,0,0,0c0,0,0,0,0,0c0,0,0,0,0,0c0,0,0,0,0,0.1
				c0,0,0,0,0,0c0,0,0,0,0,0c0,0,0,0,0,0c0,0,0,0,0,0c0,0,0,0,0,0c0,0,0,0,0,0c0,0,0,0,0,0c0,0,0,0,0,0c0,0,0,0,0,0c0,0,0,0,0,0
				c0,0,0,0,0,0c0,0,0,0,0,0.1c0,0-0.1,0-0.1,0c0,0-0.2,0-0.2,0.1v0c0,0.7,0.6,1.3,0.8,2l19.2-5.6
				C1119.5,4492.8,1117.1,4486.7,1114.2,4480.9L1114.2,4480.9z M1125.1,4518.1l-19.8,2c0.1,1.1,0.1,2.1,0.2,3.2l0,0
				c0,0-0.1,0.1-0.1,0.1v0c0,0,0,0,0,0.1v0c0,0,0,0,0,0.1c0,0,0,0,0,0c0,0,0,0,0,0.1v0c0,0,0,0,0,0.1c0,0,0,0,0,0c0,0,0,0,0,0.1
				c0,0,0,0,0,0c0,0,0,0,0,0.1c0,0,0,0,0,0c0,0,0,0,0,0.1v0c0,0,0,0,0,0.1v0c0,0,0,0,0,0.1v0c0,0,0,0,0,0.1v0c0,0,0,0,0,0.1v0
				c0,0,0,0,0,0.1c0,0,0,0,0,0c0,0,0,0,0,0.1c0,0,0,0,0,0c0,0,0,0,0,0c0,0,0,0,0,0c0,0,0,0,0,0c0,0,0,0,0,0c0,0,0,0,0,0c0,0,0,0,0,0
				c0,0,0,0,0,0c0,0,0,0,0,0c0,0,0,0,0,0c0,0,0,0,0,0c0,0,0,0,0,0c0,0,0,0,0,0c0,0,0,0,0,0c0,0,0,0,0,0c0,0,0,0,0,0c0,0,0,0,0,0
				c0,0,0,0,0,0c0,0,0,0,0,0c0,0,0,0,0,0c0,0,0,0,0,0c0,0,0,0,0,0c0,0,0,0,0,0c0,0,0,0,0,0c0,0,0,0,0,0c0,0,0,0,0,0c0,0,0,0,0,0
				c0,0,0,0,0,0c0,0,0,0,0,0c0,0,0,0,0,0c0,0,0,0,0,0c0,0,0,0,0,0c0,0,0,0,0,0c0,0,0,0,0,0c0,0,0,0,0,0c0,0,0,0,0,0c0,0,0,0,0,0
				c0,0,0,0,0,0c0,0,0,0,0,0c0,0,0,0,0,0c0,0,0,0,0,0s0,0,0,0c0,0,0,0,0,0c0,0,0,0,0,0c0,0,0,0,0,0c0,0,0,0,0,0s0,0,0,0s0,0,0,0
				c0,0,0,0,0,0s0,0,0,0c0,0,0,0,0,0c0,0,0,0,0,0c0,0,0,0,0,0c0,0,0,0,0,0c0,0,0,0,0,0c0,0,0,0,0,0c0,0,0,0,0,0c0,0,0,0,0,0
				c0,0,0,0,0,0c0,0,0,0,0,0c0,0,0,0,0,0c0,0,0,0,0,0c0,0,0,0,0,0c0,0,0,0,0,0c0,0,0,0,0,0s0,0,0,0c0,0,0,0,0,0c0,0,0,0,0,0
				c0,0,0,0,0,0c0,0,0,0,0,0c0,0,0,0,0,0c0,0,0,0,0,0c0,0,0,0,0,0c0,0,0,0,0,0s0,0,0,0c0,0,0,0,0,0c0,0,0,0,0,0c0,0,0,0,0,0
				c0,0,0,0,0,0c0,0,0,0,0,0c0,0,0,0,0,0c0,0,0,0,0,0c0,0,0,0,0,0c0,0,0,0,0,0c0,0,0,0,0,0c0,0,0,0,0,0c0,0,0,0,0,0c0,0,0,0,0,0
				s0,0,0,0c0,0,0,0,0,0s0,0,0,0c0,0,0,0,0,0s0,0,0,0c0,0,0,0,0,0s0,0,0,0s0,0,0,0c0,0,0,0,0,0c0,0,0,0,0,0c0,0,0,0,0,0c0,0,0,0,0,0
				c0,0,0,0,0,0c0,0,0,0,0,0c0,0,0,0,0,0c0,0,0,0,0,0c0,0,0,0,0,0c0,0,0,0,0,0c0,0,0,0,0,0s0,0,0,0s0,0,0,0c0,0,0,0,0,0c0,0,0,0,0,0
				c0,0,0,0,0,0c0,0,0,0,0,0c0,0,0,0,0,0s0,0,0,0c0,0,0,0,0,0c0,0,0,0,0,0c0,0,0,0,0,0c0,0,0,0,0,0c0,0,0,0,0,0c0,0,0,0,0,0
				c0,0,0,0,0,0c0,0,0,0,0,0c0,0,0,0.1,0,0.1c0,0,0,0,0,0c0,0,0,0,0,0.1c0,0,0,0,0,0c0,0,0,0,0,0c0,0,0,0,0,0.1c0,0,0,0,0,0
				c0,0,0,0,0,0.1l0,0l0,0l0,0l0,0c0,0,0,0,0,0.1c0,0,0,0,0,0c0,0,0,0,0,0c0,0,0,0,0,0c0,0,0,0,0,0c0,0,0,0,0,0c0,0,0,0,0,0.1
				c0,0,0,0,0,0c0,0,0,0,0,0.1c0,0,0,0,0,0c0,0,0,0,0,0c0,0,0,0,0,0c0,0,0,0,0,0.1c0,0,0,0,0,0c0,0,0,0,0,0.1c0,0,0,0,0,0
				c0,0,0,0,0,0c0,0,0,0,0,0c0,0,0,0,0,0c0,0,0,0,0,0c0,0,0,0,0,0.1c0,0,0,0,0,0c0,0,0,0,0,0.1c0,0,0,0,0,0c0,0,0,0,0,0c0,0,0,0,0,0
				c0,0,0,0,0,0c0,0,0,0,0,0c0,0,0,0,0,0c0,0,0,0,0,0c0,0,0,0,0,0c0,0,0,0,0,0c0,0,0,0,0,0c0,0,0,0,0,0c0,0,0,0,0,0c0,0,0,0,0,0
				c0,0,0,0,0,0.1c0,0,0,0,0,0c0,0,0,0,0,0c0,0,0,0,0,0c0,0,0,0,0,0c0,0,0,0,0,0c0,0,0,0,0,0c0,0,0,0.1,0,0.1c0,0,0,0,0,0
				c0,0,0,0,0,0c0,0,0,0,0,0c0,0,0,0,0,0c0,0,0,0,0,0c0,0,0,0,0,0c0,0,0,0,0,0c0,0,0,0.1,0,0.1c0,0,0,0,0,0c0,0,0,0,0,0v0
				c0,0,0,0,0,0v0c0,0.1,0,0.1,0,0.2v0c0,1.6,0.1,3.2,0,4.8l20,1.6c0.2-2.8,0.3-5.7,0.3-8.5
				C1125.7,4525.4,1125.5,4521.7,1125.1,4518.1L1125.1,4518.1z M1102.9,4551.5c-1.4,5.2-3.2,10.1-5.5,14.8l17.8,8.6
				c2.8-5.8,5.1-12,6.8-18.3L1102.9,4551.5L1102.9,4551.5z M1089.6,4579.9c-0.2,0.3-0.4,0.7-0.4,1v0c0,0-0.3-0.1-0.3-0.1l-0.3-0.1
				c0,0,0-0.2,0-0.2l0.1-0.5c0,0,0.1-1,0.1-1h0.2c0,2.7,0.3,2.2,0.3,2.2v0c0,0-0.4,0.5-0.4,0.5h-0.5c0,0,0-0.2,0-0.2l0-0.2
				c-0.2,0.2-0.4,0.5-0.6,0.7l0,0c0,0,0,0,0,0l0,0c0,0,0,0,0,0c0,0,0,0,0,0c0,0,0,0,0,0c0,0,0,0,0,0c0,0,0,0,0,0c0,0,0,0,0,0
				c0,0,0,0,0,0c0,0,0,0,0,0c0,0,0,0,0,0c0,0,0,0,0,0c0,0,0,0,0,0c0,0,0,0,0,0c0,0,0,0,0,0c0,0,0,0,0,0c0,0,0,0,0,0c0,0,0,0,0,0
				c0,0,0,0,0,0l0,0c-0.1,0.2-0.3,0.3-0.4,0.5l0,0c0,0,0,0,0,0c0,0,0,0,0,0c0,0,0,0,0,0c0,0,0,0,0,0c0,0,0,0,0,0c0,0,0,0,0,0
				c0,0,0,0,0,0c0,0,0,0,0,0c0,0,0,0,0,0c0,0,0,0,0,0c0,0,0,0,0,0c0,0,0,0,0,0c0,0,0,0,0,0c0,0,0,0,0,0c0,0,0,0,0,0c0,0,0,0,0,0
				c0,0,0,0,0,0c0,0,0,0,0,0c0,0,0,0,0,0c0,0,0,0,0,0c0,0,0,0,0,0c0,0,0,0,0,0c0,0,0,0,0,0c0,0,0,0,0,0c0,0,0,0,0,0l0,0c0,0,0,0,0,0
				l0,0c-0.1,0.1-0.1,0.2-0.2,0.2l0,0c0,0,0,0,0,0c0,0,0,0,0,0c0,0,0,0,0,0c0,0,0,0,0,0c0,0,0,0,0,0c0,0,0,0,0,0c0,0,0,0,0,0
				c0,0,0,0,0,0c0,0,0,0,0,0c0,0,0,0,0,0c0,0,0,0,0,0c0,0,0,0,0,0c0,0,0,0,0,0c0,0,0,0,0,0c0,0,0,0,0,0c0,0,0,0,0,0c0,0,0,0,0,0
				c0,0,0,0,0,0c0,0,0,0,0,0c0,0,0,0,0,0c0,0,0,0,0,0c0,0,0,0,0,0c0,0,0,0,0,0c0,0,0,0,0,0c0,0,0,0,0,0c0,0,0,0,0,0c0,0-0.1,0-0.1,0
				c0,0-0.1,0-0.1,0c0,0-0.2,0-0.2,0v0c0,0,0.4-0.4,0.4-0.4h0c-0.1,0-0.4,0.6-0.4,0.7v0c0,0,0,0,0,0c0,0,0.1,0,0.1,0c0,0,0,0,0,0
				c0,0,0,0,0,0c0,0,0,0,0,0c0,0,0,0,0,0c0,0,0,0,0,0c0,0,0,0,0,0c0,0,0,0,0,0c0,0,0,0,0,0c0,0,0,0,0,0c0,0,0,0,0,0c0,0,0,0,0,0
				c0,0,0,0,0,0c0,0,0,0,0,0c0,0,0,0,0,0c0,0,0,0,0,0c0,0,0,0,0,0c0,0,0,0,0,0c0,0,0,0,0,0c0,0,0,0,0,0c0,0,0,0,0,0c0,0,0,0,0,0
				c0,0,0,0,0,0c0,0,0,0,0,0c0,0,0,0,0,0c0,0,0,0,0,0c0,0,0.1,0,0.1,0c0,0,0.2,0,0.2,0v0c0,0.1-0.4,1.3-0.5,1.3h-0.4
				c0,0,0-0.4,0-0.4c0,0,0-0.4,0-0.4c0,0,0,0,0,0c0,0,0,0,0,0c0,0,0,0,0,0c0,0,0,0,0,0c0,0,0,0,0,0c0,0,0,0,0,0c0,0,0,0,0,0
				c0,0,0,0,0,0c0,0,0,0,0,0c0,0,0,0,0,0c0,0,0,0,0,0c0,0,0,0,0,0c0,0,0,0,0,0c0,0,0,0,0,0c0,0,0,0,0,0c0,0,0,0,0,0c0,0,0,0,0,0
				c0,0,0,0,0,0c0,0,0,0,0,0c0,0,0,0,0,0c0,0,0,0,0,0c0,0,0,0,0,0c0,0,0,0.1,0,0.1c0,0,0,0.1,0,0.1c0,0,0,0.1,0,0.1h0
				c-0.1,0,0.1,0,0.1,0.1v0c0,0-0.2,0-0.2,0c0,0-0.2,0-0.2,0c0,0,0,0,0,0c0,0,0,0,0,0c0,0,0,0,0,0c0,0,0,0,0,0c0,0,0,0,0,0
				c0,0,0,0,0,0c0,0,0,0,0,0c0,0,0,0,0,0c0,0,0,0,0,0c0,0,0,0,0,0c0,0,0,0,0,0c0,0,0,0,0,0c0,0,0,0,0,0c0,0,0,0,0,0c0,0,0,0,0,0
				c0,0,0,0,0,0c0,0,0,0,0,0c0,0,0,0,0,0c0,0,0,0,0,0c0,0,0,0,0,0c0,0,0,0,0,0c0,0,0,0,0,0c0,0,0,0,0,0c0,0,0,0,0,0c0,0,0,0,0,0
				c0,0,0,0,0,0c0,0,0,0,0,0c0,0,0,0,0,0c0,0,0,0,0,0c0,0,0,0,0,0c-0.1,0.1-0.2,0.2-0.3,0.3c0,0,0,0,0,0c0,0,0,0,0,0c0,0,0,0,0,0
				c0,0,0,0,0,0c0,0,0,0,0,0c0,0,0,0,0,0c0,0,0,0,0,0c0,0,0,0,0,0c0,0,0,0,0,0c0,0,0,0,0,0c0,0,0,0,0,0c0,0,0,0,0,0c0,0,0,0,0,0
				c0,0,0,0,0,0c0,0,0,0,0,0c0,0,0,0,0,0c0,0,0,0,0,0c0,0,0,0,0,0c0,0,0,0,0,0c0,0,0,0,0,0c0,0,0,0,0,0c0,0,0,0,0,0c0,0,0,0,0,0
				c0,0,0,0,0,0c0,0,0,0,0,0c0,0,0,0,0,0c0,0,0,0,0,0c0,0,0,0,0,0c0,0,0,0,0,0c0,0,0,0,0,0c0,0,0,0,0,0c0,0,0,0,0,0c0,0,0,0,0,0
				c-0.1,0.1-0.1,0.1-0.2,0.2c0,0,0,0,0,0c0,0,0,0,0,0c0,0,0,0,0,0c0,0,0,0,0,0c0,0,0,0,0,0c0,0,0,0,0,0c0,0,0,0,0,0c0,0,0,0,0,0
				c0,0,0,0,0,0c0,0,0,0,0,0c0,0,0,0,0,0c0,0,0,0,0,0c0,0,0,0,0,0c0,0,0,0,0,0c0,0,0,0,0,0c0,0,0,0,0,0c0,0,0,0,0,0c0,0,0,0,0,0
				c0,0,0,0,0,0c0,0,0,0,0,0c0,0,0,0,0,0c0,0,0,0,0,0c0,0,0,0,0,0c0,0,0,0,0,0c0,0,0,0,0,0c0,0,0,0,0,0c0,0,0,0,0,0c0,0,0,0,0,0
				c0,0,0,0,0,0c0,0,0,0,0,0c0,0,0,0,0,0c0,0,0,0,0,0c0,0,0,0,0,0c0,0,0,0,0,0c0,0,0,0,0,0c0,0,0,0,0,0c0,0,0,0,0,0c0,0,0,0,0,0
				c0,0-0.1,0.1-0.1,0.1c0,0,0,0,0,0c0,0,0,0,0,0c0,0,0,0,0,0c0,0,0,0,0,0c0,0,0,0,0,0c0,0,0,0,0,0c0,0,0,0,0,0c0,0,0,0,0,0
				c0,0,0,0,0,0c0,0,0,0,0,0c0,0,0,0,0,0c0,0,0,0,0,0c0,0,0,0,0,0c0,0,0,0,0,0c0,0,0,0,0,0c0,0,0,0,0,0c0,0,0,0,0,0c0,0,0,0,0,0
				c0,0,0,0,0,0c0,0,0,0,0,0c0,0,0,0,0,0c0,0,0,0,0,0c0,0,0,0,0,0c0,0,0,0,0,0c0,0,0,0,0,0c0,0,0,0,0,0c0,0,0,0,0,0c0,0,0,0,0,0
				c0,0,0,0,0,0c0,0,0,0,0,0c0,0,0,0,0,0c0,0,0,0,0,0c0,0,0,0,0,0c0,0,0,0,0,0c0,0,0,0,0,0c0,0,0,0,0,0c0,0,0,0,0,0c0,0,0,0,0,0
				c0,0,0,0,0,0c-0.1,0.1-0.1,0.1-0.2,0.2c0,0,0,0,0,0c0,0,0,0,0,0c0,0,0,0,0,0c0,0,0,0,0,0c0,0,0,0,0,0c0,0,0,0,0,0c0,0,0,0,0,0
				c0,0,0,0,0,0c0,0,0,0,0,0c0,0,0,0,0,0c0,0,0,0,0,0c0,0,0,0,0,0c0,0,0,0,0,0c0,0,0,0,0,0c0,0,0,0,0,0c0,0,0,0,0,0c0,0,0,0,0,0
				c0,0,0,0,0,0c0,0,0,0,0,0c0,0,0,0,0,0c0,0,0,0,0,0c0,0,0,0,0,0c0,0,0,0,0,0c0,0,0,0,0,0c0,0,0,0,0,0c0,0,0,0,0,0.1c0,0,0,0,0,0.1
				c0,0,0,0.1,0,0.1c0,0,0,0.2,0,0.2c0,0,0,0.4,0,0.4c0,0,0,0,0,0c0,0,0-0.3,0-0.3l13.6,14c4.7-4.4,9.1-9.3,12.9-14.6L1089.6,4579.9
				L1089.6,4579.9z M1066.3,4601.5C1066.3,4601.6,1066.3,4601.6,1066.3,4601.5L1066.3,4601.5
				C1066.3,4601.6,1066.3,4601.6,1066.3,4601.5C1066.2,4601.6,1066.2,4601.6,1066.3,4601.5c-0.1,0.1-0.1,0.1-0.1,0.1c0,0,0,0,0,0
				c0,0,0,0,0,0c0,0,0,0,0,0c0,0,0,0,0,0c0,0,0,0,0,0c0,0,0,0,0,0c0,0,0,0,0,0c0,0,0,0,0,0c0,0,0,0,0,0c0,0,0,0,0,0c0,0,0,0,0,0
				c0,0,0,0,0,0c0,0,0,0,0,0c0,0-0.1,0-0.1,0.1c0,0,0,0,0,0c0,0,0,0,0,0c0,0,0,0,0,0c0,0,0,0,0,0c0,0,0,0,0,0c0,0,0,0,0,0
				c0,0,0,0,0,0c0,0,0,0,0,0c0,0,0,0,0,0c0,0,0,0,0,0c0,0,0,0,0,0c0,0,0,0,0,0c0,0,0,0,0,0c0,0,0,0,0,0c0,0,0,0,0,0c0,0,0,0,0,0
				c0,0,0,0,0,0c0,0,0,0,0,0c0,0,0,0,0,0c0,0,0,0,0,0c0,0,0,0,0,0c0,0,0,0,0,0c0,0,0,0,0,0c0,0,0,0,0,0c0,0,0,0.1,0,0.1
				c0,0,0,0.1,0,0.1c0,0,0,0.2,0,0.2c0,0,0,0.4,0,0.4c-2.8,1.7-5.7,2.8-8.7,5.5h0c0,0,0-0.8-0.1-0.8c0,0,0-0.8,0-0.8c0,0,0,0,0,0
				c0,0,0,0,0,0c0,0,0,0,0,0c0,0,0,0,0,0c0,0,0,0,0,0c0,0,0,0,0,0c0,0,0,0,0,0c0,0,0,0,0,0c0,0,0,0,0,0c0,0,0,0,0,0c0,0,0,0,0,0
				c0,0,0,0,0,0c0,0,0,0,0,0c0,0,0,0,0,0c0,0,0,0,0,0c0,0,0,0,0,0c0,0,0,0,0,0c0,0,0,0,0,0c0,0,0,0,0,0c0,0,0,0,0,0c0,0,0,0,0,0
				c-1.1,0.5-2.2,1-3.4,1.5l7.5,18.3c6-2.5,11.8-5.5,17.2-9L1066.3,4601.5L1066.3,4601.5z M1037.4,4613.5c-0.9,0.2-2.4,0.3-2.4,0.4
				v-0.1c0,0-0.8,0.3-1,0.3h0c0,0,1-0.3,1-0.3v0.1c0,0-1.1,0.2-1.1,0.2c0,0,0,0,0,0c-0.2,0-0.3,0-0.5,0c0,0,0,0,0,0c0,0,0,0-0.1,0
				c0,0,0,0,0,0c0,0,0,0-0.1,0c0,0,0,0,0,0c0,0,1.7-0.2,1.7-0.2v0.2c0,0-1.2,0.1-1.3,0.1l0,0c0,0-0.9-0.1-0.9-0.1c0,0,0,0,0,0
				c0,0,0,0-0.1,0c0,0,0,0,0,0c0,0,0,0-0.1,0c0,0,0,0,0,0c0,0,0,0-0.1,0h0c-0.1,0-0.3-0.2-0.3-0.2v0.1c0,0-0.2,0.1-0.2,0.1
				c0,0,0,0,0,0c0,0,0,0-0.1,0c0,0,0,0,0,0c0,0,0,0-0.1,0c0,0,0,0,0,0c-0.1,0-0.3,0-0.4,0c0,0,0,0,0,0c0,0,0,0-0.1,0c0,0,0,0,0,0
				c0,0,0,0-0.1,0c0,0,0,0,0,0c0,0,0,0-0.1,0c0,0,0,0,0,0c0,0,0,0-0.1,0c0,0,0,0,0,0c-0.2,0-0.3,0-0.5,0c0,0,0,0,0,0c0,0,0,0-0.1,0
				c0,0,0,0,0,0c0,0,0,0-0.1,0c0,0,0,0,0,0c0,0-1.1-0.2-1.1-0.2v0.2c0,0,0.7,0,0.6,0c0,0,0,0,0,0c0,0,0,0-0.1,0c0,0,0,0,0,0
				c0,0,0,0-0.1,0c0,0,0,0,0,0c0,0,0,0-0.1,0c0,0,0,0,0,0c0,0-0.4-0.1-0.4-0.1v0.2c0,0,0.1-0.1-0.1-0.1c0,0,0,0,0,0c0,0,0,0-0.1,0
				c0,0,0,0,0,0c0,0,0,0-0.1,0c0,0,0,0,0,0c0,0,0,0-0.1,0c0,0,0,0,0,0c0,0,0.3,0.4,0.3,0.4v0.7c0,0-0.6,0.3-0.8,0.3c0,0,0,0,0,0
				c0,0,0,0-0.1,0c0,0,0,0,0,0c0,0,0,0-0.1,0c0,0,0,0,0,0c0,0,0,0-0.1,0c0,0,0,0,0,0c-0.2,0-0.3,0-0.5,0c0,0,0,0,0,0c0,0,0,0-0.1,0
				c0,0,0,0,0,0c0,0,0,0-0.1,0c0,0,0,0,0,0c0,0-1.1,0-1.1,0v-0.2c0,0,0.8,0.2,0.7,0.2c0,0,0,0,0,0c0,0,0,0-0.1,0c0,0,0,0,0,0
				c0,0,0,0-0.1,0c0,0,0,0,0,0c0,0,0,0-0.1,0c0,0,0,0,0,0c0,0,0,0-0.1,0c0,0,0,0,0,0c-0.1,0-0.2,0-0.4,0c0,0,0,0,0,0c0,0,0,0-0.1,0
				c0,0,0,0,0,0c0,0,0,0-0.1,0c0,0,0,0,0,0c0,0,0,0,0,0c0,0,0,0,0,0c0,0,0,0,0,0c0,0,0,0,0,0c0,0,0,0,0,0c0,0,0,0,0,0
				c0,0,0.3,0.1,0.3,0.1v-0.2c0,0-0.5,0.1-0.6,0.1c0,0,0,0,0,0c0,0,0,0-0.1,0c0,0,0,0,0,0c0,0,0,0,0,0c0,0,0,0,0,0c0,0,0,0,0,0
				c0,0,0,0,0,0c0,0,0,0,0,0c0,0,0,0,0,0c0,0,0,0,0,0c0,0,0,0,0,0c0,0,0,0,0,0c0,0,0,0,0,0c0,0,0,0,0,0c0,0,0,0,0,0
				c-0.1,0-0.1,0-0.2,0c0,0,0,0,0,0c0,0,0,0,0,0c0,0,0,0,0,0c0,0,0,0,0,0c0,0,0,0,0,0c0,0,0,0,0,0c0,0,0,0,0,0c0,0,0,0,0,0
				c0,0,0,0,0,0c0,0,0,0,0,0c0,0,0,0,0,0c0,0,0,0,0,0c0,0,0,0,0,0c0,0,0,0,0,0c0,0,0,0,0,0c0,0,0,0,0,0c0,0,0,0,0,0c0,0-0.1,0-0.1,0
				c0,0,0,0,0,0c0,0,0,0,0,0c0,0,0,0,0,0c0,0,0,0,0,0c0,0,0,0,0,0c0,0,0,0,0,0c0,0,0,0,0,0c0,0,0,0,0,0c0,0,0,0,0,0c0,0,0,0,0,0
				c0,0,0,0,0,0c0,0,0,0,0,0c0,0,0,0,0,0c0,0,0,0,0,0c0,0,0,0,0,0c0,0,0,0,0,0c0,0,0,0-0.1,0c0,0,0,0,0,0c0,0-0.1,0-0.1,0
				c0,0,0,0,0,0c0,0,0,0-0.1,0c0,0,0,0,0,0c0,0,0,0,0,0c0,0,0,0,0,0c0,0,0,0,0,0c0,0,0,0,0,0c0,0,0,0,0,0c0,0,0,0,0,0c0,0,0,0,0,0
				c0,0,0,0,0,0c0,0,0,0-0.1,0c0,0,0,0,0,0c0,0,0,0-0.1,0c0,0,0,0,0,0c-0.1,0,0.3,0.1,0.3,0.1v-0.1c0,0-0.6,0-0.6,0h0c0,0,0,0-0.1,0
				h0c0,0,0,0-0.1,0h0c-0.6,0-1.2-0.1-1.8-0.1l0.5,19.7c6.5-0.1,13-0.9,19.4-2.2L1037.4,4613.5L1037.4,4613.5z M990.3,4609.2
				l-6.7,19.2c6.1,2.2,12.4,4.4,18.9,5.4l3.2-19.5c-0.6-0.1-1.2-0.2-1.9-0.2h0c0,0,0-0.1-0.1-0.1c0,0,0-0.1,0-0.1c0,0,0,0-0.1,0
				c0,0,0,0,0,0c0,0,0,0,0,0c0,0,0,0,0,0c0,0,0,0,0,0c0,0,0,0,0,0c0,0,0,0,0,0c0,0,0,0,0,0c0,0,0,0,0,0c0,0,0,0,0,0c0,0,0,0,0,0
				c0,0,0,0,0,0c0,0,0,0.1,0,0.1c0,0,0,0.2,0,0.2c0,0,0,0,0,0c0,0,0-0.1,0-0.1c0,0,0-0.1,0-0.1c-0.1,0-0.1,0.2-0.2,0.2c0,0,0,0,0,0
				c0,0,0-0.2,0-0.2c0,0,0-0.2,0-0.2c0,0,0,0,0,0c0,0,0,0,0,0c0,0,0,0,0,0c0,0,0,0,0,0c0,0,0,0.1,0,0.1c0,0,0,0.1,0,0.1
				c0,0,0,0.2,0,0.2c0,0,0,0,0,0c0,0,0-0.2,0-0.2c0,0,0-0.2,0-0.2c0,0,0,0.1,0,0.1c0,0,0,0.1,0,0.1c0,0,0,0.2-0.1,0.2c0,0,0,0,0,0
				c0,0-0.2-0.2-0.2-0.2l0,0c-2.7-0.5-4-1.4-8-2.2v0c0,0,0.3-0.3,0.3-0.3c0,0,0,0,0,0c0,0,0,0-0.1,0c0,0,0,0,0,0c0,0,0,0-0.1,0
				c0,0,0,0,0,0c0,0-0.2,0.3-0.2,0.3v0c0,0-0.2-0.3-0.4-0.3h0c0,0,0,0-0.1,0c0,0,0,0,0,0c0,0,0,0,0,0c0,0,0,0,0,0c0,0,0,0,0,0
				c0,0,0,0,0,0c0,0,0,0,0,0c0,0,0,0,0,0c0,0,0,0,0,0c0,0,0,0,0,0c0,0,0,0,0,0c0,0,0,0,0,0c0,0,0,0,0,0c0,0,0,0,0,0c0,0,0,0,0,0
				c0,0,0,0,0,0c-0.1,0-0.1,0-0.2-0.1c0,0,0,0,0,0c0,0,0,0,0,0c0,0,0,0,0,0c0,0,0,0,0,0c0,0,0,0,0,0c0,0,0,0,0,0c0,0,0,0,0,0
				c0,0,0,0,0,0c0,0,0,0,0,0c0,0,0,0,0,0c0,0,0,0,0,0c0,0,0,0,0,0c0,0,0,0,0,0c0,0,0,0,0,0c0,0,0,0,0,0c0,0,0,0,0,0c0,0,0,0,0,0
				c0,0,0,0,0,0c0,0,0,0,0,0c0,0,0,0,0,0c-0.1,0-0.2-0.1-0.2-0.1c0,0,0,0,0,0c0,0,0,0,0,0c0,0,0,0,0,0c0,0,0,0-0.1,0c0,0,0,0,0,0
				c0,0,0,0-0.1,0c0,0,0,0,0,0c0,0,0,0,0,0c0,0,0,0,0,0c0,0,0,0-0.1,0c0,0,0,0,0,0c0,0,0-0.1-0.1-0.1c0,0,0-0.1,0-0.1
				c0,0,0-0.3-0.1-0.3c0,0,0-0.5,0-0.5c0,0,0-1-0.1-1h0C991.4,4608.7,990.8,4609.4,990.3,4609.2L990.3,4609.2z M963.1,4594.3
				l-12.9,14.8c4.9,4.2,10.2,7.9,15.8,11.1l10-17.5c-3.5-2.1-6.9-2.2-10.1-7.6c0,0,0,0,0,0c0,0,0,0.7,0,0.7c0,0,0,0.7,0,0.7
				c0,0,0,0,0,0c0,0,0,0,0,0c0,0,0,0,0,0c0,0,0,0,0,0c0,0,0,0,0,0c0,0,0,0,0,0c0,0,0,0,0,0c0,0,0,0,0,0c0,0,0,0,0,0c0,0,0,0,0,0
				c0,0,0,0,0,0c0,0,0,0,0,0c0,0,0,0,0,0c0,0,0,0,0,0c0,0,0,0,0,0c0,0,0,0,0,0c0,0,0,0,0,0c0,0,0,0,0,0c0,0,0,0,0,0c0,0,0,0,0,0
				c0,0,0,0,0,0c0,0,0,0,0,0c0,0,0,0,0,0c0,0,0,0-0.1,0c0,0-0.1,0-0.1,0c0,0-0.1,0-0.1,0c0,0-0.2,0-0.2,0c0,0-0.4,0-0.4,0v0
				c0-0.1,0-0.1,0-0.2v0c0,0,0.2-0.2,0.2-0.2l0.2-0.1c0,0,0-0.3,0-0.3h0c0,0,0,0.2,0,0.2l0,0.3c0,0,0,0,0,0l0,0c0,0,0,0,0,0l0,0
				c0,0,0,0,0,0l0,0c0,0,0,0,0,0l0,0C964.1,4595.1,963.6,4594.7,963.1,4594.3L963.1,4594.3z M943.6,4569.8l-17.5,9.4
				c3.1,5.7,6.6,11.2,10.7,16.2l15.4-12.4c-0.3-0.4-0.7-0.9-1-1.3l0,0c0,0-0.1-0.1-0.1-0.1l0,0c0,0,0,0,0-0.1l0,0c0,0,0,0,0-0.1l0,0
				c-0.1-0.2-0.3-0.4-0.4-0.6h0c0,0,0,0,0-0.1c0,0,0,0,0,0c0,0,0,0,0,0l0,0c0,0,0,0,0,0c0,0,0,0,0,0c0,0,0,0,0,0c0,0,0,0,0,0
				c0,0,0,0,0,0c0,0,0,0,0,0c0,0,0,0,0,0c0,0,0,0,0,0c0,0,0,0,0,0c0,0,0,0,0,0c0,0,0,0,0,0c0,0,0,0,0,0c0,0,0,0,0,0c0,0,0,0,0,0
				c0,0,0,0,0,0c0,0,0,0,0,0c0,0,0.1,0,0.1,0c0,0,0.2,0,0.2,0c0,0,0.3,0,0.3,0v0c0,0-0.5-1.4-0.5-1.4h-0.3c-0.1,0-0.5,1.1-0.5,1v0
				c0,0,0.1,0,0.1,0c0,0,0.2,0,0.2,0c0,0,0,0,0,0c0,0,0,0,0,0c0,0,0,0,0,0c0,0,0,0,0,0c0,0,0,0,0,0c0,0,0,0,0,0c0,0,0,0,0,0
				c0,0,0,0,0,0c0,0,0,0,0,0c0,0,0,0,0,0c0,0,0,0,0,0c0,0,0,0,0,0c0,0,0,0,0,0c0,0,0,0,0,0c0,0,0,0,0,0c0,0,0,0,0,0c0,0,0,0,0,0
				c0,0,0,0,0,0c0,0,0,0,0,0c0,0,0,0,0,0c0,0,0,0,0,0c0,0,0,0,0,0c0,0,0,0,0,0c0,0,0,0,0,0c0,0,0,0,0,0c0,0,0,0,0,0
				c0-0.1-0.1-0.1-0.2-0.2l0,0c0,0,0,0,0-0.1l0,0c0,0,0,0,0,0c0,0,0,0,0,0c0,0,0,0,0,0c0,0,0,0,0,0c0,0,0,0,0,0c0,0,0,0,0,0
				c0,0,0,0,0,0c0,0,0,0,0,0c0,0,0,0,0,0c0,0,0,0,0,0c0,0,0,0,0,0c0,0,0,0,0,0c0,0,0,0,0,0c0,0,0,0,0,0c0,0,0,0,0,0c0,0,0,0,0,0
				c0,0,0,0,0,0c0,0,0,0,0,0c0,0,0,0,0,0c0,0,0,0,0,0c0,0,0,0,0,0c0,0,0,0,0,0c0,0,0,0,0,0c0,0,0,0,0,0c0,0-0.1,0-0.1,0
				c0,0-0.1,0-0.1,0c0,0-0.2,0-0.2,0v0c0,0,0.1,0,0.1,0c0,0,0.1,0,0.1,0c0,0-0.2,0-0.2,0v0c0-0.1,0.1-0.1,0-0.2c0,0,0.2,0,0.2,0
				c0,0,0,0,0,0c0,0,0,0,0,0c0,0,0,0,0,0c0,0,0,0,0,0c0,0,0,0,0,0c0,0,0,0,0,0c0,0,0,0,0,0c0,0,0,0,0,0c0,0,0,0,0,0c0,0,0,0,0,0
				c0,0,0,0,0,0c0,0,0,0,0,0c0,0,0,0,0,0c0,0,0,0,0,0c0,0,0,0,0,0c0,0,0,0,0,0c0,0,0,0,0,0c0,0,0,0,0,0c0,0,0,0,0,0c0,0,0,0,0,0
				c0,0,0,0,0,0c0,0,0,0,0,0c0,0,0,0,0,0c0,0,0,0,0,0c0,0,0,0,0,0c0,0,0,0,0,0c0,0,0,0,0-0.1c0,0,0-0.1,0-0.1c0,0,0-0.1,0-0.1
				c0,0,0.1-0.2,0.1-0.2c0,0,0.1-0.4,0.1-0.4h0.2c0,0-0.1,0.7-0.1,0.6v0c0,0-0.3,0-0.3,0c0,0-0.2,0-0.2,0c0,0,0,0,0,0c0,0,0,0,0,0
				c0,0,0,0,0,0c0,0,0,0,0,0c0,0,0,0,0,0c0,0,0,0,0,0c0,0,0,0,0,0c0,0,0,0,0,0c0,0,0,0,0,0c0,0,0,0,0,0c0,0,0,0,0,0c0,0,0,0,0,0
				c0,0,0,0,0,0c0,0,0,0,0,0c0,0,0,0,0,0c0,0,0,0,0,0c0,0,0,0,0,0c0,0,0,0,0,0c0,0,0,0,0,0c0,0,0,0,0,0c0,0,0,0,0,0c0,0,0,0,0,0
				c0,0,0,0,0,0c0,0,0,0,0,0c0,0,0,0,0,0c0,0,0,0,0,0c0,0,0,0,0,0c0,0,0,0,0,0c0,0,0,0,0,0c0,0,0,0,0,0c0,0,0,0,0,0c0,0,0,0,0,0
				c0-0.1-0.1-0.1-0.1-0.2l0,0c0,0,0,0,0,0c0,0,0,0,0,0c0,0,0,0,0,0c0,0,0,0,0,0c0,0,0,0,0,0c0,0,0,0,0,0c0,0,0,0,0,0c0,0,0,0,0,0
				c0,0,0,0,0,0c0,0,0,0,0,0c0,0,0,0,0,0c0,0,0,0,0,0c0,0,0,0,0,0c0,0,0,0,0,0c0,0,0,0,0,0c0,0,0,0,0,0c0,0,0,0,0,0c0,0,0,0,0,0
				c0,0,0,0,0,0c0,0,0,0,0,0c0,0,0,0,0,0c0,0,0,0,0,0c0,0,0,0,0,0c0,0,0,0,0,0c0,0,0,0,0,0c0,0,0,0,0,0c0,0,0,0,0,0c0,0,0,0,0,0
				c0,0,0,0,0,0c0,0,0,0,0,0c0,0,0,0,0,0c0,0,0,0,0,0c0,0,0,0,0,0c0,0,0,0,0,0c0,0,0,0,0,0c0,0,0,0,0-0.1c0,0,0.1,0,0.1,0
				c0,0,0.2,0,0.2-0.1v0c0,0-0.3,0-0.3,0c0,0-0.3,0-0.3,0c0,0,0,0,0,0c0,0,0,0,0,0c0,0,0,0,0,0c0,0,0,0,0,0c0,0,0,0,0,0c0,0,0,0,0,0
				c0,0,0,0,0,0c0,0,0,0,0,0c0,0,0,0,0,0c0,0,0,0,0,0c0,0,0,0,0,0c0,0,0,0,0,0c0,0,0,0,0,0c0,0,0,0,0,0c0,0,0,0,0,0c0,0,0,0,0,0
				c0,0,0,0,0,0c0,0,0,0,0,0c0,0,0,0,0,0c0,0,0,0,0,0c0,0,0,0,0,0c0,0,0,0,0,0c0,0,0,0,0,0c0,0,0,0,0,0c0,0,0,0,0,0c0,0,0,0,0,0
				c0,0,0-0.1-0.1-0.1c0,0-0.1-0.1-0.1-0.1c0,0-0.1-0.2-0.1-0.2c0,0-0.2,0-0.2,0c-0.1,0,0.1,0.1,0.1-0.1v0c0,0,0,0,0-0.1v0
				c0,0,0,0,0,0c0,0,0,0,0,0c0,0,0,0,0,0c0,0,0,0,0,0c0,0,0,0,0,0c0,0,0,0,0,0c0,0,0,0,0,0c0,0,0,0,0,0c0,0,0,0,0,0c0,0,0,0,0,0
				c0,0,0,0,0,0c0,0,0,0,0,0c0,0,0,0,0,0c0,0,0,0,0,0c0,0,0,0,0,0c0,0,0.1,0,0.1,0c0,0,0.1,0,0.1,0v0
				C945.5,4571.9,944.1,4570.8,943.6,4569.8L943.6,4569.8z M934.1,4539.7l-19.8,2.4c0.8,6.4,2.1,12.8,4.1,19l18.9-6c0,0,0,0,0,0v0
				c0,0,0,0,0-0.1c0,0,0,0,0,0c0,0,0,0,0-0.1c0,0,0,0,0,0c0,0,0,0,0-0.1v0c0,0-0.1,0-0.1-0.1c0,0,0,0,0,0c0,0,0,0,0-0.1c0,0,0,0,0,0
				c0,0,0.1,0,0.1-0.1v0c0,0-0.1-0.1-0.1-0.1c0,0-0.1,0-0.1,0c0,0,0,0,0,0c0,0,0,0,0,0c0,0,0,0,0,0c0,0,0,0,0,0c0,0,0,0,0,0
				c0,0,0,0,0,0c0,0,0,0,0,0c0,0,0,0,0,0c0,0,0,0,0,0c0,0,0,0,0,0c0,0,0,0,0,0c0,0,0,0,0,0c0,0,0,0,0,0c0,0,0,0,0,0c0,0,0,0,0,0
				c0,0,0,0,0,0c0,0,0,0,0,0c0,0,0,0,0,0c0,0,0,0,0,0c0-0.1,0-0.1-0.1-0.2c0,0,0,0,0,0c0,0,0,0,0,0c0,0,0,0,0,0c0,0,0,0,0,0
				c0,0,0,0,0,0c0,0,0,0,0,0c0,0,0,0,0,0c0,0,0,0,0,0c0,0,0,0,0,0c0,0,0,0,0,0c0,0,0,0,0,0c0,0,0.1,0,0.1,0c0,0,0.1,0,0.1,0
				c0,0,0.3,0,0.3-0.1c0,0,0,0,0,0c0-0.2-0.6-1.6-0.7-1.6h0c0,0,0,0,0,0h0.1c0,0,0.6,1.1,0.6,1v0c0,0-0.5,0-0.5-0.1l0,0
				c-0.6-2.2-2.2-4.5-2.2-6.8v0c0,0,0,0,0-0.1v0c0,0,0,0,0-0.1v0c0,0,0,0,0-0.1v0c0,0,0,0,0-0.1c0,0,0,0,0,0c0-0.2,0-0.3,0-0.5
				c0,0,0,0,0,0c0,0,0.1,0,0.1-0.1c0,0,0.1,0,0.1,0c0,0,0,0,0,0c0,0,0,0,0,0c0,0-0.1,0-0.1,0v0c0,0,0,0,0,0c0,0,0.1,0,0.1,0
				c0,0,0,0,0,0c0,0,0,0,0,0c0,0-0.1,0-0.1-0.1c0,0,0,0,0,0c0,0,0.1-1.2,0.1-1.2h0c0,0,0,0.4,0,0.4c0,0,0,0.6,0,0.6c0,0,0,0,0,0
				c0,0,0,0,0,0c0,0,0,0,0,0c0,0,0,0,0,0c0,0,0,0,0,0c0,0,0,0,0,0c0,0,0,0,0,0c0,0,0,0,0,0c0,0,0,0,0,0c0,0,0,0,0,0c0,0,0,0,0,0
				c0,0,0,0,0,0c0,0,0,0,0,0c0,0,0,0,0,0c0,0,0,0,0,0c0,0,0,0,0,0c0,0,0,0,0,0c0,0,0,0,0,0c0,0,0,0,0-0.1c0,0,0,0,0,0c0,0,0,0,0,0
				c0,0,0,0,0,0c0,0,0,0,0,0c0,0,0,0,0,0c0,0,0,0,0,0c0,0,0,0,0,0c0,0,0,0,0,0c0,0,0,0,0,0c0,0,0,0,0,0c0,0,0,0,0,0c0,0,0,0,0,0
				c0,0,0,0,0,0c0,0,0,0,0,0c0,0,0,0,0,0c0,0,0,0,0,0c0,0,0,0,0,0c0,0,0,0,0,0c0,0,0,0,0,0c0,0,0,0,0,0c0,0,0,0,0,0c0,0,0.1,0,0.1,0
				c0,0,0.1,0,0.1-0.1v0c0,0,0-0.1,0-0.1v0c0,0-0.1,0-0.1-0.1c0,0-0.1,0-0.1,0c0,0,0,0,0,0c0,0,0.1,0,0.1,0c0,0,0.1,0,0.1,0v0
				c0,0-0.1,0-0.1,0c0,0-0.1,0-0.1,0c0,0,0,0,0,0c0,0,0,0,0,0c0,0,0,0,0,0c0,0,0.1,0,0.1,0c0,0,0.1,0,0.1-0.1v0c0,0,0,0,0-0.1v0
				c0-0.1,0-0.2,0-0.3v0c0,0,0,0,0-0.1c0,0,0,0,0,0c0,0,0,0,0-0.1c0,0,0,0,0,0c0,0,0,0,0-0.1c0,0,0,0,0,0c0,0,0,0,0-0.1v0
				c0,0,0,0,0-0.1v0C934.6,4541.2,934.2,4540.4,934.1,4539.7L934.1,4539.7z M916.5,4503.5c-1.5,6.3-2.6,12.7-2.9,19.2l19.7,1.1
				c0-0.1-0.1-0.2-0.1-0.3v0c0,0,0,0,0-0.1v0c0,0,0,0,0-0.1v0c0-5.2,1.2-10.3,2.4-15.2L916.5,4503.5L916.5,4503.5z M932.5,4468.2
				c-3.7,5.3-7,11-9.6,16.9l18,8.2c0,0,0,0,0,0c0,0,0,0,0,0c0,0,0,0,0,0c0,0,0,0,0,0c0,0,0,0,0,0c0,0,0,0,0,0c0,0,0,0,0,0
				c0-0.1,0.1-0.1,0.1-0.2c0,0,0,0,0,0c0,0,0,0,0,0c0,0,0,0,0,0c0,0,0,0,0,0c0,0,0,0,0,0c0,0,0,0,0,0c0,0,0,0,0,0c0,0,0,0,0,0
				c0,0,0,0,0,0c0,0,0,0,0,0c0,0,0,0,0,0c0,0,0,0,0,0c0,0,0,0,0,0c0,0,0,0,0,0c0,0,0,0,0,0c0,0,0,0,0,0c0,0,0,0,0,0c0,0,0,0,0,0
				c0,0,0,0,0,0c0,0,0,0,0,0c0,0,0,0,0,0c0,0,0,0,0,0c0,0-0.1,0-0.1,0c0,0-0.2,0-0.2,0c0,0-0.3,0-0.3,0c0,0-0.7,0-0.7-0.1v0
				c0-0.2,1.3-1.4,1.4-1.4h0.4c2-4.1,4.4-7.8,7-11.6L932.5,4468.2L932.5,4468.2z M960.1,4441.1c-5.4,3.6-10.4,7.8-15,12.3l13.9,14.1
				c3.8-3.7,7.9-7.1,12.2-10L960.1,4441.1L960.1,4441.1z M995.6,4425.6c-6.3,1.5-12.6,3.5-18.5,6.1l7.9,18.2
				c2.2-0.9,5.2-1.8,6.6-2.5v0.1c0-0.1,0.6,0,0.9,0h0c0,0,0,0,0.1,0c0,0,0,0,0,0c0,0,0-0.1,0.1-0.1c0,0,0-0.1,0-0.1
				c0,0,0,0.2,0.1,0.2c0,0,0,0,0,0c0,0,0,0,0.1,0c0,0,0,0,0,0c0.2,0-1.1-0.4,1.6-0.5v-0.3c0,0-0.4,0.7-0.4,0.7h-0.4
				c2.2-1.4,4.4-1.7,6.6-2.2L995.6,4425.6L995.6,4425.6z M1020,4422.9c-1.4,0-3.3,0.2-4.9,0.3l0.6,20c0.8,0,1.6,0.3,2.3,0.3h0
				c0,0,0,0,0.1,0h0c0.1,0,0.2,0,0.3,0c0,0,0,0,0,0c0,0,0,0,0.1,0c0,0,0,0,0,0c0,0,0,0,0.1,0c0,0,0,0,0,0c0,0,0,0,0.1,0c0,0,0,0,0,0
				c0,0,0.1,0,0.1,0c0,0,0,0,0,0c0,0,0,0,0.1,0c0,0,0,0,0,0c0,0,0,0,0,0c0,0,0,0,0,0c0,0,0,0,0,0c0,0,0,0,0,0c0,0,0,0,0,0
				c0,0,0,0,0,0c0,0,0.1,0,0.1,0c0,0,0,0,0,0c0,0,0,0,0,0c0,0,0,0,0,0c0,0,0,0,0,0c0,0,0,0,0,0c0,0,0,0,0,0c0,0,0,0,0,0c0,0,0,0,0,0
				c0,0,0,0,0,0c0,0,0.5,0,0.5,0V4422.9L1020,4422.9z"/>
		</g>
	</g>
	<path class="st8" d="M752.5,2212l-24.1,144.2c0,0,6.1,57.4,113,49.7s87.7-78,87.7-78L864.1,2183L752.5,2212z"/>
	<polygon class="st1" points="2424.7,1303.2 2419.4,1294.8 3586.7,550.8 3565.6,549.1 2406.9,1275.4 2401.6,1267 3563.1,538.9 
		3617.2,543.2 	"/>
	<g>
		<circle class="st19" cx="3598" cy="458.4" r="95.6"/>
		<path class="st20" d="M3598,382.8c41.7,0,75.6,33.9,75.6,75.6c0,41.7-33.9,75.6-75.6,75.6c-41.7,0-75.6-33.9-75.6-75.6
			C3522.3,416.7,3556.2,382.8,3598,382.8 M3598,362.8c-52.8,0-95.6,42.8-95.6,95.6c0,52.8,42.8,95.6,95.6,95.6
			c52.8,0,95.6-42.8,95.6-95.6C3693.6,405.6,3650.8,362.8,3598,362.8L3598,362.8z"/>
	</g>
	<g>
		<circle class="st19" cx="3960.8" cy="501.3" r="131.5"/>
		<path class="st20" d="M3960.8,409.8c50.4,0,91.5,41,91.5,91.5s-41,91.5-91.5,91.5c-50.4,0-91.5-41-91.5-91.5
			S3910.4,409.8,3960.8,409.8 M3960.8,369.8c-72.6,0-131.5,58.9-131.5,131.5s58.9,131.5,131.5,131.5c72.6,0,131.5-58.9,131.5-131.5
			S4033.4,369.8,3960.8,369.8L3960.8,369.8z"/>
	</g>
	<path class="st6" d="M3816.3,325.2l-46.7-12.9c0,0-104.3,89-131.5,89c-27.1,0-70.7-5.5-86.9,43.4c-23.3,70.7,82.2,185,82.2,185
		L3816.3,325.2z"/>
	<polygon class="st1" points="1163.6,2090.6 1158.5,2082 2132.7,1499.8 2128.7,1493.6 1148.6,2077 1134.2,2056.1 2111.7,1467.1 
		2103.3,1454 1133,2045.9 1127.8,2037.4 2106.4,1440.4 2125.7,1470.4 1148.5,2059.2 1151.5,2063.6 2131.9,1480.1 2146.7,1503.1 	"/>
	<circle class="st19" cx="3598.1" cy="458.3" r="18.3"/>
	<path class="st6" d="M3793.3,694.5l48.4-1.8c0,0,72.5-116.4,98.4-124.6c25.9-8.2,69.1-16.2,69.6-67.7
		c0.8-74.4-134.3-151.5-134.3-151.5L3793.3,694.5z"/>
	
		<ellipse transform="matrix(0.9531 -0.3026 0.3026 0.9531 33.93 1222.2291)" class="st19" cx="3961" cy="501.6" rx="18.3" ry="18.3"/>
	<path class="st4" d="M3540,771l215,118l120-418c0,0,38.1-120.8-27-148c-68.6-28.6-124,80-124,80L3540,771z"/>
	<g>
		<path class="st3" d="M2901,1889c0,0-45.6,0.5-54.2,24.4c-8.5,23.9,51.2,69.9,51.2,69.9L2794,2217l47.8,47.8L2978,1889H2901z
			 M2883.5,1937.2c-8,0-14.5-6.5-14.5-14.5s6.5-14.5,14.5-14.5s14.5,6.5,14.5,14.5S2891.5,1937.2,2883.5,1937.2z"/>
	</g>
	<g>
		
			<rect x="2681.9" y="2359.3" transform="matrix(0.6516 -0.7586 0.7586 0.6516 -877.0161 2869.0212)" class="st3" width="6" height="60"/>
		<path class="st3" d="M2571.9,2566.8l-45.5-39.1l7.9-9.2l45.5,39.1L2571.9,2566.8z M2583.1,2553.8l-45.5-39.1l7.9-9.2l45.5,39.1
			L2583.1,2553.8z M2594.2,2540.8l-45.5-39.1l7.9-9.2l45.5,39.1L2594.2,2540.8z M2605.4,2527.9l-45.5-39.1l7.9-9.2l45.5,39.1
			L2605.4,2527.9z M2616.5,2514.9l-45.5-39.1l7.9-9.2l45.5,39.1L2616.5,2514.9z M2627.6,2501.9l-45.5-39.1l7.9-9.2l45.5,39.1
			L2627.6,2501.9z M2638.8,2488.9l-45.5-39.1l7.9-9.2l45.5,39.1L2638.8,2488.9z M2649.9,2476l-45.5-39.1l7.9-9.2l45.5,39.1
			L2649.9,2476z M2661.1,2463l-45.5-39.1l7.9-9.2l45.5,39.1L2661.1,2463z M2672.2,2450l-45.5-39.1l7.9-9.2l45.5,39.1L2672.2,2450z
			 M2683.4,2437l-45.5-39.1l7.9-9.2l45.5,39.1L2683.4,2437z M2694.5,2424.1L2649,2385l7.9-9.2l45.5,39.1L2694.5,2424.1z"/>
		
			<rect x="2540.9" y="2523.3" transform="matrix(0.6516 -0.7585 0.7585 0.6516 -1050.5518 2819.1472)" class="st3" width="6" height="60"/>
	</g>
	<circle class="st3" cx="1750.9" cy="3460" r="27.4"/>
	<circle class="st3" cx="806.9" cy="2260" r="27.4"/>
	<path class="st3" d="M1406.3,3184c-8.4,6.7-9.8,19-3.1,27.4s19,9.8,27.4,3.1l36.4-28.9l-24.2-30.5L1406.3,3184z"/>
	<path class="st3" d="M1401.5,2887.4l-36.6,28.7l24.1,30.7l36.6-28.7c8.5-6.7,9.9-18.9,3.3-27.4
		C1422.3,2882.3,1410,2880.8,1401.5,2887.4z"/>
	<circle class="st5" cx="1419.7" cy="3198.9" r="8.3"/>
	<circle class="st5" cx="1413.7" cy="2901.9" r="8.3"/>
	<path class="st3" d="M1115.1,2824.4c-8.6,6.8-10.1,19.2-3.2,27.8c6.8,8.5,19.4,10,28,3.2l37.2-29.3l-24.8-31L1115.1,2824.4z"/>
	<path class="st3" d="M1109.5,2527.4l-36.6,28.7l24.1,30.7l36.6-28.7c8.5-6.7,9.9-18.9,3.3-27.4
		C1130.3,2522.3,1118,2520.8,1109.5,2527.4z"/>
	<ellipse class="st5" cx="1128.7" cy="2839.5" rx="8.5" ry="8.4"/>
	<circle class="st5" cx="1121.7" cy="2541.9" r="8.3"/>
	<circle class="st21" cx="3997.6" cy="1641.4" r="114.3"/>
	<circle class="st19" cx="3997.8" cy="1641.6" r="79"/>
	<path class="st4" d="M4073.2,1954.6c0,11.5-9.3,20.8-20.8,20.8h-112.2c-11.5,0-20.8-9.3-20.8-20.8l-36-178.8
		c0-11.5,82.6-122.9,94.1-122.9h40.2c11.5,0,94.4,111.4,94.4,122.9L4073.2,1954.6z"/>
	<path class="st22" d="M3978.2,1975.4v35c0,0-2.8,31.7,19.5,35c16.9,2.5,55.7,1.3,74.5,26.3c18.8,25,12.1,60.4,0,83.9
		c-10.6,20.5-31.4,41.1-74.5,37.6c-45.7-3.8-73.2-27.5-74.5-46.3c0,0,0,58.6,74.5,72.6c61.5,11.5,91.6-8.8,108.3-33.8
		c18.4-27.6,27.5-48.8,24.3-91.2c-2.4-30.8-17.9-65.1-57.6-81.6c-36.9-15.4-45.4-11.3-45.4-11.3v-26.1H3978.2z"/>
	<polygon points="3895.8,1837.5 3889.6,1806.6 4042.2,1676.3 4059.7,1697.9 	"/>
	<path d="M3884.1,1778.3c-3.7-10.2,50.3-79.2,50.3-79.2l54.1-46.2h30.8l6,5.1L3884.1,1778.3z"/>
	<polygon points="3908.1,1898.4 3901.9,1867.4 4075,1718 4091.7,1741.2 	"/>
	<polygon points="3978,1975.4 3935.8,1975.4 4099.4,1833.9 4089.7,1879 	"/>
	<path d="M3921.7,1964.1l-6.9-32.4l189-172.4c0,0,3.3,0.4,7,9.5s-2.3,23.4-2.3,23.4L3921.7,1964.1z"/>
	<polygon points="4017.6,1975.4 4079.3,1926.2 4073,1957.3 4052.4,1975.4 	"/>
	<g>
		<rect x="3243.3" y="2412.7" class="st4" width="1589.7" height="751.7"/>
		<polygon points="3366.3,2412.7 3243.3,2524.1 3243.3,2412.7 		"/>
		<polygon points="3525,2412.7 3243.3,2666.7 3243.3,2799.3 3656.8,2412.7 		"/>
		<polygon points="3838.1,2412.7 3243.3,2959 3243.3,3091.5 3970,2412.7 		"/>
		<polygon points="4151.3,2412.7 3329.7,3166.9 3476.1,3166.9 4283.2,2412.7 		"/>
		<polygon points="4465.4,2412.7 3643.1,3164.3 3791.8,3167 4597.3,2412.7 		"/>
		<polygon points="4787.6,2412.7 3970,3164.4 4116.7,3164.4 4833,2493.7 4833,2412.7 		"/>
		<polygon points="4834.5,2654.5 4282.7,3164.4 4424.1,3164.4 4832.7,2782.8 		"/>
		<polygon points="4833,2915.2 4558.7,3167 4699.3,3166.8 4833,3039.5 		"/>
		<rect x="3407" y="2552" class="st23" width="1261.6" height="473"/>
		<g>
			<path d="M3756.5,2676.9l-5.7-14.6c-1.3-2.7-2.4-4.6-3.2-5.9c-0.9-1.3-2.7-2.2-5.6-2.6l-4.3-0.6v-2.2h60.7v2.2h-1.9
				c-0.6,0-1.8,0.2-3.6,0.5c-1.7,0.3-3.2,0.7-4.4,1.2c-1.2,0.5-1.8,1.8-1.8,4.1c0,2.1,0.6,5.1,1.9,8.8c1.2,3.8,2.7,8,4.3,12.6
				c1.7,4.6,3.8,10.6,6.5,18c2.7,7.4,4.6,12.7,5.8,16c1.2-3.1,2.6-6.9,4.3-11.3c1.7-4.4,4-10.6,7-18.7c3-8,4.9-13.6,5.9-16.6
				c0.9-3,1.4-5.6,1.4-7.8c0-2.1-0.6-3.6-1.7-4.6c-1.1-0.9-2.4-1.5-4-1.7c-1.6-0.2-3-0.4-4.4-0.4c-1.4,0-2.7-0.1-3.9-0.2v-2.2h35.6
				v2.2l-6.1,0.7c-2.9,0.5-5.3,1.3-6.9,2.5c-1.7,1.2-3.1,3.3-4.4,6.3l-4.1,10.6l-29.6,78.8h-11l-25.1-71.2l-26.4,71.2h-11
				l-28.2-79.1l-4.3-10.8c-1.4-2.9-2.6-5-3.8-6.3c-1.2-1.2-2.9-2-5.2-2.3l-4.8-0.6v-2.2h59.6v2.2l-4.4,0.4c-2.1,0.3-3.6,0.7-4.5,1.3
				c-0.9,0.6-1.3,1.7-1.3,3.4c0,2,0.8,5.3,2.3,9.7c1.5,4.5,3.4,9.9,5.7,16.2c2.3,6.3,4.4,12,6.2,16.8c1.8,4.9,3.4,8.9,4.6,12.1
				L3756.5,2676.9z"/>
			<path d="M3903.3,2748.8c3.9-0.1,7.8-0.2,11.9-0.2c4,0,8.3-0.4,12.8-1c4.5-0.6,10.1-5.2,16.7-13.7c6.6-8.5,11.5-17.3,14.6-26.3
				h2.2v43.9h-108.5v-2.2c1.2,0,2.6-0.1,4.1-0.2c1.6-0.1,3.3-0.3,5.3-0.6c2-0.2,3.5-0.9,4.6-2.1c1.1-1.1,1.7-3.2,2-6.1l0.3-6.3
				v-65.4l-0.3-6.3c-0.3-2.9-1-5-2.1-6.2c-1.1-1.2-2.6-1.9-4.6-2.2c-2-0.3-3.8-0.4-5.4-0.5c-1.6,0-3.1-0.1-4.3-0.2v-2.2h106.1v40.8
				h-2.2c-4.7-10.3-10.4-19-17.1-26c-6.7-7-12.4-10.8-16.9-11.2c-4.6-0.5-8.4-0.7-11.5-0.8c-3.1-0.1-5.2-0.1-6.2-0.1h-1.2l-0.3,45.3
				l5.8-0.3c5.3-0.6,9.4-3.1,12.1-7.5c2.7-4.5,4.1-9.7,4.1-15.8h2.6v50.2h-2.6c0-6.2-1.4-11.5-4.1-16.1c-2.7-4.6-6.7-7.2-12.1-7.7
				l-5.8-0.3V2748.8z"/>
			<path d="M4045.2,2720.1l-4.3,14.4c-0.9,3.3-1.4,5.9-1.4,7.9c0,2.1,0.5,3.6,1.6,4.4c1.1,0.8,2.4,1.4,4.1,1.7
				c1.7,0.3,3.3,0.5,4.8,0.6c1.6,0.1,3.1,0.2,4.6,0.3v2.2h-39.1v-2.2l8.2-0.6c3.1-0.4,5.4-1.1,6.9-2.3c1.6-1.1,2.8-2.6,3.5-4.3
				c0.8-1.7,1.7-3.8,2.6-6.2c1-2.4,1.8-4.6,2.4-6.5l26.4-78.9h15.2l29.1,78.9l4.3,10.8c1.3,2.9,2.6,4.9,3.9,6.1
				c1.3,1.2,3.2,2,5.6,2.4l5.7,0.6v2.2h-65.6v-2.2c1.1,0,2.1,0,3-0.1c0.9,0,2.5-0.3,4.8-0.6c2.3-0.4,4-0.8,5-1.4
				c1-0.6,1.5-1.9,1.5-3.8c0-2-0.6-4.9-1.9-8.7l-5-14.6H4045.2z M4070,2717.2l-12.1-33.9l-11.7,33.9H4070z"/>
			<path d="M4189.8,2701.4v32.3l0.3,6.3c0.3,2.9,1,5.1,2.2,6.3c1.2,1.3,3.2,2.1,6.1,2.5l7,0.6v2.2h-66.2v-2.2h4.3
				c2-0.3,4-0.5,5.8-0.8c1.8-0.2,3.3-0.9,4.3-2.1c1.1-1.1,1.7-3.2,2-6.1l0.3-6.3v-65.4l-0.3-6.3c-0.3-2.9-1-5-2.1-6.2
				c-1.1-1.2-2.7-1.9-4.7-2.2c-2-0.3-3.8-0.4-5.2-0.5c-1.5,0-2.9-0.1-4.1-0.2v-2.2l61.7-0.1c8.6,0,15.5,0.4,20.8,1.1
				c5.3,0.7,9.7,2.2,13,4.4c3.4,2.2,6,4.9,8,8.2c2,3.3,3,7.1,3,11.4c0,3.2-0.6,6.4-1.7,9.7c-1.2,3.2-2.9,6-5.3,8.3
				c-2.4,2.3-5.4,4.1-8.9,5.4c-3.5,1.3-9.2,1.9-16.9,1.9v1c4.7,1,8.6,2,11.8,2.9s6,2.3,8.6,4c2.6,1.8,4.9,4.4,7,7.8s3.7,7.2,5,11.4
				c1.3,4.1,2.4,7,3.5,8.7c1,1.7,2.4,2.6,4.3,2.6c2.4,0,4-1.5,4.8-4.6c0.8-3.1,1.2-6.6,1.2-10.6h2.2c0,4.5-0.3,8.1-0.8,10.8
				c-0.6,2.7-1.9,5.5-4.1,8.3c-2.2,2.9-5.4,5.2-9.5,7c-4.1,1.8-8.5,2.7-13.3,2.7c-7.5,0-13.4-2.1-17.9-6.4
				c-4.5-4.3-7.2-9.9-8.3-16.9c-1.1-7-1.9-12.8-2.6-17.6c-1-5.3-2.3-8.5-4-9.3c-1.7-0.9-3.5-1.4-5.4-1.5
				C4193.7,2701.4,4191.8,2701.4,4189.8,2701.4z M4200.9,2698.5c3.5-0.6,6.1-3.1,7.9-7.6c1.8-4.5,2.7-9.5,2.7-15
				c0-4.5-0.9-8.9-2.8-13.3c-1.8-4.4-4-6.9-6.6-7.7c-2.6-0.7-4.9-1.1-6.9-1.2c-2-0.1-3.8-0.2-5.4-0.3v45.5h4.7
				C4197.1,2698.9,4199.2,2698.7,4200.9,2698.5z"/>
			<path d="M4325.3,2748.8c3.9-0.1,7.8-0.2,11.9-0.2c4,0,8.3-0.4,12.8-1c4.5-0.6,10.1-5.2,16.7-13.7c6.6-8.5,11.5-17.3,14.6-26.3
				h2.2v43.9h-108.5v-2.2c1.2,0,2.6-0.1,4.1-0.2c1.6-0.1,3.3-0.3,5.3-0.6c2-0.2,3.5-0.9,4.6-2.1c1.1-1.1,1.7-3.2,2-6.1l0.3-6.3
				v-65.4l-0.3-6.3c-0.3-2.9-1-5-2.1-6.2c-1.1-1.2-2.6-1.9-4.6-2.2c-2-0.3-3.8-0.4-5.4-0.5c-1.6,0-3.1-0.1-4.3-0.2v-2.2h106.1v40.8
				h-2.2c-4.7-10.3-10.4-19-17.1-26c-6.7-7-12.4-10.8-16.9-11.2c-4.6-0.5-8.4-0.7-11.5-0.8c-3.1-0.1-5.2-0.1-6.2-0.1h-1.2l-0.3,45.3
				l5.8-0.3c5.3-0.6,9.4-3.1,12.1-7.5c2.7-4.5,4.1-9.7,4.1-15.8h2.6v50.2h-2.6c0-6.2-1.4-11.5-4.1-16.1c-2.7-4.6-6.7-7.2-12.1-7.7
				l-5.8-0.3V2748.8z"/>
			<path d="M3723.3,2808.1v64.4l0.3,6.6c0.3,2.9,1,5.2,2.3,6.7c1.2,1.5,3.3,2.5,6.1,2.8l9.7,0.7v2.2h-39.7v-2.2
				c1.4-0.1,2.9-0.2,4.5-0.2c1.6,0,3.6-0.2,5.9-0.6c2.3-0.3,4.1-1.3,5.5-2.8c1.3-1.6,2.1-3.8,2.4-6.6l0.3-6.6v-64l-0.3-6.3
				c-0.6-2.2-1.6-4-3-5.5c-1.3-1.5-3-2.3-4.9-2.6c-1.9-0.3-3.8-0.5-5.6-0.6c-1.9-0.1-3.2-0.2-4.2-0.3v-2.2h51.1l23.2,59.9l20.9-59.9
				h49.7v2.2h-3.2c-0.9,0-2.8,0.2-5.7,0.6c-2.9,0.4-4.9,1.2-6,2.3c-1.1,1.2-1.8,3.3-2.1,6.2l-0.3,6.3v65.4l0.3,6.3
				c0.3,2.9,0.9,5,1.9,6.1c1,1.2,2.9,1.9,5.7,2.3l6.9,0.6v2.2H3782v-2.2l6.3-0.4c2.9-0.4,4.9-1.1,5.8-2.1c0.9-1,1.5-3.1,1.8-6.2
				l0.3-6.3v-51.2c0-2.9,0.1-6.2,0.3-10.1c0.2-3.9,0.5-7.6,0.8-11h-0.8l-5.7,17.8l-24.4,71.8h-8.6l-33.7-83.5H3723.3z"/>
			<path d="M3978.2,2841.4c0,14.7-5.6,27-16.7,37c-11.1,9.9-24.3,14.9-39.5,14.9c-15.8,0-29-4.9-39.7-14.7
				c-10.6-9.8-15.9-22.2-15.9-37.2c0-15.5,5.4-28,16.3-37.5c10.9-9.6,24-14.4,39.3-14.4c15.4,0,28.6,4.9,39.6,14.6
				C3972.7,2813.7,3978.2,2826.2,3978.2,2841.4z M3936.3,2803.7c-2.8-7.7-7.5-11.6-14.2-11.6c-3.4,0-6.3,1.1-8.8,3.3
				c-2.5,2.2-4.4,5.4-5.7,9.6c-1.3,4.2-2.3,9.6-2.9,16.1c-0.6,6.6-0.9,13.3-0.9,20.2c0,9.5,0.4,17.2,1.1,23.2
				c0.7,6,2.1,11.8,4.1,17.5c2,5.7,6.4,8.6,13.1,8.6c3.4,0,6.3-1.1,8.8-3.3c2.5-2.2,4.4-5.4,5.7-9.6c1.3-4.2,2.3-9.6,2.9-16.1
				c0.6-6.6,0.9-13.3,0.9-20.2c0-8.2-0.3-15.3-0.8-21.3C3939,2814,3937.9,2808.6,3936.3,2803.7z"/>
			<path d="M4103.9,2793.2c-0.8,0.1-1.8,0.2-2.9,0.2c-1.1,0-2.8,0.3-5.2,0.6c-2.4,0.4-4.4,1.2-6,2.3c-1.7,1.2-3.1,3.3-4.4,6.3
				l-4.1,10.6l-27.8,78.8h-14.2l-28.2-79.1l-4.3-10.8c-1.4-2.9-2.7-5-4-6.3c-1.3-1.2-3.1-2-5.5-2.3l-5.7-0.6v-2.2h63.9v2.2l-6.1,0.6
				c-2,0.4-3.7,0.8-4.9,1.2c-1.2,0.5-1.9,1.9-1.9,4.3c0,1.7,0.7,4.5,2,8.6c1.3,4,3.3,9.7,6,16.9c2.7,7.2,6.7,17.9,12,31.9
				c3.2-8.6,6.5-17.6,9.8-26.8c3.3-9.2,5.6-15.9,6.8-20c1.2-4.1,1.8-7.2,1.8-9.2c0-2.3-0.6-3.9-1.7-4.8c-1.1-0.9-2.4-1.5-3.9-1.9
				c-1.5-0.3-2.9-0.5-4.3-0.6c-1.4,0-2.7-0.1-3.9-0.2v-2.2h36.7V2793.2z"/>
			<path d="M4160.9,2888.8c3.9-0.1,7.8-0.2,11.9-0.2c4,0,8.3-0.4,12.8-1c4.5-0.6,10.1-5.2,16.7-13.7c6.6-8.5,11.5-17.3,14.6-26.3
				h2.2v43.9h-108.5v-2.2c1.2,0,2.6-0.1,4.1-0.2c1.6-0.1,3.3-0.3,5.3-0.6c2-0.2,3.5-0.9,4.6-2.1c1.1-1.1,1.7-3.2,2-6.1l0.3-6.3
				v-65.4l-0.3-6.3c-0.3-2.9-1-5-2.1-6.2c-1.1-1.2-2.6-1.9-4.6-2.2c-2-0.3-3.8-0.4-5.4-0.5c-1.6,0-3.1-0.1-4.3-0.2v-2.2h106.1v40.8
				h-2.2c-4.7-10.3-10.4-19-17.1-26c-6.7-7-12.4-10.8-16.9-11.2c-4.6-0.5-8.4-0.7-11.5-0.8c-3.1-0.1-5.2-0.1-6.2-0.1h-1.2l-0.3,45.3
				l5.8-0.3c5.3-0.6,9.4-3.1,12.1-7.5c2.7-4.5,4.1-9.7,4.1-15.8h2.6v50.2h-2.6c0-6.2-1.4-11.5-4.1-16.1c-2.7-4.6-6.7-7.2-12.1-7.7
				l-5.8-0.3V2888.8z"/>
			<path d="M4240.1,2891.6v-2.2c1.2,0,2.6-0.1,4.1-0.2c1.6-0.1,3.3-0.3,5.3-0.6c2-0.2,3.5-0.9,4.6-2.1c1.1-1.1,1.7-3.2,2-6.1
				l0.3-6.3v-65.4l-0.3-6.3c-0.3-2.9-1-5-2.1-6.2c-1.1-1.2-2.6-1.9-4.6-2.2c-2-0.3-3.8-0.4-5.4-0.5c-1.6,0-3.1-0.1-4.3-0.2v-2.2
				l51.5-0.3c10.8,0,20.9,1,30.4,3c9.5,2,18.3,7.2,26.4,15.5c8,8.3,12.1,20,12.1,35.1c0,14.4-3.6,25.1-10.8,31.9
				c-7.2,6.9-14.9,11.1-22.9,12.8c-8.1,1.7-17.4,2.6-28.1,2.6H4240.1z M4305,2795c-1.3-0.6-3.3-0.9-6-1.1c-2.7-0.2-5-0.3-7-0.3h-1.7
				v95.4c0.6,0,1.2,0,1.8,0.1c0.6,0,1.2,0.1,2.1,0.1c3.5,0,6.7-0.2,9.6-0.7c2.9-0.5,5.6-1.6,8.1-3.5c2.5-1.9,5-6.9,7.3-15
				c2.3-8.1,3.5-16.5,3.5-25c0-12-1.4-22.7-4.3-32.1C4315.5,2803.3,4311.1,2797.4,4305,2795z"/>
		</g>
		<path class="st1" d="M4048.2,2182.7l-16.7-4.9l-1.8-0.5l-786.4,235.1l3.6,12l782.9-234C4029.7,2190.3,4041.1,2188,4048.2,2182.7z"
			/>
		<polygon class="st1" points="4097,2197 4833.3,2412.4 4829.7,2424.4 4085.9,2206.8 		"/>
	</g>
	<polygon points="3740.9,859.6 3612,684.9 3629.1,647.4 3754.3,817 	"/>
	<polygon points="3766.9,794.6 3639,618.9 3656.1,581.4 3780.3,752 	"/>
	<polygon points="3786.9,724.6 3667,562.9 3684.1,525.4 3800.3,682 	"/>
	<polygon points="3807.9,647.6 3698,497.9 3715.1,460.4 3821.3,605 	"/>
	<polygon points="3825.9,573.6 3728,439.9 3745.1,402.4 3839.3,531 	"/>
	<polygon points="3844.9,494.6 3762,381.9 3786.1,353.8 3858.3,452 	"/>
	<polygon points="3866.9,424.6 3804,339.1 3843.2,332.2 3870.5,369.8 	"/>
	<polygon points="3638.7,825.2 3582,747.9 3599.1,710.4 3713,866 	"/>
	<rect x="2270" y="3390" class="st12" width="49" height="374"/>
	<polygon class="st12" points="2715.5,3424 2319,3424 2319,3390 2695,3390 	"/>
	<polygon class="st24" points="2319.4,3424 2583.2,3764 2701,3764 2429.9,3424 	"/>
	<polygon class="st24" points="2460,3424 2730.1,3764 2751,3764 2483.8,3424 	"/>
	<path class="st25" d="M4698.8,4845c0,45.8-43.8,83-97.9,83H282c-54.1,0-97.9-37.2-97.9-83v-4c0-45.8,43.8-83,97.9-88h4319
		c54.1,5,97.9,42.2,97.9,88V4845z"/>
</g>
</svg>
