<?xml version="1.0" encoding="utf-8"?>
<!-- Generator: Adobe Illustrator 21.0.2, SVG Export Plug-In . SVG Version: 6.00 Build 0)  -->
<svg version="1.1" id="Слой_1" xmlns="http://www.w3.org/2000/svg" xmlns:xlink="http://www.w3.org/1999/xlink" x="0px" y="0px"
	 viewBox="0 0 1200 1200" style="enable-background:new 0 0 1200 1200;" xml:space="preserve">
<style type="text/css">
	.st0{display:none;clip-path:url(#SVGID_2_);fill:#FFD900;}
	.st1{clip-path:url(#SVGID_2_);}
	.st2{opacity:0.2;}
	.st3{fill:#FFFFFF;}
	.st4{fill:#C2C2C2;}
	.st5{fill:#FFFEFF;}
	.st6{opacity:0.2;fill:#FFFFFF;}
	.st7{fill:#FFC400;}
	.st8{fill:#FFD900;}
	.st9{fill:#4A5361;}
	.st10{opacity:0.2;fill:#FFFEFF;}
	.st11{fill:#586273;}
	.st12{fill:#44403E;}
	.st13{opacity:0.2;fill:url(#SVGID_3_);}
	.st14{opacity:0.2;fill:none;}
	.st15{display:none;fill:#586273;}
	.st16{font-family:'ShowcardGothic-Reg';}
	.st17{font-size:44.2764px;}
</style>
<g>
	<defs>
		<rect id="SVGID_1_" width="1200" height="1200"/>
	</defs>
	<clipPath id="SVGID_2_">
		<use xlink:href="#SVGID_1_"  style="overflow:visible;"/>
	</clipPath>
	<rect class="st0" width="1200" height="1200"/>
	<g class="st1">
		<g>
			<g class="st2">
				<g>
					<g>
						<g>
							<rect x="624.6" y="208.6" class="st3" width="2.9" height="95.2"/>
						</g>
					</g>
					<g>
						<g>
							<circle class="st3" cx="626" cy="299.4" r="5.9"/>
						</g>
					</g>
					<g>
						<path class="st3" d="M630.7,313.2h-9.4c-1.9,0-3.4-1.5-3.4-3.4v-9c0-1.9,1.5-3.4,3.4-3.4h9.4c1.9,0,3.4,1.5,3.4,3.4v9
							C634.1,311.7,632.6,313.2,630.7,313.2z"/>
					</g>
					<g>
						<path class="st3" d="M612.4,347.4c-6.2,0-9.8-2.6-11.8-4.7c-4.8-5.4-4.2-13-4.2-13.8c0.2-2.5,2.5-4.3,5-4.1
							c2.5,0.3,4.3,2.5,4.1,5c-0.1,1.2,0,4.8,1.9,6.9c1.1,1.2,2.7,1.7,5,1.7c6.4,0,9.1-2.7,9.1-8.9v-18.1c0-2.5,2-4.5,4.5-4.5
							s4.5,2,4.5,4.5v18.1C630.5,340.7,623.7,347.4,612.4,347.4z"/>
					</g>
				</g>
				<g>
					<g>
						<g>
							<rect x="138.6" y="175.4" class="st4" width="70" height="39.4"/>
						</g>
					</g>
					<g>
						<g>
							<rect x="125.7" y="175.4" class="st4" width="61.1" height="39.4"/>
						</g>
					</g>
					<g>
						<g>
							<path class="st4" d="M339.2,231v-12.3h-45.1V286H326c7.3,0,13.2-7,13.2-15.6v-17.8h-6.9V231H339.2z M326.7,231v21.6h-22.2
								V231H326.7z"/>
						</g>
					</g>
					<g>
						<g>
							<rect x="293" y="699.6" class="st3" width="36.4" height="3.7"/>
						</g>
					</g>
					<g>
						<g>
							<path class="st4" d="M220.3,213.4v505h75.3v-505H220.3z M228.9,709.8V221.9H287v487.8H228.9z"/>
						</g>
					</g>
					<g>
						<g>
							
								<rect x="255.9" y="624.2" transform="matrix(0.7072 -0.7071 0.7071 0.7072 -398.0596 379.2497)" class="st4" width="5.7" height="91.9"/>
						</g>
					</g>
					<g>
						<g>
							
								<rect x="255.9" y="563.2" transform="matrix(0.7071 -0.7071 0.7071 0.7071 -354.9443 361.4049)" class="st4" width="5.7" height="91.9"/>
						</g>
					</g>
					<g>
						<g>
							
								<rect x="255.9" y="502.3" transform="matrix(0.7071 -0.7071 0.7071 0.7071 -311.8211 343.5436)" class="st4" width="5.7" height="91.9"/>
						</g>
					</g>
					<g>
						<g>
							
								<rect x="255.9" y="441.3" transform="matrix(0.7072 -0.7071 0.7071 0.7072 -268.694 325.6693)" class="st4" width="5.7" height="91.9"/>
						</g>
					</g>
					<g>
						<g>
							
								<rect x="212.9" y="667.3" transform="matrix(0.7071 -0.7071 0.7071 0.7071 -398.0769 379.2888)" class="st4" width="91.9" height="5.7"/>
						</g>
					</g>
					<g>
						<g>
							
								<rect x="212.9" y="606.3" transform="matrix(0.7071 -0.7071 0.7071 0.7071 -354.9525 361.4253)" class="st4" width="91.9" height="5.7"/>
						</g>
					</g>
					<g>
						<g>
							
								<rect x="212.9" y="545.3" transform="matrix(0.7071 -0.7071 0.7071 0.7071 -311.8309 343.571)" class="st4" width="91.9" height="5.7"/>
						</g>
					</g>
					<g>
						<g>
							
								<rect x="212.9" y="484.3" transform="matrix(0.7071 -0.7071 0.7071 0.7071 -268.7032 325.6995)" class="st4" width="91.9" height="5.7"/>
						</g>
					</g>
					<g>
						<g>
							
								<rect x="255.9" y="380.3" transform="matrix(0.7071 -0.7071 0.7071 0.7071 -225.5765 307.8272)" class="st4" width="5.7" height="91.9"/>
						</g>
					</g>
					<g>
						<g>
							
								<rect x="212.9" y="423.4" transform="matrix(0.7071 -0.7071 0.7071 0.7071 -225.5799 307.841)" class="st4" width="91.9" height="5.7"/>
						</g>
					</g>
					<g>
						<g>
							<rect x="228.4" y="390.6" class="st4" width="62.9" height="8.6"/>
						</g>
					</g>
					<g>
						<g>
							<rect x="228.4" y="452.2" class="st4" width="62.9" height="8.6"/>
						</g>
					</g>
					<g>
						<g>
							
								<rect x="255.9" y="318.8" transform="matrix(0.7071 -0.7071 0.7071 0.7071 -182.1108 289.8238)" class="st4" width="5.7" height="91.9"/>
						</g>
					</g>
					<g>
						<g>
							
								<rect x="212.9" y="361.9" transform="matrix(0.7071 -0.7071 0.7071 0.7071 -182.1128 289.8353)" class="st4" width="91.9" height="5.7"/>
						</g>
					</g>
					<g>
						<g>
							<rect x="228.4" y="329.2" class="st4" width="62.9" height="8.6"/>
						</g>
					</g>
					<g>
						<g>
							<rect x="228.4" y="390.7" class="st4" width="62.9" height="8.6"/>
						</g>
					</g>
					<g>
						<g>
							
								<rect x="255.9" y="264.3" transform="matrix(0.6993 -0.7148 0.7148 0.6993 -143.5659 278.1312)" class="st4" width="5.7" height="90.9"/>
						</g>
					</g>
					<g>
						<g>
							
								<rect x="213.4" y="306.8" transform="matrix(0.7149 -0.6992 0.6992 0.7149 -142.7698 269.2463)" class="st4" width="90.9" height="5.7"/>
						</g>
					</g>
					<g>
						<g>
							<rect x="228.4" y="274.8" class="st4" width="62.9" height="8.6"/>
						</g>
					</g>
					<g>
						<g>
							<rect x="228.4" y="329.2" class="st4" width="62.9" height="8.6"/>
						</g>
					</g>
					<g>
						<g>
							
								<rect x="255.9" y="203" transform="matrix(0.7071 -0.7071 0.7071 0.7071 -100.2336 255.9193)" class="st4" width="5.7" height="91.9"/>
						</g>
					</g>
					<g>
						<g>
							
								<rect x="212.9" y="246.1" transform="matrix(0.7071 -0.7071 0.7071 0.7071 -100.2336 255.9212)" class="st4" width="91.9" height="5.7"/>
						</g>
					</g>
					<g>
						<g>
							<rect x="252.7" y="213.4" class="st4" width="62.9" height="8.6"/>
						</g>
					</g>
					<g>
						<g>
							<rect x="228.4" y="274.9" class="st4" width="62.9" height="8.6"/>
						</g>
					</g>
					<g>
						<g>
							<rect x="228.4" y="512.7" class="st4" width="62.9" height="8.6"/>
						</g>
					</g>
					<g>
						<g>
							<rect x="228.4" y="573.3" class="st4" width="62.9" height="8.6"/>
						</g>
					</g>
					<g>
						<g>
							<rect x="228.4" y="633.9" class="st4" width="62.9" height="8.6"/>
						</g>
					</g>
					<g>
						<g>
							<path class="st4" d="M284,212.8l0.6,0.6h6.3v-0.6H284z M253.5,213.4h1.1v-0.6h-1.7L253.5,213.4z M621.1,201.1L591,174.8
								l-1.4-1.2l-3.3-2.9H202.8v47.8h420.1v-15.7L621.1,201.1z M208.6,212.8v-36.3h375.7l1.1,1l2.8,2.5l2.9,2.5l25.6,22.4l0.6,0.5
								v7.4H208.6z M252.9,212.8l0.6,0.6h1.1v-0.6H252.9z M284,212.8l0.6,0.6h6.3v-0.6H284z"/>
						</g>
					</g>
					<g>
						<g>
							
								<rect x="225" y="164.9" transform="matrix(0.7071 -0.7071 0.7071 0.7071 -70.8645 218.1008)" class="st4" width="5.7" height="59.5"/>
						</g>
					</g>
					<g>
						<g>
							<rect x="202.8" y="172.4" class="st4" width="5.7" height="43.2"/>
						</g>
					</g>
					<g>
						<g>
							<rect x="246" y="173.6" class="st4" width="5.7" height="42.1"/>
						</g>
					</g>
					<g>
						<g>
							
								<rect x="267" y="164.9" transform="matrix(0.7071 -0.7071 0.7071 0.7071 -58.5473 247.8436)" class="st4" width="5.7" height="59.5"/>
						</g>
					</g>
					<g>
						<g>
							<rect x="288.1" y="173.6" class="st4" width="5.7" height="42.1"/>
						</g>
					</g>
					<g>
						<g>
							
								<rect x="309.1" y="164.9" transform="matrix(0.7071 -0.7071 0.7071 0.7071 -46.2328 277.5702)" class="st4" width="5.7" height="59.5"/>
						</g>
					</g>
					<g>
						<g>
							<rect x="330.1" y="173.6" class="st4" width="5.7" height="42.1"/>
						</g>
					</g>
					<g>
						<g>
							
								<rect x="351.2" y="164.9" transform="matrix(0.7071 -0.7071 0.7071 0.7071 -33.9097 307.3293)" class="st4" width="5.7" height="59.5"/>
						</g>
					</g>
					<g>
						<g>
							<rect x="372.2" y="173.6" class="st4" width="5.7" height="42.1"/>
						</g>
					</g>
					<g>
						<g>
							
								<rect x="393.2" y="164.9" transform="matrix(0.7071 -0.7071 0.7071 0.7071 -21.592 337.0659)" class="st4" width="5.7" height="59.5"/>
						</g>
					</g>
					<g>
						<g>
							<rect x="414.2" y="173.6" class="st4" width="5.7" height="42.1"/>
						</g>
					</g>
					<g>
						<g>
							
								<rect x="435.3" y="164.9" transform="matrix(0.7071 -0.7071 0.7071 0.7071 -9.2785 366.7915)" class="st4" width="5.7" height="59.5"/>
						</g>
					</g>
					<g>
						<g>
							<rect x="456.3" y="173.6" class="st4" width="5.7" height="42.1"/>
						</g>
					</g>
					<g>
						<g>
							
								<rect x="477.3" y="164.9" transform="matrix(0.7071 -0.7071 0.7071 0.7071 3.0435 396.5392)" class="st4" width="5.7" height="59.5"/>
						</g>
					</g>
					<g>
						<g>
							<rect x="498.3" y="173.6" class="st4" width="5.7" height="42.1"/>
						</g>
					</g>
					<g>
						<g>
							
								<rect x="519.4" y="164.9" transform="matrix(0.7071 -0.7071 0.7071 0.7071 15.3527 426.2572)" class="st4" width="5.7" height="59.5"/>
						</g>
					</g>
					<g>
						<g>
							<rect x="540.4" y="173.6" class="st4" width="5.7" height="42.1"/>
						</g>
					</g>
					<g>
						<g>
							
								<rect x="561.4" y="164.9" transform="matrix(0.7071 -0.7071 0.7071 0.7071 27.6792 456.0129)" class="st4" width="5.7" height="59.5"/>
						</g>
					</g>
					<g>
						<g>
							<rect x="582.4" y="173.6" class="st4" width="5.7" height="42.1"/>
						</g>
					</g>
					<g>
						<g>
							<path class="st3" d="M223.1,213.4v505h75.3v-505H223.1z M289.9,709.8h-58.1V221.9h58.1V709.8z"/>
						</g>
					</g>
					<g>
						<g>
							
								<rect x="258.8" y="624.2" transform="matrix(0.7071 -0.7071 0.7071 0.7071 -397.2402 381.312)" class="st3" width="5.7" height="91.9"/>
						</g>
					</g>
					<g>
						<g>
							
								<rect x="258.8" y="563.2" transform="matrix(0.7071 -0.7071 0.7071 0.7071 -354.1221 363.4647)" class="st3" width="5.7" height="91.9"/>
						</g>
					</g>
					<g>
						<g>
							
								<rect x="258.8" y="502.3" transform="matrix(0.7071 -0.7071 0.7071 0.7071 -310.9963 345.6007)" class="st3" width="5.7" height="91.9"/>
						</g>
					</g>
					<g>
						<g>
							
								<rect x="258.8" y="441.3" transform="matrix(0.7071 -0.7071 0.7071 0.7071 -267.8665 327.7237)" class="st3" width="5.7" height="91.9"/>
						</g>
					</g>
					<g>
						<g>
							
								<rect x="215.7" y="667.3" transform="matrix(0.7071 -0.7071 0.7071 0.7071 -397.2406 381.313)" class="st3" width="91.9" height="5.7"/>
						</g>
					</g>
					<g>
						<g>
							
								<rect x="215.7" y="606.3" transform="matrix(0.7071 -0.7071 0.7071 0.7071 -354.116 363.4495)" class="st3" width="91.9" height="5.7"/>
						</g>
					</g>
					<g>
						<g>
							
								<rect x="215.7" y="545.3" transform="matrix(0.7071 -0.7071 0.7071 0.7071 -310.9942 345.5949)" class="st3" width="91.9" height="5.7"/>
						</g>
					</g>
					<g>
						<g>
							
								<rect x="215.7" y="484.3" transform="matrix(0.7071 -0.7071 0.7071 0.7071 -267.8664 327.7233)" class="st3" width="91.9" height="5.7"/>
						</g>
					</g>
					<g>
						<g>
							
								<rect x="258.8" y="380.3" transform="matrix(0.7071 -0.7071 0.7071 0.7071 -224.7463 309.879)" class="st3" width="5.7" height="91.9"/>
						</g>
					</g>
					<g>
						<g>
							
								<rect x="215.7" y="423.4" transform="matrix(0.7071 -0.7071 0.7071 0.7071 -224.7429 309.8647)" class="st3" width="91.9" height="5.7"/>
						</g>
					</g>
					<g>
						<g>
							<rect x="231.2" y="390.6" class="st3" width="62.9" height="8.6"/>
						</g>
					</g>
					<g>
						<g>
							<rect x="231.2" y="452.2" class="st3" width="62.9" height="8.6"/>
						</g>
					</g>
					<g>
						<g>
							
								<rect x="258.8" y="318.8" transform="matrix(0.7071 -0.7071 0.7071 0.7071 -181.2779 291.8729)" class="st3" width="5.7" height="91.9"/>
						</g>
					</g>
					<g>
						<g>
							
								<rect x="215.7" y="361.9" transform="matrix(0.7071 -0.7071 0.7071 0.7071 -181.2756 291.8588)" class="st3" width="91.9" height="5.7"/>
						</g>
					</g>
					<g>
						<g>
							<rect x="231.2" y="329.2" class="st3" width="62.9" height="8.6"/>
						</g>
					</g>
					<g>
						<g>
							<rect x="231.2" y="390.7" class="st3" width="62.9" height="8.6"/>
						</g>
					</g>
					<g>
						<g>
							
								<rect x="258.8" y="264.3" transform="matrix(0.6993 -0.7148 0.7148 0.6993 -142.7061 280.175)" class="st3" width="5.7" height="90.9"/>
						</g>
					</g>
					<g>
						<g>
							
								<rect x="216.2" y="306.8" transform="matrix(0.7149 -0.6992 0.6992 0.7149 -141.9547 271.2455)" class="st3" width="90.9" height="5.7"/>
						</g>
					</g>
					<g>
						<g>
							<rect x="231.2" y="274.8" class="st3" width="62.9" height="8.6"/>
						</g>
					</g>
					<g>
						<g>
							<rect x="231.2" y="329.2" class="st3" width="62.9" height="8.6"/>
						</g>
					</g>
					<g>
						<g>
							
								<rect x="258.8" y="203" transform="matrix(0.7071 -0.7072 0.7072 0.7071 -99.3956 257.9633)" class="st3" width="5.7" height="91.9"/>
						</g>
					</g>
					<g>
						<g>
							
								<rect x="215.7" y="246.1" transform="matrix(0.7071 -0.7071 0.7071 0.7071 -99.3961 257.9444)" class="st3" width="91.9" height="5.7"/>
						</g>
					</g>
					<g>
						<g>
							<rect x="255.5" y="213.4" class="st3" width="62.9" height="8.6"/>
						</g>
					</g>
					<g>
						<g>
							<rect x="231.2" y="274.9" class="st3" width="62.9" height="8.6"/>
						</g>
					</g>
					<g>
						<g>
							<rect x="231.2" y="512.7" class="st3" width="62.9" height="8.6"/>
						</g>
					</g>
					<g>
						<g>
							<rect x="231.2" y="573.3" class="st3" width="62.9" height="8.6"/>
						</g>
					</g>
					<g>
						<g>
							<rect x="231.2" y="633.9" class="st3" width="62.9" height="8.6"/>
						</g>
					</g>
					<g>
						<g>
							<path class="st3" d="M284,212.8l0.6,0.6h6.3v-0.6H284z M253.5,213.4h1.1v-0.6h-1.7L253.5,213.4z M623.1,200.4l-33.9-29.7
								H205.7v47.8h420.1v-15.7L623.1,200.4z M620.1,212.8H211.4v-36.3h375.7l1.1,0.9l2.9,2.5l26.8,23.5l2.3,2V212.8z M252.9,212.8
								l0.6,0.6h1.1v-0.6H252.9z M284,212.8l0.6,0.6h6.3v-0.6H284z"/>
						</g>
					</g>
					<g>
						<g>
							<path class="st3" d="M294.1,216.7V284H326c7.3,0,13.2-7,13.2-15.6v-15.9h-6.9V231h6.9v-14.3H294.1z M326.7,252.6h-22.2V231
								h22.2V252.6z"/>
						</g>
					</g>
					<g>
						<g>
							
								<rect x="227.9" y="164.9" transform="matrix(0.7071 -0.7071 0.7071 0.7071 -70.0262 220.1336)" class="st3" width="5.7" height="59.5"/>
						</g>
					</g>
					<g>
						<g>
							<rect x="205.7" y="172.4" class="st3" width="5.7" height="43.2"/>
						</g>
					</g>
					<g>
						<g>
							<rect x="248.9" y="173.6" class="st3" width="5.7" height="42.1"/>
						</g>
					</g>
					<g>
						<g>
							
								<rect x="269.9" y="164.9" transform="matrix(0.7071 -0.7071 0.7071 0.7071 -57.7093 249.8693)" class="st3" width="5.7" height="59.5"/>
						</g>
					</g>
					<g>
						<g>
							<rect x="290.9" y="173.6" class="st3" width="5.7" height="42.1"/>
						</g>
					</g>
					<g>
						<g>
							
								<rect x="312" y="164.9" transform="matrix(0.7071 -0.7071 0.7071 0.7071 -45.3931 279.6016)" class="st3" width="5.7" height="59.5"/>
						</g>
					</g>
					<g>
						<g>
							<rect x="333" y="173.6" class="st3" width="5.7" height="42.1"/>
						</g>
					</g>
					<g>
						<g>
							
								<rect x="354" y="164.9" transform="matrix(0.7071 -0.7071 0.7071 0.7071 -33.0722 309.3512)" class="st3" width="5.7" height="59.5"/>
						</g>
					</g>
					<g>
						<g>
							<rect x="375" y="173.6" class="st3" width="5.7" height="42.1"/>
						</g>
					</g>
					<g>
						<g>
							
								<rect x="396.1" y="164.9" transform="matrix(0.7071 -0.7071 0.7071 0.7071 -20.7581 339.0773)" class="st3" width="5.7" height="59.5"/>
						</g>
					</g>
					<g>
						<g>
							<polygon class="st3" points="619.8,218.5 610.8,218.5 609.2,212.8 618.2,212.8 							"/>
						</g>
					</g>
					<g>
						<g>
							<rect x="417.1" y="173.6" class="st3" width="5.7" height="42.1"/>
						</g>
					</g>
					<g>
						<g>
							
								<rect x="438.1" y="164.9" transform="matrix(0.7071 -0.7071 0.7071 0.7071 -8.4411 368.8132)" class="st3" width="5.7" height="59.5"/>
						</g>
					</g>
					<g>
						<g>
							<rect x="459.1" y="173.6" class="st3" width="5.7" height="42.1"/>
						</g>
					</g>
					<g>
						<g>
							
								<rect x="480.2" y="164.9" transform="matrix(0.7071 -0.7071 0.7071 0.7071 3.8735 398.5433)" class="st3" width="5.7" height="59.5"/>
						</g>
					</g>
					<g>
						<g>
							<rect x="501.2" y="173.6" class="st3" width="5.7" height="42.1"/>
						</g>
					</g>
					<g>
						<g>
							
								<rect x="522.2" y="164.9" transform="matrix(0.7071 -0.7071 0.7071 0.7071 16.1903 428.2793)" class="st3" width="5.7" height="59.5"/>
						</g>
					</g>
					<g>
						<g>
							<rect x="543.3" y="173.6" class="st3" width="5.7" height="42.1"/>
						</g>
					</g>
					<g>
						<g>
							
								<rect x="564.3" y="164.9" transform="matrix(0.7071 -0.7071 0.7071 0.7071 28.5169 458.0351)" class="st3" width="5.7" height="59.5"/>
						</g>
					</g>
					<g>
						<g>
							<rect x="585.3" y="173.6" class="st3" width="5.7" height="42.1"/>
						</g>
					</g>
					<g>
						<g>
							<circle class="st3" cx="625.9" cy="211.5" r="11.4"/>
						</g>
					</g>
					<g>
						<g>
							<circle class="st5" cx="625.9" cy="211.5" r="4.2"/>
						</g>
					</g>
					<g>
						<g>
							<rect x="185.3" y="159.5" class="st4" width="16.4" height="73.1"/>
						</g>
					</g>
					<g>
						<g>
							<rect x="186.1" y="159.5" class="st3" width="16.4" height="73.1"/>
						</g>
					</g>
					<g>
						<g>
							<rect x="166.6" y="159.5" class="st4" width="16.4" height="73.1"/>
						</g>
					</g>
					<g>
						<g>
							<rect x="167.5" y="159.5" class="st3" width="16.4" height="73.1"/>
						</g>
					</g>
					<g>
						<g>
							<rect x="148" y="159.5" class="st4" width="16.4" height="73.1"/>
						</g>
					</g>
					<g>
						<g>
							<rect x="148.8" y="159.5" class="st3" width="16.4" height="73.1"/>
						</g>
					</g>
					<g>
						<g>
							<rect x="129.3" y="159.5" class="st4" width="16.4" height="73.1"/>
						</g>
					</g>
					<g>
						<g>
							<rect x="130.2" y="159.5" class="st3" width="16.4" height="73.1"/>
						</g>
					</g>
					<g>
						<g>
							<rect x="192.2" y="699.6" class="st3" width="137.2" height="22.2"/>
						</g>
					</g>
					<g>
						<g>
							<rect x="192.2" y="699.6" class="st4" width="137.2" height="3.7"/>
						</g>
					</g>
				</g>
			</g>
		</g>
		<g>
			<g>
				<g>
					<path class="st5" d="M1005.6,213.3C1005.6,213.3,1005.6,213.3,1005.6,213.3c0-10.2-8.3-18.5-18.5-18.5c-4.1,0-7.9,1.3-10.9,3.6
						c-5.9-6.6-14.4-10.7-23.9-10.7c-13.4,0-24.8,8.2-29.6,19.9c-14.5,1.3-25.9,13.5-25.9,28.3c0,15.7,12.7,28.4,28.4,28.4
						c0,0,77.2,0.2,79.1,0.2c14.2,0,25.6-11.5,25.6-25.6C1030.1,225.2,1019.2,213.9,1005.6,213.3z"/>
				</g>
				<g>
					<path class="st5" d="M836.3,291.2C836.3,291.2,836.3,291.2,836.3,291.2c0-6.8-5.5-12.4-12.4-12.4c-2.7,0-5.2,0.9-7.3,2.4
						c-3.9-4.4-9.6-7.2-15.9-7.2c-8.9,0-16.6,5.5-19.8,13.3c-9.7,0.9-17.3,9-17.3,18.9c0,10.5,8.5,20.4,19,20.4
						c0,0,51.6,0.1,52.9,0.1c9.5,0,17.1-9.1,17.1-18.5C852.6,299.2,845.4,291.7,836.3,291.2z"/>
				</g>
			</g>
		</g>
		<g>
			<g>
				<path class="st6" d="M993.5,551.2c0.2-1,0.4-1.9,0.6-2.9c0.2-1,0.3-2,0.4-2.9l-5.9-2.6c0.1-1.2,0.2-2.3,0.3-3.5l6.2-1.8
					c0-2,0-3.9-0.1-5.9l-6.2-1.5c-0.1-1.2-0.2-2.3-0.4-3.5l5.7-2.9c-0.3-1.9-0.7-3.9-1.2-5.8l-6.4-0.4c-0.3-1.1-0.7-2.2-1-3.4
					l5.1-3.9c-0.7-1.8-1.4-3.7-2.2-5.4l-6.4,0.8c-0.5-1-1.1-2.1-1.6-3.1l4.3-4.8c-1-1.7-2.1-3.3-3.2-4.9l-6.1,2
					c-0.7-0.9-1.4-1.9-2.2-2.8l3.4-5.5c-1.3-1.5-2.7-2.9-4.1-4.3l-5.7,3.1c-0.9-0.8-1.7-1.6-2.6-2.3l2.3-6c-1.5-1.2-3.1-2.3-4.8-3.4
					l-5,4.1c-1-0.6-2-1.2-3-1.8l1.1-6.3c-1.7-0.9-3.5-1.7-5.3-2.5l-4.1,4.9c-1.1-0.4-2.2-0.8-3.3-1.2l-0.1-6.4
					c-1.9-0.6-3.8-1.1-5.7-1.5l-3.2,5.6c-0.6-0.1-1.1-0.2-1.7-0.3c-0.6-0.1-1.2-0.2-1.7-0.3l-1.2-6.3c-2-0.2-3.9-0.3-5.9-0.4
					l-2.1,6.1c-1.2,0-2.3,0-3.5,0.1l-2.4-6c-2,0.2-3.9,0.4-5.8,0.7l-0.9,6.4c-1.2,0.2-2.3,0.4-3.5,0.7l-3.4-5.4
					c-1.9,0.5-3.8,1.1-5.6,1.7l0.2,6.4c-1.1,0.4-2.2,0.9-3.2,1.3l-4.4-4.7c-1.8,0.9-3.5,1.7-5.2,2.7l1.4,6.3c-1,0.6-2,1.2-2.9,1.9
					l-5.2-3.8c-1.6,1.2-3.1,2.4-4.6,3.7l2.5,5.9c-0.9,0.8-1.7,1.6-2.5,2.4l-5.8-2.8c-1.4,1.4-2.6,2.9-3.9,4.4l3.6,5.3
					c-0.7,0.9-1.4,1.9-2.1,2.9l-6.2-1.7c-1.1,1.6-2,3.3-3,5.1l4.5,4.6c-0.5,1-1,2.1-1.5,3.2l-6.4-0.5c-0.7,1.8-1.4,3.7-2,5.5
					l5.3,3.7c-0.3,1.1-0.6,2.3-0.9,3.4l-6.4,0.6c-0.2,1-0.4,1.9-0.6,2.9c-0.2,1-0.3,2-0.4,2.9l5.9,2.6c-0.1,1.2-0.2,2.3-0.3,3.5
					l-6.2,1.8c0,2,0,3.9,0.1,5.9l6.2,1.5c0.1,1.2,0.2,2.3,0.4,3.5l-5.7,2.9c0.3,1.9,0.7,3.9,1.2,5.8l6.4,0.4c0.3,1.1,0.7,2.2,1,3.4
					l-5.1,3.9c0.7,1.8,1.4,3.7,2.2,5.4l6.4-0.8c0.5,1,1.1,2.1,1.6,3.1l-4.3,4.8c1,1.7,2.1,3.3,3.2,4.9l6.1-2
					c0.7,0.9,1.4,1.9,2.2,2.8l-3.4,5.5c1.3,1.5,2.7,2.9,4.1,4.3l5.7-3.1c0.9,0.8,1.7,1.6,2.6,2.3l-2.3,6c1.5,1.2,3.1,2.3,4.8,3.4
					l5-4.1c1,0.6,2,1.2,3,1.8l-1.1,6.3c1.7,0.9,3.5,1.7,5.3,2.5l4.1-4.9c1.1,0.4,2.2,0.8,3.3,1.2l0.1,6.4c1.9,0.6,3.8,1.1,5.7,1.5
					l3.2-5.6c0.6,0.1,1.1,0.2,1.7,0.3c0.6,0.1,1.2,0.2,1.7,0.3l1.2,6.3c2,0.2,3.9,0.3,5.9,0.4l2.1-6.1c1.2,0,2.3,0,3.5-0.1l2.4,6
					c2-0.2,3.9-0.4,5.8-0.7l0.9-6.4c1.2-0.2,2.3-0.4,3.5-0.7l3.4,5.4c1.9-0.5,3.8-1.1,5.6-1.7l-0.2-6.4c1.1-0.4,2.2-0.9,3.2-1.3
					l4.4,4.7c1.8-0.9,3.5-1.8,5.2-2.7l-1.4-6.3c1-0.6,2-1.2,2.9-1.9l5.2,3.8c1.6-1.2,3.1-2.4,4.6-3.7l-2.5-5.9
					c0.9-0.8,1.7-1.6,2.5-2.4l5.8,2.8c1.4-1.4,2.6-2.9,3.9-4.4l-3.6-5.3c0.7-0.9,1.4-1.9,2.1-2.9l6.2,1.7c1.1-1.6,2-3.3,3-5.1
					l-4.5-4.6c0.5-1,1-2.1,1.5-3.2l6.4,0.5c0.7-1.8,1.4-3.7,2-5.5l-5.3-3.7c0.3-1.1,0.6-2.3,0.9-3.4L993.5,551.2z M978.6,542.6
					l-38.1-6.2c0-1.9-0.2-3.7-0.7-5.6c-0.4-1.4-0.9-2.6-1.5-3.9l31.3-22.5C976.7,515.4,980.1,528.7,978.6,542.6z M966,499.3
					l-31.3,22.5c-2.3-2.3-5.1-4.1-8.2-5.1l6.2-38.1C946.2,481.6,957.8,489.1,966,499.3z M926.5,477.6l-6.2,38.1
					c-3.4,0-6.6,0.8-9.4,2.2l-22.5-31.3C899.3,479.5,912.6,476.1,926.5,477.6z M883.2,490.2l22.5,31.3c-2.3,2.3-4.1,5.1-5.1,8.2
					l-38.1-6.2C865.5,509.9,873,498.4,883.2,490.2z M861.5,529.7l38.1,6.2c0,3.3,0.8,6.6,2.2,9.4l-31.3,22.5
					C863.4,556.9,860,543.5,861.5,529.7z M874.1,573l31.3-22.5c2.1,2.1,4.6,3.8,7.5,4.9c0.3,0.1,0.5,0.2,0.8,0.3l-6.2,38.1
					C893.8,590.7,882.3,583.2,874.1,573z M913.6,594.7l6.2-38.1c3.3,0,6.5-0.8,9.4-2.2l22.5,31.3
					C940.8,592.8,927.4,596.2,913.6,594.7z M956.9,582.1l-22.5-31.3c2.1-2,3.8-4.6,4.8-7.5c0.1-0.3,0.2-0.5,0.3-0.8l38.1,6.2
					C974.6,562.4,967.1,573.9,956.9,582.1z"/>
				<g class="st2">
					<g>
						<path class="st3" d="M1068.8,583.2c-0.2-1.5-0.4-2.4-0.4-2.4c-0.3-1.1,0.2-2.7,1.1-3.5l3.6-3c0.9-0.8,1.3-2.3,0.8-3.4
							l-1.7-3.4c-0.6-1-2-1.7-3.1-1.4l-4.6,1c-1.2,0.2-2.7-0.3-3.5-1.2l-3.4-3.5c-0.9-0.8-1.4-2.4-1.1-3.5l1.1-4.5
							c0.3-1.1-0.3-2.6-1.3-3.2l-3.4-1.8c-1.1-0.5-2.6-0.2-3.4,0.7l-3.1,3.5c-0.8,0.9-2.4,1.4-3.5,1.1l-4.9-0.8
							c-1.2-0.1-2.5-1.1-3-2.2l-1.8-4.3c-0.4-1.1-1.8-1.9-3-1.8c0,0-0.5,0-1.9,0.2c-1.4,0.2-1.9,0.3-1.9,0.3
							c-1.2,0.3-2.2,1.4-2.3,2.6l-0.5,4.6c-0.1,1.2-1.1,2.5-2.2,3l-4.4,2.2c-1,0.6-2.7,0.6-3.7,0l-4-2.5c-1-0.6-2.6-0.5-3.4,0.3
							l-2.7,2.7c-0.8,0.9-1,2.4-0.4,3.4l2.4,4c0.6,1,0.6,2.7,0,3.7l-2.3,4.4c-0.5,1.1-1.8,2-3,2.1l-4.7,0.4
							c-1.2,0.1-2.4,1.1-2.6,2.3l-0.6,3.8c-0.1,1.2,0.6,2.5,1.7,3l4.3,1.9c1.1,0.5,2,1.8,2.1,3c0,0,0,0.9,0.3,2.5
							c0.2,1.5,0.4,2.4,0.4,2.4c0.3,1.1-0.2,2.7-1.1,3.5l-3.6,3c-0.9,0.8-1.3,2.3-0.8,3.4l1.7,3.4c0.6,1,2,1.7,3.1,1.4l4.6-1
							c1.2-0.2,2.7,0.3,3.5,1.2l3.4,3.5c0.9,0.8,1.4,2.4,1.1,3.5l-1.1,4.5c-0.3,1.1,0.3,2.6,1.3,3.2l3.4,1.8
							c1.1,0.5,2.6,0.2,3.4-0.7l3.1-3.5c0.8-0.9,2.4-1.4,3.5-1.1l4.9,0.8c1.2,0.1,2.5,1.1,3,2.2l1.8,4.3c0.4,1.1,1.8,1.9,3,1.8
							c0,0,0.6,0,1.9-0.2c1.4-0.2,1.9-0.3,1.9-0.3c1.2-0.3,2.2-1.4,2.3-2.6l0.5-4.6c0.1-1.2,1.1-2.5,2.2-3l4.4-2.2
							c1-0.6,2.7-0.6,3.7,0l4,2.4c1,0.6,2.6,0.5,3.4-0.3l2.8-2.7c0.8-0.9,1-2.4,0.4-3.4l-2.4-4c-0.6-1-0.6-2.7,0-3.7l2.3-4.4
							c0.5-1.1,1.8-2,3-2.1l4.7-0.4c1.2-0.1,2.4-1.1,2.6-2.3l0.6-3.8c0.1-1.2-0.6-2.5-1.7-3l-4.3-1.9c-1.1-0.5-2-1.8-2.1-3
							C1069.1,585.6,1069,584.7,1068.8,583.2z M1037.9,612.2c-13.3,1.9-25.6-7.3-27.6-20.6c-1.9-13.3,7.3-25.6,20.6-27.6
							c13.3-1.9,25.6,7.3,27.6,20.6C1060.4,598,1051.2,610.3,1037.9,612.2z"/>
					</g>
					<g>
						<path class="st3" d="M1033.2,579.8c-4.6,0.7-7.9,5-7.2,9.6c0.7,4.7,5,7.9,9.6,7.2c4.7-0.7,7.9-5,7.2-9.6
							C1042.2,582.3,1037.9,579.1,1033.2,579.8z"/>
					</g>
				</g>
				<g class="st2">
					<g>
						<path class="st3" d="M985.6,385.6c0.1-1.2,0.2-1.8,0.2-1.8c0-0.9,0.7-1.9,1.5-2.3l3.2-1.5c0.8-0.4,1.3-1.4,1.2-2.3l-0.6-2.8
							c-0.2-0.9-1.1-1.6-2-1.6l-3.5-0.2c-0.9,0-1.9-0.7-2.3-1.5l-1.8-3.2c-0.5-0.7-0.5-2-0.1-2.8l1.7-3.1c0.4-0.8,0.3-1.9-0.4-2.6
							l-2.1-2c-0.7-0.6-1.8-0.6-2.6-0.2l-2.9,1.9c-0.7,0.5-2,0.5-2.8,0.1l-3.4-1.5c-0.8-0.3-1.6-1.3-1.7-2.2l-0.4-3.5
							c-0.1-0.9-0.9-1.7-1.8-1.9c0,0-0.4-0.1-1.4-0.2c-1-0.1-1.4-0.1-1.4-0.1c-0.9,0-1.9,0.6-2.2,1.4l-1.2,3.3
							c-0.3,0.8-1.3,1.6-2.2,1.7l-3.6,0.7c-0.9,0.2-2.1-0.1-2.7-0.7l-2.4-2.5c-0.6-0.6-1.8-0.8-2.5-0.4l-2.5,1.4
							c-0.8,0.5-1.2,1.6-0.9,2.4l0.9,3.4c0.2,0.9-0.1,2.1-0.7,2.7l-2.5,2.7c-0.6,0.7-1.7,1.1-2.6,1l-3.4-0.6
							c-0.9-0.2-1.9,0.3-2.3,1.1l-1.2,2.6c-0.3,0.8,0,1.9,0.7,2.5l2.7,2.2c0.7,0.6,1.1,1.7,0.9,2.6c0,0-0.1,0.7-0.3,1.8
							c-0.1,1.2-0.2,1.8-0.2,1.8c0,0.9-0.7,1.9-1.5,2.3l-3.2,1.5c-0.8,0.4-1.4,1.4-1.2,2.3l0.6,2.8c0.2,0.9,1.1,1.6,2,1.6l3.5,0.2
							c0.9,0,1.9,0.7,2.3,1.5l1.8,3.2c0.5,0.7,0.5,2,0.1,2.8l-1.7,3.1c-0.4,0.8-0.3,1.9,0.4,2.6l2.1,2c0.7,0.6,1.8,0.6,2.6,0.2
							l2.9-1.9c0.7-0.5,2-0.5,2.8-0.1l3.4,1.5c0.8,0.3,1.6,1.3,1.7,2.2l0.4,3.5c0.1,0.9,0.9,1.7,1.8,1.9c0,0,0.4,0.1,1.4,0.2
							c1,0.1,1.4,0.1,1.4,0.1c0.9,0,1.9-0.6,2.2-1.4l1.2-3.3c0.3-0.8,1.3-1.6,2.2-1.7l3.6-0.7c0.9-0.2,2.1,0.1,2.7,0.8l2.4,2.5
							c0.6,0.6,1.8,0.8,2.5,0.5l2.5-1.4c0.8-0.5,1.2-1.6,0.9-2.4l-0.9-3.4c-0.2-0.9,0.1-2.1,0.7-2.7l2.5-2.7c0.6-0.7,1.7-1.1,2.6-1
							l3.4,0.6c0.9,0.2,1.9-0.3,2.3-1.1l1.2-2.6c0.3-0.8,0-1.9-0.6-2.5l-2.7-2.2c-0.7-0.6-1.1-1.7-0.9-2.6
							C985.3,387.5,985.4,386.8,985.6,385.6z M957.6,400.7c-10-1.2-17.1-10.2-15.9-20.2c1.2-10,10.2-17.1,20.2-15.9
							c10,1.2,17.1,10.2,15.9,20.2C976.6,394.7,967.6,401.8,957.6,400.7z"/>
					</g>
					<g>
						<path class="st3" d="M961.3,369.7c-7.1-0.8-13.6,4.3-14.4,11.4c-0.8,7.1,4.2,13.6,11.3,14.4c7.1,0.8,13.6-4.2,14.4-11.4
							C973.5,377,968.4,370.5,961.3,369.7z M959.2,387.2c-2.6-0.3-4.4-2.6-4.1-5.2c0.3-2.6,2.6-4.4,5.2-4.1c2.6,0.3,4.4,2.6,4.1,5.2
							C964.1,385.7,961.7,387.5,959.2,387.2z"/>
					</g>
				</g>
				<g class="st2">
					<path class="st3" d="M1031.6,404.9c-1.1-0.4-2.3-0.8-3.4-1.1l-1.9,2.9c1.7,0.5,3.4,1,5.1,1.7L1031.6,404.9z"/>
					<path class="st3" d="M999.6,491.6c1.1,0.4,2.3,0.8,3.4,1.1l1.9-2.9c-1.7-0.5-3.4-1-5.1-1.7L999.6,491.6z"/>
					<path class="st3" d="M1061.2,443.4c-0.1-0.6-0.1-1.2-0.2-1.8c-0.1-0.6-0.2-1.2-0.3-1.8l-3.5-0.4c-0.2-0.8-0.4-1.6-0.6-2.4
						l2.9-2c-0.3-1.2-0.7-2.3-1.2-3.4l-3.5,0.2c-0.3-0.8-0.7-1.5-1-2.3l2.5-2.5c-0.6-1.1-1.1-2.1-1.8-3.2l-3.4,0.9
						c-0.4-0.7-0.9-1.4-1.4-2l2-2.9c-0.7-1-1.5-1.9-2.3-2.8l-3.2,1.5c-0.6-0.6-1.1-1.2-1.8-1.7l1.4-3.2c-0.9-0.8-1.8-1.6-2.8-2.3
						l-2.8,2c-0.7-0.5-1.4-0.9-2-1.4l0.8-3.4c-1-0.6-2.1-1.2-3.2-1.8l-2.4,2.5c-0.7-0.4-1.5-0.7-2.3-1c-1.7-0.7-3.4-1.2-5.1-1.7
						c-0.8-0.2-1.6-0.4-2.4-0.6l-0.4-3.5c-1.2-0.2-2.4-0.4-3.6-0.5l-1.3,3.2c-0.8-0.1-1.6-0.1-2.5-0.1l-1.1-3.3
						c-1.2,0-2.4,0.1-3.6,0.2l-0.7,3.4c-0.4,0-0.8,0.1-1.2,0.2c-0.4,0.1-0.8,0.1-1.2,0.2l-1.7-3.1c-1.2,0.2-2.3,0.5-3.5,0.9
						l-0.1,3.5c-0.8,0.2-1.6,0.5-2.3,0.8l-2.2-2.7c-1.1,0.5-2.2,0.9-3.3,1.5l0.6,3.5c-0.7,0.4-1.4,0.8-2.1,1.2l-2.7-2.3
						c-1,0.7-2,1.3-3,2.1l1.2,3.3c-0.6,0.5-1.3,1-1.9,1.6l-3-1.7c-0.9,0.8-1.7,1.7-2.5,2.6l1.8,3c-0.3,0.3-0.5,0.6-0.8,0.9
						c-0.3,0.3-0.5,0.7-0.8,1l-3.3-1.2c-0.7,1-1.4,2-2,3l2.3,2.7c-0.4,0.7-0.8,1.5-1.2,2.2l-3.4-0.5c-0.5,1.1-1,2.2-1.4,3.3l2.7,2.2
						c-0.3,0.8-0.5,1.6-0.8,2.4l-3.5,0.1c-0.3,1.2-0.6,2.3-0.8,3.5l3.1,1.6c-0.1,0.8-0.2,1.6-0.3,2.5l-3.4,0.8
						c-0.1,1.2-0.1,2.4-0.1,3.6l3.3,1c0,0.8,0.1,1.7,0.1,2.5L970,453c0.1,0.6,0.1,1.2,0.2,1.8c0.1,0.6,0.2,1.2,0.3,1.8l3.5,0.4
						c0.2,0.8,0.4,1.6,0.6,2.4l-2.9,2c0.3,1.2,0.7,2.3,1.2,3.4l3.5-0.2c0.3,0.8,0.7,1.5,1,2.3l-2.5,2.5c0.6,1.1,1.1,2.1,1.8,3.2
						l3.4-0.9c0.4,0.7,0.9,1.4,1.4,2l-2,2.9c0.7,1,1.5,1.9,2.3,2.8l3.2-1.5c0.6,0.6,1.1,1.2,1.8,1.7l-1.4,3.2
						c0.9,0.8,1.8,1.6,2.8,2.3l2.8-2c0.7,0.5,1.3,0.9,2,1.4l-0.8,3.4c1,0.6,2.1,1.2,3.2,1.8l2.4-2.5c0.7,0.4,1.5,0.7,2.3,1
						c1.7,0.7,3.4,1.2,5.1,1.7c0.8,0.2,1.6,0.4,2.4,0.6l0.4,3.5c1.2,0.2,2.4,0.4,3.6,0.5l1.3-3.2c0.8,0.1,1.6,0.1,2.5,0.1l1.1,3.3
						c1.2,0,2.4-0.1,3.6-0.2l0.7-3.4l0,0c0.8-0.1,1.6-0.2,2.4-0.4l0,0l1.7,3.1c1.2-0.2,2.3-0.5,3.5-0.9l0.1-3.5
						c0.8-0.2,1.6-0.5,2.3-0.8l2.2,2.7c1.1-0.5,2.2-0.9,3.3-1.5l-0.6-3.5c0.7-0.4,1.4-0.8,2.1-1.2c0,0,0,0,0,0l2.7,2.3
						c1-0.7,2-1.3,3-2.1l-1.2-3.3c0.6-0.5,1.3-1,1.9-1.6l3,1.7c0.9-0.8,1.7-1.7,2.5-2.6l-1.8-3c0.3-0.3,0.5-0.6,0.8-0.9
						c0.3-0.3,0.5-0.7,0.8-1l3.3,1.2c0.7-1,1.4-2,2-3l-2.3-2.7c0.4-0.7,0.8-1.4,1.2-2.2l3.4,0.5c0.5-1.1,1-2.2,1.4-3.3l-2.7-2.2
						c0.3-0.8,0.5-1.6,0.8-2.4l3.5-0.1c0.3-1.2,0.6-2.3,0.8-3.5l-3.1-1.6c0.1-0.8,0.2-1.6,0.3-2.5l3.4-0.8c0.1-1.2,0.1-2.4,0.1-3.6
						l-3.3-1c0-0.8-0.1-1.7-0.1-2.5L1061.2,443.4z M1010.4,412.6l1.3,9.2c-6.3,0.9-12.3,4.1-16.6,9.5c-0.2,0.3-0.5,0.6-0.7,0.9
						l-7.4-5.5c0.3-0.4,0.6-0.8,1-1.3C993.9,418.1,1001.9,413.8,1010.4,412.6z M987.2,416.2c-0.6,0.6-1.3,1.2-1.9,1.8
						C985.9,417.4,986.6,416.8,987.2,416.2z M994.3,477c-0.4-0.3-0.8-0.6-1.3-1c-7.2-6-11.5-14.2-12.7-22.8l9.1-1.3
						c0.9,6.4,4.1,12.5,9.4,16.9c0.3,0.3,0.6,0.5,0.9,0.7L994.3,477z M1003.6,464.4L1003.6,464.4c-4.1-3.1-7.1-7.8-7.9-13.4
						c-0.8-5.5,0.7-10.9,3.8-15.1c3.1-4.2,7.7-7.1,13.2-7.9c5.5-0.8,10.8,0.7,14.9,3.8c4.1,3.1,7.1,7.8,7.9,13.4
						c0.8,5.5-0.7,10.9-3.8,15.1l0,0c-3.1,4.2-7.7,7.1-13.2,7.9S1007.7,467.5,1003.6,464.4z M1020.8,483.8l-1.3-9.2
						c6.3-0.9,12.3-4.1,16.6-9.5c0.3-0.3,0.5-0.7,0.8-1l7.4,5.5c-0.3,0.5-0.7,0.9-1.1,1.4C1037.3,478.3,1029.3,482.6,1020.8,483.8z
						 M1044,480.3c0.6-0.6,1.3-1.2,1.9-1.8C1045.3,479.1,1044.6,479.7,1044,480.3z M1041.8,444.3c-0.9-6.3-4.1-12.4-9.4-16.7
						c-0.3-0.3-0.7-0.5-1-0.8l5.5-7.4c0.5,0.3,0.9,0.7,1.4,1.1c7.1,5.9,11.4,14,12.7,22.6L1041.8,444.3z M1052.8,460.6L1052.8,460.6
						l2.9-0.1L1052.8,460.6z"/>
					<path class="st3" d="M1024.8,455c3.8-5.1,2.7-12.3-2.3-16.2c-2.4-1.8-5.5-2.6-8.5-2.2c-6.2,0.9-10.6,6.7-9.6,13.1
						c0.3,1.9,1,3.6,2.1,5.1c3.7,5.2,10.9,6.3,16,2.6C1023.3,456.8,1024.1,456,1024.8,455z M1018.8,452.5c-2.4,1.8-5.8,1.2-7.6-1.2
						c-0.5-0.7-0.9-1.6-1-2.4c-0.4-3,1.6-5.7,4.6-6.2c1.4-0.2,2.9,0.2,4,1c2.4,1.8,2.9,5.2,1.1,7.6
						C1019.6,451.8,1019.2,452.2,1018.8,452.5z"/>
				</g>
			</g>
		</g>
		<g>
			<g>
				<rect x="241.9" y="1045.6" class="st7" width="118.1" height="17.5"/>
				<path class="st8" d="M323.2,927.1c-2-10.5-11.3-18.1-22-18.1h-0.4c-10.7,0-20,7.6-22,18.1l-4.2,21.8h52.9L323.2,927.1z"/>
				<polygon class="st8" points="255.8,1045.6 346.2,1045.6 340.8,1017.7 261.2,1017.7 				"/>
				<polygon class="st8" points="270.3,970.7 265.4,996 336.6,996 331.6,970.7 				"/>
				<polygon class="st9" points="340.8,1017.8 261.2,1017.8 265.4,996 336.6,996 				"/>
				<polygon class="st9" points="331.6,970.7 270.3,970.7 274.5,948.9 327.4,948.9 				"/>
				<path class="st10" d="M305.8,909.5c-8.7,1.8-15.6,8.6-17.4,17.6l-4.3,21.8l-4.2,21.7l-5.2,26.7l-4,20.4l-5.4,27.9h-9.6l5.4-27.9
					l4-20.4l5.2-26.7l4.2-21.7l4.3-21.8c2-10.5,11.3-18.1,22-18.1h0.4C302.8,909,304.3,909.2,305.8,909.5z"/>
				<rect x="241.9" y="1045.6" class="st10" width="7.9" height="17.5"/>
			</g>
		</g>
		<g>
			<g>
				<rect x="118.2" y="891.6" class="st7" width="84.1" height="12.5"/>
				<path class="st8" d="M176,807.3c-1.5-7.5-8-12.9-15.7-12.9h-0.3c-7.6,0-14.2,5.4-15.7,12.9l-3,15.5H179L176,807.3z"/>
				<polygon class="st8" points="128,891.6 192.4,891.6 188.5,871.8 131.9,871.8 				"/>
				<polygon class="st8" points="138.4,838.2 134.9,856.3 185.5,856.3 182,838.2 				"/>
				<polygon class="st9" points="188.5,871.8 131.9,871.8 134.9,856.3 185.5,856.3 				"/>
				<polygon class="st9" points="182,838.2 138.4,838.2 141.4,822.8 179,822.8 				"/>
				<path class="st10" d="M163.6,794.7c-6.2,1.3-11.1,6.1-12.4,12.6l-3,15.5l-3,15.5l-3.7,19l-2.8,14.5l-3.9,19.9H128l3.9-19.9
					l2.8-14.5l3.7-19l3-15.5l3-15.5c1.5-7.5,8-12.9,15.6-12.9h0.3C161.5,794.3,162.6,794.5,163.6,794.7z"/>
				<rect x="118.2" y="891.6" class="st10" width="5.6" height="12.5"/>
			</g>
		</g>
		<g>
			<path class="st8" d="M926.8,703.7h-80.1c-20.7,0-37.5,16.8-37.5,37.5V927l204.9,2.6V833c0-27.5-8.2-54.4-23.6-77.2
				c-4.8-7.1-13.6-20.8-20.9-28.4C957.4,714.4,944.7,703.7,926.8,703.7z"/>
			<path class="st7" d="M906.4,866.7H422v53.4h551.3v-0.5C973.3,890.4,937.3,866.7,906.4,866.7z"/>
			<path class="st11" d="M999.7,944H436.5c-8,0-14.5-6.5-14.5-14.5v-9.5h592.2v9.5C1014.2,937.6,1007.7,944,999.7,944z"/>
			<g>
				<g>
					<circle class="st12" cx="518" cy="937.3" r="58.9"/>
				</g>
				<g>
					<circle class="st5" cx="518" cy="937.3" r="31.1"/>
				</g>
			</g>
			<g>
				<g>
					<circle class="st12" cx="656.7" cy="937.3" r="58.9"/>
				</g>
				<g>
					<circle class="st5" cx="656.7" cy="937.3" r="31.1"/>
				</g>
			</g>
			<g>
				<g>
					<circle class="st12" cx="911.7" cy="937.3" r="58.9"/>
				</g>
				<g>
					<circle class="st5" cx="911.7" cy="937.3" r="31.1"/>
				</g>
			</g>
			<path class="st9" d="M824.5,900.7h-82c-5.7,0-10.4,4.7-10.4,10.4v31.8c0,5.7,4.7,10.4,10.4,10.4h82c5.7,0,10.4-4.7,10.4-10.4
				v-31.8C834.9,905.4,830.2,900.7,824.5,900.7z"/>
			<path class="st11" d="M791.5,687.3v179.4H417.2c-7,0-12.6-5.7-12.6-12.6V687.3c0-6.2,5-11.2,11.2-11.2h364.6
				C786.5,676.1,791.5,681.1,791.5,687.3z"/>
			<path class="st8" d="M791.5,687.3c0-6.2-5-11.2-11.2-11.2H415.7c-6.2,0-11.2,5-11.2,11.2v5.7h28.2c2.3,0,4.2,1.9,4.2,4.2v131.1
				c0,2.3,1.9,4.2,4.2,4.2h0.1c2.3,0,4.2-1.9,4.2-4.2V697.1c0-2.3,1.9-4.2,4.2-4.2h29.6c2.3,0,4.2,1.9,4.2,4.2v131.1
				c0,2.3,1.9,4.2,4.2,4.2h0.1c2.3,0,4.2-1.9,4.2-4.2V697.1c0-2.3,1.9-4.2,4.2-4.2h29.6c2.3,0,4.2,1.9,4.2,4.2v131.1
				c0,2.3,1.9,4.2,4.2,4.2h0.1c2.3,0,4.2-1.9,4.2-4.2V697.1c0-2.3,1.9-4.2,4.2-4.2h29.6c2.3,0,4.2,1.9,4.2,4.2v131.1
				c0,2.3,1.9,4.2,4.2,4.2h0.1c2.3,0,4.2-1.9,4.2-4.2V697.1c0-2.3,1.9-4.2,4.2-4.2h29.6c2.3,0,4.2,1.9,4.2,4.2v131.1
				c0,2.3,1.9,4.2,4.2,4.2h0.1c2.3,0,4.2-1.9,4.2-4.2V697.1c0-2.3,1.9-4.2,4.2-4.2h29.6c2.3,0,4.2,1.9,4.2,4.2v131.1
				c0,2.3,1.9,4.2,4.2,4.2h0.1c2.3,0,4.2-1.9,4.2-4.2V697.1c0-2.3,1.9-4.2,4.2-4.2h29.6c2.3,0,4.2,1.9,4.2,4.2v131.1
				c0,2.3,1.9,4.2,4.2,4.2h0.1c2.3,0,4.2-1.9,4.2-4.2V697.1c0-2.3,1.9-4.2,4.2-4.2h29.6c2.3,0,4.2,1.9,4.2,4.2v131.1
				c0,2.3,1.9,4.2,4.2,4.2h0.1c2.3,0,4.2-1.9,4.2-4.2V697.1c0-2.3,1.9-4.2,4.2-4.2h17.2V687.3z"/>
			<path class="st9" d="M437.2,944h-30.5c-4.8,0-8.7-3.9-8.7-8.7v-27.2c0-4.8,3.9-8.7,8.7-8.7h30.5c4.8,0,8.7,3.9,8.7,8.7v27.2
				C445.9,940.2,442,944,437.2,944z"/>
			<path class="st9" d="M1015.7,944h-23c-4.8,0-8.7-3.9-8.7-8.7v-27.2c0-4.8,3.9-8.7,8.7-8.7h23c4.8,0,8.7,3.9,8.7,8.7v27.2
				C1024.4,940.2,1020.5,944,1015.7,944z"/>
			<path class="st7" d="M987.1,842.8h12.7c5.4,0,9.7,3.6,9.7,8v16.7c0,3.2-3.1,5.7-7,5.7h-0.3c-14.3,0-25.8-9.5-25.8-21.3v-0.3
				C976.4,846.8,981.2,842.8,987.1,842.8z"/>
			<path class="st11" d="M965.2,757.1c-3-4.4-9.8-13.8-13.7-18c-6.4-7-12.5-9.8-20.9-9.8h-39.3c-5.5,0-10,4.5-10,10V799
				c0,5.5,4.5,10,10,10h78.1c5.7,0,10.4-4.1,10.4-9.2v-0.3C979.8,784.4,974.2,770.3,965.2,757.1z"/>
			<linearGradient id="SVGID_3_" gradientUnits="userSpaceOnUse" x1="941.5154" y1="735.5793" x2="917.9725" y2="808.3533">
				<stop  offset="0" style="stop-color:#000000"/>
				<stop  offset="9.352094e-02" style="stop-color:#2B2B2B"/>
				<stop  offset="0.2291" style="stop-color:#626262"/>
				<stop  offset="0.3657" style="stop-color:#929292"/>
				<stop  offset="0.5002" style="stop-color:#B9B9B9"/>
				<stop  offset="0.6322" style="stop-color:#D8D8D8"/>
				<stop  offset="0.7611" style="stop-color:#EEEEEE"/>
				<stop  offset="0.8854" style="stop-color:#FBFBFB"/>
				<stop  offset="1" style="stop-color:#FFFFFF"/>
			</linearGradient>
			<path class="st13" d="M965.2,757.1c-3-4.4-9.8-13.8-13.7-18c-6.4-7-12.5-9.8-20.9-9.8h-39.3c-5.5,0-10,4.5-10,10V799
				c0,5.5,4.5,10,10,10h78.1c5.7,0,10.4-4.1,10.4-9.2v-0.3C979.8,784.4,974.2,770.3,965.2,757.1z"/>
			<path class="st14" d="M965.2,757.1c-3-4.4-9.8-13.8-13.7-18c-6.4-7-12.5-9.8-20.9-9.8h-39.3c-5.5,0-10,4.5-10,10V799
				c0,5.5,4.5,10,10,10h78.1c5.7,0,10.4-4.1,10.4-9.2v-0.3C979.8,784.4,974.2,770.3,965.2,757.1z"/>
			<circle class="st12" cx="518" cy="937.3" r="11.6"/>
			<circle class="st12" cx="656.7" cy="937.3" r="11.6"/>
			<circle class="st12" cx="911.7" cy="937.3" r="11.6"/>
			<path class="st9" d="M809.3,847.2v19.5H417.2c-7,0-12.6-5.7-12.6-12.6v-6.9H809.3z"/>
		</g>
		<g>
			<g>
				<path class="st15" d="M751.8,519.5h8v51h-8V519.5z"/>
			</g>
			<g>
				<g>
					<rect x="378.7" y="472.9" class="st11" width="417.3" height="81.3"/>
				</g>
				<text transform="matrix(1 0 0 1 415.9496 530.2728)" class="st3 st16 st17">WE  ARE  MOVED</text>
			</g>
		</g>
	</g>
</g>
</svg>
