<?xml version="1.0" encoding="utf-8"?>
<!-- Generator: Adobe Illustrator 21.0.2, SVG Export Plug-In . SVG Version: 6.00 Build 0)  -->
<svg version="1.1" id="Capa_1" xmlns="http://www.w3.org/2000/svg" xmlns:xlink="http://www.w3.org/1999/xlink" x="0px" y="0px"
	 viewBox="0 0 799.9 799.9" style="enable-background:new 0 0 799.9 799.9;" xml:space="preserve">
<style type="text/css">
	.st0{display:none;fill-rule:evenodd;clip-rule:evenodd;fill:#BDE0FF;}
	.st1{fill-rule:evenodd;clip-rule:evenodd;fill:#FFFFFF;}
	.st2{fill-rule:evenodd;clip-rule:evenodd;fill:#FFEAD1;}
	.st3{fill-rule:evenodd;clip-rule:evenodd;fill:#EBD7BF;}
	.st4{fill-rule:evenodd;clip-rule:evenodd;fill:#F4CC5B;}
	.st5{fill-rule:evenodd;clip-rule:evenodd;fill:#D6C4AE;}
	.st6{fill-rule:evenodd;clip-rule:evenodd;fill:#BFAF9D;}
	.st7{fill-rule:evenodd;clip-rule:evenodd;fill:#8BC1F0;}
	.st8{fill-rule:evenodd;clip-rule:evenodd;fill:#CBDEA6;}
	.st9{fill-rule:evenodd;clip-rule:evenodd;fill:#EDD5E9;}
	.st10{fill:#AD9982;}
	.st11{fill-rule:evenodd;clip-rule:evenodd;fill:#4074A1;}
	.st12{fill-rule:evenodd;clip-rule:evenodd;fill:#5896CC;}
	.st13{fill-rule:evenodd;clip-rule:evenodd;fill:#FFD7B7;}
	.st14{fill-rule:evenodd;clip-rule:evenodd;fill:#4A301B;}
	.st15{fill-rule:evenodd;clip-rule:evenodd;fill:#92C1EB;}
	.st16{fill-rule:evenodd;clip-rule:evenodd;fill:#FFC600;}
	.st17{fill-rule:evenodd;clip-rule:evenodd;fill:#FFC3BF;}
	.st18{fill-rule:evenodd;clip-rule:evenodd;fill:#83A14A;}
	.st19{fill-rule:evenodd;clip-rule:evenodd;fill:none;}
	.st20{fill:#FFFFFF;}
	.st21{fill-rule:evenodd;clip-rule:evenodd;fill:#BDE0FF;}
</style>
<g>
	<rect class="st0" width="799.9" height="799.9"/>
	<rect x="220.3" y="100.9" class="st1" width="359.2" height="566.3"/>
	<rect x="220.3" y="135.8" class="st2" width="359.2" height="496.3"/>
	<polygon class="st3" points="472.2,468.8 562.6,472.8 566.1,563.2 475.8,560.3 	"/>
	<polygon class="st3" points="354.8,468.8 445.2,472.8 448.8,563.2 358.4,560.3 	"/>
	<g>
		<path class="st3" d="M363.2,445.4c3.5,0.5,6,3.7,5.7,7.2s-3.4,5.8-6.9,5.3c-3.5-0.5-6-3.7-5.7-7.2
			C356.6,447.3,359.7,444.9,363.2,445.4z"/>
		<path class="st3" d="M384.1,448.5c3.5,0.5,6,3.7,5.7,7.2c-0.3,3.5-3.4,5.8-6.9,5.3c-3.5-0.5-6-3.7-5.7-7.2
			C377.6,450.4,380.7,448,384.1,448.5z"/>
		<path class="st3" d="M405.1,451.6c3.5,0.5,6,3.7,5.7,7.2c-0.3,3.5-3.4,5.8-6.9,5.3c-3.5-0.5-6-3.7-5.7-7.2
			C398.5,453.4,401.6,451,405.1,451.6z"/>
	</g>
	<polygon class="st3" points="238.4,266 565.7,304.3 550,463.9 222.7,425.6 	"/>
	<path class="st3" d="M479.5,158.9l17.8-30.1l13.3,25.5l29-2.3l-4.1,8.4c-3.9,8-8.4,15.7-13.5,22.9l-2.8,3.9l-8.4-5.2l0.2-0.4
		l-1.3-0.7c-20.2,28.3-48.6,49.1-81.9,59.9c-33.3,10.8-69.2,10.9-103.3,0.2l-0.6,1.3l0.5,0.2l-3.3,9l-4.7-1.5
		c-8.7-2.8-17.2-6.2-25.4-10.3l-8.6-4.3l24.4-15l-5.8-27.9l33.4,13.5l4.4-10.1l4.1,0.9c22.4,5.1,46.4,2.9,67.7-4.1
		c21.3-6.9,41.8-19.1,56.2-36.2l2.7-3.2L479.5,158.9z"/>
	<g>
		
			<rect x="311.1" y="195.9" transform="matrix(9.783190e-02 -0.9952 0.9952 9.783190e-02 -3.6308 712.7887)" class="st1" width="160.5" height="325.1"/>
		
			<rect x="319.5" y="202.2" transform="matrix(9.783101e-02 -0.9952 0.9952 9.783101e-02 -3.6307 712.7891)" class="st4" width="143.7" height="312.3"/>
	</g>
	<g>
		<rect x="237.4" y="567.6" class="st5" width="90.3" height="10.2"/>
		<rect x="237.4" y="582.3" class="st5" width="90.3" height="6"/>
		<rect x="237.4" y="593.1" class="st5" width="90.3" height="6"/>
		<rect x="237.4" y="603.9" class="st5" width="61.4" height="6"/>
	</g>
	<polygon class="st3" points="239.5,471.5 326.5,499.9 302.1,585.7 215.1,557.3 	"/>
	<g>
		<polygon class="st6" points="277.8,577.8 304.3,577.8 307.2,567.6 246.6,567.6 		"/>
		<polygon class="st6" points="303.1,582.3 291.5,582.3 302.1,585.7 		"/>
	</g>
	<g>
		<rect x="354.8" y="468.8" class="st1" width="90.3" height="90.3"/>
		<rect x="361.2" y="475.1" class="st7" width="77.6" height="77.6"/>
	</g>
	<g>
		<rect x="354.8" y="567.6" class="st5" width="90.3" height="10.2"/>
		<rect x="354.8" y="582.3" class="st5" width="90.3" height="6"/>
		<rect x="354.8" y="593.1" class="st5" width="90.3" height="6"/>
		<rect x="354.8" y="603.9" class="st5" width="61.4" height="6"/>
	</g>
	<g>
		<rect x="472.2" y="468.8" class="st1" width="90.3" height="90.3"/>
		<rect x="478.5" y="475.1" class="st8" width="77.6" height="77.6"/>
	</g>
	<g>
		<rect x="472.2" y="567.6" class="st5" width="90.3" height="10.2"/>
		<rect x="472.2" y="582.3" class="st5" width="90.3" height="6"/>
		<rect x="472.2" y="593.1" class="st5" width="90.3" height="6"/>
		<rect x="472.2" y="603.9" class="st5" width="61.4" height="6"/>
	</g>
	<g>
		<path class="st1" d="M474.1,149.2l17.8-30.8l13.3,25l29-3.4l-4.1,8.6c-3.9,8.2-8.4,16-13.5,23.4l-2.8,4l-8.4-4.9l0.2-0.5l-1.3-0.7
			c-20.2,29.1-48.6,51-81.9,63.1c-33.3,12.1-69.2,13.6-103.3,4.2l-0.6,1.3l0.5,0.2l-3.3,9.1l-4.7-1.3c-8.7-2.4-17.2-5.5-25.4-9.3
			l-8.6-4l24.4-16l-5.8-27.7l33.4,12.2l4.4-10.3l4.1,0.8c22.4,4.3,46.4,1.1,67.7-6.7c21.3-7.7,41.8-20.7,56.2-38.3l2.7-3.3
			L474.1,149.2z"/>
		<path class="st9" d="M420.6,228.1c33.5-12.2,60.7-34.1,79.6-61.4l-1.1,1l-33.6-17.1v0c-13.6,16.6-33.9,31-58.5,39.9
			c-24.6,8.9-49.4,10.9-70.5,6.9l0,0l-14.8,34.7l-1.5-0.1C352.2,241,387.1,240.3,420.6,228.1z"/>
		<path class="st9" d="M302.6,197.8l4.6,21.9l-19.5,12.7c7.9,3.6,16.2,6.7,24.6,9c-0.2-0.1-0.5-0.2-0.7-0.3l14.8-34.7L302.6,197.8z"
			/>
		<path class="st9" d="M491.7,129.2l10.5,19.8l23.1-2.7c-3.8,7.9-8.1,15.5-13.1,22.7c0.1-0.2,0.2-0.5,0.3-0.7L479,151.2L491.7,129.2
			z"/>
	</g>
	<g>
		<path class="st10" d="M340.6,97.3c0,1.4,2,1.7,2.4,0.3c0-0.1,0-0.2,0-0.3v-2.4c0-1.4-2-1.7-2.4-0.3c0,0.1,0,0.2,0,0.3V97.3z"/>
		<path class="st10" d="M340.6,106.9c0,1.4,2,1.7,2.4,0.3c0-0.1,0-0.2,0-0.3v-2.4c0-1.4-2-1.7-2.4-0.3c0,0.1,0,0.2,0,0.3V106.9z"/>
		<path class="st10" d="M340.6,116.5c0,1.4,2,1.7,2.4,0.3c0-0.1,0-0.2,0-0.3v-2.4c0-1.4-2-1.7-2.4-0.3c0,0.1,0,0.2,0,0.3V116.5z"/>
		<path class="st10" d="M340.6,126.1c0,1.4,2,1.7,2.4,0.3c0-0.1,0-0.2,0-0.3v-2.4c0-1.4-2-1.7-2.4-0.3c0,0.1,0,0.2,0,0.3V126.1z"/>
		<path class="st10" d="M340.6,135.7c0,1.4,2,1.7,2.4,0.3c0-0.1,0-0.2,0-0.3v-2.4c0-1.4-2-1.7-2.4-0.3c0,0.1,0,0.2,0,0.3V135.7z"/>
		<path class="st10" d="M340.6,145.3c0,1.4,2,1.7,2.4,0.3c0-0.1,0-0.2,0-0.3v-2.4c0-1.4-2-1.7-2.4-0.3c0,0.1,0,0.2,0,0.3V145.3z"/>
		<path class="st10" d="M340.6,154.9c0,1.4,2,1.7,2.4,0.3c0-0.1,0-0.2,0-0.3v-2.4c0-1.4-2-1.7-2.4-0.3c0,0.1,0,0.2,0,0.3V154.9z"/>
		<path class="st10" d="M340.6,164.5c0,1.4,2,1.7,2.4,0.3c0-0.1,0-0.2,0-0.3v-2.4c0-1.4-2-1.7-2.4-0.3c0,0.1,0,0.2,0,0.3V164.5z"/>
		<path class="st10" d="M340.6,174.1c0,1.4,2,1.7,2.4,0.3c0-0.1,0-0.2,0-0.3v-2.4c0-1.4-2-1.7-2.4-0.3c0,0.1,0,0.2,0,0.3V174.1z"/>
		<path class="st10" d="M340.6,183.7c0,1.4,2,1.7,2.4,0.3c0-0.1,0-0.2,0-0.3v-2.4c0-1.4-2-1.7-2.4-0.3c0,0.1,0,0.2,0,0.3V183.7z"/>
		<path class="st10" d="M343,85.3c0-1.4-2-1.7-2.4-0.3c0,0.1,0,0.2,0,0.3v2.4c0,1.4,2,1.7,2.4,0.3c0-0.1,0-0.2,0-0.3V85.3z"/>
		<path class="st10" d="M340.6,193.4c0,1.4,2,1.7,2.4,0.3c0-0.1,0-0.2,0-0.3V191c0-1.4-2-1.7-2.4-0.3c0,0.1,0,0.2,0,0.3V193.4z"/>
	</g>
	<path class="st10" d="M229.7,381.6c-0.9-1-2.6,0-2,1.3c0.1,0.1,0.1,0.2,0.2,0.3l1.6,1.8c0.9,1,2.6,0,2-1.3
		c-0.1-0.1-0.1-0.2-0.2-0.3L229.7,381.6L229.7,381.6z M323.5,493.9c0.9,1,2.6,0,2-1.3c-0.1-0.1-0.1-0.2-0.2-0.3l-1.5-1.7
		c-0.9-1-2.6,0-2,1.3c0.1,0.1,0.1,0.2,0.2,0.3L323.5,493.9L323.5,493.9z M317.3,486.8c0.9,1,2.6,0,2-1.3c-0.1-0.1-0.1-0.2-0.2-0.3
		l-1.6-1.8c-0.9-1-2.6,0-2,1.3c0.1,0.1,0.1,0.2,0.2,0.3L317.3,486.8L317.3,486.8z M311,479.5c0.9,1,2.6,0,2-1.3
		c-0.1-0.1-0.1-0.2-0.2-0.3l-1.6-1.8c-0.9-1-2.6,0-2,1.3c0.1,0.1,0.1,0.2,0.2,0.3L311,479.5L311,479.5z M304.7,472.2
		c0.9,1,2.6,0,2-1.3c-0.1-0.1-0.1-0.2-0.2-0.3l-1.6-1.8c-0.9-1-2.6,0-2,1.3c0.1,0.1,0.1,0.2,0.2,0.3L304.7,472.2L304.7,472.2z
		 M298.5,465c0.9,1,2.6,0,2-1.3c-0.1-0.1-0.1-0.2-0.2-0.3l-1.6-1.8c-0.9-1-2.6,0-2,1.3c0.1,0.1,0.1,0.2,0.2,0.3L298.5,465L298.5,465
		z M292.2,457.7c0.9,1,2.6,0,2-1.3c-0.1-0.1-0.1-0.2-0.2-0.3l-1.6-1.8c-0.9-1-2.6,0-2,1.3c0.1,0.1,0.1,0.2,0.2,0.3L292.2,457.7
		L292.2,457.7z M285.9,450.4c0.9,1,2.6,0,2-1.3c-0.1-0.1-0.1-0.2-0.2-0.3l-1.6-1.8c-0.9-1-2.6,0-2,1.3c0.1,0.1,0.1,0.2,0.2,0.3
		L285.9,450.4L285.9,450.4z M279.6,443.2c0.9,1,2.6,0,2-1.3c-0.1-0.1-0.1-0.2-0.2-0.3l-1.6-1.8c-0.9-1-2.6,0-2,1.3
		c0.1,0.1,0.1,0.2,0.2,0.3L279.6,443.2L279.6,443.2z M273.4,435.9c0.9,1,2.6,0,2-1.3c-0.1-0.1-0.1-0.2-0.2-0.3l-1.6-1.8
		c-0.9-1-2.6,0-2,1.3c0.1,0.1,0.1,0.2,0.2,0.3L273.4,435.9L273.4,435.9z M267.1,428.6c0.9,1,2.6,0,2-1.3c-0.1-0.1-0.1-0.2-0.2-0.3
		l-1.6-1.8c-0.9-1-2.6,0-2,1.3c0.1,0.1,0.1,0.2,0.2,0.3L267.1,428.6L267.1,428.6z M260.8,421.4c0.9,1,2.6,0,2-1.3
		c-0.1-0.1-0.1-0.2-0.2-0.3l-1.6-1.8c-0.9-1-2.6,0-2,1.3c0.1,0.1,0.1,0.2,0.2,0.3L260.8,421.4L260.8,421.4z M254.5,414.1
		c0.9,1,2.6,0,2-1.3c-0.1-0.1-0.1-0.2-0.2-0.3l-1.6-1.8c-0.9-1-2.6,0-2,1.3c0.1,0.1,0.1,0.2,0.2,0.3L254.5,414.1L254.5,414.1z
		 M248.3,406.8c0.9,1,2.6,0,2-1.3c-0.1-0.1-0.1-0.2-0.2-0.3l-1.6-1.8c-0.9-1-2.6,0-2,1.3c0.1,0.1,0.1,0.2,0.2,0.3L248.3,406.8
		L248.3,406.8z M242,399.6c0.9,1,2.6,0,2-1.3c-0.1-0.1-0.1-0.2-0.2-0.3l-1.6-1.8c-0.9-1-2.6,0-2,1.3c0.1,0.1,0.1,0.2,0.2,0.3
		L242,399.6L242,399.6z M235.7,392.3c0.9,1,2.6,0,2-1.3c-0.1-0.1-0.1-0.2-0.2-0.3l-1.6-1.8c-0.9-1-2.6,0-2,1.3
		c0.1,0.1,0.1,0.2,0.2,0.3L235.7,392.3z"/>
	<g>
		<path class="st11" d="M197.4,428.6c-3.1-0.1-5.5,0.3-5.5,2.6c0,2.3,2.6,2,5.7,2.1c3.1,0.1,5.6-0.3,5.5-1.8
			C203,429.9,200.5,428.6,197.4,428.6z"/>
		<path class="st12" d="M203.1,397.5c-0.5,1.2-0.7,2.4-0.8,4.9c0,1-0.1,2.2-0.3,3.3c-0.3,2.4-1.3,8.7-1.8,10.7
			c-0.7,2.6-0.3,11.1-0.8,11.9c-0.5,1-6.9,1.8-7.5,1c-1-1.6,0.7-4.9,1.3-8.3c0.2-1.3,0.6-2.4,0.9-3.5c0.6-2.3,0.5-1.7,0.6-4
			c0.1-2.2,0-4.9,0.4-7.8c0.3-2.3,0.7-4.4,1.1-6.2c0.3-1.2,0.4-1.5,0.3-1.9H203.1z"/>
		<path class="st11" d="M201,428.6c-3.1-0.1-5.5,0.3-5.5,2.6c0,2.3,2.6,2,5.7,2.1c3.1,0.1,5.6-0.3,5.5-1.8
			C206.7,429.9,204.1,428.6,201,428.6z"/>
		<path class="st12" d="M210.2,368.7c0,2,0.9,5.5-0.4,9.5c-3.2,9.4-4.7,12.7-6.7,19c-0.4,1.3-0.6,2.5-0.4,5.2c0.1,1,0.1,2.2,0.1,3.3
			c-0.1,2.4-0.3,8.7-0.6,10.7c-0.5,2.6,0.9,11.1,0.6,11.9c-0.4,1-6.7,1.8-7.3,1c-1.2-1.6,0.1-4.9,0.3-8.3c0.1-1.3,0.3-2.4,0.5-3.5
			c0.3-2.3,0.3-1.7,0.1-4c-0.2-2.2-0.5-4.9-0.5-7.8c0.1-2.3,0.2-4.4,0.4-6.2c0.3-2.3,0.2-1.4-0.5-3.5c-1.2-3.4-1.5-8.3,0.1-12.3
			C199.2,375,207.4,367.5,210.2,368.7z"/>
		<path class="st13" d="M210.6,368.6c0,1.1-0.1,2.7-0.1,4.6c-2.1-0.4-3.6-1.8-4.2-3.1C208.1,368.7,209.7,368.2,210.6,368.6z"/>
		<path class="st13" d="M228.9,384.5c1.9,0.2,3.4-0.5,3.4-1.4c0-0.9-1.5-1.8-3.4-2c-1.9-0.2-3.4,0.5-3.4,1.4
			C225.5,383.5,227,384.4,228.9,384.5z"/>
		<circle class="st13" cx="213.1" cy="363.8" r="7.8"/>
		<path class="st14" d="M213.1,356c4.3,0,7.8,3.5,7.8,7.8c0,0.2,0,0.4,0,0.6c-1.6,0.4-3.9,1.3-8.4-0.6c-2.5-2.8-2.8,1.5-2.4,2.2
			c0.7,1.1-5.1,6.2-5.1-1.9C204.9,359.7,208.8,356,213.1,356z"/>
		<path class="st12" d="M213.1,355.5c4.6,0,8.3,3.7,8.4,8.2l-14.8-5.3C208.2,356.6,210.5,355.5,213.1,355.5z"/>
		<polygon class="st12" points="206.3,358.2 223.4,364.2 223.1,364.9 206.1,358.8 		"/>
		<path class="st15" d="M213.1,356.3c3.7,0,6.8,2.7,7.5,6.2c-1.1-3.3-4.3-5.6-7.9-5.6c-1.6,0-3.2,0.5-4.5,1.3
			C209.5,357,211.3,356.3,213.1,356.3z"/>
		<path class="st12" d="M221,384.5c-3.2,0.1-5.9-0.3-6.7-1c-1.4-0.6-3.4-2-5.4-4c-3.2-3-6.8-4.8-4.4-6.9c2.4-2.1,5,2.3,7.1,4.1
			c1.1,1,2,2.1,2.8,3c1.3,1.3,1.3,1.6,6.5,1.4c3-0.1,4-0.1,5.3,0.2c0.4,0.1,0.5,2.5,0.1,2.6C224.9,384.4,223.1,384.4,221,384.5z"/>
		<path class="st13" d="M225.9,389.7c1.8,0.6,3.4,0.4,3.7-0.5c0.3-0.9-1-2.1-2.8-2.8c-1.8-0.6-3.4-0.4-3.7,0.5
			C222.9,387.9,224.1,389.1,225.9,389.7z"/>
		<path class="st12" d="M218.2,387.7c-3.1-0.7-5.6-1.8-6.2-2.7c-1.2-0.9-2.8-2.8-4.2-5.2c-2.3-3.7-5.3-6.3-2.5-7.8
			c2.8-1.4,4.3,3.5,5.8,5.7c0.8,1.2,1.4,2.5,2,3.6c0.9,1.6,0.8,1.9,5.9,3c2.9,0.6,3.9,1,5.1,1.6c0.3,0.2-0.1,2.5-0.5,2.6
			C222.1,388.6,220.3,388.2,218.2,387.7z"/>
	</g>
	<path class="st10" d="M458.9,83.8c0-1.4-2-1.7-2.4-0.3c0,0.1,0,0.2,0,0.3v2.4c0,1.4,2,1.7,2.4,0.3c0-0.1,0-0.2,0-0.3V83.8
		L458.9,83.8z M456.5,153.4c0,1.4,2,1.7,2.4,0.3c0-0.1,0-0.2,0-0.3V151c0-1.4-2-1.7-2.4-0.3c0,0.1,0,0.2,0,0.3V153.4L456.5,153.4z
		 M456.5,143.8c0,1.4,2,1.7,2.4,0.3c0-0.1,0-0.2,0-0.3v-2.4c0-1.4-2-1.7-2.4-0.3c0,0.1,0,0.2,0,0.3V143.8L456.5,143.8z M456.5,134.2
		c0,1.4,2,1.7,2.4,0.3c0-0.1,0-0.2,0-0.3v-2.4c0-1.4-2-1.7-2.4-0.3c0,0.1,0,0.2,0,0.3V134.2L456.5,134.2z M456.5,124.6
		c0,1.4,2,1.7,2.4,0.3c0-0.1,0-0.2,0-0.3v-2.4c0-1.4-2-1.7-2.4-0.3c0,0.1,0,0.2,0,0.3V124.6L456.5,124.6z M456.5,115
		c0,1.4,2,1.7,2.4,0.3c0-0.1,0-0.2,0-0.3v-2.4c0-1.4-2-1.7-2.4-0.3c0,0.1,0,0.2,0,0.3V115L456.5,115z M456.5,105.4
		c0,1.4,2,1.7,2.4,0.3c0-0.1,0-0.2,0-0.3V103c0-1.4-2-1.7-2.4-0.3c0,0.1,0,0.2,0,0.3V105.4L456.5,105.4z M456.5,95.8
		c0,1.4,2,1.7,2.4,0.3c0-0.1,0-0.2,0-0.3v-2.4c0-1.4-2-1.7-2.4-0.3c0,0.1,0,0.2,0,0.3V95.8z"/>
	<g>
		<path class="st12" d="M323,69.8c0,2,0.4,5.4-0.3,9.6c-1.1,6.4-0.9,12.8-1.9,16.9c-0.7,2.9-1.6,4.6-5.5,4.6
			c-6.9-0.1-10-7.8-6.7-16.3S320.2,68.6,323,69.8z"/>
		<path class="st12" d="M322.9,94.5c7.3,0,13.2,1.6,13.2,3.5c0,1.9-5.9,3.5-13.2,3.5s-12.3-0.9-12.3-2.8
			C310.5,96.7,315.6,94.5,322.9,94.5z"/>
		<path class="st11" d="M330.6,113.8c-2.6-1.7-5.3-2.1-6.1-0.8c-0.8,1.3,0.7,3.8,3.2,5.5c2.6,1.7,5.3,2.1,6.1,0.8
			C334.6,118,333.2,115.5,330.6,113.8z"/>
		<path class="st12" d="M327.9,104c2.5-4.8,5.9-7.9,7.5-7.1c1.6,0.8,0.9,5.4-1.6,10.2c-1.3,2.5-2.2,5.8-3.1,6.6
			c-0.8,0.7-5.5-0.3-5.7-1.2C324.4,110.5,326.3,107,327.9,104z"/>
		<path class="st13" d="M323.3,69.6c0,1.1-0.1,2.7-0.1,4.6c-2.1-0.4-3.6-1.8-4.2-3.1C320.8,69.8,322.4,69.2,323.3,69.6z"/>
		
			<ellipse transform="matrix(0.6915 -0.7224 0.7224 0.6915 42.3314 257.6666)" class="st12" cx="322.8" cy="79.3" rx="1.9" ry="7.9"/>
		<path class="st13" d="M341.6,85.6c1.9,0.2,3.4-0.5,3.4-1.4c0-0.9-1.5-1.8-3.4-2c-1.9-0.2-3.4,0.5-3.4,1.4
			C338.2,84.6,339.7,85.5,341.6,85.6z"/>
		<circle class="st13" cx="325.8" cy="64.8" r="7.8"/>
		<path class="st14" d="M325.8,57.1c4.3,0,7.8,3.5,7.8,7.8c0,0.2,0,0.4,0,0.6c-1.6,0.4-3.9,1.3-8.4-0.6c-2.5-2.8-2.8,1.5-2.4,2.2
			c0.7,1.1-5.1,6.2-5.1-1.9C317.6,60.8,321.5,57.1,325.8,57.1z"/>
		<path class="st12" d="M325.8,56.6c4.6,0,8.3,3.7,8.4,8.2l-14.8-5.3C320.9,57.7,323.2,56.6,325.8,56.6z"/>
		<polygon class="st12" points="319,59.2 336.1,65.3 335.8,66 318.8,59.9 		"/>
		<path class="st15" d="M325.8,57.4c3.7,0,6.8,2.7,7.5,6.2c-1.1-3.3-4.3-5.6-7.9-5.6c-1.6,0-3.2,0.5-4.5,1.3
			C322.2,58.1,324,57.4,325.8,57.4z"/>
		<path class="st12" d="M333.6,85.6c-3.8,0.2-6.9-0.5-7-1.4c0-0.9,3.8-1.8,6.8-2c3-0.1,4-0.1,5.3,0.2c0.4,0.1,0.5,2.5,0.1,2.6
			C337.6,85.5,335.8,85.5,333.6,85.6z"/>
		
			<ellipse transform="matrix(0.1074 -0.9942 0.9942 0.1074 213.1766 389.8586)" class="st12" cx="323.7" cy="76.2" rx="1.9" ry="7.9"/>
		<path class="st13" d="M342.4,69.8c1.6-1,2.4-2.5,1.9-3.2c-0.6-0.7-2.3-0.5-3.9,0.5c-1.6,1-2.4,2.5-1.9,3.2
			C339.1,71,340.8,70.8,342.4,69.8z"/>
		<path class="st12" d="M336.1,74.6c-2.9,2.4-5.8,3.8-6.4,3.1c-0.6-0.7,1.9-3.8,4.2-5.7c2.3-1.9,3.2-2.5,4.4-3.1
			c0.3-0.2,1.9,1.7,1.7,2C339.2,72.1,337.8,73.2,336.1,74.6z"/>
	</g>
	<g>
		<path class="st12" d="M476.6,69.6c0,2,0.3,5.5,0,9.8c-0.6,11-2.6,21.6,8,21.4c6.9-0.1,10-7.8,6.7-16.3
			C488,76.1,479.4,68.4,476.6,69.6z"/>
		<path class="st12" d="M477.1,94.5c-7.3,0-13.2,1.6-13.2,3.5c0,1.9,5.9,3.5,13.2,3.5s12.3-0.9,12.3-2.8
			C489.4,96.7,484.3,94.5,477.1,94.5z"/>
		<path class="st11" d="M469.3,113.8c2.6-1.7,5.3-2.1,6.1-0.8c0.8,1.3-0.7,3.8-3.2,5.5c-2.6,1.7-5.3,2.1-6.1,0.8
			C465.3,118,466.7,115.5,469.3,113.8z"/>
		<path class="st12" d="M472.1,104c-2.5-4.8-5.9-7.9-7.5-7.1c-1.6,0.8-0.9,5.4,1.6,10.2c1.3,2.5,2.2,5.8,3.1,6.6
			c0.8,0.7,5.5-0.3,5.7-1.2C475.5,110.5,473.7,107,472.1,104z"/>
		<path class="st13" d="M476.6,69.6c0,1.1,0.1,2.7,0.1,4.6c2.1-0.4,3.6-1.8,4.2-3.1C479.1,69.8,477.6,69.2,476.6,69.6z"/>
		<circle class="st13" cx="474.1" cy="64.8" r="7.8"/>
		<path class="st14" d="M474.1,57.1c-4.3,0-7.8,3.5-7.8,7.8c0,0.2,0,0.4,0,0.6c1.6,0.4,3.9,1.3,8.4-0.6c2.5-2.8,2.8,1.5,2.4,2.2
			c-0.7,1.1,5.1,6.2,5.1-1.9C482.3,60.8,478.4,57.1,474.1,57.1z"/>
		<path class="st12" d="M474.1,56.6c-4.6,0-8.3,3.7-8.4,8.2l14.8-5.3C479,57.7,476.7,56.6,474.1,56.6z"/>
		<polygon class="st12" points="480.9,59.2 463.8,65.3 464.1,66 481.2,59.9 		"/>
		<path class="st15" d="M474.1,57.4c-3.7,0-6.8,2.7-7.5,6.2c1.1-3.3,4.3-5.6,7.9-5.6c1.6,0,3.2,0.5,4.5,1.3
			C477.7,58.1,476,57.4,474.1,57.4z"/>
		
			<ellipse transform="matrix(0.7224 -0.6915 0.6915 0.7224 77.6335 351.9108)" class="st12" cx="477.1" cy="79.3" rx="7.9" ry="1.9"/>
		<path class="st13" d="M458.3,85.6c-1.9,0.2-3.4-0.5-3.4-1.4c0-0.9,1.5-1.8,3.4-2c1.9-0.2,3.4,0.5,3.4,1.4
			C461.7,84.6,460.2,85.5,458.3,85.6z"/>
		<path class="st12" d="M466.3,85.6c3.8,0.2,6.9-0.5,7-1.4c0-0.9-3.8-1.8-6.8-2c-3-0.1-4-0.1-5.3,0.2c-0.4,0.1-0.5,2.5-0.1,2.6
			C462.3,85.5,464.1,85.5,466.3,85.6z"/>
		
			<ellipse transform="matrix(0.3908 -0.9205 0.9205 0.3908 217.5236 489.537)" class="st12" cx="478.6" cy="80.4" rx="7.9" ry="1.9"/>
		<path class="st13" d="M463.9,93.6c-1.7,0.9-3.3,0.9-3.7,0.1c-0.4-0.8,0.7-2.2,2.3-3.1c1.7-0.9,3.3-0.9,3.7-0.1
			C466.6,91.4,465.6,92.8,463.9,93.6z"/>
		<path class="st12" d="M471.2,90.5c3.6-1.4,6.2-3.2,5.8-4c-0.3-0.9-4.2-0.2-7,0.9c-2.8,1.1-3.7,1.5-4.8,2.3
			c-0.3,0.2,0.5,2.5,0.9,2.4C467.5,92,469.1,91.3,471.2,90.5z"/>
	</g>
	<g>
		<polygon class="st16" points="519.4,190.4 692.6,675.1 698.6,675.1 525.5,190.4 		"/>
		<polygon class="st16" points="550.1,190.4 723.3,675.1 729.4,675.1 556.2,190.4 		"/>
		<g>
			<rect x="691.3" y="657.9" class="st16" width="30.2" height="5"/>
			<path class="st16" d="M683.9,642.2c10.1,0,20.1,0,30.2,0c0-1.7,0-3.3,0-5c-10.1,0-20.1,0-30.2,0
				C683.9,638.9,683.9,640.5,683.9,642.2z"/>
			<path class="st16" d="M676.6,621.5c10.1,0,20.1,0,30.2,0c0-1.7,0-3.3,0-5c-10.1,0-20.1,0-30.2,0
				C676.6,618.2,676.6,619.9,676.6,621.5z"/>
			<path class="st16" d="M669.3,600.8c10.1,0,20.1,0,30.2,0c0-1.7,0-3.3,0-5c-10.1,0-20.1,0-30.2,0
				C669.3,597.5,669.3,599.2,669.3,600.8z"/>
			<path class="st16" d="M661.9,580.2c10.1,0,20.1,0,30.2,0c0-1.7,0-3.3,0-5c-10.1,0-20.1,0-30.2,0
				C661.9,576.9,661.9,578.5,661.9,580.2z"/>
			<path class="st16" d="M654.6,559.5c10.1,0,20.1,0,30.2,0c0-1.7,0-3.3,0-5c-10.1,0-20.1,0-30.2,0
				C654.6,556.2,654.6,557.8,654.6,559.5z"/>
			<path class="st16" d="M647.2,538.8c10.1,0,20.1,0,30.2,0c0-1.7,0-3.3,0-5c-10.1,0-20.1,0-30.2,0
				C647.2,535.5,647.2,537.2,647.2,538.8z"/>
			<path class="st16" d="M639.9,518.1c10.1,0,20.1,0,30.2,0c0-1.7,0-3.3,0-5c-10.1,0-20.1,0-30.2,0
				C639.9,514.8,639.9,516.5,639.9,518.1z"/>
			<path class="st16" d="M632.5,497.5c10.1,0,20.1,0,30.2,0c0-1.7,0-3.3,0-5c-10.1,0-20.1,0-30.2,0
				C632.5,494.2,632.5,495.8,632.5,497.5z"/>
			<path class="st16" d="M625.2,476.8c10.1,0,20.1,0,30.2,0c0-1.7,0-3.3,0-5c-10.1,0-20.1,0-30.2,0
				C625.2,473.5,625.2,475.1,625.2,476.8z"/>
			<path class="st16" d="M617.9,456.1c10.1,0,20.1,0,30.2,0c0-1.7,0-3.3,0-5c-10.1,0-20.1,0-30.2,0
				C617.9,452.8,617.9,454.5,617.9,456.1z"/>
			<path class="st16" d="M610.5,435.4c10.1,0,20.1,0,30.2,0c0-1.7,0-3.3,0-5c-10.1,0-20.1,0-30.2,0
				C610.5,432.1,610.5,433.8,610.5,435.4z"/>
			<path class="st16" d="M603.2,414.8c10.1,0,20.1,0,30.2,0c0-1.7,0-3.3,0-5c-10.1,0-20.1,0-30.2,0
				C603.2,411.4,603.2,413.1,603.2,414.8z"/>
			<path class="st16" d="M595.8,394.1c10.1,0,20.1,0,30.2,0c0-1.7,0-3.3,0-5c-10.1,0-20.1,0-30.2,0
				C595.8,390.8,595.8,392.4,595.8,394.1z"/>
			<path class="st16" d="M588.5,373.4c10.1,0,20.1,0,30.2,0c0-1.7,0-3.3,0-5c-10.1,0-20.1,0-30.2,0
				C588.5,370.1,588.5,371.7,588.5,373.4z"/>
			<path class="st16" d="M581.1,352.7c10.1,0,20.1,0,30.2,0c0-1.7,0-3.3,0-5c-10.1,0-20.1,0-30.2,0
				C581.1,349.4,581.1,351.1,581.1,352.7z"/>
			<path class="st16" d="M573.8,332c10.1,0,20.1,0,30.2,0c0-1.7,0-3.3,0-5c-10.1,0-20.1,0-30.2,0C573.8,328.7,573.8,330.4,573.8,332
				z"/>
			<path class="st16" d="M566.4,311.4c10.1,0,20.1,0,30.2,0c0-1.7,0-3.3,0-5c-10.1,0-20.1,0-30.2,0
				C566.4,308.1,566.4,309.7,566.4,311.4z"/>
			<path class="st16" d="M559.1,290.7c10.1,0,20.1,0,30.2,0c0-1.7,0-3.3,0-5c-10.1,0-20.1,0-30.2,0
				C559.1,287.4,559.1,289,559.1,290.7z"/>
			<path class="st16" d="M551.8,270c10.1,0,20.1,0,30.2,0c0-1.7,0-3.3,0-5c-10.1,0-20.1,0-30.2,0C551.8,266.7,551.8,268.4,551.8,270
				z"/>
			<path class="st16" d="M544.4,249.3c10.1,0,20.1,0,30.2,0c0-1.7,0-3.3,0-5c-10.1,0-20.1,0-30.2,0
				C544.4,246,544.4,247.7,544.4,249.3z"/>
			<rect x="537.1" y="223.7" class="st16" width="30.2" height="5"/>
		</g>
	</g>
	<g>
		<path class="st11" d="M546.3,219.6c3.1-0.1,5.5,0.3,5.5,2.6c0,2.3-2.6,2-5.7,2.1c-3.1,0.1-5.6-0.3-5.5-1.8
			C540.7,221,543.2,219.7,546.3,219.6z"/>
		<path class="st12" d="M540.6,188.5c0.5,1.2,0.7,2.4,0.8,4.9c0,1,0.1,2.2,0.3,3.3c0.3,2.4,1.3,8.7,1.8,10.7
			c0.7,2.6,0.3,11.1,0.8,11.9c0.5,1,6.9,1.8,7.5,1c1-1.6-0.7-4.9-1.3-8.3c-0.2-1.3-0.6-2.4-0.9-3.5c-0.6-2.3-0.5-1.7-0.6-4
			c-0.1-2.2,0-4.9-0.4-7.8c-0.3-2.3-0.7-4.4-1.1-6.2c-0.3-1.2-0.4-1.5-0.3-1.9H540.6z"/>
		<path class="st11" d="M542.7,219.6c3.1-0.1,5.5,0.3,5.5,2.6c0,2.3-2.6,2-5.7,2.1c-3.1,0.1-5.6-0.3-5.5-1.8
			C537,221,539.6,219.7,542.7,219.6z"/>
		<path class="st12" d="M533.5,159.8c0,2-0.9,5.5,0.4,9.5c3.2,9.4,4.7,12.7,6.7,19c0.4,1.3,0.6,2.5,0.4,5.2c-0.1,1-0.1,2.2-0.1,3.3
			c0.1,2.4,0.3,8.7,0.6,10.7c0.5,2.6-0.9,11.1-0.6,11.9c0.4,1,6.7,1.8,7.3,1c1.2-1.6-0.1-4.9-0.3-8.3c-0.1-1.3-0.3-2.4-0.5-3.5
			c-0.3-2.3-0.3-1.7-0.1-4c0.2-2.2,0.5-4.9,0.5-7.8c-0.1-2.3-0.2-4.4-0.4-6.2c-0.3-2.3-0.2-1.4,0.5-3.5c1.2-3.4,1.5-8.3-0.1-12.3
			C544.5,166.1,536.3,158.5,533.5,159.8z"/>
		<path class="st13" d="M533.1,159.6c0,1.1,0.1,2.7,0.1,4.6c2.1-0.4,3.6-1.8,4.2-3.1C535.6,159.8,534,159.2,533.1,159.6z"/>
		<path class="st13" d="M514.8,175.6c-1.9,0.2-3.4-0.5-3.4-1.4c0-0.9,1.5-1.8,3.4-2c1.9-0.2,3.4,0.5,3.4,1.4
			C518.2,174.5,516.7,175.4,514.8,175.6z"/>
		<circle class="st13" cx="530.6" cy="154.8" r="7.8"/>
		<path class="st14" d="M530.6,147c-4.3,0-7.8,3.5-7.8,7.8c0,0.2,0,0.4,0,0.6c1.6,0.4,3.9,1.3,8.4-0.6c2.5-2.8,2.8,1.5,2.4,2.2
			c-0.7,1.1,5.1,6.2,5.1-1.9C538.8,150.8,534.9,147,530.6,147z"/>
		<path class="st12" d="M530.6,146.5c-4.6,0-8.3,3.7-8.4,8.2l14.8-5.3C535.4,147.6,533.2,146.5,530.6,146.5z"/>
		<polygon class="st12" points="537.4,149.2 520.3,155.2 520.6,155.9 537.6,149.9 		"/>
		<path class="st15" d="M530.5,147.4c-3.7,0-6.8,2.7-7.5,6.2c1.1-3.3,4.3-5.6,7.9-5.6c1.6,0,3.2,0.5,4.5,1.3
			C534.2,148,532.4,147.4,530.5,147.4z"/>
		<path class="st12" d="M522.7,175.6c3.2,0.1,5.9-0.3,6.7-1c1.4-0.6,3.4-2,5.4-4c3.2-3,6.8-4.8,4.4-6.9c-2.4-2.1-5,2.3-7.1,4.1
			c-1.1,1-2,2.1-2.8,3c-1.3,1.3-1.3,1.6-6.5,1.4c-3-0.1-4-0.1-5.3,0.2c-0.4,0.1-0.5,2.5-0.1,2.6
			C518.7,175.4,520.6,175.5,522.7,175.6z"/>
		<path class="st13" d="M517.8,180.7c-1.8,0.6-3.4,0.4-3.7-0.5c-0.3-0.9,1-2.1,2.8-2.8c1.8-0.6,3.4-0.4,3.7,0.5
			C520.8,178.9,519.6,180.1,517.8,180.7z"/>
		<path class="st12" d="M525.5,178.7c3.1-0.7,5.6-1.8,6.2-2.7c1.2-0.9,2.8-2.8,4.2-5.2c2.3-3.7,5.3-6.3,2.5-7.8
			c-2.8-1.4-4.3,3.5-5.8,5.7c-0.8,1.2-1.4,2.5-2,3.6c-0.9,1.6-0.8,1.9-5.9,3c-2.9,0.6-3.9,1-5.1,1.6c-0.3,0.2,0.1,2.5,0.5,2.6
			C521.6,179.6,523.4,179.2,525.5,178.7z"/>
	</g>
	<g>
		
			<rect x="223.6" y="479.3" transform="matrix(0.2701 -0.9628 0.9628 0.2701 -308.8068 641.5048)" class="st1" width="90.3" height="90.3"/>
		
			<rect x="229.9" y="485.6" transform="matrix(0.2701 -0.9628 0.9628 0.2701 -308.8063 641.508)" class="st4" width="77.6" height="77.6"/>
	</g>
	<g>
		
			<ellipse transform="matrix(9.785485e-02 -0.9952 0.9952 9.785485e-02 -121.6434 764.9517)" class="st17" cx="361.1" cy="449.6" rx="6.3" ry="6.3"/>
		
			<ellipse transform="matrix(9.781501e-02 -0.9952 0.9952 9.781501e-02 -104.7806 787.6767)" class="st7" cx="382.1" cy="451.6" rx="6.3" ry="6.3"/>
		
			<ellipse transform="matrix(9.781577e-02 -0.9952 0.9952 9.781577e-02 -87.9309 810.3827)" class="st8" cx="403" cy="453.7" rx="6.3" ry="6.3"/>
	</g>
	<polygon class="st8" points="249.9,691.2 348.4,691.2 348.4,635.3 232.7,635.3 	"/>
	<g>
		<g>
			
				<rect x="394.1" y="651.8" transform="matrix(0.9273 -0.3744 0.3744 0.9273 -216.9505 195.6678)" class="st12" width="2.1" height="8.8"/>
			<g>
				<path class="st12" d="M373.7,647c0.3,2,1.3,5.3,1.3,9.5c-0.1,6.5,1.2,12.8,0.9,17c-0.2,2.9-0.8,4.8-4.7,5.4
					c-6.9,1.1-11.1-6-9.3-14.9C363.8,655,370.7,646.3,373.7,647z"/>
				<path class="st12" d="M377.6,671.3c7.2-1.2,13.3-0.6,13.6,1.2c0.3,1.9-5.3,4.4-12.4,5.6c-7.2,1.2-12.3,1.2-12.6-0.7
					C365.8,675.6,370.4,672.5,377.6,671.3z"/>
				<path class="st14" d="M388.4,689.1c-2.8-1.3-5.5-1.2-6.1,0.2c-0.5,1.4,1.3,3.6,4.1,4.9c2.8,1.3,5.6,1.2,6.1-0.2
					C393.1,692.6,391.2,690.4,388.4,689.1z"/>
				<path class="st12" d="M384.1,679.9c1.7-5.1,4.5-8.8,6.2-8.2c1.7,0.6,1.8,5.2,0.1,10.3c-0.9,2.7-1.2,6.1-2,7
					c-0.7,0.8-5.5,0.7-5.9-0.3C381.8,686.9,383,683.1,384.1,679.9z"/>
				<path class="st13" d="M373.9,646.8c0.2,1.1,0.4,2.6,0.6,4.5c-2.1-0.1-3.9-1.2-4.7-2.4C371.5,647.4,372.9,646.5,373.9,646.8z"/>
				
					<ellipse transform="matrix(0.5626 -0.8267 0.8267 0.5626 -378.5783 597.1705)" class="st12" cx="375.1" cy="656.4" rx="1.9" ry="7.9"/>
				<path class="st13" d="M394.6,659.5c1.9-0.2,3.3-1,3.2-1.9c-0.1-0.9-1.8-1.5-3.6-1.4c-1.9,0.2-3.3,1-3.2,1.9
					C391.1,659,392.7,659.7,394.6,659.5z"/>
				
					<ellipse transform="matrix(0.9862 -0.1654 0.1654 0.9862 -100.9372 70.9422)" class="st13" cx="375.6" cy="641.6" rx="7.8" ry="7.8"/>
				<path class="st14" d="M374.3,634c4.2-0.7,8.2,2.1,8.9,6.4c0,0.2,0.1,0.4,0.1,0.6c-1.5,0.7-3.6,1.9-8.4,0.8c-2.9-2.3-2.5,2-2,2.6
					c0.9,0.9-4,7-5.4-1.1C366.9,639,370.1,634.7,374.3,634z"/>
				<path class="st12" d="M374.2,633.5c4.5-0.8,8.8,2.2,9.7,6.7l-15.5-2.7C369.6,635.4,371.7,633.9,374.2,633.5z"/>
				<polygon class="st12" points="368,637.2 385.8,640.4 385.7,641.1 367.8,637.9 				"/>
				<path class="st15" d="M374.4,634.3c3.7-0.6,7.1,1.5,8.4,4.9c-1.7-3.1-5.1-4.9-8.8-4.3c-1.6,0.3-3.1,1-4.2,2
					C371,635.6,372.5,634.6,374.4,634.3z"/>
				<path class="st12" d="M386.8,660.8c-3.7,0.8-6.9,0.7-7.1-0.2c-0.2-0.9,3.5-2.4,6.4-3.1c3-0.6,4-0.7,5.3-0.7
					c0.4,0,0.9,2.4,0.6,2.5C390.7,660,388.9,660.4,386.8,660.8z"/>
				<g>
					
						<ellipse transform="matrix(0.3774 -0.926 0.926 0.3774 -373.6631 755.0026)" class="st12" cx="374.7" cy="655.4" rx="1.7" ry="7.1"/>
					<path class="st13" d="M392.5,654.5c1.6-0.5,2.7-1.5,2.4-2.3s-1.8-1-3.5-0.5c-1.6,0.5-2.7,1.5-2.4,2.3
						C389.3,654.8,390.8,655,392.5,654.5z"/>
					<path class="st12" d="M385.8,657.1c-3.1,1.4-5.9,1.9-6.3,1.1c-0.3-0.8,2.6-2.8,5.1-3.9c2.5-1.1,3.4-1.4,4.5-1.6
						c0.3-0.1,1.3,1.9,1,2.1C389.1,655.7,387.6,656.3,385.8,657.1z"/>
				</g>
			</g>
			<g>
				<path class="st16" d="M395.3,732.1v-7.4c5.5,0,9.9-4.4,9.9-9.9c0-5.5-4.4-9.9-9.9-9.9v-46.7h6.1l-6.1-24.6v-10.7h5l8.8,35.3h4.2
					h12.8c5.8,0,10.5,4.7,10.5,10.5v28.7H451V720h-39.2C409.6,727,403,732.1,395.3,732.1z M261.8,704.9c5.5,0,9.9,4.4,9.9,9.9
					c0,5.5-4.4,9.9-9.9,9.9v7.4c7.7,0,14.3-5.1,16.5-12.1h100.4c2.2,7,8.8,12.1,16.5,12.1v-7.4c-5.5,0-9.9-4.4-9.9-9.9
					c0-5.5,4.4-9.9,9.9-9.9v-46.7h-31.5v-26.5h31l0.5,2v-10.7H354v35.3v17.7v21.6h-92.2V704.9z M261.8,724.7c-5.5,0-9.9-4.4-9.9-9.9
					c0-5.5,4.4-9.9,9.9-9.9v-7.4h-32.9V720h16.4c2.2,7,8.8,12.1,16.5,12.1V724.7z"/>
				<polygon class="st18" points="348.4,613.1 377.1,613.1 377.1,603.2 348.4,603.2 341.2,603.2 331.3,622.9 228.9,622.9 
					249.9,691.2 262.3,691.2 262.3,642.3 279.1,691.2 290.7,691.2 290.7,642.3 307.5,691.2 319.1,691.2 319.1,642.3 335.9,691.2 
					348.4,691.2 348.4,642.3 348.4,639.7 348.4,622.9 				"/>
			</g>
		</g>
		<path class="st19" d="M261.8,726c6.2,0,11.3-5.1,11.3-11.3c0-6.2-5.1-11.3-11.3-11.3s-11.3,5.1-11.3,11.3
			C250.5,721,255.6,726,261.8,726z"/>
		<path class="st19" d="M395.1,726c6.2,0,11.3-5.1,11.3-11.3c0-6.2-5.1-11.3-11.3-11.3c-6.2,0-11.3,5.1-11.3,11.3
			C383.8,721,388.9,726,395.1,726z"/>
	</g>
	<polygon class="st8" points="583.6,570.4 589.4,562.9 606.3,566.6 607.7,574.4 654.5,627 591.1,651.7 586.9,656.7 570,653.1 
		568.2,647 552.6,602 	"/>
	<g>
		<g>
			
				<rect x="542" y="601.2" transform="matrix(0.21 -0.9777 0.9777 0.21 -131.6178 1056.7976)" class="st18" width="92.2" height="17.3"/>
			<polygon class="st18" points="568.2,647 584.8,569.7 556.5,583.9 548.2,622.5 			"/>
			<polygon class="st18" points="591.1,651.7 607.7,574.4 659.1,605.7 650.8,644.3 			"/>
			<polygon class="st16" points="662.8,680.5 662.8,607.1 650.6,659.3 			"/>
			
				<rect x="504.3" y="618" transform="matrix(0.3746 -0.9272 0.9272 0.3746 -256.076 858.2092)" class="st12" width="7.6" height="1.8"/>
			<g>
				<path class="st12" d="M525.4,611.8c-0.3,1.8-1.2,4.9-1.2,8.9c0.1,6.1-1.1,11.9-0.8,15.8c0.2,2.7,0.7,4.5,4.3,5.1
					c6.4,1,10.4-5.6,8.6-13.9C534.7,619.3,528.2,611.1,525.4,611.8z"/>
				<path class="st12" d="M521.8,634.5c-6.7-1.1-12.4-0.6-12.7,1.2s4.9,4.1,11.6,5.2c6.7,1.1,11.5,1.1,11.8-0.7
					C532.8,638.4,528.5,635.6,521.8,634.5z"/>
				<path class="st14" d="M511.7,651c2.6-1.2,5.2-1.1,5.7,0.2c0.5,1.3-1.2,3.4-3.8,4.6c-2.6,1.2-5.2,1.1-5.7-0.2
					C507.3,654.3,509.1,652.2,511.7,651z"/>
				<path class="st12" d="M515.7,642.5c-1.6-4.8-4.2-8.2-5.8-7.7c-1.6,0.5-1.6,4.8-0.1,9.6c0.8,2.5,1.1,5.7,1.8,6.6
					c0.6,0.8,5.1,0.6,5.5-0.2C517.9,649,516.7,645.5,515.7,642.5z"/>
				<path class="st13" d="M525.2,611.6c-0.2,1-0.3,2.5-0.6,4.2c2-0.1,3.6-1.1,4.4-2.2C527.5,612.1,526.1,611.3,525.2,611.6z"/>
				
					<ellipse transform="matrix(0.8267 -0.5627 0.5627 0.8267 -258.2991 402.461)" class="st12" cx="524.1" cy="620.5" rx="7.4" ry="1.8"/>
				<path class="st13" d="M505.9,623.4c-1.8-0.1-3.1-1-2.9-1.8c0.1-0.9,1.6-1.4,3.4-1.3s3.1,1,2.9,1.8
					C509.2,623,507.7,623.6,505.9,623.4z"/>
				
					<ellipse transform="matrix(0.1653 -0.9862 0.9862 0.1653 -161.3436 1022.9458)" class="st13" cx="523.7" cy="606.8" rx="7.2" ry="7.2"/>
				<path class="st14" d="M524.9,599.6c-3.9-0.7-7.7,2-8.3,5.9c0,0.2-0.1,0.4-0.1,0.6c1.4,0.7,3.4,1.8,7.8,0.7
					c2.7-2.2,2.4,1.8,1.9,2.4c-0.8,0.9,3.7,6.5,5-1C531.8,604.3,528.8,600.3,524.9,599.6z"/>
				<path class="st12" d="M524.9,599.2c-4.2-0.7-8.2,2.1-9,6.3l14.4-2.6C529.2,601,527.3,599.6,524.9,599.2z"/>
				<polygon class="st12" points="530.7,602.7 514.1,605.6 514.2,606.3 530.9,603.3 				"/>
				<path class="st15" d="M524.8,599.9c-3.4-0.6-6.7,1.4-7.8,4.5c1.6-2.8,4.8-4.5,8.2-4c1.5,0.3,2.8,0.9,3.9,1.9
					C528,601.1,526.5,600.2,524.8,599.9z"/>
				<path class="st12" d="M513.2,624.7c3.5,0.7,6.4,0.6,6.6-0.2c0.2-0.8-3.2-2.3-6-2.9c-2.8-0.6-3.7-0.7-4.9-0.6
					c-0.4,0-0.9,2.2-0.5,2.4C509.6,624,511.2,624.3,513.2,624.7z"/>
				<g>
					
						<ellipse transform="matrix(0.926 -0.3774 0.3774 0.926 -195.0698 243.7817)" class="st12" cx="524.5" cy="619.6" rx="6.6" ry="1.6"/>
					<path class="st13" d="M507.9,618.8c-1.5-0.5-2.5-1.4-2.2-2.2c0.3-0.7,1.7-1,3.2-0.5c1.5,0.5,2.5,1.4,2.2,2.2
						C510.9,619,509.4,619.2,507.9,618.8z"/>
					<path class="st12" d="M514.1,621.2c2.9,1.3,5.5,1.8,5.9,1.1s-2.4-2.6-4.7-3.6c-2.3-1-3.1-1.3-4.2-1.5c-0.3,0-1.2,1.8-0.9,2
						C511,619.9,512.4,620.5,514.1,621.2z"/>
				</g>
			</g>
			<path class="st16" d="M631.9,691.8c7.3,0,13.4-4.8,15.5-11.3h15.3v-21.2h-30.8v7c5.1,0,9.3,4.2,9.3,9.3s-4.2,9.3-9.3,9.3V691.8z
				 M616.4,680.5c2.1,6.6,8.2,11.3,15.5,11.3v-7c-5.1,0-9.3-4.2-9.3-9.3s4.2-9.3,9.3-9.3v-7h-86.4V639v-16.6v-33.1h-26.9v8.2h17.7
				v24.9h-17.7v64.2c1.6-1.7,2.9-3.8,3.6-6.1H616.4z M518.6,589.4h-11.9v10l0.5-1.8h11.4V589.4L518.6,589.4z M506.7,691.8
				c4.7,0,8.9-2,11.9-5.2v-64.2h-11.9v43.8c5.1,0,9.3,4.2,9.3,9.3s-4.2,9.3-9.3,9.3V691.8z M506.7,589.4h-4.7l-8.3,33.1h-16
				c-5.4,0-9.9,4.5-9.9,9.9v26.9h-13.5v21.2h36.8c2.1,6.6,8.2,11.3,15.5,11.3v-7c-5.1,0-9.3-4.2-9.3-9.3s4.2-9.3,9.3-9.3v-43.8H501
				l5.8-23.1V589.4z"/>
		</g>
		<path class="st19" d="M506.7,685.6c5.6,0,10.1-4.6,10.1-10.1c0-5.6-4.6-10.1-10.1-10.1c-5.6,0-10.1,4.6-10.1,10.1
			C496.6,681.1,501.2,685.6,506.7,685.6z"/>
		<path class="st19" d="M631.9,685.6c5.6,0,10.1-4.6,10.1-10.1c0-5.6-4.6-10.1-10.1-10.1c-5.6,0-10.1,4.6-10.1,10.1
			C621.7,681.1,626.3,685.6,631.9,685.6z"/>
	</g>
	<g>
		<path class="st20" d="M269,362.6l-2.3-32.5l-2.1-0.2l0.4-4.4l9.2,0.9l-0.4,4.4l-2.1-0.2c0.7,7.3,0.9,14.6,0.8,21.9
			c1.5-7.3,3.2-14.4,5.1-21.4l-2.2-0.2l0.4-4.4l8.5,0.9l-0.4,4.4l-2.1-0.2c0.7,7.8,1,15.1,1,22c1-6.5,2.7-13.6,4.9-21.4l-2.1-0.2
			l0.4-4.4l8.5,0.9l-0.4,4.4l-2-0.2l-8.5,31.5l-4.1-0.4c-0.9-9.4-1.3-16.5-1.3-21.2c-0.6,3.4-2.3,10.2-5,20.5L269,362.6z"/>
		<path class="st20" d="M292.6,364.7l0.4-4.4l2.7,0.3l2.7-27.3l-2.7-0.3l0.4-4.4l16.6,1.7l-1.1,10.5l-4.4-0.4l0.6-6.2l-4.5-0.4
			l-1.1,10.9l3.7,0.4l-0.4,4.4L302,349l-1.2,12.1l4.5,0.4l0.7-6.7l4.4,0.4l-1.1,11.1L292.6,364.7z"/>
		<path class="st20" d="M336.6,356.4l-1.7,8.1l2.3,0.2l-0.4,4.4l-9.6-1l0.4-4.4l2.2,0.2l6.7-26.9l-2.5-0.3l0.4-4.4l13.3,1.3
			l-0.4,4.4l-2.5-0.3l1.2,27.7l2.2,0.2l-0.4,4.4l-9.6-1l0.4-4.4l2.3,0.2l-0.1-8.3L336.6,356.4z M337.3,352.1l3.7,0.4l0.1-16.2
			l-0.6-0.1L337.3,352.1z"/>
		<path class="st20" d="M359.2,354.8l-1.2,12l2.7,0.3l-0.4,4.4l-10.8-1.1l0.4-4.4l3,0.3l2.7-27.3l-3-0.3l0.4-4.4l9,0.9
			c3,0.3,5.4,1.4,7,3.4c1.6,2,2.2,4.4,1.9,7.4c-0.4,3.8-2.1,6.5-5.1,8.1l2.6,13.8l2.2,0.2l-0.4,4.4l-6.1-0.6l-2.8-17
			C360.7,354.9,360,354.9,359.2,354.8z M360.8,339.5l-1.1,11c1.9,0.2,3.4-0.1,4.3-0.9c0.9-0.8,1.5-2.2,1.7-4.1
			c0.2-2-0.1-3.5-0.9-4.4C364,340.2,362.7,339.7,360.8,339.5z"/>
		<path class="st20" d="M371.8,372.6l0.4-4.4l2.7,0.3l2.7-27.3l-2.7-0.3l0.4-4.4l16.6,1.7l-1.1,10.5l-4.4-0.4l0.6-6.2l-4.5-0.4
			l-1.1,10.9l3.7,0.4l-0.4,4.4l-3.7-0.4L380,369l4.5,0.4l0.7-6.7l4.4,0.4l-1.1,11.1L371.8,372.6z"/>
		<path class="st20" d="M407.4,376.1l0.4-4.4l2.7,0.3l2.7-27.3l-2.7-0.3l0.4-4.4l10.7,1.1l0.6,7.7c0.1,1.1,0.1,2.5,0.1,4.4l0,6.8
			l0.1,0l1.3-5.8c0.5-2.3,1-4.2,1.4-5.8l1.8-6.8l10.8,1.1l-0.4,4.4l-2.7-0.3l-2.7,27.3l2.8,0.3l-0.4,4.4l-10.6-1.1l0.4-4.4l2.7,0.3
			l1.8-18.3l1.4-9.7l-0.5,0l-2.9,12.2l-5.4,19.7l-1.5-0.2l-1.5-18.8l-0.4-14l-0.5,0l-0.7,9.7l-1.8,18.3l2.7,0.3l-0.4,4.4
			L407.4,376.1z"/>
		<path class="st20" d="M455.8,363c-1.2,12.3-4.6,18.1-10.2,17.6c-2.9-0.3-4.8-2-5.9-5.2c-1.1-3.2-1.3-7.9-0.7-14.1
			c0.4-4.1,1.1-7.6,2-10.3c0.9-2.7,2.1-4.7,3.5-6s3-1.8,4.7-1.7c2.6,0.3,4.5,2,5.7,5.3C456.2,352,456.4,356.7,455.8,363z
			 M444.7,362.1c-0.5,5.2-0.7,8.8-0.5,10.7s0.8,2.9,1.9,3c1.1,0.1,1.9-0.8,2.4-2.6c0.6-1.8,1.1-5.4,1.6-10.5
			c0.6-5.7,0.8-9.5,0.6-11.5c-0.2-2-0.8-3-1.9-3.1c-1.2-0.1-2,0.9-2.6,3C445.7,353.1,445.2,356.8,444.7,362.1z"/>
		<path class="st20" d="M463.2,382l-2.9-32.6l-2.5-0.2l0.4-4.4l10,1l-0.4,4.4l-2.4-0.2c1,9.7,1.3,17.2,0.9,22.4l0.1,0
			c0.6-4.7,2.3-11.9,5.3-21.8l-2.4-0.2l0.4-4.4l9.5,0.9l-0.4,4.4l-2.6-0.3l-9,31.4L463.2,382z"/>
		<path class="st20" d="M477.3,383.1l0.4-4.4l2.7,0.3l2.7-27.3l-2.7-0.3l0.4-4.4l16.6,1.7l-1.1,10.5l-4.4-0.4l0.6-6.2l-4.5-0.4
			l-1.1,10.9l3.7,0.4l-0.4,4.4l-3.7-0.4l-1.2,12.1l4.5,0.4l0.7-6.7l4.4,0.4l-1.1,11.1L477.3,383.1z"/>
		<path class="st20" d="M497.3,385.1l0.4-4.4l2.6,0.3l2.7-27.3l-2.6-0.3l0.4-4.4l6.5,0.6c4.1,0.4,7,2.2,8.6,5.3
			c1.6,3.1,2,7.8,1.4,14c-0.6,6.1-2,10.5-4.2,13.2c-2.2,2.7-5.3,3.9-9.2,3.5L497.3,385.1z M508.2,354.2l-2.7,27.3
			c1.9,0.2,3.3-0.7,4.2-2.5c0.9-1.8,1.6-5.1,2.1-9.9c0.4-3.7,0.5-6.7,0.4-8.8c-0.1-2.1-0.5-3.6-1.1-4.5
			C510.5,354.9,509.5,354.3,508.2,354.2z"/>
	</g>
	<g>
		<rect x="154.9" y="675.1" class="st16" width="47.8" height="6.1"/>
		<g>
			<rect x="160.4" y="597.4" class="st16" width="6.1" height="77.8"/>
			<rect x="191.1" y="597.4" class="st16" width="6.1" height="77.8"/>
		</g>
		<rect x="160.4" y="591.3" class="st16" width="36.8" height="6.1"/>
		<g>
			<rect x="167" y="191.7" class="st16" width="6.1" height="399.6"/>
			<rect x="184.5" y="191.7" class="st16" width="6.1" height="399.6"/>
		</g>
		<polygon class="st16" points="184.5,191.7 178.8,164.1 173,191.7 167,191.7 174.4,156.1 183.2,156.1 190.6,191.7 		"/>
		<g>
			<polygon class="st16" points="463.7,192.1 185.3,252.2 186.8,258.1 465.2,198 			"/>
			
				<rect x="183.3" y="233.4" transform="matrix(0.9674 -0.2531 0.2531 0.9674 -49.206 90.4278)" class="st16" width="287.1" height="6.1"/>
		</g>
		<g>
			<polygon class="st16" points="62,297.3 168.7,256.1 170.3,262 63.5,303.2 			"/>
			
				<rect x="62.3" y="288.4" transform="matrix(0.9674 -0.2534 0.2534 0.9674 -70.0233 39.162)" class="st16" width="109.5" height="6.1"/>
		</g>
		<rect x="62" y="297.3" class="st16" width="23.8" height="39.8"/>
		<g>
			<polygon class="st16" points="180,675.1 191.1,662.9 191.1,654 171.7,675.1 			"/>
			<polygon class="st16" points="166.5,666.4 191.1,639.6 191.1,630.6 166.5,657.5 			"/>
			<polygon class="st16" points="166.5,643.1 191.1,616.2 191.1,607.2 166.5,634.1 			"/>
			<polygon class="st16" points="166.5,619.7 186.9,597.4 178.7,597.4 166.5,610.7 			"/>
		</g>
		<path class="st16" d="M209.9,438h24.7V331.6h-24.7v4.7h19.3v97h-19.3V438z M167,438h42.9v-4.7h-19.3v-97h19.3v-4.7H167V438z"/>
		<rect x="62" y="319.8" class="st8" width="23.8" height="8.6"/>
		<g>
			<path class="st16" d="M460.4,198.1h-3v189.6h3V198.1L460.4,198.1z M450.4,198.1h-3v189.6h3L450.4,198.1z"/>
			<rect x="442" y="381" class="st16" width="23.8" height="39.8"/>
			<rect x="452.1" y="419.4" class="st16" width="3" height="12"/>
			<path class="st16" d="M453.6,431.1c6.8,0,12.3,5.5,12.3,12.3c0,6.8-5.5,12.3-12.3,12.3c-6.8,0-12.3-5.5-12.3-12.3h2.7
				c0,5.3,4.3,9.6,9.6,9.6c5.3,0,9.6-4.3,9.6-9.6c0-5.3-4.3-9.6-9.6-9.6c-0.5,0-1,0-1.5,0.1v-2.7
				C452.6,431.1,453.1,431.1,453.6,431.1z"/>
			<rect x="442" y="403.5" class="st8" width="23.8" height="8.6"/>
		</g>
		<rect x="167" y="331.6" class="st16" width="23.6" height="106.4"/>
		<rect x="180.8" y="358.7" class="st21" width="5.9" height="11.8"/>
		<rect x="180.8" y="374.3" class="st21" width="5.9" height="11.8"/>
		<rect x="190.6" y="392.3" class="st16" width="40.8" height="4.7"/>
		<rect x="442.7" y="203.1" class="st16" width="23.8" height="39.8"/>
		<rect x="442.7" y="225.6" class="st8" width="23.8" height="8.6"/>
		<polygon class="st1" points="438.4,443.6 448.4,444.6 448.7,439.6 439,438.4 		"/>
	</g>
	<g>
		<path class="st20" d="M249.5,513.3l1.3-11.9l-0.7-0.2l0.4-1.5l3.3,0.9l-0.4,1.5l-0.8-0.2c-0.2,2.7-0.6,5.3-1.2,7.9
			c1-2.5,2.1-5,3.2-7.3l-0.8-0.2l0.4-1.5l3,0.9l-0.4,1.5l-0.7-0.2c-0.3,2.8-0.6,5.5-1.1,8c0.8-2.3,1.9-4.7,3.2-7.4l-0.7-0.2l0.4-1.5
			l3,0.9l-0.4,1.5l-0.7-0.2l-5.1,10.8l-1.5-0.4c0.3-3.4,0.6-6,0.9-7.7c-0.4,1.2-1.5,3.5-3.2,7L249.5,513.3z"/>
		<path class="st20" d="M262.7,515.4l-0.4,1.5l-2.3-0.7l0.2-0.8l0,0c-0.5,0.5-1.1,0.6-1.7,0.4c-0.6-0.2-0.9-0.5-1.2-1.2
			c-0.2-0.6-0.2-1.3,0-2.1c0.3-0.9,0.7-1.5,1.2-1.9c0.5-0.4,1.1-0.5,1.7-0.3c0.5,0.1,0.9,0.5,1.1,1l0.4-1.5c0.2-0.6,0.2-1,0.1-1.2
			c-0.1-0.2-0.3-0.3-0.5-0.4c-0.5-0.2-0.9,0.1-1.2,0.9l-1.3-0.8c0.3-0.6,0.7-1.1,1.3-1.3c0.5-0.2,1.1-0.3,1.7-0.1
			c0.7,0.2,1.2,0.6,1.5,1.1c0.3,0.6,0.4,1.2,0.1,2l-1.5,5.2L262.7,515.4z M260.5,514.5l0.6-2c-0.2-0.3-0.4-0.6-0.7-0.6
			c-0.6-0.2-1,0.2-1.3,1.2c-0.3,0.9-0.1,1.5,0.5,1.7C259.9,514.8,260.2,514.7,260.5,514.5z"/>
		<path class="st20" d="M262.9,517.1l0.4-1.5l0.7,0.2l2.8-9.8l-0.7-0.2l0.4-1.5l2.3,0.7l-2.3,8l0,0l2.1-2.4l-0.7-0.2l0.4-1.4
			l2.9,0.8l-0.4,1.5l-0.7-0.2l-1.9,2.2l0.3,3.8l0.7,0.2l-0.4,1.5l-1.7-0.5l-0.5-5.1l0,0l-0.9,3.1l0.7,0.2l-0.4,1.5L262.9,517.1z"/>
		<path class="st20" d="M275.5,519.1l-0.4,1.5l-2.3-0.7l0.2-0.8l0,0c-0.5,0.5-1.1,0.6-1.7,0.4c-0.6-0.2-0.9-0.5-1.2-1.2
			c-0.2-0.6-0.2-1.3,0-2.1c0.3-0.9,0.7-1.5,1.2-1.9c0.5-0.4,1.1-0.5,1.7-0.3c0.5,0.1,0.9,0.5,1.1,1l0.4-1.5c0.2-0.6,0.2-1,0.1-1.2
			c-0.1-0.2-0.3-0.3-0.5-0.4c-0.5-0.2-0.9,0.1-1.2,0.9l-1.3-0.8c0.3-0.6,0.7-1.1,1.3-1.3c0.5-0.2,1.1-0.3,1.7-0.1
			c0.7,0.2,1.2,0.6,1.5,1.1c0.3,0.6,0.4,1.2,0.1,2l-1.5,5.2L275.5,519.1z M273.3,518.2l0.6-2c-0.2-0.3-0.4-0.6-0.7-0.6
			c-0.6-0.2-1,0.2-1.3,1.2c-0.3,0.9-0.1,1.5,0.5,1.7C272.7,518.5,273,518.4,273.3,518.2z"/>
		<path class="st20" d="M275.8,520.8l0.4-1.5l0.7,0.2l1.7-5.9l-0.7-0.2l0.4-1.5l2.3,0.7l-0.2,0.7l0,0c0.5-0.4,1-0.6,1.6-0.4
			c0.5,0.1,0.8,0.4,0.9,0.9c0.2,0.5,0.1,1-0.1,1.7l-1.5,5.3l0.7,0.2l-0.4,1.5l-2.2-0.6l1.9-6.5c0.1-0.4,0.1-0.6,0.1-0.8
			c0-0.2-0.1-0.3-0.3-0.3c-0.2-0.1-0.4,0-0.6,0.1c-0.2,0.1-0.3,0.2-0.3,0.3l-1.6,5.4l0.7,0.2l-0.4,1.5L275.8,520.8z"/>
		<path class="st20" d="M288.1,524.3l-2.3-0.7l0.3-0.9l0,0c-0.3,0.3-0.5,0.5-0.8,0.6c-0.2,0.1-0.5,0.1-0.9,0c-0.6-0.2-1-0.7-1.2-1.6
			s0-2,0.4-3.4c0.5-1.7,1-2.9,1.5-3.6c0.5-0.6,1.1-0.9,1.8-0.7c0.5,0.2,0.9,0.5,1.1,1.2l0,0l0.9-3l-1-0.3l0.4-1.5l2.6,0.8l-3.2,11.3
			l0.8,0.2L288.1,524.3z M287,519.4l0.4-1.4c0.2-0.7,0.3-1.3,0.3-1.6c0-0.4-0.2-0.6-0.5-0.7c-0.3-0.1-0.6,0-0.8,0.4
			c-0.2,0.4-0.5,1-0.8,2l-0.6,2c-0.3,1.1-0.2,1.7,0.4,1.9c0.4,0.1,0.6,0,0.9-0.3C286.4,521.4,286.7,520.6,287,519.4z"/>
		<path class="st20" d="M295.1,524.8l-0.4,1.5l-2.3-0.7l0.2-0.8l0,0c-0.5,0.5-1.1,0.6-1.7,0.4c-0.6-0.2-0.9-0.5-1.2-1.2
			c-0.2-0.6-0.2-1.3,0-2.1c0.3-0.9,0.7-1.5,1.2-1.9c0.5-0.4,1.1-0.5,1.7-0.3c0.5,0.1,0.9,0.5,1.1,1l0.4-1.5c0.2-0.6,0.2-1,0.1-1.2
			c-0.1-0.2-0.3-0.3-0.5-0.4c-0.5-0.2-0.9,0.1-1.2,0.9l-1.3-0.8c0.3-0.6,0.7-1.1,1.3-1.3c0.5-0.2,1.1-0.3,1.7-0.1
			c0.7,0.2,1.2,0.6,1.5,1.1c0.3,0.6,0.4,1.2,0.1,2l-1.5,5.2L295.1,524.8z M292.9,523.8l0.6-2c-0.2-0.3-0.4-0.6-0.7-0.6
			c-0.6-0.2-1,0.2-1.3,1.2c-0.3,0.9-0.1,1.5,0.5,1.7C292.3,524.1,292.6,524.1,292.9,523.8z"/>
		<path class="st20" d="M248.7,535.4l1.3-4.4l1.5,0.4l-0.3,1.2c-0.2,0.7-0.3,1.2-0.2,1.5c0.1,0.3,0.3,0.5,0.6,0.6
			c0.3,0.1,0.5,0,0.8-0.1s0.4-0.5,0.5-0.8c0.1-0.3,0.1-0.7,0.1-1.1s-0.1-0.8-0.1-1.1c-0.1-0.3-0.3-1-0.8-2c-0.4-1.1-0.7-1.9-0.8-2.5
			c-0.1-0.6,0-1.2,0.2-1.9c0.2-0.8,0.6-1.5,1.2-1.9c0.5-0.4,1.1-0.5,1.7-0.4c0.5,0.1,0.9,0.5,1.1,1l0.1-0.4l1.5,0.4l-1.1,3.8
			l-1.5-0.4l0.3-1c0.2-0.5,0.2-0.9,0.1-1.2c-0.1-0.3-0.2-0.5-0.5-0.5c-0.5-0.1-0.8,0.1-1,0.7c-0.1,0.4-0.1,0.8-0.1,1.2
			c0,0.4,0.2,0.9,0.4,1.5l0.5,1.2c0.8,1.8,1,3.4,0.6,4.8c-0.3,0.9-0.7,1.6-1.3,2c-0.6,0.5-1.2,0.6-1.9,0.4c-0.5-0.2-0.9-0.5-1.2-1
			l-0.1,0.4L248.7,535.4z"/>
		<path class="st20" d="M259.3,530.5l-1.5,5.2c-0.2,0.6,0,0.9,0.5,1.1c0.2,0,0.4,0.1,0.7,0l-0.4,1.4c-0.4,0-0.8,0-1.3-0.2
			c-0.6-0.2-1-0.5-1.1-0.9c-0.2-0.4-0.1-1.1,0.1-1.9l1.5-5.2l-0.8-0.2l0.4-1.5l0.8,0.2l0.4-1.5c0.6-0.2,1.3-0.4,1.9-0.7l-0.8,2.6
			l1.1,0.3l-0.4,1.5L259.3,530.5z"/>
		<path class="st20" d="M267,531.1l-2.1,7.4l0.7,0.2l-0.4,1.5l-2.3-0.7l0.2-0.7l0,0c-0.5,0.4-1.1,0.6-1.6,0.4
			c-1-0.3-1.3-1.2-0.9-2.6l1.5-5.3l-0.7-0.2l0.4-1.5l2.3,0.7l-1.9,6.5c-0.1,0.4-0.1,0.6-0.1,0.8c0,0.2,0.1,0.3,0.3,0.3
			c0.2,0.1,0.4,0,0.6-0.1c0.2-0.1,0.3-0.2,0.3-0.3l1.6-5.4l-0.8-0.2l0.4-1.5L267,531.1z"/>
		<path class="st20" d="M271.6,542.1l-2.3-0.7l0.3-0.9l0,0c-0.3,0.3-0.5,0.5-0.8,0.6c-0.2,0.1-0.5,0.1-0.8,0c-0.6-0.2-1-0.7-1.2-1.6
			c-0.1-0.9,0-2,0.4-3.4c0.5-1.7,1-2.9,1.5-3.6c0.5-0.6,1.1-0.9,1.8-0.7c0.5,0.2,0.9,0.5,1.1,1.2l0,0l0.9-3l-1-0.3l0.4-1.5l2.6,0.8
			l-3.2,11.3l0.8,0.2L271.6,542.1z M270.5,537.2l0.4-1.4c0.2-0.7,0.3-1.3,0.3-1.6c0-0.4-0.2-0.6-0.5-0.7c-0.3-0.1-0.6,0-0.8,0.4
			c-0.2,0.4-0.5,1-0.8,2l-0.6,2c-0.3,1.1-0.2,1.7,0.4,1.9c0.4,0.1,0.6,0,0.9-0.3C269.9,539.1,270.2,538.3,270.5,537.2z"/>
		<path class="st20" d="M273.6,541l1.7-5.9l-0.6-0.2l0.4-1.5l2.2,0.6l-2.1,7.4l0.5,0.1l-0.4,1.5l-2.7-0.8l0.4-1.5L273.6,541z
			 M277.6,529.8c0.3,0.1,0.5,0.3,0.6,0.5c0.1,0.3,0.2,0.5,0.1,0.8c-0.1,0.3-0.2,0.5-0.5,0.6c-0.3,0.1-0.5,0.2-0.8,0.1
			c-0.3-0.1-0.5-0.3-0.6-0.5c-0.1-0.3-0.2-0.5-0.1-0.8c0.1-0.3,0.3-0.5,0.5-0.6S277.4,529.7,277.6,529.8z"/>
		<path class="st20" d="M278.7,544.3c-0.8-0.2-1.3-0.8-1.5-1.7c-0.2-0.9,0-2.1,0.4-3.7c0.5-1.6,1-2.7,1.6-3.4
			c0.6-0.6,1.3-0.8,2.1-0.6c1.6,0.5,2,2.2,1.1,5.3C281.5,543.5,280.3,544.8,278.7,544.3z M281,536.5c-0.3-0.1-0.5,0.1-0.7,0.5
			s-0.5,1.2-0.9,2.5c-0.3,0.9-0.4,1.6-0.5,2.1c-0.1,0.5-0.1,0.8,0,1c0.1,0.2,0.2,0.3,0.4,0.3c0.3,0.1,0.6-0.1,0.8-0.6
			c0.2-0.5,0.5-1.3,0.8-2.4c0.4-1.3,0.6-2.1,0.6-2.6C281.4,536.9,281.2,536.6,281,536.5z"/>
	</g>
	<g>
		<path class="st20" d="M377.8,508.8l-2-11.8H375v-1.6h3.4v1.6h-0.8c0.5,2.6,0.9,5.3,1.1,8c0.3-2.7,0.6-5.4,1.1-8H379v-1.6h3.1v1.6
			h-0.8c0.5,2.8,0.9,5.5,1.1,8c0.1-2.4,0.5-5,1-8h-0.8v-1.6h3.1v1.6h-0.7l-1.9,11.8h-1.5c-0.7-3.4-1.1-5.9-1.3-7.6
			c-0.1,1.3-0.5,3.8-1.1,7.6H377.8z"/>
		<path class="st20" d="M391.1,507.1v1.5h-2.4v-0.8h0c-0.4,0.6-0.9,0.9-1.5,0.9c-0.6,0-1.1-0.3-1.4-0.8c-0.4-0.5-0.6-1.2-0.6-2.1
			c0-0.9,0.2-1.7,0.6-2.2s0.9-0.8,1.6-0.8c0.5,0,1,0.2,1.3,0.7v-1.6c0-0.6-0.1-1-0.2-1.2c-0.1-0.2-0.4-0.3-0.6-0.3
			c-0.5,0-0.8,0.4-0.9,1.2l-1.5-0.4c0.1-0.7,0.4-1.2,0.8-1.6c0.4-0.4,1-0.6,1.6-0.6c0.7,0,1.3,0.2,1.7,0.7c0.5,0.5,0.7,1.1,0.7,1.9
			v5.4H391.1z M388.7,506.9v-2c-0.2-0.3-0.5-0.4-0.8-0.4c-0.6,0-0.9,0.5-0.9,1.5c0,1,0.3,1.5,0.9,1.5
			C388.2,507.3,388.5,507.2,388.7,506.9z"/>
		<path class="st20" d="M391.7,508.7v-1.5h0.7V497h-0.7v-1.5h2.4v8.4h0l1.4-2.9h-0.8v-1.5h3v1.5H397l-1.3,2.6l1.4,3.6h0.7v1.5H396
			l-1.9-4.8h0v3.3h0.8v1.5H391.7z"/>
		<path class="st20" d="M404.4,507.1v1.5H402v-0.8h0c-0.4,0.6-0.9,0.9-1.5,0.9c-0.6,0-1.1-0.3-1.4-0.8c-0.4-0.5-0.6-1.2-0.6-2.1
			c0-0.9,0.2-1.7,0.6-2.2s0.9-0.8,1.6-0.8c0.5,0,1,0.2,1.3,0.7v-1.6c0-0.6-0.1-1-0.2-1.2c-0.1-0.2-0.4-0.3-0.6-0.3
			c-0.5,0-0.8,0.4-0.9,1.2l-1.5-0.4c0.1-0.7,0.4-1.2,0.8-1.6c0.4-0.4,1-0.6,1.6-0.6c0.7,0,1.3,0.2,1.7,0.7c0.5,0.5,0.7,1.1,0.7,1.9
			v5.4H404.4z M402,506.9v-2c-0.2-0.3-0.5-0.4-0.8-0.4c-0.6,0-0.9,0.5-0.9,1.5c0,1,0.3,1.5,0.9,1.5
			C401.5,507.3,401.8,507.2,402,506.9z"/>
		<path class="st20" d="M405.1,508.7v-1.5h0.7V501h-0.7v-1.5h2.4v0.7h0c0.4-0.6,0.8-0.8,1.4-0.8c0.5,0,0.9,0.2,1.1,0.6
			s0.4,1,0.4,1.7v5.5h0.7v1.5h-2.3v-6.8c0-0.4,0-0.6-0.1-0.8c-0.1-0.1-0.2-0.2-0.4-0.2c-0.2,0-0.4,0.1-0.6,0.3s-0.3,0.3-0.3,0.4v5.6
			h0.7v1.5H405.1z"/>
		<path class="st20" d="M418,508.7h-2.4v-0.9h0c-0.2,0.3-0.4,0.6-0.6,0.8s-0.5,0.3-0.8,0.3c-0.7,0-1.2-0.4-1.6-1.2s-0.5-1.9-0.5-3.4
			c0-1.8,0.2-3.1,0.5-3.8s0.8-1.1,1.6-1.1c0.6,0,1,0.3,1.4,0.8h0V497h-1.1v-1.5h2.7v11.7h0.8V508.7z M415.6,504.3v-1.5
			c0-0.8-0.1-1.3-0.2-1.6c-0.1-0.3-0.4-0.5-0.7-0.5c-0.3,0-0.6,0.2-0.7,0.6c-0.1,0.4-0.2,1.1-0.2,2.2v2.1c0,1.1,0.3,1.7,0.9,1.7
			c0.4,0,0.6-0.2,0.7-0.6C415.5,506.3,415.6,505.5,415.6,504.3z"/>
		<path class="st20" d="M424.8,507.1v1.5h-2.4v-0.8h0c-0.4,0.6-0.9,0.9-1.5,0.9c-0.6,0-1.1-0.3-1.4-0.8c-0.4-0.5-0.6-1.2-0.6-2.1
			c0-0.9,0.2-1.7,0.6-2.2s0.9-0.8,1.6-0.8c0.5,0,1,0.2,1.3,0.7v-1.6c0-0.6-0.1-1-0.2-1.2c-0.2-0.2-0.4-0.3-0.6-0.3
			c-0.5,0-0.8,0.4-0.9,1.2l-1.5-0.4c0.1-0.7,0.4-1.2,0.8-1.6c0.4-0.4,1-0.6,1.6-0.6c0.7,0,1.3,0.2,1.7,0.7c0.5,0.5,0.7,1.1,0.7,1.9
			v5.4H424.8z M422.5,506.9v-2c-0.2-0.3-0.5-0.4-0.8-0.4c-0.6,0-0.9,0.5-0.9,1.5c0,1,0.3,1.5,0.9,1.5
			C421.9,507.3,422.2,507.2,422.5,506.9z"/>
		<path class="st20" d="M383.2,530.3v-4.6h1.6v1.2c0,0.7,0.1,1.2,0.2,1.5c0.1,0.3,0.4,0.4,0.8,0.4c0.3,0,0.5-0.1,0.7-0.4
			c0.2-0.2,0.3-0.5,0.3-0.9c0-0.3-0.1-0.7-0.2-1.1c-0.1-0.4-0.3-0.7-0.4-1c-0.2-0.3-0.6-0.8-1.3-1.7c-0.7-0.9-1.2-1.6-1.4-2.2
			c-0.2-0.5-0.4-1.2-0.4-1.9c0-0.9,0.2-1.6,0.6-2.1s0.9-0.8,1.5-0.8c0.5,0,1,0.2,1.3,0.6V517h1.6v4h-1.6v-1c0-0.6-0.1-0.9-0.2-1.2
			s-0.4-0.4-0.7-0.4c-0.5,0-0.8,0.3-0.8,1c0,0.4,0.1,0.8,0.2,1.2c0.2,0.4,0.4,0.8,0.8,1.3l0.8,1c1.2,1.5,1.9,3,1.9,4.4
			c0,0.9-0.2,1.7-0.7,2.3c-0.4,0.6-1,0.9-1.7,0.9c-0.5,0-1-0.2-1.4-0.6v0.4H383.2z"/>
		<path class="st20" d="M392,522.6v5.4c0,0.6,0.2,0.9,0.7,0.9c0.2,0,0.4-0.1,0.7-0.2v1.4c-0.4,0.1-0.8,0.2-1.3,0.2
			c-0.6,0-1.1-0.2-1.3-0.6c-0.3-0.4-0.4-1-0.4-1.8v-5.4h-0.8V521h0.8v-1.5c0.6-0.4,1.1-0.8,1.7-1.2v2.7h1.1v1.5H392z"/>
		<path class="st20" d="M399.6,521v7.7h0.7v1.5h-2.4v-0.7h0c-0.4,0.6-0.9,0.8-1.4,0.8c-1,0-1.6-0.8-1.6-2.3v-5.5h-0.8V521h2.4v6.8
			c0,0.4,0,0.6,0.1,0.8c0.1,0.2,0.2,0.2,0.4,0.2c0.2,0,0.4-0.1,0.6-0.3s0.3-0.3,0.3-0.4v-5.6h-0.8V521H399.6z"/>
		<path class="st20" d="M407.1,530.3h-2.4v-0.9h0c-0.2,0.3-0.4,0.6-0.6,0.8s-0.5,0.3-0.8,0.3c-0.7,0-1.2-0.4-1.6-1.2
			s-0.5-1.9-0.5-3.4c0-1.8,0.2-3.1,0.5-3.8s0.8-1.1,1.6-1.1c0.6,0,1,0.3,1.4,0.8h0v-3.1h-1.1V517h2.7v11.7h0.8V530.3z M404.6,525.9
			v-1.5c0-0.8-0.1-1.3-0.2-1.6c-0.1-0.3-0.4-0.5-0.7-0.5c-0.3,0-0.6,0.2-0.7,0.6c-0.1,0.4-0.2,1.1-0.2,2.2v2.1
			c0,1.1,0.3,1.7,0.9,1.7c0.4,0,0.6-0.2,0.7-0.6C404.6,527.9,404.6,527.1,404.6,525.9z"/>
		<path class="st20" d="M408.7,528.7v-6.2H408V521h2.3v7.7h0.5v1.5H408v-1.5H408.7z M409.4,516.8c0.3,0,0.6,0.1,0.8,0.3
			s0.3,0.5,0.3,0.8c0,0.3-0.1,0.5-0.3,0.8c-0.2,0.2-0.5,0.3-0.8,0.3c-0.3,0-0.5-0.1-0.8-0.3c-0.2-0.2-0.3-0.5-0.3-0.8
			c0-0.3,0.1-0.6,0.3-0.8S409.1,516.8,409.4,516.8z"/>
		<path class="st20" d="M414.5,530.5c-0.9,0-1.5-0.4-1.9-1.2s-0.6-2-0.6-3.7c0-1.7,0.2-2.9,0.6-3.7s1-1.2,1.9-1.2
			c1.7,0,2.5,1.6,2.5,4.8C417,528.9,416.1,530.5,414.5,530.5z M414.5,522.4c-0.3,0-0.5,0.2-0.6,0.6c-0.1,0.4-0.2,1.3-0.2,2.6
			c0,1,0,1.7,0.1,2.2c0,0.5,0.1,0.8,0.2,0.9c0.1,0.2,0.3,0.2,0.5,0.2c0.3,0,0.5-0.3,0.6-0.8c0.1-0.5,0.1-1.4,0.1-2.6
			c0-1.3-0.1-2.2-0.2-2.6C415,522.6,414.8,522.4,414.5,522.4z"/>
	</g>
	<g>
		<path class="st20" d="M483.4,504.9v-1.6h1v-10h-1v-1.6h6.1v3.9h-1.6v-2.3h-1.7v4h1.4v1.6h-1.4v4.4h1.1v1.6H483.4z"/>
		<path class="st20" d="M495.5,495.7v7.7h0.7v1.5h-2.4v-0.7h0c-0.4,0.6-0.9,0.8-1.4,0.8c-1,0-1.6-0.8-1.6-2.3v-5.5h-0.8v-1.5h2.4
			v6.8c0,0.4,0,0.6,0.1,0.8c0.1,0.2,0.2,0.2,0.4,0.2c0.2,0,0.4-0.1,0.6-0.3c0.2-0.2,0.3-0.3,0.3-0.4v-5.6H493v-1.5H495.5z"/>
		<path class="st20" d="M497.6,503.4v-10.2H497v-1.5h2.3v11.7h0.5v1.5H497v-1.5H497.6z"/>
		<path class="st20" d="M501.2,503.4v-10.2h-0.7v-1.5h2.3v11.7h0.5v1.5h-2.8v-1.5H501.2z"/>
		<path class="st20" d="M504.3,504.9v-3.2h1.5c0,1.2,0.3,1.8,0.8,1.8c0.4,0,0.6-0.3,0.6-0.8c0-0.5-0.1-0.8-0.3-1
			c-0.2-0.2-0.5-0.5-1-0.9c-0.6-0.5-1-0.9-1.3-1.3c-0.3-0.4-0.4-0.9-0.4-1.5c0-0.7,0.2-1.3,0.5-1.7c0.3-0.5,0.7-0.7,1.2-0.7
			c0.5,0,0.9,0.3,1.2,0.8h0v-0.7h1.5v3h-1.5c0-0.7,0-1.1-0.2-1.4c-0.1-0.2-0.3-0.3-0.5-0.3c-0.4,0-0.5,0.3-0.5,0.8
			c0,0.4,0.1,0.7,0.2,0.9c0.2,0.2,0.5,0.5,0.9,0.8c0.7,0.5,1.1,0.9,1.4,1.4c0.3,0.4,0.4,1,0.4,1.7c0,0.7-0.2,1.3-0.5,1.7
			s-0.8,0.7-1.2,0.7c-0.5,0-0.9-0.3-1.2-0.8h0v0.7H504.3z"/>
		<path class="st20" d="M512.1,497.2v5.4c0,0.6,0.2,0.9,0.7,0.9c0.2,0,0.4-0.1,0.7-0.2v1.4c-0.4,0.1-0.8,0.2-1.3,0.2
			c-0.6,0-1.1-0.2-1.3-0.6c-0.3-0.4-0.4-1-0.4-1.8v-5.4h-0.8v-1.5h0.8v-1.5c0.6-0.4,1.1-0.8,1.7-1.2v2.7h1.1v1.5H512.1z"/>
		<path class="st20" d="M520.4,503.4v1.5H518v-0.8h0c-0.4,0.6-0.9,0.9-1.5,0.9c-0.6,0-1.1-0.3-1.4-0.8c-0.4-0.5-0.6-1.2-0.6-2.1
			c0-0.9,0.2-1.7,0.6-2.2s0.9-0.8,1.6-0.8c0.5,0,1,0.2,1.3,0.7v-1.6c0-0.6-0.1-1-0.2-1.2c-0.2-0.2-0.4-0.3-0.6-0.3
			c-0.5,0-0.8,0.4-0.9,1.2l-1.5-0.4c0.1-0.7,0.4-1.2,0.8-1.6c0.4-0.4,1-0.6,1.6-0.6c0.7,0,1.3,0.2,1.7,0.7c0.5,0.5,0.7,1.1,0.7,1.9
			v5.4H520.4z M518,503.1v-2c-0.2-0.3-0.5-0.4-0.8-0.4c-0.6,0-0.9,0.5-0.9,1.5c0,1,0.3,1.5,0.9,1.5
			C517.5,503.6,517.8,503.4,518,503.1z"/>
		<path class="st20" d="M524.8,501.6l1.5,0.6c0,0.9-0.3,1.7-0.7,2.2s-1,0.8-1.7,0.8c-0.9,0-1.6-0.4-2-1.1s-0.6-2-0.6-3.7
			c0-1.7,0.2-2.9,0.5-3.6c0.3-0.7,0.9-1.1,1.6-1.1c0.6,0,1,0.3,1.3,0.9h0v-0.8h1.5v3.3h-1.5c0-0.7-0.1-1.3-0.2-1.6
			c-0.1-0.3-0.4-0.4-0.7-0.4c-0.4,0-0.6,0.2-0.7,0.6c-0.1,0.4-0.2,1.1-0.2,2v1.4c0,1,0.1,1.7,0.2,2c0.1,0.4,0.4,0.6,0.7,0.6
			c0.3,0,0.6-0.1,0.7-0.4C524.8,502.9,524.8,502.3,524.8,501.6z"/>
		<path class="st20" d="M527.1,504.9v-1.5h0.7v-10.2h-0.7v-1.5h2.4v8.4h0l1.4-2.9h-0.8v-1.5h3v1.5h-0.7l-1.3,2.6l1.4,3.6h0.7v1.5
			h-1.8l-1.9-4.8h0v3.3h0.8v1.5H527.1z"/>
		<path class="st20" d="M539.8,493.3v-1.6h3.7v1.6h-0.9v12.2c0,1.7-0.7,2.6-2.2,2.6c-0.3,0-0.6,0-0.9-0.1v-1.5
			c0.2,0,0.4,0.1,0.5,0.1c0.3,0,0.5-0.1,0.6-0.3c0.1-0.2,0.1-0.5,0.1-1v-12H539.8z"/>
		<path class="st20" d="M544.8,504.9v-4.6h1.6v1.2c0,0.7,0.1,1.2,0.2,1.5s0.4,0.4,0.8,0.4c0.3,0,0.5-0.1,0.7-0.4
			c0.2-0.2,0.3-0.5,0.3-0.9c0-0.3-0.1-0.7-0.2-1.1c-0.1-0.4-0.3-0.7-0.4-1c-0.2-0.3-0.6-0.8-1.3-1.7c-0.7-0.9-1.2-1.6-1.4-2.2
			c-0.2-0.5-0.4-1.2-0.4-1.9c0-0.9,0.2-1.6,0.6-2.1s0.9-0.8,1.5-0.8c0.5,0,1,0.2,1.3,0.6v-0.4h1.6v4h-1.6v-1c0-0.6-0.1-0.9-0.2-1.2
			s-0.4-0.4-0.7-0.4c-0.5,0-0.8,0.3-0.8,1c0,0.4,0.1,0.8,0.2,1.2c0.2,0.4,0.4,0.8,0.8,1.3l0.8,1c1.2,1.5,1.9,3,1.9,4.4
			c0,0.9-0.2,1.7-0.7,2.3s-1,0.9-1.7,0.9c-0.5,0-1-0.2-1.4-0.6v0.4H544.8z"/>
		<path class="st20" d="M494.1,524.9v-10H493v-1.6h3.3c1.1,0,2,0.4,2.7,1.1c0.6,0.7,1,1.7,1,3c0,1.3-0.3,2.3-0.9,3s-1.6,1.1-3.1,1.1
			v3.5h1.1v1.6H493v-1.6H494.1z M496,514.9v4.9c0.4,0,0.8,0,1-0.1c0.3-0.1,0.5-0.3,0.7-0.7s0.3-0.9,0.3-1.7c0-1-0.2-1.6-0.5-2
			C497.1,515,496.6,514.9,496,514.9z"/>
		<path class="st20" d="M501.1,525v-10.2h-0.7v-1.5h2.3V525h0.5v1.5h-2.8V525H501.1z"/>
		<path class="st20" d="M510.1,525v1.5h-2.4v-0.8h0c-0.4,0.6-0.9,0.9-1.5,0.9c-0.6,0-1.1-0.3-1.4-0.8c-0.4-0.5-0.6-1.2-0.6-2.1
			c0-0.9,0.2-1.7,0.6-2.2s0.9-0.8,1.6-0.8c0.5,0,1,0.2,1.3,0.7v-1.6c0-0.6-0.1-1-0.2-1.2c-0.2-0.2-0.4-0.3-0.6-0.3
			c-0.5,0-0.8,0.4-0.9,1.2l-1.5-0.4c0.1-0.7,0.4-1.2,0.8-1.6c0.4-0.4,1-0.6,1.6-0.6c0.7,0,1.3,0.2,1.7,0.7c0.5,0.5,0.7,1.1,0.7,1.9
			v5.4H510.1z M507.8,524.7v-2c-0.2-0.3-0.5-0.4-0.8-0.4c-0.6,0-0.9,0.5-0.9,1.5c0,1,0.3,1.5,0.9,1.5
			C507.2,525.2,507.5,525,507.8,524.7z"/>
		<path class="st20" d="M513.1,518.8v5.4c0,0.6,0.2,0.9,0.7,0.9c0.2,0,0.4-0.1,0.7-0.2v1.4c-0.4,0.1-0.8,0.2-1.3,0.2
			c-0.6,0-1.1-0.2-1.3-0.6c-0.3-0.4-0.4-1-0.4-1.8v-5.4h-0.8v-1.5h0.8v-1.5c0.6-0.4,1.1-0.8,1.7-1.2v2.7h1.1v1.5H513.1z"/>
		<path class="st20" d="M515.4,526.5V525h0.9v-6.2h-0.9v-1.5h0.9v-1.4c0-0.9,0.2-1.5,0.6-2s1-0.8,1.7-0.8c1,0,1.7,0.5,2,1.6
			l-1.5,0.5L519,515c-0.1-0.4-0.3-0.5-0.6-0.5c-0.2,0-0.4,0.1-0.4,0.3s-0.1,0.6-0.1,1v1.4h1.2v1.5h-1.2v6.2h1.3v1.5H515.4z"/>
		<path class="st20" d="M522.5,526.7c-0.9,0-1.5-0.4-1.9-1.2s-0.6-2-0.6-3.7c0-1.7,0.2-2.9,0.6-3.7s1-1.2,1.9-1.2
			c1.7,0,2.5,1.6,2.5,4.8C525,525.1,524.2,526.7,522.5,526.7z M522.5,518.6c-0.3,0-0.5,0.2-0.6,0.6c-0.1,0.4-0.2,1.3-0.2,2.6
			c0,1,0,1.7,0.1,2.2c0,0.5,0.1,0.8,0.2,0.9c0.1,0.2,0.3,0.2,0.5,0.2c0.3,0,0.5-0.3,0.6-0.8c0.1-0.5,0.1-1.4,0.1-2.6
			c0-1.3-0.1-2.2-0.2-2.6C523,518.8,522.8,518.6,522.5,518.6z"/>
		<path class="st20" d="M526,526.5V525h0.8v-6.2H526v-1.5h2.5v1.8h0c0.3-0.8,0.6-1.3,0.9-1.5s0.7-0.4,1.3-0.4v1.7
			c-1.5,0-2.2,0.8-2.2,2.5v3.6h0.9v1.5H526z"/>
		<path class="st20" d="M531.8,526.5V525h0.7v-6.2h-0.7v-1.5h2.4v0.8h0c0.4-0.6,0.9-0.9,1.4-0.9c0.6,0,1,0.3,1.3,0.9
			c0.4-0.6,0.9-0.9,1.5-0.9c1.2,0,1.7,0.8,1.7,2.5v5.3h0.7v1.5h-2.3v-6.8c0-0.4,0-0.7-0.1-0.8s-0.2-0.2-0.4-0.2
			c-0.2,0-0.4,0.1-0.6,0.3c-0.2,0.2-0.3,0.3-0.3,0.4v5.7h0.7v1.5h-2.3v-6.8c0-0.4,0-0.7-0.1-0.8s-0.2-0.2-0.4-0.2
			c-0.3,0-0.6,0.2-0.8,0.6v5.7h0.7v1.5H531.8z"/>
	</g>
</g>
</svg>
